<svg width="23" height="24" viewBox="0 0 23 24" fill="none" xmlns="http://www.w3.org/2000/svg">
<path fill-rule="evenodd" clip-rule="evenodd" d="M12.5199 3.48271C12.5949 3.43562 12.6711 3.38779 12.7488 3.33892C12.9201 3.68878 12.8955 4.0393 12.7323 4.39072C12.6045 4.66595 12.3678 4.82312 12.1279 4.98245C12.1177 4.98926 12.1074 4.99607 12.0972 5.00289C11.8817 5.14635 11.8292 5.39794 11.9488 5.6116C12.064 5.81752 12.3224 5.89893 12.5504 5.80125C13.9524 5.20041 14.2359 3.1912 13.0561 2.21518C12.8524 2.04664 12.5678 2.0338 12.4176 2.24008C12.1695 2.58071 11.8351 2.79884 11.4951 3.02065C11.4547 3.04697 11.4143 3.07335 11.3739 3.09999C10.7329 3.52275 10.5475 4.57145 10.9724 5.22017C11.1021 5.41811 11.3358 5.49364 11.5417 5.40412C11.7514 5.31292 11.8632 5.09626 11.8093 4.86922C11.7966 4.81598 11.7769 4.76447 11.7571 4.71289C11.7428 4.67554 11.7284 4.63816 11.7168 4.60006C11.6222 4.29112 11.7325 3.97781 11.9908 3.81527C12.1648 3.7057 12.339 3.59633 12.5199 3.48271ZM9.97492 10.8294V11.0944H9.67618C9.29509 11.0944 8.91401 11.0944 8.53293 11.0943C7.37636 11.0943 6.2198 11.0942 5.06325 11.0948C4.74867 11.0949 4.43815 11.1215 4.15111 11.2676C3.46987 11.6143 3.15283 12.1804 3.15259 12.9345C3.15209 14.2901 3.15216 15.6458 3.15223 17.0014C3.15226 17.5984 3.15229 18.1955 3.15227 18.7925V19.0397C3.13228 19.0441 3.11394 19.0485 3.09665 19.0526C3.06245 19.0607 3.03239 19.0678 3.00198 19.073C2.62986 19.1358 2.34135 19.3464 2.29419 19.7106C2.23731 20.1494 2.23222 20.6088 2.29726 21.0456C2.36206 21.4811 2.73966 21.6919 3.2538 21.692C8.60838 21.6922 13.9629 21.6922 19.3175 21.6921C19.3263 21.6921 19.3351 21.6921 19.3439 21.6921C19.3827 21.6922 19.4216 21.6923 19.4603 21.6904C19.9065 21.6679 20.2536 21.3716 20.311 20.9292C20.3303 20.7806 20.3304 20.6297 20.3305 20.4787C20.3306 20.3708 20.3306 20.2629 20.3377 20.1557C20.3779 19.5467 20.0646 19.1049 19.4609 19.0426C19.4538 19.0419 19.4473 19.0359 19.4374 19.0268C19.4316 19.0216 19.4247 19.0152 19.4159 19.0083V18.7754C19.4159 18.2342 19.4157 17.693 19.4154 17.1518C19.4147 15.754 19.4141 14.3561 19.4178 12.9582C19.4195 12.3409 19.2151 11.8285 18.72 11.4459C18.3701 11.1755 17.9645 11.0901 17.533 11.0902C16.4056 11.0906 15.2783 11.0905 14.1509 11.0905C13.7202 11.0905 13.2895 11.0904 12.8588 11.0904H12.5975V10.8242C12.5975 10.4913 12.5972 10.1585 12.597 9.82557C12.5963 8.94057 12.5956 8.05558 12.5998 7.17062C12.6014 6.84344 12.4963 6.58695 12.2063 6.41991C12.1001 6.35876 11.9944 6.29672 11.8887 6.23469C11.6191 6.07647 11.3495 5.91826 11.0724 5.7746C10.9352 5.7035 10.7592 5.66162 10.6068 5.67458C10.2004 5.70926 9.97594 6.01168 9.97546 6.48178C9.97442 7.53027 9.9746 8.57879 9.97478 9.62729C9.97485 10.028 9.97492 10.4287 9.97492 10.8294ZM18.4157 14.8176L18.4585 14.8381V19.0437H4.10007V14.8214L4.14049 14.7947C4.20341 14.8699 4.26648 14.945 4.32955 15.0201C4.46885 15.186 4.60815 15.3519 4.74593 15.5191C5.01971 15.8512 5.36002 16.0726 5.78752 16.1478C6.41938 16.2589 6.96108 16.081 7.39482 15.6114C7.55129 15.4419 7.69595 15.2616 7.84063 15.0813C7.91327 14.9908 7.9859 14.9003 8.06004 14.8112C8.50596 14.2749 9.05483 14.2848 9.47339 14.8363C9.55488 14.9437 9.63584 15.0515 9.7168 15.1593C9.78696 15.2527 9.85713 15.3462 9.92763 15.4393C10.5858 16.3089 11.8427 16.3831 12.5865 15.5874C12.741 15.4221 12.8834 15.2458 13.0258 15.0694C13.1015 14.9756 13.1772 14.8819 13.2547 14.7898C13.6782 14.2866 14.2249 14.2966 14.6299 14.8153C14.7257 14.938 14.8199 15.062 14.914 15.186C14.9762 15.2678 15.0384 15.3497 15.101 15.4312C15.8049 16.3469 17.0881 16.3821 17.843 15.5047C17.9768 15.3491 18.1074 15.1908 18.238 15.0324C18.2971 14.9607 18.3562 14.8891 18.4157 14.8176ZM10.1441 12.0264C10.5222 12.0264 10.9004 12.0264 11.2785 12.0264C11.7704 12.0264 12.2623 12.0265 12.7542 12.0265C14.3513 12.0266 15.9484 12.0267 17.5455 12.0257C17.8208 12.0255 18.0968 12.0621 18.2602 12.2967C18.3739 12.46 18.4434 12.6721 18.4733 12.8713C18.507 13.0969 18.4929 13.3315 18.479 13.5619C18.4782 13.5761 18.4773 13.5904 18.4765 13.6046C18.4724 13.6722 18.4125 13.7716 18.3537 13.7949C18.0275 13.9242 17.7669 14.1326 17.5486 14.4015C17.5211 14.4354 17.4936 14.4693 17.4662 14.5033C17.3611 14.6334 17.256 14.7636 17.146 14.8895C16.7748 15.3144 16.2125 15.3052 15.8599 14.867C15.758 14.7403 15.6602 14.6103 15.5623 14.4803C15.4965 14.3928 15.4307 14.3054 15.3637 14.2189C14.6131 13.2508 13.3435 13.2308 12.5589 14.1747C12.4724 14.2788 12.3869 14.3837 12.3015 14.4886C12.2022 14.6105 12.1029 14.7324 12.002 14.853C11.6046 15.3276 11.0264 15.3179 10.6469 14.8294C10.5499 14.7044 10.4555 14.5774 10.3612 14.4503C10.2974 14.3644 10.2336 14.2785 10.1689 14.1932C9.4872 13.2936 8.22473 13.2352 7.47191 14.074C7.32441 14.2383 7.18514 14.41 7.04586 14.5817C6.97075 14.6743 6.89564 14.7669 6.81923 14.8583C6.38837 15.3742 5.85161 15.3727 5.42525 14.8576C5.37692 14.7993 5.32972 14.7396 5.28249 14.6799C5.15598 14.5199 5.02933 14.3598 4.88069 14.224C4.69391 14.0533 4.46759 13.9209 4.24445 13.7975C4.14335 13.7415 4.08466 13.7039 4.09018 13.5776C4.09625 13.4386 4.09515 13.2993 4.09405 13.16C4.09316 13.0475 4.09227 12.9349 4.09517 12.8224C4.10591 12.4053 4.37542 12.1041 4.78822 12.0437C4.88188 12.03 4.97791 12.0271 5.07277 12.0271C6.76325 12.0263 8.45369 12.0264 10.1441 12.0264ZM19.3905 20.7386H3.19534V19.9941H19.3905V20.7386ZM10.9117 8.44352C10.9118 8.36126 10.9119 8.27694 10.9119 8.1899C10.9774 8.22764 11.0405 8.26375 11.1019 8.29882C11.2767 8.39876 11.4367 8.49025 11.5937 8.58676C11.6314 8.60998 11.6663 8.67118 11.6671 8.71558C11.6718 8.95487 11.6713 9.19424 11.6708 9.45738C11.6706 9.54405 11.6705 9.6333 11.6705 9.72597C11.6056 9.68811 11.5426 9.65164 11.4813 9.61609C11.2932 9.50712 11.12 9.40673 10.9501 9.30105C10.9218 9.28341 10.9139 9.21712 10.9135 9.1732C10.9112 8.93668 10.9115 8.7001 10.9117 8.44352ZM11.6706 10.9116C11.6703 10.9677 11.6701 11.0244 11.6701 11.082H10.9268V9.9343C10.986 9.96868 11.0443 10.0023 11.1018 10.0355C11.2746 10.1352 11.4403 10.2309 11.6035 10.3307C11.6366 10.351 11.666 10.4053 11.6672 10.4448C11.6718 10.5987 11.6712 10.7528 11.6706 10.9116ZM11.6658 7.78773C11.6656 7.8521 11.6655 7.91852 11.6655 7.98771C11.5972 7.94841 11.5318 7.91123 11.4688 7.87537C11.2963 7.77722 11.1412 7.68902 10.9901 7.59458C10.9493 7.56908 10.9162 7.49966 10.9143 7.44926C10.9083 7.29228 10.9092 7.13506 10.9101 6.95991C10.9104 6.89293 10.9108 6.82332 10.9108 6.7501C10.9702 6.78452 11.0282 6.81801 11.0852 6.85088C11.2742 6.95995 11.4514 7.06218 11.626 7.16859C11.6516 7.18419 11.6633 7.23969 11.6639 7.27701C11.6664 7.44183 11.6661 7.6067 11.6658 7.78773Z" fill="black"/>
</svg>
