<svg width="31" height="30" viewBox="0 0 31 30" fill="none" xmlns="http://www.w3.org/2000/svg">
<path d="M28.0816 14.745C28.0511 14.3206 28.0439 13.8937 27.9945 13.4718C27.9111 12.759 27.7645 12.0573 27.5601 11.3682C27.0838 9.76204 26.3196 8.30456 25.2676 7.00426C24.2361 5.72942 23.0045 4.68413 21.5673 3.88492C20.8423 3.48173 20.086 3.15224 19.2996 2.89178C18.6599 2.67995 18.0056 2.5201 17.3398 2.4229C16.8821 2.35613 16.4175 2.33755 15.9562 2.29412C15.8884 2.28766 15.822 2.26619 15.7551 2.25H15.0007C14.9398 2.26642 14.8791 2.29077 14.8177 2.29302C12.8381 2.36555 10.9866 2.90026 9.25026 3.84242C8.34563 4.33339 7.51869 4.93502 6.76023 5.63182C5.52132 6.77009 4.54183 8.09896 3.82726 9.62113C3.34689 10.6442 3.01174 11.714 2.82409 12.8298C2.75031 13.2684 2.68703 13.7074 2.66913 14.1524C2.66726 14.198 2.64088 14.2427 2.625 14.2878V15.0603C2.6394 15.1249 2.66166 15.189 2.66532 15.2541C2.68532 15.6097 2.68322 15.9673 2.72073 16.3209C2.80113 17.0788 2.94575 17.8251 3.15831 18.5589C3.52061 19.8098 4.06565 20.9751 4.7845 22.0578C5.46863 23.0882 6.29892 23.9897 7.24651 24.7851C8.31007 25.6777 9.49451 26.3643 10.7874 26.8621C11.2313 27.0331 11.6933 27.1566 12.1435 27.312C12.804 27.54 13.4931 27.6136 14.1794 27.7035C14.3171 27.7215 14.4554 27.7346 14.5934 27.75H14.8612C14.7806 27.7357 14.7005 27.7124 14.6195 27.7085C13.9055 27.6732 13.2016 27.5696 12.5067 27.4033C12.3071 27.3555 12.3055 27.3546 12.3054 27.1516C12.3049 25.5524 12.3051 23.9531 12.3051 22.3538V18.8987C12.2028 18.89 12.1228 18.8775 12.0428 18.8773C11.3673 18.8757 10.6919 18.8764 10.0164 18.8764C9.96538 18.8764 9.91433 18.8778 9.86343 18.8755C9.7157 18.8688 9.7006 18.8543 9.69297 18.7086C9.69001 18.6514 9.6918 18.594 9.6918 18.5367V15.3636C9.6918 15.3253 9.69141 15.2871 9.69195 15.2489C9.69483 15.0294 9.70114 15.021 9.91712 15.0207C10.6117 15.0196 11.3063 15.0203 12.0009 15.0201C12.0582 15.02 12.1156 15.0182 12.173 15.0182C12.2576 15.0179 12.3041 14.9799 12.3033 14.8915C12.3029 14.8406 12.305 14.7896 12.305 14.7387C12.3051 14.1461 12.2921 13.5532 12.308 12.961C12.3328 12.0348 12.4468 11.1202 12.766 10.243C13.0943 9.34057 13.619 8.57956 14.4145 8.02401C14.9265 7.66642 15.4948 7.42901 16.0959 7.26636C16.5643 7.13959 17.0419 7.06099 17.5251 7.03305C17.9949 7.00589 18.4671 6.98216 18.9368 6.99928C19.6681 7.0259 20.3963 7.10363 21.1135 7.25966C21.2638 7.29235 21.2785 7.30403 21.2786 7.44403C21.28 8.5272 21.2788 9.61038 21.2776 10.6935C21.2776 10.7181 21.2691 10.7429 21.2613 10.7851C21.2142 10.7889 21.1663 10.7965 21.1186 10.796C20.5011 10.7888 19.8831 10.7616 19.2662 10.7789C18.8527 10.7906 18.4455 10.8848 18.0679 11.0703C17.4589 11.3696 17.1382 11.8835 17.0036 12.5269C16.9241 12.9071 16.8873 13.2909 16.9108 13.6828C16.932 14.0383 16.9158 14.3961 16.9164 14.7529C16.9165 14.8039 16.9178 14.8548 16.9199 14.9057C16.9225 14.9736 16.9579 15.0123 17.0263 15.0156C17.0899 15.0188 17.1537 15.02 17.2173 15.02C18.4026 15.0203 19.5879 15.0202 20.7732 15.0202H21.0395C21.0395 15.0929 21.0469 15.1421 21.0384 15.1884C20.8253 16.3589 20.6109 17.5291 20.3957 18.6992C20.3654 18.8641 20.3507 18.8757 20.1615 18.8759C19.1801 18.8768 18.1987 18.8766 17.2173 18.8763C16.8971 18.8762 16.9164 18.8712 16.9164 19.1819C16.9162 21.8962 16.9163 24.6105 16.9162 27.3249C16.9162 27.6484 16.9159 27.6474 16.5924 27.6652C16.3254 27.6798 16.0585 27.6953 15.7918 27.714C15.736 27.7179 15.6813 27.7376 15.626 27.75H15.9702C16.0254 27.7397 16.0802 27.7232 16.1359 27.72C16.4591 27.7018 16.7792 27.6754 17.0974 27.6003C17.4237 27.5234 17.7625 27.4999 18.0902 27.4272C19.2126 27.1784 20.29 26.7985 21.3049 26.2559C22.2058 25.7743 23.0442 25.2014 23.8089 24.5192C24.7712 23.6608 25.5941 22.6881 26.2621 21.5864C26.9458 20.4585 27.4505 19.2535 27.7492 17.9684C27.8609 17.4877 27.9229 16.9954 28.0046 16.5079C28.0752 16.0865 28.0832 15.6607 28.0898 15.2347C28.0906 15.1825 28.1104 15.1305 28.125 15.0784V14.9544C28.1083 14.8847 28.0867 14.8155 28.0816 14.745ZM20.3771 10.8063L20.3767 10.7937H20.5862L20.5867 10.8063H20.3771Z" fill="white"/>
</svg>
