<svg width="23" height="24" viewBox="0 0 23 24" fill="none" xmlns="http://www.w3.org/2000/svg">
<path fill-rule="evenodd" clip-rule="evenodd" d="M10.9518 3.58704C11.0565 3.62263 11.1609 3.65246 11.2633 3.6817C11.4774 3.74285 11.6825 3.80142 11.8618 3.9047C14.6899 5.5337 17.5109 7.17511 20.3318 8.81651L20.3323 8.81677L20.8401 9.11229C21.2919 9.37517 21.2894 9.86063 20.8341 10.1256L20.5564 10.2872C17.6586 11.9735 14.7607 13.6598 11.8578 15.3373C11.2312 15.6994 10.5934 15.6624 9.96756 15.2979C8.48847 14.4363 7.00819 13.5768 5.52792 12.7172L5.52662 12.7165C4.90907 12.3579 4.29151 11.9993 3.67404 11.6406C3.4187 11.4922 3.16432 11.3421 2.90994 11.1919L2.90986 11.1919L2.90985 11.1919C2.30561 10.8352 1.70137 10.4786 1.08416 10.146C0.627289 9.89984 0.648973 9.33676 1.08759 9.08521C2.73685 8.13934 4.38088 7.18437 6.02492 6.22939L6.02503 6.22933C7.35417 5.45727 8.68331 4.68521 10.0152 3.91795C10.2041 3.80917 10.4196 3.74676 10.6398 3.68301L10.6398 3.683C10.7435 3.65297 10.8483 3.62265 10.9518 3.58704ZM4.08344 13.1587L4.4008 13.3426L4.40199 13.3433C4.61768 13.4682 4.82058 13.5858 5.02332 13.7036C5.44099 13.9464 5.85878 14.1889 6.27658 14.4315L6.27698 14.4317C7.3051 15.0286 8.33322 15.6254 9.35948 16.2255C10.4262 16.8492 11.4842 16.8429 12.5496 16.2204C13.7648 15.5105 14.9821 14.8042 16.1994 14.098C16.6694 13.8253 17.1394 13.5527 17.6093 13.2798C17.6437 13.2598 17.6789 13.241 17.7216 13.2183C17.744 13.2063 17.7684 13.1933 17.7959 13.1784C17.7984 13.2064 17.8013 13.2321 17.8039 13.2564C17.8092 13.3044 17.8139 13.3466 17.814 13.3889C17.8145 13.7863 17.8144 14.1837 17.8144 14.5811C17.8143 15.0206 17.8142 15.4602 17.8149 15.8997C17.816 16.6056 17.5072 17.1353 16.9011 17.4872C16.6352 17.6415 16.3695 17.7962 16.1038 17.951L16.1033 17.9513L16.1033 17.9513C15.1316 18.5172 14.1599 19.0831 13.1779 19.6303C11.6751 20.4677 10.1563 20.4426 8.66222 19.6029C7.81165 19.1249 6.96851 18.6336 6.12537 18.1424L6.12519 18.1423C5.75102 17.9243 5.37685 17.7063 5.00203 17.4895C4.39341 17.1373 4.08266 16.6128 4.08325 15.9066C4.08377 15.2821 4.08366 14.6575 4.08354 14.0152V14.0147L4.08344 13.1587ZM21.0589 11.5698V11.2761C20.9367 11.3468 20.8187 11.4158 20.7036 11.4832C20.4213 11.6483 20.1558 11.8036 19.8857 11.9504C19.7501 12.0241 19.7117 12.1115 19.7122 12.2608C19.7153 13.0613 19.7156 13.8619 19.7159 14.6624C19.7162 15.3496 19.7164 16.0369 19.7184 16.7241C19.7188 16.8659 19.6813 16.961 19.5723 17.0611C19.0835 17.5096 19.0698 18.2708 19.5279 18.7486C19.9832 19.2235 20.7509 19.2338 21.2195 18.7713C21.6924 18.3046 21.7007 17.5453 21.2191 17.0853C21.0924 16.9643 21.0559 16.8474 21.0563 16.684C21.0597 15.3474 21.0594 14.0107 21.0591 12.674C21.059 12.3059 21.0589 11.9379 21.0589 11.5698Z" fill="black"/>
</svg>
