<svg width="34" height="35" viewBox="0 0 34 35" fill="none" xmlns="http://www.w3.org/2000/svg">
<path d="M6.16215 32.1894C4.91687 32.1894 3.89325 31.7787 3.11973 30.9687C2.37978 30.1937 1.99265 29.2155 2.00011 28.14C2.00472 27.4714 2.0033 26.7875 2.00191 26.1261C2.00123 25.8059 2.00061 25.4856 2.00056 25.1653L2.00047 24.3187C2.00026 21.6888 2.00005 19.0589 2.00145 16.4292C2.00162 16.1379 2.00182 15.8081 2.03245 15.4595C2.13708 14.2703 2.70094 13.5302 3.1555 13.1189C5.60259 10.9045 8.04795 8.68814 10.4933 6.47187L11.4326 5.62055C11.735 5.34647 12.0365 5.07141 12.3381 4.79631C12.9648 4.22463 13.6129 3.63345 14.2632 3.05685C15.0207 2.38524 16.0341 2 17.0435 2C18.061 2 19.0031 2.37172 19.768 3.0749C21.8163 4.95776 23.9147 6.85969 25.9439 8.69904C27.4542 10.0679 29.0159 11.4833 30.5477 12.8827C31.4839 13.7376 31.9995 14.914 31.9995 16.1949L31.9998 19.3609C32 22.2674 32.0003 25.174 31.999 28.0806C31.998 30.4398 30.2916 32.1641 27.9416 32.1806C27.1911 32.186 26.3754 32.1884 25.3744 32.1884C24.8113 32.1884 24.2482 32.1877 23.6852 32.187C23.1237 32.1862 22.5621 32.1855 22.0006 32.1855L16.9857 32.1855C16.9857 32.1855 12.3477 32.184 11.3433 32.184C9.30945 32.184 7.66783 32.1857 6.17699 32.1894H6.16215Z" stroke="black" stroke-width="4" stroke-miterlimit="10"/>
</svg>
