<svg width="31" height="31" viewBox="0 0 31 31" fill="none" xmlns="http://www.w3.org/2000/svg">
<path fill-rule="evenodd" clip-rule="evenodd" d="M15.3738 2.50999C15.9457 2.50999 16.5176 2.50749 17.0896 2.50499C18.3524 2.49948 19.6152 2.49397 20.8776 2.51533C24.5566 2.57764 27.5284 5.31551 28.0267 8.78813C28.0903 9.23104 28.1189 9.68259 28.1199 10.1303C28.1264 13.1802 28.1253 16.2301 28.1241 19.28V19.2823L28.1237 20.5446C28.1226 24.1405 25.6755 27.1553 22.1648 27.8649C21.7097 27.9569 21.2374 28.0005 20.7727 28.0019C17.1754 28.0128 13.578 28.0124 9.98074 28.0067C6.33189 28.0008 3.23484 25.2995 2.71728 21.6734C2.66165 21.2837 2.63109 20.887 2.63038 20.4935C2.62409 16.9501 2.62316 13.4067 2.62842 9.86331C2.63384 6.20754 5.33817 3.10565 8.95921 2.60058C9.34933 2.54613 9.74588 2.51509 10.1396 2.51297C11.4203 2.50616 12.7011 2.50719 13.9819 2.50822C14.4459 2.50859 14.9098 2.50896 15.3738 2.50896V2.50999ZM15.383 25.7252C15.9434 25.7252 16.5039 25.7249 17.0644 25.7245C18.3021 25.7238 19.5398 25.7231 20.7775 25.7259C23.5951 25.7322 25.8498 23.3226 25.8443 20.6842C25.8409 19.0536 25.842 17.4231 25.8431 15.7925C25.8444 13.7908 25.8457 11.789 25.8388 9.78718C25.8295 7.09063 23.5419 4.80399 20.8424 4.7944C17.1922 4.78144 13.5417 4.78003 9.89148 4.79496C7.19493 4.80596 4.91891 7.10139 4.91168 9.80265C4.90743 11.3912 4.90875 12.9797 4.91007 14.5682C4.91176 16.5941 4.91344 18.6199 4.90358 20.6457C4.89022 23.3773 7.23114 25.7476 9.98835 25.7272C11.2471 25.7179 12.5059 25.7204 13.7646 25.7229C14.3041 25.724 14.8435 25.725 15.383 25.7252ZM15.375 21.782C11.9302 21.8326 8.83863 19.0452 8.838 15.2441C8.83745 11.6167 11.7957 8.68305 15.4008 8.71746C19.2081 8.75384 21.945 11.86 21.9068 15.2974C21.8667 18.9126 18.997 21.7908 15.375 21.782ZM19.6562 15.2448C19.5998 12.858 17.7303 10.9825 15.3344 10.9796C13.0189 10.977 11.0634 12.9656 11.0965 15.2694C11.1308 17.6559 13.0287 19.5528 15.4146 19.5282C17.7886 19.5037 19.6159 17.6035 19.6562 15.2448ZM22.186 9.95895C23.0075 9.96767 23.7042 9.28054 23.7002 8.4655C23.696 7.58918 23.0403 6.93074 22.1744 6.93317C21.3771 6.93545 20.6821 7.61275 20.6782 8.39149C20.6738 9.24935 21.3478 9.95007 22.186 9.95895Z" fill="white"/>
</svg>
