<svg width="23" height="24" viewBox="0 0 23 24" fill="none" xmlns="http://www.w3.org/2000/svg">
<path d="M10.8567 21.5675C10.4935 21.0731 10.1335 20.5764 9.7665 20.0849C8.2848 18.1001 6.80595 16.1131 5.31621 14.1344C4.24929 12.7172 3.68053 11.13 3.75679 9.35702C3.87925 6.50816 5.19762 4.33153 7.70478 2.98765C11.5685 0.916568 16.2505 2.54534 18.0093 6.56342C19.1356 9.13664 18.8561 11.6464 17.2162 13.9266C15.4005 16.4512 13.5037 18.9175 11.6426 21.4096C11.6053 21.4596 11.5748 21.5147 11.5412 21.5675H10.8567ZM11.2022 7.08015C9.84575 7.07895 8.73185 8.18551 8.72747 9.53857C8.72303 10.9051 9.8323 12.0218 11.1955 12.0231C12.5525 12.0243 13.6656 10.9184 13.6704 9.5642C13.6753 8.19746 12.5663 7.08135 11.2022 7.08015Z" fill="black"/>
</svg>
