<svg width="31" height="31" viewBox="0 0 31 31" fill="none" xmlns="http://www.w3.org/2000/svg">
<path d="M28.125 22.4995C27.9792 22.8567 27.885 23.2482 27.6767 23.564C27.2654 24.1876 26.6339 24.4636 25.8958 24.4978C25.8461 24.5001 25.7963 24.4992 25.7465 24.4992C18.8347 24.4992 11.9229 24.4987 5.01127 24.5C4.22586 24.5002 3.57025 24.2308 3.08357 23.5955C2.76834 23.1839 2.62854 22.7105 2.62823 22.1981C2.62579 17.7333 2.62157 13.2685 2.63006 8.80377C2.63257 7.45279 3.61747 6.50326 4.98472 6.50176C7.84737 6.49853 10.71 6.50073 13.5726 6.50073C17.63 6.50073 21.6875 6.50047 25.7449 6.50087C26.7185 6.50095 27.4581 6.90603 27.8972 7.79351C28.0058 8.01295 28.0507 8.26401 28.125 8.50057V22.4995ZM5.20338 8.00636C5.27818 8.08769 5.31944 8.13599 5.36423 8.18079C8.14681 10.9601 10.9275 13.7414 13.7137 16.5171C14.7134 17.5131 16.0483 17.5049 17.0531 16.5028C19.8263 13.7376 22.5962 10.9689 25.3668 8.20121C25.4205 8.1475 25.4683 8.08785 25.5407 8.00636H5.20338ZM5.346 22.9781H25.3972C23.3424 20.8735 21.2419 18.722 19.1122 16.5406C18.7447 16.9167 18.4102 17.2736 18.0604 17.6144C17.0039 18.6437 15.7589 18.9834 14.3325 18.6034C13.6755 18.4283 13.1269 18.0608 12.6525 17.578C12.3219 17.2415 11.993 16.9032 11.6364 16.538C9.50519 18.7199 7.40438 20.8708 5.346 22.9781ZM10.4144 15.5428C8.34293 13.4299 6.23686 11.2817 4.14006 9.14298V21.9598C6.2899 19.7612 8.39196 17.6112 10.4144 15.5428ZM26.6217 9.12957L26.567 9.09405C24.4568 11.2456 22.3465 13.3971 20.228 15.5572C22.3291 17.6531 24.4584 19.7772 26.6217 21.9353V9.12957Z" fill="white"/>
</svg>
