<svg width="31" height="31" viewBox="0 0 31 31" fill="none" xmlns="http://www.w3.org/2000/svg">
<path d="M21.158 27.119C20.6067 27.0002 20.0481 26.9082 19.5059 26.7569C18.3879 26.4449 17.3471 25.9434 16.3456 25.3647C13.5053 23.7236 11.078 21.5872 8.92413 19.1289C7.52683 17.534 6.30621 15.816 5.36431 13.9105C4.78486 12.7382 4.32865 11.5213 4.17268 10.2134C4.07473 9.39221 4.10157 8.57606 4.50435 7.82472C4.63115 7.58817 4.79626 7.36209 4.98311 7.16943C5.63908 6.493 6.31874 5.83947 6.97731 5.16547C7.89093 4.23052 9.30938 4.32661 10.1721 5.16717C11.2003 6.16904 12.2117 7.18836 13.2189 8.21148C14.1063 9.11298 14.113 10.4637 13.2321 11.286C13.0439 11.4617 12.8028 11.6009 12.562 11.696C11.9463 11.9389 11.4605 12.3083 11.1927 12.9287C11.0144 13.342 10.99 13.7636 11.1066 14.2001C11.4347 15.4282 12.1321 16.4389 12.9702 17.3631C13.8422 18.3249 14.83 19.1447 16.0047 19.7165C16.5222 19.9684 17.0549 20.1921 17.6524 20.1141C18.4624 20.0084 19.0789 19.6179 19.3993 18.8454C19.5976 18.3674 19.8312 17.9297 20.2869 17.6445C21.1399 17.1105 22.191 17.2075 22.9441 17.941C24.0041 18.9734 25.053 20.018 26.0833 21.0802C26.9275 21.9506 26.8959 23.3384 26.0399 24.2094C25.3638 24.8973 24.6761 25.5736 23.9952 26.2568C23.5127 26.7411 22.9193 26.9865 22.252 27.0771C22.1957 27.0847 22.1412 27.1047 22.0858 27.119H21.158Z" fill="white"/>
</svg>
