<svg width="137" height="243" viewBox="0 0 137 243" fill="none" xmlns="http://www.w3.org/2000/svg">
<path d="M130.996 36.9634C132.652 35.2043 134.217 33.5442 134.926 31.8405C137.066 26.7034 136.38 21.0515 132.831 14.5642C127.819 5.3953 118.311 1.61434 106.104 3.91895C106.01 3.93662 105.916 3.96611 105.829 4.00617L97.6048 7.77997C93.4174 5.55313 66.25 -7.76664 44.7498 8.5376C44.0169 8.23008 42.5158 7.44773 41.4649 6.89868C39.2215 5.7299 38.18 5.20561 37.6027 5.09015C29.1831 3.39705 23.6336 2.683 16.1142 9.07837C9.8178 14.4287 8.75037 23.0686 13.3242 32.3047L18.3458 40.1351C17.5375 45.9273 17.455 51.3647 18.1031 56.3074C18.4424 58.8346 19.0645 61.9075 19.7243 65.1605C22.0384 76.5822 25.2101 92.2254 19.4062 101.401C18.5909 102.679 16.1991 103.862 13.8874 105.007C11.3802 106.249 8.78572 107.533 7.25875 109.298C4.05635 112.993 2.19239 117.892 2.01095 123.092C1.6622 133.145 7.20922 144.743 16.8235 146.68C17.2759 153.352 17.6388 168.746 14.731 173.794C14.057 174.333 13.3195 174.88 12.5442 175.453C4.8575 181.146 -6.75741 189.747 5.14498 217.734C5.23216 218.048 7.39775 225.445 14.1325 228.892C18.4801 231.117 23.6666 231.159 29.5365 229.031L38.2931 226.06C47.3843 227.214 66.9662 229.698 70.0979 230.089C70.7106 230.904 72.2942 233.242 73.3876 234.859C74.8722 237.057 75.5013 237.978 75.737 238.256C77.8436 240.674 78.8922 241.405 82.2525 241.944C83.5626 242.154 84.9153 242.253 86.2962 242.253C98.1231 242.253 111.965 234.887 117.594 225.072L126.141 211.617C127.345 210.304 138.6 197.193 128.031 177.133C127.993 177.057 124.152 169.415 124.581 160.727C126.04 144.93 126.304 142.074 126.341 141.473H126.346C126.457 140.914 127.795 138.902 128.681 137.57C129.994 135.598 130.812 134.34 131.092 133.496C135.807 119.282 134.184 107.066 126.132 96.1607C125.934 95.885 125.722 95.607 125.503 95.3218C125.632 90.3992 126.872 43.7263 126.883 43.0983C126.933 41.2744 129.092 38.984 130.996 36.9634ZM132.952 30.2969L130.387 28.5234L130.045 19.0871L132.776 20.2394C134.034 23.9216 134.075 27.1984 132.952 30.2969ZM130.048 14.554C130.284 14.9309 130.526 15.2957 130.748 15.7023C131.416 16.9221 131.945 18.0868 132.392 19.2222L129.902 18.1747L126.341 12.3409L130.048 14.554ZM123.18 96.0787L121.821 96.3881L122.421 84.2277H123.424C123.247 90.8952 123.12 95.6776 123.12 95.6776C123.117 95.8146 123.138 95.9498 123.18 96.0787ZM122.417 83.4359L121.578 70.9335L123.793 70.3164C123.671 74.9175 123.55 79.4767 123.445 83.4359H122.417ZM122.232 163.916L121.052 164.388L120.441 152.202L120.477 151.787L123.156 150.359C122.831 153.895 122.474 157.764 122.215 160.56C122.159 161.704 122.171 162.826 122.232 163.916ZM53.5319 209.27L65.7638 209.283L67.2912 215.936L53.6288 215.517V214.004L53.5319 209.27ZM7.28878 122.608L12.7227 112.583H20.7421L18.1075 121.018L7.28878 122.608ZM17.8457 121.857L17.2595 123.733C17.2477 123.771 17.2406 123.811 17.2406 123.851V132.726H9.33505L7.0527 123.442L17.8457 121.857ZM29.1145 110.523L29.8916 119.604L18.9705 120.908L21.5922 112.513L29.1145 110.523ZM22.4762 111.462L29.0075 104.293L29.065 109.723L22.4762 111.462ZM123.095 30.47L118.048 32.4064L115.811 19.7059L122.591 17.4557L123.095 30.47ZM114.899 12.9129L118.989 11.5774H124.949L128.796 17.88L123.094 16.5381L114.899 12.9129ZM113.704 73.1318L113.902 73.0723L120.801 71.1501L121.627 83.4359H113.891L114.189 80.2335L113.704 73.1318ZM113.683 72.3135L113.649 72.3237L113.108 64.3982L113.269 59.1498L113.801 59.0444L120.31 60.1743L120.751 70.3438L113.683 72.3135ZM66.7754 201.76L63.976 201.689V192.355L70.8238 192.351L81.2139 190.05L75.037 193.805C74.9406 193.863 74.8824 193.957 74.8605 194.059L67.8899 198.419C67.8864 198.421 67.8865 198.426 67.8831 198.428C67.8083 198.477 67.7494 198.545 67.7204 198.638L66.7754 201.76ZM66.9376 202.556L66.0773 206.874L64.1536 202.486L66.9376 202.556ZM22.7409 156.359L28.7847 152.963L25.961 164.217L23.5935 163.491C23.5558 163.48 23.5182 163.472 23.4782 163.472H20.1343L22.7409 156.359ZM19.29 163.472H19.2723C19.476 160.577 19.5245 157.608 19.4984 154.918L21.9295 156.269L19.29 163.472ZM37.1466 116.782L37.8489 129.82L28.0796 130.04L30.6568 120.22L37.1466 116.782ZM29.8897 110.318L33.4176 109.385L36.6676 107.886L37.0999 115.912L30.6613 119.322L29.8897 110.318ZM24.9981 84.4723L28.6592 86.5123L29.037 88.3256L32.005 94.5498L24.8765 91.293C25.0777 89.0811 25.1074 86.7928 24.9981 84.4723ZM33.1679 40.3755H44.3491L48.0299 42.6966L49.3401 53.0508L45.3364 62.7911L35.5172 61.296L30.9599 54.9124L33.1679 40.3755ZM30.2466 54.3425L25.8428 51.4572L26.869 41.3428L32.356 40.4562L30.2466 54.3425ZM120.264 59.3629L113.864 58.2526C113.815 58.2432 113.768 58.2444 113.718 58.255L113.294 58.3392L113.49 51.9792L119.973 51.7411L119.864 52.5112L120.264 59.3629ZM112.766 50.8134C112.742 50.8628 112.731 50.9147 112.728 50.9689L112.718 51.3057L103.072 53.2595L102.627 48.0059L110.089 45.7352C110.095 45.7333 110.098 45.7262 110.104 45.7242C110.115 45.7201 110.127 45.7217 110.139 45.7164L116.487 42.8201L112.766 50.8134ZM112.693 52.1118L112.499 58.4971L103.112 60.3613L103.11 54.0567L112.693 52.1118ZM103.091 61.1715L112.474 59.3079L112.318 64.4136L112.877 72.5564L102.621 75.6472L103.091 61.1715ZM108.781 158.712L106.493 147.861L114.604 144.68L113.845 155.205L108.781 158.712ZM113.777 156.213L113.421 167.76L108.913 169.99V159.584L113.777 156.213ZM101.77 193.649L94.605 190.727L84.4602 188.926L89.951 185.06L104.987 188.357L101.77 193.649ZM101.938 194.89L107.242 203.242L97.9535 210.153V201.446L101.938 194.89ZM46.5601 181.644L44.573 181.341L35.6892 178.747L35.687 168.021L38.1941 168.789L46.4396 170.284L46.4181 170.631L46.5601 181.644ZM46.4883 169.494L38.3803 168.023L35.6868 167.197V167.014L36.6919 155.193L47.1392 158.924C47.1399 158.925 47.1408 158.925 47.1415 158.925L46.4883 169.494ZM45.1409 91.7942L47.1496 95.1356L38.2224 90.9176L37.2138 82.0079L40.6967 74.2976L45.0131 70.637L49.2852 73.3707L48.2443 77.0146C48.2254 77.0782 48.2231 77.1454 48.2372 77.209L49.4437 82.6111C49.4862 82.795 49.6488 82.9198 49.8302 82.9199C49.8585 82.9198 49.8867 82.9151 49.9174 82.9104C50.1295 82.8633 50.2638 82.6512 50.2167 82.4368L49.0314 77.1348L50.0478 73.5745L58.4147 73.0864C58.5443 73.0794 58.6621 73.0075 58.7305 72.8956L61.8594 67.7012L68.0502 73.6414L70.7554 82.0645C70.8214 82.2718 71.0452 82.385 71.2526 82.3214C71.4623 82.253 71.5754 82.0315 71.5094 81.8241L68.7737 73.3044C68.7525 73.2419 68.7171 73.1854 68.6699 73.1406L62.6139 67.3308L69.5607 66.1455L80.398 73.9324L79.4059 84.6094L72.2871 102.386L68.5546 96.0445L71.2055 91.1439C71.3091 90.9506 71.2361 90.7126 71.0452 90.6066C70.8473 90.5052 70.614 90.5736 70.508 90.7668L67.864 95.6564H48.3856L45.8196 91.3889C45.7041 91.198 45.4614 91.1438 45.2776 91.2522C45.0891 91.3653 45.0278 91.608 45.1409 91.7942ZM56.494 42.1842L55.6977 52.1023L52.318 52.1924L52.9219 41.0195L56.494 42.1842ZM52.9983 40.2126L53.5293 37.0875L54.4818 37.3969L56.792 38.4744L56.5592 41.3737L52.9983 40.2126ZM87.9633 69.1572L97.0829 62.6888L95.662 77.7442L94.4235 78.1174C94.3787 78.1304 94.3387 78.1504 94.3034 78.1775L87.7001 83.0371L88.0139 69.2867C88.015 69.2387 87.979 69.2017 87.9633 69.1572ZM97.9163 62.1991L102.293 61.3298L101.82 75.8884L96.4795 77.4978L97.9163 62.1991ZM94.7157 78.855L95.6128 78.5846C95.6171 78.6027 95.6136 78.622 95.6206 78.6394L100.456 91.0768L90.4945 100.512L79.1825 101.625L87.6001 84.0903L94.7157 78.855ZM48.0958 147.234L48.1225 147.123L64.883 147.12L65.3266 159.097L47.9774 158.194L48.1077 156.087L48.0958 147.234ZM70.0579 109.701L70.042 109.68L76.1305 108.836C76.1753 108.831 76.2177 108.817 76.2577 108.796L78.6458 107.56L77.1791 112.064C77.1713 112.089 77.1879 112.111 77.185 112.136L75.9806 112.635L69.0656 113.28L69.0777 113.264C69.1036 113.226 69.1248 113.186 69.1389 113.144L70.1192 110.061C70.1569 109.939 70.1357 109.804 70.0579 109.701ZM82.9099 138.31L75.1725 136.653L74.9782 136.289L74.9759 132.186L75.6319 125.79L83.5581 129.392L89.3925 138.688L82.9099 138.31ZM89.5871 139.486L91.4601 151.583L83.6853 148.949L78.2394 142.399L75.6579 137.562L82.8039 139.09L89.5871 139.486ZM74.2008 136.445L68.6009 135.245L71.9291 124.108L74.8826 125.45L74.1864 132.146V136.388C74.1864 136.408 74.1977 136.425 74.2008 136.445ZM72.1945 123.36L74.1074 118.771L78.0962 117.224L77.5915 117.807C77.5608 117.845 77.5348 117.887 77.5183 117.932L75.089 124.675L72.1945 123.36ZM75.8018 124.999L78.2371 118.269L79.6713 116.614L79.9054 116.523L89.7488 113.634L83.6194 128.551L75.8018 124.999ZM79.1996 115.951L74.5288 117.761L76.3778 113.325L84.3258 110.033L79.1996 115.951ZM75.4577 113.478L73.5445 118.069L65.4188 118.07L68.4151 114.134L75.4577 113.478ZM73.2144 118.86L71.3239 123.396C71.3233 123.397 71.3215 123.397 71.3209 123.399C71.3202 123.4 71.3216 123.402 71.3208 123.403L71.3021 123.448L68.9407 131.347L64.9091 131.44V118.86H73.2144ZM64.934 132.23L68.7022 132.144L67.7204 135.428C67.7189 135.434 67.7249 135.438 67.7235 135.444C67.7218 135.45 67.7147 135.453 67.7133 135.459C67.6885 135.576 67.7265 135.686 67.7948 135.775C67.8004 135.782 67.7944 135.794 67.8004 135.801L77.5467 147.092L71.6814 146.332L65.6417 146.332L64.934 132.23ZM69.1676 136.174L74.6469 137.346L77.5867 142.837L82.2575 148.465L78.7508 147.277L69.1676 136.174ZM91.6255 152.475L94.0006 160.59L80.8061 159.903L79.012 148.2L91.6255 152.475ZM90.3959 139.533L99.2166 140.047L105.297 139.59L100.741 148.91L92.2672 151.646L90.3959 139.533ZM99.2118 139.26L90.2733 138.739L90.2573 138.636C90.2479 138.584 90.229 138.532 90.2007 138.487L84.5441 129.476L99.2283 129.474L107.333 128.632L105.613 138.782L99.2118 139.26ZM99.1883 128.684H84.4191L90.6563 113.508L98.9927 116.096L107.412 123.297L107.419 127.829L99.1883 128.684ZM90.2879 112.652L80.6518 115.482L85.9014 109.423H97.4833L90.2879 112.652ZM85.5822 108.657C85.5804 108.658 85.5792 108.659 85.5774 108.66C85.5752 108.661 85.5726 108.661 85.5703 108.662L78.1149 111.751L79.5873 107.227C79.6035 107.175 79.5889 107.125 79.5845 107.074L89.8924 101.739L87.317 108.001L85.5822 108.657ZM78.9861 106.494L74.0636 103.354L78.5872 102.478L88.6601 101.487L78.9861 106.494ZM78.2512 101.736L72.9896 102.762L80.0742 85.0699L86.6184 84.3082L78.2512 101.736ZM78.1747 106.914L75.9538 108.063L69.4942 108.96L65.4762 103.677L72.3432 103.671C72.3482 103.671 72.3504 103.678 72.3554 103.678C72.3648 103.678 72.3742 103.678 72.386 103.675C72.3888 103.675 72.3896 103.671 72.3924 103.671H72.4308L72.939 103.572L78.1747 106.914ZM64.8915 102.908L64.8784 102.891L63.375 96.4482H67.8732L71.664 102.888L64.8915 102.908ZM64.0727 102.91L54.7609 102.938L54.6933 96.4482H62.565L64.0727 102.91ZM64.3718 103.678L64.4824 103.678L68.5949 109.084L61.5558 110.061H58.1685C58.2021 109.962 58.2407 109.858 58.1908 109.762L55.0972 103.717L64.3718 103.678ZM61.61 110.848L69.1426 109.805L69.3039 110.017L68.406 112.84L67.995 113.379L54.9628 114.594L54.9696 114.576L57.6686 110.851L61.61 110.848ZM67.344 114.234L64.4219 118.071L53.589 118.073L54.6374 115.418L67.344 114.234ZM64.1173 118.86V131.459L51.775 131.746L53.3589 118.86H64.1173ZM64.1421 132.249L64.8484 146.332H48.3134L51.6377 132.535L64.1421 132.249ZM47.5253 146.271L39.8366 144.297L43.2451 131.344L50.8427 132.469L47.5253 146.271ZM47.9287 158.983L65.3515 159.889L65.6779 172.977L47.2702 169.636L47.9287 158.983ZM65.6759 147.12L71.6297 147.119L78.1758 147.969L80.0066 159.861L66.1208 159.138L65.6759 147.12ZM80.0482 160.653L79.4187 173.06L66.4723 173.063L66.1449 159.93L80.0482 160.653ZM79.3472 173.848L78.3526 181.992L78.3263 182.177L66.8656 183.777L66.4994 173.848L79.3472 173.848ZM80.1448 173.848L83.829 173.848L91.7255 173.841L91.5604 174.72L90.3372 180.501L79.1408 182.064L80.1448 173.848ZM80.2113 173.059L80.8316 160.693L94.0663 161.381L91.8729 173.056L80.2113 173.059ZM92.4322 152.426L100.704 149.755C100.722 149.768 100.725 149.793 100.746 149.803C100.802 149.829 100.861 149.843 100.92 149.843C101.066 149.843 101.208 149.76 101.276 149.621L101.306 149.561L105.743 148.128L108.041 159.034L94.8234 160.588L92.4322 152.426ZM101.789 148.572L106.211 139.521L111.267 139.141L105.786 147.281L101.789 148.572ZM106.423 138.721L108.143 128.548L111.647 128.184V138.331L106.423 138.721ZM108.204 127.748V123.31L111.647 120.74V127.39L108.204 127.748ZM107.825 122.607L99.4451 115.441C99.405 115.408 99.3579 115.382 99.3061 115.366L91.5438 112.956L99.1706 109.532L111.409 119.933L107.825 122.607ZM99.1083 108.631H87.8874L98.4751 104.629L99.3256 108.54L99.1083 108.631ZM98.2881 103.77L98.305 103.848L88.3289 107.619L91.0008 101.121L100.323 92.2779L98.2857 103.614C98.2762 103.666 98.2763 103.718 98.2881 103.77ZM86.8982 83.4781L80.2334 84.2539L81.1895 73.9617L87.214 69.6886L86.8982 83.4781ZM80.8137 73.2581L70.0587 65.5305L70.127 62.968L81.9738 63.9406L86.8114 69.0042L80.8137 73.2581ZM70.072 62.1702L67.8334 51.0066L70.841 41.9993L81.7436 40.9493L88.4632 44.2312L88.3556 56.5277L82.0004 63.1505L70.072 62.1702ZM69.0663 61.174L64.8166 56.348C64.8553 56.2937 64.8994 56.2416 64.9068 56.1707L66.1481 43.6042L69.9088 42.2966L67.051 50.8558C67.0298 50.9206 67.0252 50.9913 67.0393 51.0584L69.0663 61.174ZM71.1114 41.1896L71.9784 38.5928L80.365 37.4346H82.5777L81.534 40.1755L71.1114 41.1896ZM82.3145 40.3489L83.2775 37.8187L87.4009 42.8384L82.3145 40.3489ZM82.877 36.644L80.3108 36.6476L72.3401 37.7452L74.7443 32.4767H84.4823L82.877 36.644ZM75.1052 31.6857L78.8568 23.4645L79.9656 22.2406L86.9708 26.0167L84.7873 31.6849L75.1052 31.6857ZM78.23 22.979C78.2017 23.0085 78.1806 23.0427 78.1618 23.0804L74.2353 31.6857L68.0691 31.6861L67.3198 31.7435L67.3645 31.2925L72.6901 19.8143L73.3933 18.6981L79.2492 21.8546L78.23 22.979ZM68.0996 32.4767H73.8744L71.4246 37.8458L66.7041 37.9778L67.2409 32.5428L68.0996 32.4767ZM71.1281 38.6451L70.2208 41.3624L66.2334 42.7419L66.6258 38.7709L71.1281 38.6451ZM65.9075 38.0001L62.9956 38.0815H62.9389L63.2796 32.8475L66.4406 32.6044L65.9075 38.0001ZM63.0075 38.8721L65.8291 38.7933L65.4107 43.0265L63.5753 43.6616L62.5961 43.3422L62.8872 38.8721H63.0075ZM63.4575 44.4545C63.54 44.4816 63.6271 44.4792 63.7096 44.4521L65.3255 43.8903L64.1673 55.6108L61.9601 53.1044L62.5431 44.1564L63.4575 44.4545ZM69.3439 62.6851L69.2703 65.3932L61.709 66.6828C61.6656 66.6905 61.6555 66.7431 61.6181 66.7632L60.0995 64.1862C60.0477 64.1001 59.9652 64.0365 59.871 64.007L57.5246 63.309L61.6664 53.968L69.3439 62.6851ZM56.7621 63.082L52.6073 61.8459L56.3117 52.9204L60.9829 53.5639L56.7621 63.082ZM51.8449 61.6191L51.4043 61.488C51.3336 61.4692 51.2606 61.468 51.1875 61.4857L48.4468 62.222L52.2294 52.9827L55.4665 52.8936L51.8449 61.6191ZM52.173 40.3643L48.4319 42.0156L44.9689 39.8322L47.2188 35.0433L47.2334 35.0417L52.771 36.8411L52.173 40.3643ZM52.1197 41.2525L51.5241 52.2136L50.0351 52.2534L48.828 42.7056L52.1197 41.2525ZM50.1106 53.2558C50.1365 53.1922 50.1459 53.1226 50.1365 53.0555L50.1347 53.0403L51.3657 53.0065L47.4883 62.4796L46.1736 62.8329L50.1106 53.2558ZM47.5751 63.2754C47.5794 63.2775 47.5801 63.2829 47.5845 63.2848C47.7489 63.3521 47.9069 63.2814 48.0133 63.1575L51.2865 62.2786L51.9037 62.4622C51.9102 62.4653 51.9112 62.4738 51.918 62.4766C51.9529 62.4907 51.989 62.4937 52.0247 62.4982L59.4964 64.7211L61.0963 67.4357L58.1602 72.3088L49.8515 72.7943L45.3318 69.9029L46.0788 63.6771L47.5751 63.2754ZM48.523 96.4482H53.9015L53.9705 102.94L47.9368 102.958L48.523 96.4482ZM54.2132 103.721L57.378 109.906L57.2656 110.061H53.7112L51.7681 109.325L48.2232 103.746L54.2132 103.721ZM53.4968 110.827C53.544 110.844 53.5911 110.853 53.6382 110.853L56.6959 110.851L54.2815 114.199L54.1917 114.425L47.01 111.256L51.5735 110.098L53.4968 110.827ZM53.8993 115.159L52.7575 118.027L45.5237 116.943L46.1331 111.732L53.8993 115.159ZM52.5692 118.795L50.9865 131.696L43.4379 130.578L45.426 117.779L45.432 117.727L52.5692 118.795ZM44.6414 117.67L42.6577 130.463L38.6436 129.868L37.9291 116.606L44.6483 117.61L44.6414 117.67ZM38.4647 130.636L42.46 131.228L39.0707 144.1L31.4467 142.142L38.4647 130.636ZM38.8555 144.86L36.0967 154.142L29.8311 151.903L31.1597 142.883L38.8555 144.86ZM36.835 154.405L39.6216 145.057L47.3406 147.039L47.3159 147.142L47.3183 156.064L47.1922 158.105L36.835 154.405ZM47.2213 170.426L65.7042 173.78L66.0774 183.887L63.5824 184.235L47.3521 181.764L47.2075 170.65L47.2213 170.426ZM66.8534 184.577L78.2117 182.99L77.2027 190.132L70.7389 191.568H64.1568L66.8534 184.577ZM79.0265 182.876L90.1638 181.32L89.5117 184.401L83.2989 188.778L78.0261 189.949L79.0265 182.876ZM83.6292 189.82L96.307 200.781L80.3379 198.745L83.6292 189.82ZM90.334 184.333L90.9866 181.249H107.932L105.369 187.63L90.334 184.333ZM91.1533 180.462L92.3357 174.875L92.5388 173.794L108.121 171.096V180.458L91.1533 180.462ZM92.6934 172.971L94.8715 161.375L108.121 159.822V170.294L92.6934 172.971ZM107.074 146.786L112.294 139.032L114.274 138.408L108.655 146.166L107.074 146.786ZM112.438 138.169V128.073L115.205 127.534L114.987 137.362L112.438 138.169ZM112.438 127.268V120.138L114.426 118.512L115.137 126.743L112.438 127.268ZM112.049 119.437L106.15 114.423L111.359 111.694L114.263 117.625L112.049 119.437ZM105.498 113.87L99.9665 109.168C99.9969 109.153 100.012 109.123 100.037 109.101L105.386 106.861L110.807 111.089L105.498 113.87ZM100.068 108.229L99.223 104.347L101.062 103.652L104.087 102.491L104.981 106.172L100.068 108.229ZM104.007 101.674L100.781 102.912L99.1009 103.547L101.276 91.434L105.855 88.8208L104.007 101.674ZM101.126 90.6214L96.3911 78.4391L96.3997 78.3475L101.96 76.6718L105.881 87.902L101.126 90.6214ZM102.32 60.5078L102.32 60.5186L97.9097 61.3943L97.3231 55.2308L102.32 54.2168V60.5078ZM97.2478 54.439L96.4958 46.5355L101.836 48.0273L102.293 53.4172L97.2478 54.439ZM96.5489 55.3983L97.1491 61.6722L87.4624 68.5425L82.7028 63.5599L88.95 57.0492L96.5489 55.3983ZM89.1493 56.1962L89.2512 44.5121L95.6792 46.3075L96.4729 54.6053L89.1493 56.1962ZM89.095 43.6549L83.6004 36.9657L85.2591 32.6615L91.886 36.6052L95.5968 45.4678L89.095 43.6549ZM91.8662 35.6735L85.5474 31.9129L87.7154 26.2872C87.7261 26.2845 87.7371 26.2934 87.7477 26.2899L92.913 24.4919L91.8662 35.6735ZM88.0813 25.3373L90.1631 19.9351L100.635 17.2248L93.1613 23.5674L88.0813 25.3373ZM87.2573 25.2728L80.5122 21.6371L85.1085 16.5636L85.3611 16.2399L89.396 19.7208L87.2573 25.2728ZM84.5053 16.0558L79.7962 21.2512L73.8158 18.0276L78.6114 10.417L84.7637 15.7244L84.5053 16.0558ZM73.1209 17.6531L72.7654 17.4614C72.723 17.439 72.6783 17.4237 72.6311 17.4178L62.668 16.0568L66.8413 8.3302L66.8676 8.30975L68.736 8.1629L77.8845 10.0875L73.1209 17.6531ZM72.452 18.1907L72.6986 18.3236L71.9972 19.4373L66.6199 31.0204C66.601 31.0604 66.5892 31.1029 66.5845 31.1476L66.5196 31.8049L62.919 32.0812L58.2035 31.3958L59.6825 23.3914L62.3252 16.8012L72.452 18.1907ZM62.4914 32.8172L62.1485 38.0815H57.8209L57.6221 37.989L58.0884 32.1776L62.4914 32.8172ZM57.7337 38.8732L62.0969 38.8722L61.8223 43.09L57.3305 41.6253L57.5546 38.8301L57.5664 38.8355C57.6183 38.8602 57.6748 38.8732 57.7337 38.8732ZM61.7693 43.9041L61.1901 52.7954L56.486 52.1521L57.2654 42.4357L61.7693 43.9041ZM56.8595 37.6342L54.7716 36.6629L53.6629 36.3022L54.4535 31.6496L57.3068 32.064L56.8595 37.6342ZM52.9044 36.0554L47.5601 34.3166L49.7002 29.7618L53.6872 31.4454L52.9044 36.0554ZM46.6913 34.3051L42.0478 34.8084C42.0532 34.7975 42.0659 34.7926 42.0705 34.7812L43.7029 30.5138L48.7887 29.3768L48.9708 29.4537L46.6913 34.3051ZM46.2975 35.1433L44.2108 39.5837L34.2531 39.5837L40.8435 35.6172C40.9222 35.6803 41.0244 35.7138 41.1326 35.7038L46.2975 35.1433ZM44.7334 63.4988L35.6892 68.9736V62.1216L44.7334 63.4988ZM35.6538 69.9194L45.2139 64.1331L44.3892 70.1291L40.117 73.7521C40.0746 73.7898 40.0369 73.8381 40.0133 73.8912L36.448 81.7817C36.4198 81.8453 36.4079 81.9184 36.4149 81.9891L37.3745 90.4599L35.9999 89.694L33.658 81.9183L35.6538 69.9194ZM32.9633 81.2808L27.7875 77.8698L27.7764 67.3571L34.8506 69.9343L32.9633 81.2808ZM32.9145 82.1942L35.0064 89.1404L29.3449 85.9862L27.8653 78.8666L32.9145 82.1942ZM29.7792 88.0757L29.5584 87.0131L35.335 90.2318L37.2466 96.5796L33.1099 95.0445L29.7792 88.0757ZM36.3285 90.7852L37.6615 91.528C37.6674 91.531 37.6742 91.5298 37.6801 91.5327C37.6827 91.534 37.6823 91.5384 37.6851 91.5397L47.7423 96.2927L47.1698 102.674L38.1918 96.9713L36.3285 90.7852ZM47.2176 103.642L50.5327 108.856L43.3075 106.117L38.9696 98.4033L47.2176 103.642ZM50.2826 109.608L45.8362 110.738L38.4566 107.481L42.9866 106.84L50.2826 109.608ZM45.3756 111.397L44.7401 116.826L37.8859 115.8L37.4605 107.904L45.3756 111.397ZM37.5551 130.612L30.7133 141.826L25.5816 138.221L25.9948 137.787C26.0419 137.738 26.075 137.679 26.0915 137.615L27.8737 130.825L37.5551 130.612ZM29.0313 151.917L22.8136 155.412V144.834L30.3551 142.922L29.0313 151.917ZM29.6677 152.685L35.9293 154.921L34.8997 166.956L26.7082 164.446L29.6677 152.685ZM35.6852 179.567L44.4033 182.112L46.6665 182.457L50.0227 190.069L35.6395 185.469L35.6852 179.567ZM47.5934 182.598L63.5211 185.027C63.54 185.029 63.5611 185.032 63.58 185.032C63.5988 185.032 63.6177 185.029 63.6342 185.027L65.9568 184.702L63.3084 191.568H54.7104L51.0312 190.392L47.5934 182.598ZM82.6864 190.097L79.5233 198.67L69.4207 198.393L82.6864 190.097ZM79.7134 213.768L97.1616 211.391V220.141L79.4442 222.055L79.7134 213.768ZM79.7395 212.966L80.1763 199.52L97.1616 201.685V210.594L79.7395 212.966ZM84.8012 189.787L94.3858 191.481L101.354 194.332L97.4627 200.733L84.8012 189.787ZM97.9535 211.137L107.448 204.075L107.413 216.911L97.9535 219.961V211.137ZM102.397 194.136L105.777 188.576L117.387 193.086L118.642 201.132L118.348 201.246L108.018 202.987L102.397 194.136ZM106.128 187.864L108.748 181.342L118.838 184.553L117.439 192.26L106.128 187.864ZM108.913 180.564V170.87L113.58 168.561L118.728 183.688L108.913 180.564ZM114.571 156.116L114.605 155.639L119.112 152.515L119.654 152.226L120.287 164.695L116.777 166.1L114.226 167.361L114.571 156.116ZM119.729 151.292L118.7 151.841L114.679 154.627L115.422 144.339L120.55 141.822L119.729 151.292ZM114.801 143.754L110.018 145.631L115.539 138.009L120.899 136.319L114.801 143.754ZM115.785 137.11L115.994 127.501L115.984 127.382L122.718 126.071L123.012 127.539L121.699 135.238L115.785 137.11ZM115.916 126.592L115.166 117.906L120.252 113.746L122.564 125.299L115.916 126.592ZM114.892 117.11L112.061 111.326L118.676 107.86L120.062 112.879L114.892 117.11ZM111.576 110.686L106.221 106.512L115.603 102.584L118.369 107.127L111.576 110.686ZM105.719 105.863L104.832 102.205L111.966 99.4659L115.006 101.975L105.719 105.863ZM111.672 98.7347L104.854 101.35L106.725 88.324L112.979 84.7546L111.672 98.7347ZM106.579 87.5031L102.717 76.4433L112.932 73.3646L113.402 80.2217L113.069 83.7917L106.579 87.5031ZM120.086 50.9465L113.514 51.1924L113.518 51.0737L117.591 42.3203L121.558 40.6201L120.086 50.9465ZM117.016 41.7107L111.006 44.4514L118.007 33.2683L122.635 31.4921L117.016 41.7107ZM117.328 32.8655L109.717 45.0224L102.202 47.3093L96.4158 45.696L96.3817 45.3381C96.377 45.2993 96.3675 45.2604 96.3534 45.2227L92.6043 36.2717L93.7415 24.1143L102.312 16.8406L115.019 19.7649L117.328 32.8655ZM101.906 16.0797L90.8411 18.9426L95.9312 11.9935L104.637 8.56366L101.906 16.0797ZM89.8009 19.0249L85.8485 15.6151L91.067 8.92523L95.0381 11.8768L89.8009 19.0249ZM85.251 15.0995L79.1405 9.82758L83.5333 6.30438L83.5956 6.32019L90.3576 8.55219L85.251 15.0995ZM78.4202 9.39179L68.8444 7.37824C68.8067 7.36998 68.7689 7.36994 68.7312 7.36993L67.9911 7.42816L71.8949 4.36505L75.6073 4.29834L82.5724 6.06128L78.4202 9.39179ZM66.5664 7.53992L55.9062 8.37708L58.938 5.56494L63.3562 4.51868L70.5822 4.38879L66.5664 7.53992ZM65.9127 8.38471L61.7919 16.0179L52.9242 16.3822L51.8001 16.6277L54.8706 9.33759L54.9712 9.2442L65.9127 8.38471ZM53.0255 17.1633L61.4695 16.8156L58.926 23.1723L57.4232 31.2825L54.2344 30.8191L50.0365 29.0457L50.1035 28.9031C50.12 28.8654 50.1318 28.8254 50.1365 28.7841L51.5535 17.4856L53.0255 17.1633ZM49.3612 28.6227L49.3073 28.7376L48.9795 28.5991C48.9041 28.5661 48.8193 28.5555 48.7392 28.5779L43.8401 29.6735V19.1743L50.7344 17.665L49.3612 28.6227ZM43.1011 18.528L40.0438 19.1958L29.1212 16.0447L30.6105 9.6015L43.3335 13.3023C43.4089 13.3235 43.4985 13.3223 43.5786 13.2941L44.051 13.1221L43.1011 18.528ZM28.3397 15.925H21.2305L22.0557 9.98517L29.8162 9.53052L28.3397 15.925ZM21.3236 16.7168H27.7191L22.9525 21.6432L21.3236 16.7168ZM22.2986 22.1799L18.5474 22.0182L20.7132 17.3889L22.2986 22.1799ZM23.1789 22.5479L28.7707 16.7663L39.919 19.9828C39.9826 20.0005 40.0487 20.0028 40.1146 19.9899L43.0484 19.3476V29.934C42.9551 30.0263 42.893 30.1448 42.9235 30.2828C42.9254 30.2908 42.9341 30.2936 42.9363 30.3014L41.38 34.3713L32.8496 39.5049L23.464 32.6275C23.3787 32.567 23.2764 32.5462 23.1789 32.559V22.5479ZM31.8323 39.7398L26.7384 40.5625L23.5557 33.6752L31.8323 39.7398ZM25.0967 50.9684L20.088 47.6868C20.1593 45.3112 20.3701 42.8525 20.7283 40.3173L26.0751 41.3226L25.0967 50.9684ZM25.7528 52.3446L30.2649 55.3009L34.1144 60.692L28.8319 58.2903L25.3295 56.5152L25.7528 52.3446ZM28.4903 59.002L34.8975 61.9157V69.1111L27.6035 66.4539L25.489 57.4813L28.4903 59.002ZM27.0058 78.5757L28.4452 85.4849L24.9385 83.5311C24.7934 81.1707 24.5312 78.7921 24.1907 76.4451L27.0054 78.3L27.0058 78.5757ZM24.7951 92.1271L32.5343 95.66L34.7655 100.339L34.4727 100.475C34.4297 100.404 34.3777 100.335 34.2942 100.301L24.0725 96.2171C24.4001 94.899 24.6363 93.5312 24.7951 92.1271ZM35.4606 100.885C35.5572 100.841 35.6303 100.76 35.6657 100.661C35.701 100.563 35.6963 100.452 35.6492 100.358L33.5991 96.0684L37.5817 97.5452L41.8867 105.2C41.7825 105.21 41.6833 105.258 41.6133 105.348C41.479 105.523 41.5143 105.77 41.6863 105.902L42.0446 106.176L37.1029 106.874L30.2847 103.304L35.4606 100.885ZM36.1387 107.261L33.1513 108.645L29.8527 109.515L29.7954 103.941L36.1387 107.261ZM18.0324 123.913L18.7121 121.736L29.7876 120.414L27.2434 130.113L18.0324 132.605V123.913ZM27.015 130.983L25.3539 137.316L24.9285 137.762L18.5532 133.282L27.015 130.983ZM25.0304 138.798L29.8997 142.22L19.1717 144.941L25.0304 138.798ZM22.0219 145.035V155.415L19.4882 154.008C19.4209 149.805 19.1941 146.541 19.1359 145.767L22.0219 145.035ZM19.8442 164.264H23.4192L25.6541 164.949L20.5458 174.396L17.1288 174.252C18.0276 172.331 18.6083 169.648 18.9672 166.658L19.8442 164.264ZM26.4156 165.182L34.8975 167.779V178.515L21.3563 174.56L26.4156 165.182ZM34.8952 179.336L34.8516 184.966L22.7259 175.783L34.8952 179.336ZM34.9936 186.157L39.7445 196.123L25.9997 196.309L22.9488 186.37L34.9936 186.157ZM40.0833 196.909L40.2523 205.396L27.723 206.082L26.1737 197.097L40.0833 196.909ZM25.1092 196.085L7.72353 190.004L11.2139 180.695L22.0878 186.259L25.1092 196.085ZM25.3614 197.009L26.9192 206.06L9.12063 204.703L6.9736 192.004L7.44619 190.744L25.3614 197.009ZM27.0572 206.86L28.1826 213.398H11.3049L9.29958 205.508L27.0572 206.86ZM28.9772 213.354L27.8578 206.863L40.2681 206.188L40.355 210.549L40.2637 211.81L28.9772 213.354ZM40.2051 212.615L39.6565 220.185L27.2114 223.443L28.9887 214.147L40.2051 212.615ZM35.9901 186.412L50.4492 191.036L50.9071 192.075L52.179 201.026L40.6874 196.265L35.9901 186.412ZM41.057 206.15L51.27 209.251C51.3077 209.26 51.3453 209.268 51.3854 209.268L52.7417 209.269L52.8371 214.011V215.344L41.0537 211.82L41.1443 210.571L41.057 206.15ZM51.4444 208.476L41.2056 205.368C41.1608 205.356 41.1114 205.349 41.069 205.351L41.0413 205.353L40.8803 197.2L52.308 201.935L52.6414 204.281L52.7259 208.477L51.4444 208.476ZM40.9953 212.628L52.8371 216.17V222.266C52.8371 222.303 52.8441 222.343 52.8535 222.381L52.9794 222.797L40.4481 220.18L40.9953 212.628ZM51.6824 191.908C51.6777 191.872 51.6682 191.837 51.6541 191.804L51.4578 191.359L54.529 192.341C54.5667 192.353 54.609 192.36 54.6491 192.36L63.1841 192.355V201.669L53.1198 201.416L53.0255 201.377L51.6824 191.908ZM63.2797 202.464L65.8072 208.23L65.755 208.491L53.5156 208.478L53.4285 204.218L53.1435 202.208L63.2797 202.464ZM66.588 209.33L78.9212 213.766L78.6505 222.1L69.3045 221.164L66.588 209.33ZM66.822 208.573L66.6331 208.142L68.4215 199.157L79.386 199.455L78.9481 212.934L66.822 208.573ZM79.4186 222.845L96.9624 220.95L93.5818 229.896L79.7428 231.739C79.5618 231.762 79.4514 231.913 79.429 232.085L79.142 231.359L79.4186 222.845ZM97.8598 220.814L107.181 217.806L104.262 226.294L94.4848 229.776L94.4721 229.777L97.8598 220.814ZM108.137 217.461L117.884 211.44L118.837 210.709L115.027 221.012L113.588 222.174L105.245 225.874L108.137 217.461ZM117.437 210.79L108.206 216.502L108.241 203.751L118.558 202.003L118.765 201.922L119.751 208.24L119.35 209.323L117.437 210.79ZM118.193 193.122L128.047 191.354L127.641 195.955L124.944 198.678L119.396 200.838L118.193 193.122ZM118.233 192.312L119.607 184.743C119.615 184.742 119.623 184.746 119.63 184.744L125.756 183.253L128.125 190.463L128.119 190.538L118.233 192.312ZM119.645 183.927L114.296 168.207L117.097 166.821L120.329 165.528L120.342 165.782L125.52 182.496L119.645 183.927ZM120.558 150.849L121.365 141.576L123.947 141.723C123.852 142.786 123.57 145.853 123.242 149.418L120.558 150.849ZM120.744 140.846L116.501 142.929L122.235 135.937H124.385L120.744 140.846ZM122.516 135.146L123.804 127.6C123.813 127.553 123.813 127.504 123.801 127.457L123.494 125.919L124.76 125.673L127.9 124.493L124.872 135.146H122.516ZM124.546 124.914L123.339 125.149L120.991 113.419H128.546L128.121 123.569L124.546 124.914ZM120.811 112.628L119.446 107.679H125.93L128.327 112.628H120.811ZM119.147 106.887L116.465 102.481L123.4 102.455L125.547 106.887H119.147ZM115.904 101.691L112.915 99.2245L120.989 97.3892C120.992 97.4416 120.998 97.4944 121.021 97.5416L123.017 101.664L115.904 101.691ZM121.019 96.5707L112.486 98.5136L113.812 84.2788L113.902 84.2277H121.632L121.019 96.5707ZM121.533 70.126L121.107 60.3126L124.044 60.8223C123.97 63.6185 123.892 66.5519 123.814 69.4902L121.533 70.126ZM121.063 59.5015L120.648 52.5441L120.751 51.8295L124.227 53.9032C124.177 55.8029 124.122 57.8595 124.065 60.0223L121.063 59.5015ZM120.872 50.9818L122.338 40.7418L124.566 42.6263C124.551 42.7651 124.517 42.902 124.513 43.0418C124.509 43.2247 124.403 47.2554 124.251 52.9971L120.872 50.9818ZM121.789 39.6612L118.198 41.2008L123.769 31.0684L129.004 29.4554L121.789 39.6612ZM123.876 30.2092L123.383 17.4178L129.242 18.7916L129.592 28.4463L123.876 30.2092ZM124.77 8.96838C126.287 10.0021 127.7 11.3264 128.966 12.9871L125.414 10.8668L122.978 8.51312L124.77 8.96838ZM122.141 7.48633L121.835 7.40857L121.727 7.30414C121.866 7.36305 122.004 7.42372 122.141 7.48633ZM114.192 5.66376C116.096 5.75212 118.016 6.04695 119.884 6.62384L120.436 7.15729L114.192 6.08453V5.66376ZM114.192 6.8869L121.444 8.13141L124.192 10.7856H118.926C118.883 10.7857 118.843 10.7927 118.803 10.8057L114.192 12.3117V6.8869ZM121.871 16.8623L115.345 19.0284L103.87 16.3876L105.734 15.905L113.774 13.2801L121.871 16.8623ZM106.26 6.41809L106.684 6.22357C108.782 5.83667 111.069 5.5973 113.4 5.63855V6.08746L105.932 7.3205L106.26 6.41809ZM105.676 8.15466L113.4 6.88776V12.5703L105.513 15.1462L102.834 15.8395L105.621 8.17633L105.676 8.15466ZM97.2361 10.2122C97.507 10.2898 97.7923 10.3021 98.0524 10.1835L105.248 6.8822L104.993 7.5835L96.8039 10.8021L97.2361 10.2122ZM91.9781 7.75745C94.2025 8.68927 95.7733 9.49092 96.5011 9.87988L95.5047 11.24L91.5532 8.30206L91.9781 7.75745ZM84.8615 5.23932C87.2827 5.94433 89.4239 6.72193 91.2189 7.448L90.8747 7.8894L84.2726 5.71161L84.8615 5.23932ZM73.5263 3.08508C77.2773 3.40217 80.7966 4.11971 83.9215 4.97907L83.3447 5.44183L75.7487 3.51953C75.7157 3.5113 75.6851 3.49477 75.645 3.50775L72.9229 3.55859L73.5263 3.08508ZM60.8834 3.76062C64.7858 2.95045 68.6579 2.78254 72.3429 3.00714L71.609 3.58301L63.2572 3.73871L60.1044 4.48315L60.8834 3.76062ZM59.3195 4.13281L58.5445 4.8515L53.9123 5.94537C55.7049 5.18219 57.5119 4.58806 59.3195 4.13281ZM45.225 11.0029C45.4194 10.9647 45.5906 10.885 45.763 10.7515C47.3749 9.49313 49.0262 8.43448 50.6978 7.51648L57.3762 5.93488L54.635 8.47693L54.5077 8.48694C54.4724 8.49047 54.4371 8.49753 54.4041 8.5105L45.0653 11.9116L45.225 11.0029ZM44.9075 12.8101L53.9328 9.52319L50.8531 16.8346L43.9348 18.3458L44.9075 12.8101ZM37.1218 7.41242C37.5154 7.51492 39.1649 8.375 40.3667 9.00299C42.5239 10.1269 43.6833 10.7163 44.4363 10.9294L44.2089 12.2234L43.4301 12.507L31.5248 9.04468L36.0697 7.20544C36.4166 7.27303 36.7616 7.34025 37.1218 7.41242ZM34.6309 6.93445L30.231 8.7146L22.3687 9.17444L26.1657 6.50342C28.7377 6.07144 31.4114 6.35065 34.6309 6.93445ZM24.0225 7.0445L21.5506 8.78265C21.461 8.8451 21.4021 8.94288 21.388 9.05127L21.3626 9.23334L19.6589 9.33289C21.1739 8.26541 22.6049 7.52506 24.0225 7.0445ZM18.5086 10.193L21.2514 10.0323L20.3925 16.2062L17.8334 21.6784L14.8756 18.3822L15.0208 17.1068L18.3454 10.3246C18.3997 10.2812 18.4547 10.2357 18.5086 10.193ZM16.7779 11.7226L14.2809 16.8193C14.2621 16.8606 14.2479 16.9041 14.2432 16.9489L14.1696 17.5953L13.5465 16.9008C14.1334 15.0988 15.1582 13.3376 16.7779 11.7226ZM13.3018 25.2178C12.8095 22.9237 12.6361 20.34 13.2737 17.7812L14.05 18.6464L13.3018 25.2178ZM13.8563 27.3373L14.7561 19.4333L17.6436 22.6515C17.662 22.672 17.6938 22.6693 17.7157 22.6854C17.7381 22.7026 17.7442 22.7332 17.7708 22.7457C17.8163 22.7665 17.8639 22.7739 17.9113 22.7774C17.9153 22.7777 17.9177 22.7821 17.9217 22.7823L17.9356 22.7829C17.9365 22.7829 17.9372 22.7834 17.9381 22.7834C17.9378 22.7834 17.9384 22.7834 17.9381 22.7834L22.3871 22.9745V32.3433L19.2153 30.965L13.9024 27.4739C13.8874 27.4272 13.8712 27.3846 13.8563 27.3373ZM15.3861 31.1394C15.0616 30.4828 14.6895 29.6479 14.3311 28.6993L18.8407 31.6578L22.4882 33.2499L25.8245 40.4703L20.7243 39.5115C20.6623 39.2531 20.5402 39.0092 20.3346 38.8285C20.3276 38.8226 20.3205 38.8167 20.3134 38.8096L15.3861 31.1394ZM20.0613 48.6155L25.0067 51.8556L24.573 56.1318L20.2704 53.9511C20.1206 52.2247 20.0349 50.4556 20.0613 48.6155ZM20.4549 55.9952C20.4074 55.6329 20.3932 55.2476 20.354 54.8795L24.5669 57.0142L26.7256 66.134L21.9914 64.4094C21.3623 61.3019 20.7727 58.369 20.4549 55.9952ZM22.1742 65.3162L26.9433 67.0535L26.9962 67.2778L27.0047 77.3541L24.0292 75.3932C23.486 71.8717 22.8097 68.4529 22.1742 65.3162ZM23.8606 96.9844L28.0019 98.6389L22.4315 100.822C23.0218 99.6114 23.4854 98.3227 23.8606 96.9844ZM29.0731 99.067L33.6087 100.879L29.3306 102.877L21.9564 101.856L29.0731 99.067ZM21.4068 102.674C21.4252 102.645 21.4384 102.613 21.4567 102.584L28.5952 103.572L21.1055 111.791H13.3037L18.3508 105.318C19.6518 104.536 20.7561 103.695 21.4068 102.674ZM9.05196 110.851C10.2655 109.449 12.6432 108.27 14.9407 107.132C15.5021 106.854 16.0479 106.579 16.5857 106.302L12.3099 111.791H8.31002C8.55096 111.472 8.79085 111.152 9.05196 110.851ZM7.74667 112.583H11.8313L6.40731 122.579L4.50344 121.555C4.8678 118.268 5.99244 115.184 7.74667 112.583ZM4.38149 123.175C4.39033 122.921 4.42081 122.671 4.4385 122.418L6.22378 123.378L8.31429 131.883L4.75576 128.443C4.45179 126.684 4.3217 124.904 4.38149 123.175ZM5.04086 129.821L8.72823 133.385L16.356 144.119C10.5007 142.438 6.53677 136.409 5.04086 129.821ZM9.79159 133.517L17.5142 133.517L24.3773 138.34L18.4171 144.588C18.3141 144.542 18.2076 144.502 18.0913 144.487C17.8898 144.46 17.7004 144.404 17.5028 144.368L9.79159 133.517ZM16.3876 175.507C16.4913 175.424 16.5784 175.323 16.6491 175.21C16.6823 175.156 16.7079 175.083 16.7403 175.028L18.6365 175.107L15.5369 176.155C15.8146 175.941 16.128 175.717 16.3876 175.507ZM13.551 177.661L20.7055 175.243L34.0905 185.382L22.5059 185.586L10.9427 179.671C11.8208 178.955 12.6978 178.294 13.551 177.661ZM10.2926 180.224L10.5056 180.333L6.95065 189.813C6.91162 189.82 6.87093 189.801 6.83456 189.82L2.9482 191.787C4.12701 186.396 7.12116 182.924 10.2926 180.224ZM2.7925 192.753L6.56387 190.844L6.19601 191.825C6.17244 191.891 6.16536 191.962 6.17715 192.03L8.2449 204.257L2.6553 200.665C2.30168 197.64 2.39795 195.043 2.7925 192.753ZM2.81936 201.711L8.43771 205.321L10.4293 213.163L5.20565 211.239C3.99134 207.684 3.22643 204.53 2.81936 201.711ZM9.58956 221.534C8.04417 219.172 7.41455 217.061 7.37655 216.947C6.67212 215.29 6.05355 213.707 5.5126 212.193L10.7226 214.113L15.8784 223.461L9.58956 221.534ZM15.2329 226.79C13.1248 225.716 11.5274 224.153 10.3368 222.588L16.1237 224.363C16.1614 224.375 16.199 224.382 16.2391 224.382H16.3861L18.317 227.883C17.2365 227.645 16.2059 227.286 15.2329 226.79ZM25.5893 227.71C23.3472 228.214 21.251 228.329 19.313 228.051L17.2891 224.382H26.2252L25.5893 227.71ZM16.8523 223.59L11.6672 214.19L28.1742 214.186L26.3767 223.59H16.8523ZM38.2455 223.668C38.2205 223.666 38.1956 223.663 38.1706 223.663C38.041 223.663 37.9137 223.684 37.7888 223.724L28.7495 226.792C27.9603 227.079 27.192 227.308 26.4342 227.508L27.0469 224.303L39.3505 221.082L38.2455 223.668ZM39.062 223.767L40.2659 220.948L53.2381 223.65L53.8415 225.641C48.6551 224.983 43.2502 224.298 39.062 223.767ZM53.6288 222.207V216.309L67.414 216.733C67.4187 216.733 67.4211 216.733 67.4258 216.733C67.4427 216.733 67.4532 216.717 67.4697 216.715L68.4999 221.202C68.4267 221.267 68.3799 221.361 68.3683 221.467C68.3499 221.655 68.4789 221.806 68.6515 221.863L68.8997 222.944L53.8482 222.93L53.6288 222.207ZM54.7031 225.75L54.0856 223.713L69.0814 223.736L69.9882 227.686C67.8306 227.414 61.5797 226.622 54.7031 225.75ZM70.8258 227.791L69.4912 221.977L78.625 222.885L78.3479 231.416C78.3479 231.451 78.3584 231.488 78.3673 231.524L72.3832 229.201C71.4427 227.898 71.2596 227.852 70.8258 227.791ZM77.5349 236.708C77.3417 236.475 76.2836 234.91 75.3505 233.532C74.4295 232.17 73.7394 231.15 73.1994 230.365L78.6919 232.497C78.7081 232.504 78.7243 232.492 78.741 232.496L81.4619 239.379C79.6724 238.976 79.008 238.398 77.5349 236.708ZM82.6272 239.602C82.5378 239.588 82.4687 239.573 82.3837 239.558L79.5695 232.441C79.635 232.488 79.7097 232.526 79.7947 232.526C79.8112 232.526 79.8301 232.523 79.8466 232.521L93.268 230.727L89.9074 239.619C87.387 239.947 84.9208 239.969 82.6272 239.602ZM90.8043 239.482L94.1583 230.607L94.6686 230.539L103.935 227.246L100.794 236.379C97.5614 237.881 94.1492 238.95 90.8043 239.482ZM101.801 235.892L104.895 226.891L113.956 222.874C113.987 222.86 114.017 222.843 114.043 222.822L114.259 222.648L110.514 229.972C108.002 232.275 105.017 234.291 101.801 235.892ZM115.563 223.847C114.696 225.36 113.582 226.805 112.315 228.18L115.57 221.809L115.686 221.495L118.5 219.223L115.563 223.847ZM126.676 206.912C125.523 208.817 124.494 209.913 124.355 210.055C124.296 210.114 124.242 210.182 124.197 210.253L119.825 217.136L116.222 220.046L120.01 209.81L124.553 206.327L126.933 203.992L126.676 206.912ZM127.04 202.783L124.037 205.731L120.523 208.424L120.526 208.417C120.549 208.353 120.556 208.285 120.547 208.219L119.519 201.63L125.309 199.382C125.361 199.363 125.408 199.333 125.446 199.293L127.533 197.186L127.04 202.783ZM127.621 205.193L127.802 203.14L128.897 202.065C128.509 203.225 128.076 204.275 127.621 205.193ZM129.359 200.507L127.908 201.93L128.404 196.308L130.188 194.506C130.145 196.733 129.826 198.729 129.359 200.507ZM130.174 193.399L128.512 195.076L128.865 191.071L129.815 189.569C130.025 190.903 130.147 192.183 130.174 193.399ZM129.637 188.369L128.737 189.794L126.478 182.923L126.462 182.872L127.67 181.966C128.592 184.218 129.235 186.358 129.637 188.369ZM125.927 178.226C126.467 179.251 126.915 180.242 127.34 181.224L126.214 182.07L121.115 165.645L121.094 165.223L122.296 164.742C122.895 172.195 125.777 177.933 125.927 178.226ZM126.707 136.256C125.062 138.728 124.247 140.022 124.037 140.938L121.757 140.807L125.432 135.853L127.732 134.693C127.398 135.213 127.041 135.754 126.707 136.256ZM128.839 132.747C128.787 132.905 128.671 133.136 128.519 133.408L125.796 134.782L128.798 124.189L130.963 123.705C130.573 126.622 129.874 129.631 128.839 132.747ZM131.076 122.868L128.911 123.356L129.337 113.419L130.948 113.419C131.398 116.458 131.446 119.602 131.076 122.868ZM130.818 112.628H129.205L126.753 107.563L129.11 106.423C129.882 108.441 130.451 110.508 130.818 112.628ZM128.829 105.681L126.408 106.852L124.278 102.452L127.291 102.44C127.86 103.507 128.381 104.585 128.829 105.681ZM126.87 101.65L123.895 101.661L121.777 97.2871L121.781 97.209L123.637 96.7869C123.836 97.0455 124.028 97.2988 124.216 97.558C125.206 98.8996 126.087 100.264 126.87 101.65ZM124.736 41.7363L122.579 39.9121L130.096 29.2822L132.664 31.0577C132.082 32.3365 130.663 33.8582 129.268 35.3362C127.337 37.3858 125.37 39.4961 124.736 41.7363Z" fill="white"/>
<path d="M81.6941 48.3555C78.8263 46.6153 75.8901 46.3926 73.6492 47.7499C71.6533 48.9587 70.5104 51.2622 70.6706 53.7635C70.8639 56.8305 72.9046 59.5156 76.1282 60.946C76.4392 61.085 76.7668 61.151 77.0873 61.151C77.9969 61.151 78.864 60.6255 79.2576 59.7407C79.7901 58.5436 79.2505 57.1415 78.051 56.6101C75.7794 55.6004 75.4425 54.0734 75.4048 53.4631C75.3576 52.7326 75.6262 52.0975 76.1069 51.8077C76.7691 51.4059 77.945 51.6298 79.234 52.4109C80.3509 53.0896 81.8095 52.7326 82.4929 51.6133C83.1716 50.4928 82.8134 49.0342 81.6941 48.3555Z" fill="white"/>
<path d="M40.1263 59.4237C40.4397 59.5616 40.765 59.6276 41.0854 59.6276C41.995 59.6276 42.8646 59.1009 43.2557 58.2161C43.7883 57.0178 43.2463 55.6169 42.0492 55.0855C39.7823 54.0817 39.4477 52.5571 39.4076 51.9491C39.3605 51.2163 39.6315 50.5812 40.1122 50.2902C40.7743 49.8872 41.9455 50.1111 43.2322 50.8922C44.3491 51.5709 45.8101 51.2151 46.4888 50.0957C47.1698 48.9764 46.8139 47.5167 45.6923 46.8368C42.8268 45.0978 39.8954 44.875 37.6544 46.2312C35.6562 47.4412 34.5133 49.747 34.6736 52.2495C34.8692 55.3153 36.9074 57.9969 40.1263 59.4237Z" fill="white"/>
<path d="M107.37 22.0317C103.022 20.9878 98.9361 23.7578 98.4861 24.0783C97.421 24.8335 97.1712 26.304 97.9205 27.3726C98.6722 28.4424 100.15 28.6969 101.22 27.9547C101.976 27.4315 104.368 26.1803 106.276 26.648C107.358 26.9143 108.237 27.7166 109.036 29.2342C109.59 30.1685 111.041 33.4322 106.562 36.2211C105.449 36.9139 105.11 38.3761 105.801 39.4883C106.251 40.2105 107.026 40.6076 107.818 40.6064C108.246 40.6064 108.678 40.4909 109.069 40.2482C116.402 35.6815 114.451 28.9573 113.167 26.9037C111.444 23.6153 109.064 22.4394 107.37 22.0317Z" fill="white"/>
<path d="M28.7071 33.1094C28.7966 33.1094 28.8885 33.1047 28.9804 33.0941C30.2811 32.9445 31.2143 31.7686 31.0658 30.4667C30.8844 28.8761 31.1625 26.3158 32.032 25.7597C32.5575 25.4286 34.068 25.6007 36.6177 27.1583C37.737 27.8404 39.1956 27.4893 39.8789 26.37C40.5623 25.2519 40.2089 23.792 39.0919 23.1099C35.1143 20.6816 31.8789 20.228 29.48 21.762C25.6861 24.1833 26.2728 30.3171 26.3529 31.0087C26.492 32.2175 27.5171 33.1094 28.7071 33.1094Z" fill="white"/>
<path d="M70.6399 88.2762C71.9288 88.0429 72.7842 86.8082 72.5485 85.5192C72.3153 84.2302 71.0782 83.3748 69.7916 83.6104C57.7478 85.8019 50.4193 85.5804 42.7302 82.8116C41.4907 82.3592 40.1404 83.0048 39.695 84.2396C39.252 85.472 39.8907 86.8317 41.1231 87.2747C45.8572 88.9807 50.5324 89.8197 55.9781 89.8197C60.2574 89.8197 65.0127 89.3013 70.6399 88.2762Z" fill="white"/>
</svg>
