<svg width="141" height="68" viewBox="0 0 141 68" fill="none" xmlns="http://www.w3.org/2000/svg">
<path d="M10.9504 15.9546V20.5105C10.151 20.9624 9.35161 21.4739 8.55248 22.0528L8.19189 22.314V29.3924C8.46782 29.0574 8.75975 28.736 9.06405 28.427C9.34315 28.1436 9.63489 27.8731 9.93626 27.6132V23.2089C10.275 22.972 10.6129 22.7503 10.9504 22.5383C11.5336 22.1719 12.115 21.843 12.6948 21.551C14.6562 20.5632 16.5996 20.0011 18.5346 19.8646V18.1289C16.5917 18.2498 14.6438 18.7458 12.6948 19.6224V16.8512C14.6661 15.4917 16.6066 14.7205 18.5346 14.5348V12.7822C16.1323 12.9792 13.72 13.9484 11.311 15.6934L10.9504 15.9546Z" fill="#0E4668"/>
<path d="M30.2686 22.0584C29.469 21.4657 28.6669 20.9432 27.863 20.4835V15.9605L27.5101 15.6991C25.1223 13.9293 22.7073 12.9569 20.2788 12.7764V14.5258C22.2262 14.6967 24.1665 15.47 26.1186 16.8455V19.5903C24.181 18.7168 22.2331 18.227 20.2788 18.1207V19.8568C22.2277 19.9775 24.1711 20.5316 26.1186 21.5194C26.6996 21.8141 27.281 22.1472 27.863 22.519C28.2008 22.7349 28.5388 22.9611 28.8771 23.2029V27.6161C29.1786 27.8751 29.4695 28.1463 29.7492 28.4293C30.0534 28.7371 30.3452 29.0577 30.6215 29.3922V22.3199L30.2686 22.0584Z" fill="#0E4668"/>
<path d="M23.7675 26.6067V35.0595L22.8939 35.8842L21.1478 34.236L19.404 35.8836L17.6611 34.2355L15.917 35.8836L15.0456 35.0601V26.5984C14.4418 26.8183 13.859 27.0822 13.3013 27.3868V36.2595H13.7756L15.917 38.2839L17.6605 36.6357L19.4034 38.2839L21.1484 36.6354L22.8939 38.2833L25.0376 36.2595H25.5118V27.3957C24.9527 27.0905 24.3696 26.8268 23.7675 26.6067Z" fill="#0E4668"/>
<path d="M31.7067 42.0908C30.8816 45.0133 29.0555 47.4646 26.6663 49.1157C26.9865 49.2795 27.3131 49.3812 27.7371 49.4258C27.9043 49.4434 28.0852 49.453 28.289 49.453C28.6162 49.453 28.8882 49.4301 29.1302 49.3842C31.1185 47.5948 32.6255 45.256 33.3852 42.5649L32.5459 42.3279L31.7067 42.0908Z" fill="#79C6BA"/>
<path d="M28.8772 30.0417C29.1863 30.3818 29.4774 30.739 29.7493 31.1121C30.0678 31.5489 30.3593 32.0075 30.6216 32.4857C31.0752 33.3126 31.4431 34.1967 31.7067 35.1303L32.546 34.8932L33.3852 34.6562C32.8294 32.6873 31.8731 30.9071 30.6216 29.3922C30.3452 29.0576 30.0535 28.7371 29.7493 28.4293C29.4696 28.1463 29.1787 27.8751 28.8772 27.6161C28.5509 27.3357 28.2127 27.0697 27.8631 26.8191C25.6786 25.2528 23.0617 24.285 20.2789 24.1164C19.9897 24.0989 19.6992 24.0869 19.4067 24.0869C19.1137 24.0869 18.8233 24.0983 18.5345 24.1155C15.7157 24.2834 13.1125 25.2595 10.9503 26.8137C10.6002 27.0654 10.2621 27.3321 9.93619 27.6131C9.63482 27.873 9.34308 28.1435 9.06398 28.4269C8.75967 28.7359 8.46775 29.0573 8.19182 29.3923C6.12541 31.9017 4.88281 35.1136 4.88281 38.6106C4.88281 42.9147 6.76644 46.7855 9.75062 49.4474C9.83391 49.451 9.91985 49.4532 10.0111 49.4532C10.4021 49.4532 10.7151 49.4213 10.9911 49.3556C11.3303 49.2748 11.6137 49.1423 11.9167 48.9557C8.71484 46.631 6.62718 42.8611 6.62718 38.6106C6.62718 36.3942 7.19506 34.3084 8.19182 32.4895C8.45324 32.0125 8.74592 31.5552 9.06398 31.1174C9.3361 30.7428 9.62598 30.3821 9.93619 30.0396C10.8979 28.9781 12.035 28.0784 13.3014 27.3867C13.8591 27.0822 14.4419 26.8182 15.0458 26.5983C16.4073 26.1025 17.8759 25.8313 19.4067 25.8313C20.9241 25.8313 22.3952 26.105 23.7676 26.6066C24.3698 26.8267 24.9528 27.0904 25.512 27.3957C26.7721 28.0835 27.9109 28.9786 28.8772 30.0417Z" fill="#79C6BA"/>
<path d="M21.952 9.31187C22.3526 9.31187 22.6773 9.63655 22.6773 10.0371C22.6773 10.4376 23.002 10.7624 23.4025 10.7624H29.2186L26.4296 9.76799C26.1408 9.66504 25.9479 9.39153 25.9479 9.08487V7.87564C25.9479 7.47508 25.6233 7.15039 25.2227 7.15039H20.2788V9.31187H21.952Z" fill="#79C6BA"/>
<path d="M18.5344 7.15039V24.1155C18.8232 24.0983 19.1136 24.087 19.4066 24.087C19.6991 24.087 19.9895 24.099 20.2788 24.1165V7.15039H18.5344Z" fill="#0E4668"/>
<path d="M1.74437 46.1918V19.6503C1.74437 10.0526 9.55257 2.24437 19.1503 2.24437C28.7477 2.24437 36.5559 10.0526 36.5559 19.6503V46.1918C36.8359 46.1712 37.1237 46.1568 37.4284 46.1568H38.3003V19.6503C38.3003 9.0907 29.7096 0.5 19.15 0.5C8.59067 0.5 0 9.0907 0 19.6503V46.1568H0.872446C1.17695 46.1568 1.46457 46.1711 1.74437 46.1918Z" fill="#0E4668"/>
<path d="M36.4333 50.8812C35.4234 59.5244 28.06 66.2552 19.1501 66.2552C10.2403 66.2552 2.87657 59.5243 1.86667 50.8811C1.56824 50.8348 1.2412 50.8086 0.872295 50.8086H0.0993652C1.0836 60.4512 9.25181 67.9996 19.1501 67.9996C29.0482 67.9996 37.2164 60.4512 38.2006 50.8086H37.4282C37.0591 50.8086 36.7319 50.8348 36.4333 50.8812Z" fill="#0E4668"/>
<path d="M32.8582 53.342C31.7348 54.152 30.5733 54.9898 28.2889 54.9898C26.0043 54.9898 24.8428 54.152 23.7193 53.3417C23.4287 53.132 23.1351 52.9208 22.8205 52.7224C22.7551 52.6812 22.6893 52.6402 22.6219 52.6003C22.5436 52.5538 22.4638 52.5083 22.3823 52.464C22.2307 52.3816 22.0724 52.3037 21.9071 52.2307C21.8527 52.2066 21.7963 52.1839 21.7401 52.161C21.6814 52.1372 21.6228 52.1133 21.5621 52.0908C21.4777 52.0596 21.392 52.0294 21.3034 52.0012C21.29 51.9969 21.2755 51.9934 21.262 51.9892C20.6728 51.8067 19.9871 51.6934 19.1494 51.6934C18.2511 51.6934 17.5281 51.8241 16.9111 52.0306C16.4274 52.1925 16.0089 52.4011 15.6257 52.6322C15.2547 52.8561 14.9152 53.1 14.5798 53.342C13.4567 54.152 12.2955 54.9898 10.0111 54.9898C7.7267 54.9898 6.56522 54.152 5.44205 53.3417L4.42147 54.7564C5.64314 55.6374 7.16313 56.7342 10.0111 56.7342C12.859 56.7342 14.3791 55.6378 15.6011 54.7562C16.6618 53.9908 17.4283 53.4377 19.1494 53.4377C20.8711 53.4377 21.6377 53.9907 22.6989 54.7565C22.8294 54.8506 22.9643 54.9474 23.1029 55.0448C23.2076 55.1184 23.3139 55.1923 23.4244 55.2661C23.4307 55.2704 23.4374 55.2745 23.4437 55.2788C23.5612 55.357 23.6836 55.4346 23.809 55.5115C24.8686 56.1614 26.2313 56.7342 28.2889 56.7342C31.1369 56.7342 32.6569 55.6378 33.8786 54.7568L32.8582 53.342Z" fill="#0E4668"/>
<path d="M36.556 47.6496C34.2585 47.8468 32.9281 48.8025 31.8379 49.5892C30.777 50.3543 30.0104 50.9071 28.289 50.9071C27.8962 50.9071 27.555 50.877 27.2467 50.8235C27.1328 50.8037 27.0219 50.7818 26.9167 50.7554C26.9073 50.7531 26.8986 50.7502 26.8893 50.7478C26.6208 50.6786 26.3786 50.588 26.1496 50.4806C25.8401 50.3354 25.554 50.1589 25.2619 49.9588C25.0922 49.8426 24.9204 49.7191 24.7398 49.5889C23.5184 48.7076 21.9983 47.6108 19.1496 47.6108C16.3007 47.6108 14.781 48.7076 13.5598 49.5889C13.4554 49.6643 13.3543 49.7368 13.2543 49.8077C12.9738 50.0067 12.7058 50.1877 12.425 50.342C12.1214 50.5089 11.8012 50.6445 11.4331 50.7415C11.0315 50.8474 10.5727 50.9071 10.0112 50.9071C9.68854 50.9071 9.39941 50.8877 9.13563 50.851C8.32854 50.7389 7.75837 50.4653 7.18944 50.0956C6.95258 49.9418 6.71599 49.7716 6.46256 49.5889C5.37262 48.8024 4.0419 47.8467 1.74448 47.6496C1.46742 47.6258 1.17913 47.6108 0.872559 47.6108V49.3552C1.18913 49.3552 1.48222 49.3727 1.75852 49.4026C2.85326 49.5209 3.65672 49.8541 4.34461 50.2619C4.73636 50.4942 5.09128 50.7502 5.44246 51.0036C6.35479 51.6618 7.29259 52.3383 8.83746 52.5688C9.01574 52.5954 9.20206 52.6161 9.3974 52.6301C9.59274 52.6441 9.79704 52.6515 10.0112 52.6515C11.5108 52.6515 12.5252 52.2898 13.3637 51.8126C13.6744 51.6358 13.9616 51.4437 14.2393 51.2474C14.354 51.1663 14.4677 51.0848 14.5805 51.0034C14.7492 50.8816 14.9194 50.7595 15.0935 50.6395C16.0782 49.9605 17.2077 49.3552 19.1496 49.3552C20.1492 49.3552 20.9339 49.5156 21.5943 49.7638C22.2883 50.0246 22.8448 50.3826 23.3699 50.7534C23.4875 50.8364 23.6039 50.92 23.7194 51.0034C23.8928 51.1285 24.0678 51.2539 24.247 51.3772C24.5343 51.5747 24.835 51.7651 25.164 51.9365C25.4605 52.0911 25.7793 52.2306 26.1352 52.3436C26.2847 52.3911 26.4405 52.4341 26.6035 52.4719C27.0926 52.5852 27.6464 52.6515 28.289 52.6515C30.5737 52.6515 31.7352 51.8139 32.8592 51.0034C33.8264 50.3054 34.8238 49.5884 36.542 49.4026C36.8185 49.3728 37.1117 49.3552 37.4285 49.3552V47.6108C37.1217 47.6108 36.8333 47.6258 36.556 47.6496Z" fill="#0E4668"/>
<path d="M55.7625 29.4358C55.5178 29.7412 55.0688 29.9456 54.8242 29.9456C54.5796 29.9456 54.3752 29.6189 54.3752 29.2314V28.7832C54.3752 28.5789 54.3958 28.4155 54.4573 28.2734C54.4976 28.1306 54.5591 28.0691 54.6404 28.0691C54.7019 28.0691 54.7627 27.9878 54.8242 27.845C54.885 27.7021 54.9055 27.5388 54.9055 27.3557V26.1523C54.9055 25.7649 55.2117 25.4382 55.5991 25.4382H56.0679C56.4553 25.4382 56.8428 25.7649 56.8428 26.1523V27.7227C56.8428 28.1101 56.5374 28.6609 56.2722 28.926L55.7625 29.4358ZM55.0688 33.2488C54.6814 33.2488 54.3752 32.9434 54.3752 32.5354V32.0864C54.3752 31.6785 54.6814 31.373 55.0688 31.373H59.5557C59.9636 31.373 60.269 31.1489 60.269 30.8838C60.269 30.5776 60.5752 30.3733 60.9626 30.3733H61.4314C61.8394 30.3733 62.1455 30.5776 62.1455 30.8838C62.1455 31.1489 62.4509 31.373 62.8384 31.373H67.2644C67.6519 31.373 67.9778 31.6785 67.9778 32.0864V32.5354C67.9778 32.9434 67.6519 33.2488 67.2644 33.2488H62.8384C62.4509 33.2488 62.1455 33.5549 62.1455 33.9629V37.5518C62.1455 37.9392 61.8188 38.2659 61.4314 38.2659H60.9626C60.5752 38.2659 60.269 37.9392 60.269 37.5518V33.9629C60.269 33.5549 59.9636 33.2488 59.5557 33.2488H55.0688ZM56.6392 37.2463L56.1499 37.7561C55.8438 38.0623 55.375 38.2659 55.0278 38.2659C54.6404 38.2659 54.3752 37.9597 54.3752 37.5518V37.1035C54.3752 36.6956 54.5796 36.3894 54.8242 36.3894C55.0483 36.3894 55.2527 36.084 55.2527 35.676V34.7173C55.2527 34.3298 55.5786 34.0039 55.9661 34.0039H56.4355C56.823 34.0039 57.1899 34.3298 57.1899 34.7173V36.0635C57.1899 36.4509 56.9856 37.0017 56.6392 37.2463ZM55.2322 21.4414L55.0278 21.2173C54.885 21.0334 54.8037 20.8701 54.8037 20.7075C54.8037 20.5237 54.885 20.3398 55.0278 20.197L55.2322 19.9729C55.375 19.8301 55.5581 19.7488 55.7419 19.7488C55.9456 19.7488 56.1089 19.8301 56.2517 19.9729L56.5168 20.2175C56.6597 20.3398 56.7205 20.5032 56.7205 20.7075C56.7205 20.8906 56.6597 21.0745 56.5168 21.2173L56.2517 21.4414C56.1089 21.5842 55.925 21.6655 55.7419 21.6655C55.5786 21.6655 55.4153 21.5842 55.2322 21.4414ZM56.2517 24.2151C56.1089 24.3374 55.925 24.3982 55.7419 24.3982C55.5581 24.3982 55.375 24.3169 55.2322 24.1741L55.0278 23.95C54.885 23.7661 54.8037 23.6028 54.8037 23.4402C54.8037 23.2563 54.885 23.0725 55.0278 22.9297L55.2322 22.7056C55.4153 22.5627 55.5786 22.4814 55.7625 22.4814C55.9456 22.4814 56.1089 22.5627 56.2517 22.7056L56.5168 22.9297C56.6597 23.0725 56.7205 23.2358 56.7205 23.4402C56.7205 23.6233 56.6597 23.7866 56.5168 23.9294L56.2517 24.2151ZM61.5537 29.3538L61.0439 28.844C60.7788 28.5789 60.5547 28.0281 60.5547 27.6406V24.8267C60.5547 24.4392 60.2485 24.1125 59.8406 24.1125H58.5764C58.189 24.1125 57.863 23.7866 57.863 23.3992V22.9502C57.863 22.5627 58.189 22.2368 58.5764 22.2368H59.8406C60.2485 22.2368 60.5547 21.9102 60.5547 21.5227V20.238C60.5547 19.8506 60.8608 19.5444 61.2483 19.5444H61.717C62.125 19.5444 62.4312 19.8506 62.4312 20.238V21.5227C62.4312 21.9102 62.7366 22.2368 63.124 22.2368H67.2234C67.6108 22.2368 67.9368 22.5627 67.9368 22.9502V23.3992C67.9368 23.7866 67.6108 24.1125 67.2234 24.1125H63.124C62.7366 24.1125 62.4312 24.4392 62.4312 24.8267V27.2737C62.4312 27.6611 62.7366 27.9878 63.124 27.9878H66.8564C67.2439 27.9878 67.5698 28.3137 67.5698 28.7012V29.1501C67.5698 29.5376 67.2439 29.8635 66.8564 29.8635H62.7571C62.3491 29.8635 61.7983 29.6599 61.5537 29.3538ZM66.1833 37.7561L65.6941 37.2463C65.4487 37.0017 65.2246 36.4509 65.2246 36.0635V34.7173C65.2246 34.3298 65.5308 34.0039 65.9182 34.0039H66.387C66.7341 34.0039 67.0806 34.3298 67.0806 34.7173V35.676C67.0806 36.084 67.2842 36.3894 67.5295 36.3894C67.7742 36.3894 67.9778 36.6956 67.9778 37.1035V37.5518C67.9778 38.0212 67.6921 38.2454 67.2842 38.2454C66.8967 38.2454 66.4895 38.0623 66.1833 37.7561Z" fill="#0E4668"/>
<path d="M73.3611 37.5518V26.5398C73.3611 26.1318 73.178 25.8052 72.8718 25.8052C72.6272 25.8052 72.4229 25.4792 72.4229 25.0918V24.6428C72.4229 24.2554 72.729 23.95 73.1165 23.95H73.2183C73.6057 23.95 73.9119 23.6028 73.9119 23.1948V20.238C73.9119 19.8506 74.2378 19.5444 74.6252 19.5444H75.0947C75.5027 19.5444 75.8081 19.8506 75.8081 20.238V23.5823C75.8081 23.9705 75.6858 24.4187 75.5232 24.6025C75.3804 24.7454 75.2581 25.1936 75.2581 25.5811V37.5518C75.2581 37.9392 74.9519 38.2659 74.5439 38.2659H74.0547C73.6672 38.2659 73.3611 37.9392 73.3611 37.5518ZM76.5632 37.5518V37.083C76.5632 36.675 76.8892 36.3696 77.2971 36.3696H77.3176C77.7051 36.3696 78.0515 36.0635 78.072 35.6555L78.6023 28.2932C78.6228 27.886 78.3167 27.5798 77.9292 27.5798H77.2971C76.8892 27.5798 76.5632 27.2737 76.5632 26.8862V26.397C76.5632 26.0095 76.8892 25.6829 77.2971 25.6829H78.0515C78.4595 25.6829 78.8059 25.3569 78.8264 24.9695L79.0308 22.1548C79.0308 21.7476 78.7451 21.4209 78.3577 21.4209H77.2971C76.8892 21.4209 76.5632 21.1147 76.5632 20.7075V20.238C76.5632 19.8506 76.8892 19.5444 77.2971 19.5444H85.3318C85.7192 19.5444 86.0254 19.8506 86.0254 20.238V20.7075C86.0254 21.1147 85.7192 21.4209 85.3318 21.4209H81.6814C81.2742 21.4209 80.968 21.7476 80.9065 22.1548L80.7234 24.9695C80.7029 25.3569 80.9885 25.6829 81.3965 25.6829H84.2917C84.6997 25.6829 85.0264 26.0095 85.0264 26.397V35.635C85.0264 36.0635 85.23 36.3696 85.5361 36.3696C85.7808 36.3696 86.0254 36.675 86.0254 37.083V37.5518C86.0254 37.9392 85.7192 38.2659 85.3318 38.2659H77.2971C76.8892 38.2659 76.5632 37.9392 76.5632 37.5518ZM80.6414 36.3696H82.416C82.824 36.3696 83.1294 36.043 83.1294 35.635V28.2932C83.1294 27.886 82.8035 27.5798 82.416 27.5798H81.2742C80.8662 27.5798 80.5396 27.886 80.4788 28.2932L79.969 35.6555C79.9485 36.0635 80.2334 36.3696 80.6414 36.3696Z" fill="#0E4668"/>
<path d="M90.9802 38.2659C90.6748 38.2659 90.4705 37.9597 90.4705 37.5518V37.083C90.4705 36.8794 90.491 36.7161 90.5525 36.5732C90.5928 36.4304 90.6543 36.3696 90.7356 36.3696C90.8176 36.3696 90.8784 36.3081 90.9399 36.1653C90.9802 36.0225 91.0007 35.8591 91.0007 35.6555V27.9878C91.0007 27.6003 91.3069 27.2942 91.6943 27.2942H92.1836C92.571 27.2942 92.8772 27.6003 92.8772 27.9878V36.1243C92.8772 36.5527 92.6934 37.0625 92.3879 37.3687L92.0005 37.7356C91.6533 38.082 91.2864 38.2659 90.9802 38.2659ZM92.4077 21.7878C92.2854 21.9307 92.1228 22.0127 91.9185 22.0127C91.7354 22.0127 91.572 21.9307 91.4292 21.7878L91.123 21.4824C90.9802 21.2986 90.8989 21.1353 90.8989 20.9719C90.8989 20.7888 90.9802 20.605 91.123 20.4622L91.4292 20.1362C91.572 19.9934 91.7354 19.9121 91.9185 19.9121C92.1433 19.9121 92.3059 19.9934 92.4077 20.1362L92.7549 20.4622C92.8977 20.605 92.9585 20.7683 92.9585 20.9719C92.9585 21.1558 92.8977 21.3396 92.7549 21.4824L92.4077 21.7878ZM92.4077 25.6829C92.2854 25.8257 92.1228 25.9077 91.9185 25.9077C91.7354 25.9077 91.572 25.8257 91.4292 25.6829L91.123 25.3569C90.9802 25.1731 90.8989 25.0105 90.8989 24.8472C90.8989 24.6633 90.9802 24.4802 91.123 24.3374L91.4292 24.0312C91.572 23.8884 91.7354 23.8276 91.9185 23.8276C92.1228 23.8276 92.2854 23.8884 92.4077 24.0312L92.7549 24.3374C92.8977 24.4802 92.9585 24.6428 92.9585 24.8472C92.9585 25.0303 92.8977 25.2141 92.7549 25.3569L92.4077 25.6829ZM94.0806 37.5518V32.4944C94.0806 32.1069 93.9377 31.8015 93.7744 31.8015C93.7129 31.8015 93.6521 31.7195 93.5906 31.5767C93.5298 31.4338 93.5093 31.2507 93.5093 31.0669V30.5981C93.5093 30.4143 93.5298 30.251 93.5906 30.1082C93.6521 29.9661 93.7129 29.9045 93.7744 29.9045C93.9377 29.9045 94.0806 29.5786 94.0806 29.1912V24.0312C94.0806 23.6233 94.386 23.3179 94.7939 23.3179H102.788C103.176 23.3179 103.502 23.6233 103.502 24.0312V29.1912C103.502 29.3743 103.522 29.5376 103.584 29.6804C103.645 29.8232 103.706 29.9045 103.767 29.9045C103.951 29.9045 104.073 30.1902 104.073 30.5981V31.0669C104.073 31.4749 103.951 31.8015 103.767 31.8015C103.706 31.8015 103.645 31.8623 103.584 32.0051C103.522 32.1479 103.502 32.3113 103.502 32.4944V36.1243C103.502 36.5527 103.298 37.042 102.992 37.3481L102.585 37.7561C102.279 38.0623 101.789 38.2659 101.361 38.2659H94.6716C94.3457 38.2659 94.0806 37.9392 94.0806 37.5518ZM94.2637 21.2173C93.9377 20.9111 93.7334 20.4622 93.7334 20.1157C93.7334 19.7898 94.0396 19.5444 94.468 19.5444H94.9163C95.3242 19.5444 95.6304 19.647 95.6304 19.8711C95.6304 20.0549 95.9563 20.197 96.3438 20.197H103.36C103.767 20.197 104.073 20.5237 104.073 20.9316V21.4004C104.073 21.7878 103.767 22.094 103.36 22.094H95.8955C95.467 22.094 94.9573 21.9102 94.6511 21.6047L94.2637 21.2173ZM96.6909 29.9045H100.892C101.28 29.9045 101.626 29.5786 101.626 29.1912V25.9077C101.626 25.5203 101.28 25.2141 100.892 25.2141H96.6909C96.3035 25.2141 95.9973 25.5203 95.9973 25.9077V29.1912C95.9973 29.5786 96.3035 29.9045 96.6909 29.9045ZM96.6909 36.3696H100.912C101.32 36.3696 101.626 36.0635 101.626 35.6555V32.4944C101.626 32.1069 101.28 31.8015 100.892 31.8015H96.6909C96.3035 31.8015 95.9973 32.1069 95.9973 32.4944V35.6555C95.9973 36.0635 96.3035 36.3696 96.6909 36.3696ZM98.1389 28.803L97.7917 28.436C97.4863 28.1306 97.282 27.6406 97.282 27.2129V26.8862C97.282 26.4783 97.6086 26.1729 98.0166 26.1729H98.4854C98.8933 26.1729 99.179 26.4175 99.179 26.8049C99.179 27.1309 99.4441 27.4165 99.8315 27.4165C100.178 27.4165 100.484 27.7432 100.484 28.1306V28.5994C100.484 29.0073 100.157 29.3135 99.7495 29.3135H99.3621C98.9336 29.3135 98.4443 29.1091 98.1389 28.803ZM98.1389 35.2271L97.7917 34.8601C97.4863 34.554 97.282 34.0647 97.282 33.6362V33.3103C97.282 32.9229 97.6086 32.6167 98.0166 32.6167H98.4854C98.8933 32.6167 99.179 32.8613 99.179 33.2488C99.179 33.5754 99.4441 33.8816 99.8315 33.8816C100.178 33.8816 100.484 34.187 100.484 34.5745V35.0439C100.484 35.4314 100.137 35.7368 99.7495 35.7368H99.3621C98.9336 35.7368 98.4443 35.5332 98.1389 35.2271Z" fill="#0E4668"/>
<path d="M109.069 31.4749V24.6428C109.069 24.2554 108.947 23.95 108.783 23.95C108.702 23.95 108.64 23.8679 108.6 23.7251C108.539 23.5823 108.518 23.4197 108.518 23.2153V22.7671C108.518 22.3591 108.722 22.053 108.967 22.053C109.212 22.053 109.415 21.7271 109.415 21.3191V20.238C109.415 19.8506 109.742 19.5444 110.129 19.5444H110.619C111.027 19.5444 111.333 19.8506 111.333 20.238V21.3799C111.333 21.7673 111.638 22.0735 112.026 22.0735H121.387C121.795 22.0735 122.1 22.4001 122.1 22.7876V23.2563C122.1 23.6643 121.795 23.9705 121.387 23.9705H118.654C118.246 23.9705 117.94 24.1536 117.94 24.3982C117.94 24.623 118.246 24.7651 118.654 24.7651H121.387C121.795 24.7651 122.1 25.0918 122.1 25.4792V25.7854C122.1 26.1729 121.795 26.4783 121.387 26.4783H118.654C118.246 26.4783 117.94 26.7031 117.94 26.9478C117.94 27.1719 118.246 27.3557 118.654 27.3557H121.387C121.795 27.3557 122.1 27.6816 122.1 28.0691V28.3547C122.1 28.7627 121.795 29.0681 121.387 29.0681H118.654C118.246 29.0681 117.94 29.2314 117.94 29.4556C117.94 29.7009 118.246 29.8438 118.654 29.8438H121.387C121.795 29.8438 122.1 30.1697 122.1 30.5571V31.0464C122.1 31.4338 121.795 31.74 121.387 31.74H111.659C111.455 31.74 111.292 31.7605 111.149 31.8015C111.006 31.8418 110.945 31.9033 110.945 31.9846C110.945 32.1274 110.701 32.189 110.231 32.189H109.762C109.375 32.189 109.069 31.8828 109.069 31.4749ZM111.251 37.2258L110.741 37.7356C110.436 38.0417 109.946 38.2454 109.538 38.2454H109.212C108.824 38.2454 108.518 37.9194 108.518 37.532V37.042C108.518 36.6545 108.804 36.3491 109.191 36.3491C109.579 36.3491 109.885 36.043 109.885 35.635V35.5127C109.885 35.1252 109.579 34.7993 109.191 34.7993C108.804 34.7993 108.518 34.4727 108.518 34.0852V33.6165C108.518 33.229 108.824 32.9229 109.212 32.9229H113.657C114.045 32.9229 114.372 32.739 114.372 32.5764C114.372 32.3926 114.677 32.2498 115.085 32.2498H115.534C115.921 32.2498 116.247 32.3926 116.247 32.5764C116.247 32.739 116.574 32.9229 116.961 32.9229H121.387C121.795 32.9229 122.1 33.229 122.1 33.6165V34.0852C122.1 34.4932 121.835 34.7993 121.448 34.7993C121.06 34.7993 120.774 35.1252 120.774 35.5127V35.635C120.774 36.043 121.06 36.3491 121.448 36.3491C121.835 36.3491 122.121 36.6545 122.121 37.042V37.532C122.121 37.9194 121.814 38.2454 121.407 38.2454H121.101C120.693 38.2454 120.183 38.0417 119.877 37.7356L119.388 37.2258C119.082 36.9812 118.878 36.4509 118.878 36.043V35.5127C118.878 35.1252 118.552 34.7993 118.164 34.7993H116.961C116.574 34.7993 116.247 35.1252 116.247 35.5127V37.5518C116.247 37.9392 115.921 38.2659 115.534 38.2659H115.085C114.677 38.2659 114.372 37.9392 114.372 37.5518V35.5127C114.372 35.1252 114.045 34.7993 113.657 34.7993H112.475C112.087 34.7993 111.761 35.1252 111.761 35.5127V36.043C111.761 36.4509 111.557 36.9812 111.251 37.2258ZM110.945 24.3982C110.945 24.623 111.251 24.7651 111.659 24.7651H115.309C115.717 24.7651 116.023 24.623 116.023 24.3982C116.023 24.1536 115.717 23.9705 115.309 23.9705H111.659C111.271 23.9705 110.945 24.1536 110.945 24.3982ZM110.945 26.9478C110.945 27.1719 111.271 27.3557 111.659 27.3557H115.309C115.717 27.3557 116.023 27.1719 116.023 26.9478C116.023 26.7031 115.717 26.4783 115.309 26.4783H111.659C111.271 26.4783 110.945 26.7031 110.945 26.9478ZM110.945 29.4556C110.945 29.7009 111.251 29.8438 111.659 29.8438H115.309C115.717 29.8438 116.023 29.7009 116.023 29.4556C116.023 29.2314 115.717 29.0681 115.309 29.0681H111.659C111.271 29.0681 110.945 29.2314 110.945 29.4556ZM112.924 21.686C112.536 21.686 112.209 21.3396 112.209 20.9521V20.8701C112.209 20.4827 112.536 20.1567 112.924 20.1567H119.49C119.694 20.1567 119.877 20.1157 120.02 20.0549C120.163 19.9934 120.224 19.9319 120.224 19.8506C120.224 19.6667 120.53 19.5444 120.938 19.5444H121.387C121.855 19.5444 122.08 19.6873 122.08 19.9934C122.08 20.2585 121.917 20.5442 121.57 20.8093L121.162 21.1968C120.856 21.5022 120.326 21.686 119.898 21.686H112.924Z" fill="#0E4668"/>
<path d="M127.056 38.2659C126.75 38.2659 126.566 37.9802 126.566 37.6338V37.0222C126.566 36.675 126.688 36.3894 126.851 36.3894C126.994 36.3894 127.157 36.1045 127.157 35.7778V28.0691C127.157 27.7432 126.994 27.4575 126.851 27.4575C126.688 27.4575 126.566 27.1719 126.566 26.8254V26.1926C126.566 25.8462 126.81 25.5605 127.198 25.5605H128.422C128.748 25.5605 129.033 25.8462 129.033 26.1926V33.7996C129.033 34.1467 129.217 34.6565 129.462 34.9011L130.338 35.9207C130.584 36.1653 131.032 36.3696 131.378 36.3696H139.536C139.924 36.3696 140.168 36.6545 140.168 37.0017V37.6338C140.168 37.9802 139.924 38.2659 139.536 38.2659H130.645C130.257 38.2659 129.808 38.0417 129.584 37.7971L129.238 37.4294C129.115 37.3071 128.972 37.2463 128.809 37.2463C128.666 37.2463 128.523 37.3071 128.381 37.4097L127.953 37.8169C127.708 38.082 127.3 38.2659 127.056 38.2659ZM128.34 21.5637C128.198 21.6655 128.034 21.7271 127.891 21.7271C127.728 21.7271 127.586 21.6655 127.463 21.5432L126.994 21.054C126.872 20.9316 126.81 20.7888 126.81 20.6255C126.81 20.4424 126.872 20.2996 126.994 20.197L127.463 19.7283C127.565 19.6265 127.708 19.5649 127.891 19.5649C128.075 19.5649 128.218 19.6265 128.34 19.7283L128.789 20.197C128.911 20.2996 128.972 20.4424 128.972 20.6255C128.972 20.7888 128.911 20.9316 128.789 21.054L128.34 21.5637ZM128.34 24.4392C128.198 24.541 128.034 24.6025 127.891 24.6025C127.728 24.6025 127.586 24.541 127.463 24.4187L126.994 23.9294C126.872 23.8071 126.81 23.6643 126.81 23.501C126.81 23.3179 126.872 23.175 126.994 23.0725L127.463 22.6038C127.565 22.502 127.708 22.4404 127.891 22.4404C128.075 22.4404 128.218 22.502 128.34 22.6038L128.789 23.0725C128.911 23.175 128.972 23.3179 128.972 23.501C128.972 23.6643 128.911 23.8071 128.789 23.9294L128.34 24.4392ZM129.747 21.4209C129.727 21.3799 129.727 21.3191 129.727 21.2371V20.1567C129.727 19.8301 130.012 19.5444 130.338 19.5444H139.516C139.903 19.5444 140.148 19.8301 140.148 20.1567V22.0325C140.148 22.3386 139.903 22.5833 139.516 22.5833H138.884C138.557 22.5833 138.251 22.3386 138.251 22.0325C138.251 21.7271 137.986 21.4209 137.639 21.4209H132.256C131.909 21.4209 131.624 21.7271 131.624 22.0325C131.624 22.3386 131.338 22.5833 131.011 22.5833H130.359C130.012 22.5833 129.747 22.3386 129.747 22.0325V21.4209ZM130.338 34.6968C130.012 34.6968 129.727 34.4521 129.727 34.0647V33.4326C129.727 33.0862 130.012 32.821 130.338 32.821H133.336C133.663 32.821 133.969 32.6577 133.969 32.4336C133.969 32.2498 133.663 32.0864 133.336 32.0864H130.746C130.42 32.0864 130.114 31.8015 130.114 31.4749V25.7239C130.114 25.3774 130.42 25.0918 130.746 25.0918H133.336C133.5 25.0918 133.642 25.0713 133.785 25.0303C133.907 25.0105 133.969 24.9695 133.969 24.908C133.969 24.8472 133.907 24.8062 133.785 24.7651C133.642 24.7249 133.5 24.7043 133.336 24.7043H130.338C130.012 24.7043 129.727 24.4187 129.727 24.0723V23.4402C129.727 23.1135 130.012 22.8074 130.338 22.8074H133.336C133.663 22.8074 133.969 22.6653 133.969 22.4814C133.969 22.2976 134.234 22.1548 134.581 22.1548H135.233C135.559 22.1548 135.845 22.2976 135.845 22.4814C135.845 22.6653 136.089 22.8074 136.477 22.8074H139.516C139.903 22.8074 140.148 23.1135 140.148 23.4402V24.0723C140.148 24.4187 139.903 24.7043 139.516 24.7043H136.477C136.294 24.7043 136.151 24.7249 136.029 24.7651C135.906 24.8062 135.845 24.8472 135.845 24.908C135.845 24.9695 135.906 25.0105 136.029 25.0303C136.13 25.0713 136.294 25.0918 136.477 25.0918H139.434C139.617 25.0918 139.781 25.3774 139.781 25.7239V29.9858C139.781 30.3125 139.557 30.7812 139.312 31.0259L138.72 31.6382C138.455 31.8828 137.986 32.0864 137.639 32.0864H136.477C136.089 32.0864 135.845 32.2498 135.845 32.4336C135.845 32.6577 136.089 32.821 136.477 32.821H139.516C139.903 32.821 140.148 33.0862 140.148 33.4326V34.0647C140.148 34.4521 139.903 34.6968 139.516 34.6968H136.477C136.089 34.6968 135.845 34.9824 135.845 35.3091C135.845 35.6965 135.559 35.9412 135.233 35.9412H134.581C134.234 35.9412 133.969 35.6965 133.969 35.3091C133.969 34.9824 133.663 34.6968 133.336 34.6968H130.338ZM132.011 27.3352C132.011 27.5183 132.296 27.6611 132.623 27.6611H133.336C133.663 27.6611 133.969 27.5183 133.969 27.3352C133.969 27.1514 133.663 26.988 133.336 26.988H132.623C132.296 26.988 132.011 27.1514 132.011 27.3352ZM132.011 29.8635C132.011 30.0884 132.296 30.2107 132.623 30.2107H133.336C133.663 30.2107 133.969 30.0884 133.969 29.8635C133.969 29.6804 133.663 29.5171 133.336 29.5171H132.623C132.296 29.5171 132.011 29.6804 132.011 29.8635ZM135.845 27.3352C135.845 27.5183 136.089 27.6611 136.477 27.6611H137.252C137.599 27.6611 137.885 27.5183 137.885 27.3352C137.885 27.1514 137.599 26.988 137.252 26.988H136.477C136.089 26.988 135.845 27.1514 135.845 27.3352ZM135.845 29.8635C135.845 30.0884 136.089 30.2107 136.477 30.2107H137.252C137.599 30.2107 137.885 30.0884 137.885 29.8635C137.885 29.6804 137.599 29.5171 137.252 29.5171H136.477C136.13 29.5171 135.845 29.6804 135.845 29.8635Z" fill="#0E4668"/>
<path d="M55.5098 46.6323C55.5098 47.4856 56.2048 48.1799 57.0574 48.1799H59.4648V49.0398H57.0574C55.7302 49.0398 54.6506 47.9602 54.6506 46.6323C54.6506 45.3052 55.7302 44.2256 57.0574 44.2256H59.4648V45.0854H57.0574C56.2048 45.0854 55.5098 45.7798 55.5098 46.6323Z" fill="#0E4668"/>
<path d="M65.5198 44.2256V49.0398H64.6599V46.8323H61.5647V49.0398H60.7056V44.2256H61.5647V45.9724H64.6599V44.2256H65.5198Z" fill="#0E4668"/>
<path d="M66.7605 49.0398V44.2256H67.6196V49.0398H66.7605Z" fill="#0E4668"/>
<path d="M73.7698 48.0012L73.4607 49.0398L72.8279 48.1594L71.8721 46.8455L70.9229 48.1594L70.29 49.0332L69.9802 48.0012L68.8596 44.2256H69.7532L70.6204 47.1274L71.3491 46.1167L71.4868 45.9241L71.8787 45.3879L72.2705 45.9241L72.4082 46.1167L73.1377 47.1274L74.0042 44.2256H74.8984L73.7698 48.0012Z" fill="#0E4668"/>
<path d="M80.9534 44.2256V46.6323C80.9534 47.9602 79.8738 49.0398 78.5459 49.0398C77.2188 49.0398 76.1392 47.9602 76.1392 46.6323V44.2256H76.9983V46.6323C76.9983 47.4856 77.6934 48.1799 78.5459 48.1799C79.3992 48.1799 80.0935 47.4856 80.0935 46.6323V44.2256H80.9534Z" fill="#0E4668"/>
<path d="M87.0083 44.2256V49.0398H86.1484V46.8323H83.0532V49.0398H82.1941V44.2256H83.0532V45.9724H86.1484V44.2256H87.0083Z" fill="#0E4668"/>
<path d="M92.8845 49.0398H91.9214L91.4812 48.1799L90.4287 46.1167L89.377 48.1799L88.9368 49.0398H87.9736L88.4138 48.1799L90.4287 44.2256L92.4443 48.1799L92.8845 49.0398Z" fill="#0E4668"/>
<path d="M93.8499 49.0398V44.2256H94.709V49.0398H93.8499Z" fill="#0E4668"/>
<path d="M100.709 45.5249V45.9724H103.804V46.8323H100.709V47.7397C100.709 47.9807 100.909 48.1799 101.149 48.1799H104.664V49.0398H101.149C100.434 49.0398 99.8564 48.4553 99.8564 47.7397V45.5249C99.8564 44.8101 100.434 44.2256 101.149 44.2256H104.664V45.0854H101.149C100.909 45.0854 100.709 45.2847 100.709 45.5249Z" fill="#0E4668"/>
<path d="M105.733 49.0464H105.747L105.733 49.0603V49.0464ZM110.562 44.2322L108.698 46.6462L110.555 49.0464H109.468L108.154 47.3479L106.841 49.0464H105.754L107.604 46.6462L105.74 44.2322H106.827L108.147 45.9446L109.468 44.2322H110.562ZM110.548 49.0603L110.541 49.0464H110.548V49.0603Z" fill="#0E4668"/>
<path d="M115.578 44.6108C115.812 44.8511 115.956 45.1748 115.956 45.5322C115.956 46.0544 115.646 46.5085 115.199 46.7151C115.082 46.77 114.958 46.8044 114.828 46.8184H114.787V46.825H112.483V49.0398H111.623V44.2256H114.656C115.013 44.2256 115.337 44.3699 115.571 44.6035L115.578 44.6108ZM114.842 45.9241C115 45.8552 115.103 45.697 115.103 45.5249C115.103 45.3667 115.021 45.2568 114.972 45.2092C114.917 45.1543 114.814 45.0854 114.663 45.0854H112.483V45.9724H114.663C114.725 45.9724 114.787 45.9585 114.842 45.9307V45.9241Z" fill="#0E4668"/>
<path d="M121.075 48.1938L121.516 49.0537H120.553L120.113 48.1938L119.652 47.293L119.631 47.2512C119.48 47.0037 119.211 46.8389 118.902 46.8389H118.042V49.0537H117.183V44.2395H120.223C120.58 44.2395 120.903 44.3838 121.138 44.6174C121.371 44.8511 121.516 45.1748 121.516 45.5322C121.516 46.0544 121.207 46.5085 120.759 46.7151C120.643 46.77 120.519 46.8044 120.388 46.8184L121.075 48.1938ZM120.223 45.979C120.284 45.979 120.347 45.9651 120.402 45.938C120.56 45.8691 120.663 45.7109 120.663 45.5388C120.663 45.3806 120.58 45.2708 120.532 45.2224C120.477 45.1675 120.374 45.0986 120.223 45.0986H118.042V45.9863L120.223 45.979Z" fill="#0E4668"/>
<path d="M123.622 45.5249V45.9724H126.717V46.8323H123.622V47.7397C123.622 47.9807 123.822 48.1799 124.062 48.1799H127.577V49.0398H124.062C123.347 49.0398 122.77 48.4553 122.77 47.7397V45.5249C122.77 44.8101 123.347 44.2256 124.062 44.2256H127.577V45.0854H124.062C123.822 45.0854 123.622 45.2847 123.622 45.5249Z" fill="#0E4668"/>
<path d="M132.511 45.5593V45.5322C132.511 45.2913 132.312 45.092 132.071 45.092H130.117C129.877 45.092 129.677 45.2913 129.677 45.5322V45.5593C129.677 45.8003 129.877 45.9995 130.117 45.9995H131.851C132.298 45.9995 132.697 46.1921 132.971 46.4946C132.993 46.5159 133.006 46.5364 133.027 46.5569C133.24 46.8184 133.371 47.1553 133.371 47.52C133.371 48.3586 132.689 49.0398 131.851 49.0398H130.344C129.506 49.0398 128.824 48.3586 128.824 47.52H129.684C129.684 47.884 129.98 48.1799 130.344 48.1799H131.851C132.215 48.1799 132.518 47.884 132.518 47.52C132.518 47.1553 132.215 46.8594 131.851 46.8594H130.117C129.766 46.8594 129.45 46.7217 129.216 46.4946C129.155 46.4331 129.1 46.3643 129.052 46.2888C128.907 46.0823 128.824 45.8281 128.824 45.5527V45.5249C128.824 44.8101 129.402 44.2256 130.117 44.2256H132.071C132.786 44.2256 133.371 44.8101 133.371 45.5249V45.5527L132.511 45.5593Z" fill="#0E4668"/>
<path d="M138.305 45.5593V45.5322C138.305 45.2913 138.106 45.092 137.865 45.092H135.911C135.671 45.092 135.471 45.2913 135.471 45.5322V45.5593C135.471 45.8003 135.671 45.9995 135.911 45.9995H137.645C138.092 45.9995 138.491 46.1921 138.766 46.4946C138.787 46.5159 138.8 46.5364 138.821 46.5569C139.034 46.8184 139.165 47.1553 139.165 47.52C139.165 48.3586 138.484 49.0398 137.645 49.0398H136.138C135.3 49.0398 134.619 48.3586 134.619 47.52H135.479C135.479 47.884 135.774 48.1799 136.138 48.1799H137.645C138.01 48.1799 138.312 47.884 138.312 47.52C138.312 47.1553 138.01 46.8594 137.645 46.8594H135.911C135.561 46.8594 135.244 46.7217 135.01 46.4946C134.949 46.4331 134.894 46.3643 134.846 46.2888C134.701 46.0823 134.619 45.8281 134.619 45.5527V45.5249C134.619 44.8101 135.197 44.2256 135.911 44.2256H137.865C138.58 44.2256 139.165 44.8101 139.165 45.5249V45.5527L138.305 45.5593Z" fill="#0E4668"/>
</svg>
