<svg width="101" height="102" viewBox="0 0 101 102" fill="none" xmlns="http://www.w3.org/2000/svg">
<path d="M56.1743 21.4771V11.2955C56.1743 5.67223 60.7328 1.11377 66.356 1.11377C71.9791 1.11377 76.5377 5.67223 76.5377 11.2955C76.5377 16.9186 71.9791 21.4771 66.356 21.4771" fill="#D6E0F0"/>
<path d="M48.5222 26.2476V38.6388C54.563 38.6388 59.46 43.5359 59.46 49.5767V26.2476H48.5222Z" fill="#8D93AB"/>
<path d="M51.2283 21.4768H44.1357C40.2185 21.4768 37.043 18.3013 37.043 14.3842C37.043 10.467 40.2185 7.2915 44.1357 7.2915C48.0529 7.2915 51.2283 10.467 51.2283 14.3842V21.4768Z" fill="#D6E0F0"/>
<path d="M69.1551 22.5909C68.54 22.5909 68.0412 22.0921 68.0412 21.477C68.0412 20.8619 68.54 20.3632 69.1551 20.3632C74.155 20.3632 78.2226 16.2955 78.2226 11.2952C78.2226 6.29534 74.155 2.22771 69.1551 2.22771C64.1547 2.22771 60.0871 6.29534 60.0871 11.2952V21.477C60.0871 22.0921 59.5883 22.5909 58.9732 22.5909C58.3581 22.5909 57.8594 22.0921 57.8594 21.477V11.2952C57.8594 5.0667 62.9266 0 69.1551 0C75.3835 0 80.4503 5.0667 80.4503 11.2952C80.4503 17.5236 75.3835 22.5909 69.1551 22.5909Z" fill="#393B44"/>
<path d="M23.7396 61.6286C11.063 61.6286 0.75 51.3156 0.75 38.639C0.75 25.9623 11.063 15.6494 23.7396 15.6494C36.4163 15.6494 46.7292 25.9623 46.7292 38.639C46.7292 39.2541 46.2304 39.7529 45.6153 39.7529C45.0002 39.7529 44.5014 39.2541 44.5014 38.639C44.5014 27.191 35.1876 17.8771 23.7396 17.8771C12.2916 17.8771 2.97771 27.191 2.97771 38.639C2.97771 50.087 12.2916 59.4009 23.7396 59.4009C24.3547 59.4009 24.8534 59.8996 24.8534 60.5147C24.8534 61.1299 24.3547 61.6286 23.7396 61.6286Z" fill="#393B44"/>
<path d="M45.6151 61.6286H23.7394C23.1243 61.6286 22.6255 61.1299 22.6255 60.5147C22.6255 59.8996 23.1243 59.4009 23.7394 59.4009H45.6151C46.2302 59.4009 46.7289 59.8996 46.7289 60.5147C46.7289 61.1299 46.2302 61.6286 45.6151 61.6286Z" fill="#393B44"/>
<path d="M39.2086 55.2214C38.9236 55.2214 38.6386 55.1127 38.4211 54.8951C37.9859 54.4606 37.9859 53.7551 38.4211 53.32C42.3418 49.3981 44.5016 44.1846 44.5016 38.6392C44.5016 38.0241 45.0003 37.5254 45.6154 37.5254C46.2305 37.5254 46.7293 38.0241 46.7293 38.6392C46.7293 44.7796 44.3379 50.5528 39.9961 54.8951C39.7786 55.1127 39.4936 55.2214 39.2086 55.2214Z" fill="#393B44"/>
<path d="M51.3209 61.6284C50.7058 61.6284 50.207 61.1297 50.207 60.5146C50.207 59.8994 50.7058 59.4007 51.3209 59.4007C56.7378 59.4007 61.1449 54.9937 61.1449 49.5767C61.1449 44.1591 56.7378 39.7521 51.3209 39.7521C50.7058 39.7521 50.207 39.2534 50.207 38.6383C50.207 38.0231 50.7058 37.5244 51.3209 37.5244C57.9665 37.5244 63.3726 42.9311 63.3726 49.5767C63.3726 56.2223 57.9665 61.6284 51.3209 61.6284Z" fill="#393B44"/>
<path d="M62.2587 50.6905C61.6436 50.6905 61.1449 50.1918 61.1449 49.5766C61.1449 44.1591 56.7378 39.7521 51.3209 39.7521C50.7058 39.7521 50.207 39.2534 50.207 38.6382V26.2472C50.207 25.632 50.7058 25.1333 51.3209 25.1333H62.2587C62.8739 25.1333 63.3726 25.632 63.3726 26.2472V49.5766C63.3726 50.1918 62.8739 50.6905 62.2587 50.6905ZM52.4347 37.5755C56.0232 37.9057 59.1614 39.8163 61.1449 42.6026V27.361H52.4347V37.5755Z" fill="#393B44"/>
<path d="M84.4918 61.6287C83.8767 61.6287 83.378 61.13 83.378 60.5149C83.378 59.8997 83.8767 59.401 84.4918 59.401C92.3345 59.401 98.7147 53.0202 98.7147 45.1776C98.7147 37.3349 92.3345 30.9547 84.4918 30.9547C83.9986 30.9547 83.4879 30.9819 82.9755 31.0363C82.5176 31.0792 82.0721 30.8432 81.8638 30.4294C79.4295 25.5943 74.5596 22.591 69.1551 22.591C68.54 22.591 68.0413 22.0923 68.0413 21.4771C68.0413 20.862 68.54 20.3633 69.1551 20.3633C75.153 20.3633 80.5808 23.5602 83.4971 28.758C83.8327 28.7374 84.165 28.727 84.4918 28.727C93.5626 28.727 100.942 36.1069 100.942 45.1776C100.942 54.2489 93.5626 61.6287 84.4918 61.6287Z" fill="#393B44"/>
<path d="M54.0275 22.5908H46.9348C42.4098 22.5908 38.7283 18.9093 38.7283 14.3843C38.7283 9.85925 42.4098 6.17773 46.9348 6.17773C51.4598 6.17773 55.1413 9.85925 55.1413 14.3843V21.4769C55.1413 22.0921 54.6426 22.5908 54.0275 22.5908ZM46.9348 8.40545C43.6379 8.40545 40.956 11.0873 40.956 14.3843C40.956 17.6812 43.6379 20.3631 46.9348 20.3631H52.9136V14.3843C52.9136 11.0873 50.2318 8.40545 46.9348 8.40545Z" fill="#393B44"/>
<path d="M84.4919 61.6286H62.2589C61.6437 61.6286 61.145 61.1299 61.145 60.5147C61.145 59.8996 61.6437 59.4009 62.2589 59.4009H84.4919C85.107 59.4009 85.6058 59.8996 85.6058 60.5147C85.6058 61.1299 85.107 61.6286 84.4919 61.6286Z" fill="#393B44"/>
<path d="M6.70144 94.7355V95.7437C5.99869 95.399 5.352 95.227 4.76189 95.227C4.00479 95.227 3.36649 95.4713 2.84812 95.9605C2.32975 96.4498 2.07029 97.05 2.07029 97.7622C2.07029 98.4885 2.33534 99.0943 2.86604 99.5796C3.39618 100.065 4.06083 100.308 4.8594 100.308C5.43941 100.308 6.05305 100.126 6.70144 99.7606V100.779C6.11134 101.093 5.47136 101.25 4.78263 101.25C3.77279 101.25 2.90977 100.908 2.19302 100.225C1.47682 99.5415 1.11816 98.7171 1.11816 97.7521C1.11816 96.8045 1.47065 95.993 2.17507 95.3183C2.8795 94.643 3.72852 94.3057 4.72099 94.3057C5.35873 94.3057 6.01887 94.4491 6.70144 94.7355Z" fill="#8D93AB"/>
<path d="M12.0806 94.5103H12.9604V100.15H15.0843V101.03H12.0806V94.5103Z" fill="#8D93AB"/>
<path d="M19.804 97.732C19.804 96.7911 20.1587 95.9846 20.8682 95.3133C21.5776 94.6413 22.4306 94.3057 23.427 94.3057C24.3993 94.3057 25.2365 94.6441 25.9392 95.3205C26.642 95.9975 26.9934 96.8011 26.9934 97.732C26.9934 98.7172 26.6465 99.5499 25.9521 100.23C25.2578 100.91 24.406 101.25 23.3961 101.25C22.3997 101.25 21.5519 100.907 20.8525 100.222C20.1531 99.537 19.804 98.7071 19.804 97.732ZM26.0468 97.7729C26.0468 97.0533 25.7874 96.4481 25.269 95.9555C24.7506 95.4629 24.1123 95.2169 23.3552 95.2169C22.6351 95.2169 22.0187 95.4674 21.5053 95.9684C20.9915 96.4694 20.7348 97.0707 20.7348 97.7729C20.7348 98.4851 20.9987 99.0876 21.5255 99.5802C22.0529 100.072 22.6984 100.319 23.4628 100.319C24.1656 100.319 24.7719 100.067 25.2819 99.5645C25.7919 99.0618 26.0468 98.4644 26.0468 97.7729Z" fill="#8D93AB"/>
<path d="M32.3167 94.521H33.2071V98.5279C33.2071 99.1213 33.3495 99.5803 33.6341 99.9042C33.9188 100.228 34.3223 100.391 34.8446 100.391C35.363 100.391 35.7665 100.241 36.0545 99.9429C36.3431 99.6442 36.4872 99.2239 36.4872 98.6814V94.521H37.3776V98.6198C37.3776 99.4184 37.1495 100.056 36.6945 100.534C36.2389 101.012 35.6325 101.25 34.8749 101.25C34.1004 101.25 33.4806 101.008 33.0149 100.523C32.5492 100.039 32.3167 99.3242 32.3167 98.3794V94.521Z" fill="#8D93AB"/>
<path d="M42.8804 94.5103H44.4613C45.7138 94.5103 46.6446 94.8414 47.2554 95.5033C47.8663 96.1651 48.1717 96.9205 48.1717 97.7701C48.1717 98.6264 47.8562 99.3841 47.2246 100.043C46.5936 100.701 45.6762 101.03 44.4719 101.03H42.8804V94.5103ZM43.7709 95.3806V100.15H43.8219C44.4837 100.15 44.9819 100.12 45.3159 100.06C45.6504 100.001 45.9676 99.8699 46.268 99.6687C46.5678 99.4676 46.8071 99.2003 46.9842 98.8679C47.1618 98.5351 47.2504 98.1691 47.2504 97.7701C47.2504 97.2685 47.1086 96.8152 46.8256 96.4089C46.5426 96.0032 46.2041 95.7302 45.8102 95.5901C45.4157 95.4506 44.8861 95.3806 44.2209 95.3806H43.7709Z" fill="#8D93AB"/>
<path d="M66.7749 95.5542L66.1147 96.2043C65.4495 95.5526 64.6807 95.227 63.807 95.227C63.0426 95.227 62.4066 95.4724 61.8983 95.9628C61.39 96.4537 61.1356 97.0673 61.1356 97.8037C61.1356 98.4476 61.3821 99.0276 61.8753 99.5443C62.3685 100.06 63.0482 100.319 63.9146 100.319C65.2142 100.319 66.0312 99.7539 66.3658 98.6247H64.6056V97.7342H67.384C67.384 98.1808 67.3544 98.5367 67.2944 98.8023C67.235 99.068 67.1111 99.3611 66.9234 99.681C66.7357 100.002 66.4863 100.289 66.1736 100.542C65.8614 100.796 65.5274 100.977 65.171 101.087C64.814 101.195 64.3887 101.25 63.8939 101.25C62.768 101.25 61.8702 100.897 61.2 100.189C60.5292 99.4815 60.1941 98.6729 60.1941 97.7622C60.1941 96.8045 60.5371 95.9891 61.223 95.3155C61.9084 94.6425 62.7394 94.3057 63.7151 94.3057C64.2951 94.3057 64.8247 94.3936 65.3038 94.569C65.783 94.745 66.2739 95.0734 66.7749 95.5542Z" fill="#8D93AB"/>
<path d="M72.7324 94.5103H73.6128V101.03H72.7324V94.5103Z" fill="#8D93AB"/>
<path d="M79.1665 94.5103H82.7794V95.4007H80.0463V97.0281H82.7794V97.9085H80.0569V101.03H79.1665V94.5103Z" fill="#8D93AB"/>
<path d="M87.6206 94.5103H91.6073V95.4007H90.0517V101.03H89.1712V95.4007H87.6206V94.5103Z" fill="#8D93AB"/>
<path d="M100.784 95.2371L100.062 95.8154C99.8714 95.6176 99.6988 95.4702 99.5436 95.3727C99.3889 95.2757 99.1653 95.227 98.8723 95.227C98.5523 95.227 98.2928 95.2993 98.0939 95.4438C97.8949 95.5884 97.7952 95.7745 97.7952 96.0026C97.7952 96.1998 97.882 96.3741 98.0557 96.5254C98.23 96.6767 98.5265 96.8426 98.9451 97.0225C99.3637 97.2024 99.6899 97.3699 99.923 97.5246C100.157 97.6798 100.348 97.8513 100.498 98.0385C100.648 98.2262 100.759 98.4241 100.833 98.632C100.906 98.8399 100.942 99.0596 100.942 99.2916C100.942 99.8335 100.745 100.295 100.351 100.677C99.9572 101.059 99.4803 101.25 98.921 101.25C98.3752 101.25 97.8933 101.101 97.4752 100.802C97.0577 100.504 96.736 100.056 96.5107 99.4591L97.4012 99.2081C97.7251 99.9416 98.2216 100.308 98.8902 100.308C99.2141 100.308 99.4836 100.212 99.6988 100.018C99.9135 99.8239 100.021 99.579 100.021 99.2832C100.021 99.1061 99.9651 98.9284 99.8524 98.7497C99.7392 98.5714 99.5997 98.4241 99.4321 98.3086C99.2645 98.1926 98.9989 98.0604 98.6335 97.9102C98.2687 97.7605 97.9874 97.6238 97.7907 97.4994C97.594 97.375 97.4236 97.2265 97.2796 97.0544C97.1361 96.8824 97.0308 96.7109 96.9641 96.5405C96.8974 96.3702 96.8638 96.1875 96.8638 95.993C96.8638 95.5262 97.0515 95.1283 97.427 94.7994C97.8019 94.4704 98.2575 94.3057 98.7932 94.3057C99.148 94.3057 99.5078 94.3824 99.8726 94.536C100.238 94.6895 100.542 94.9232 100.784 95.2371Z" fill="#8D93AB"/>
<path d="M14.5829 84.7622C14.4753 84.839 14.3055 84.978 14.1357 84.978C13.8118 84.9163 13.5652 84.978 13.257 84.978C13.0256 84.9931 12.7017 84.9163 12.3934 84.978C12.116 84.9315 11.7613 85.0088 11.499 84.978C11.0827 84.9163 11.0675 85.1321 11.2216 85.317C11.4682 85.502 11.5915 85.6875 11.7764 85.7799C11.9311 85.9183 12.162 86.1806 12.3161 86.2731C12.4091 86.3812 12.7017 86.6743 12.8249 86.7976C13.0721 87.1058 13.257 87.2448 13.257 87.5687C13.2413 87.8769 13.0564 88.031 12.9796 88.1084C12.8098 88.2009 12.5784 88.2468 12.3934 88.3085C12.2393 88.2776 12.0236 88.216 11.8846 88.1543C11.6997 88.0927 11.638 88.0002 11.4839 87.7996C11.3292 87.5071 11.2367 87.553 11.1908 87.4606C10.7895 87.4449 10.4662 87.5839 10.0807 87.553C9.74105 87.6304 9.2787 87.692 8.98561 87.6612C8.63088 87.7688 8.26102 87.7537 7.87547 87.7537C7.5056 87.8612 7.10435 87.8153 6.79613 87.8461C6.45709 87.7996 6.08667 87.9537 5.70111 87.9078C5.28473 87.9386 4.89917 88.0002 4.62177 87.9694C4.26704 88.0467 3.83553 88.0927 3.49593 88.0467C3.04929 88.0311 2.7562 88.1235 2.35495 88.0619C2.1392 88.0467 1.90774 87.9851 1.81527 87.8461C1.61521 87.7537 1.63035 87.5839 1.59953 87.3065C1.59953 87.0442 1.73851 86.8744 1.93857 86.6895C2.13919 86.7051 2.21652 86.6127 2.32412 86.5819C2.54044 86.6127 2.80215 86.5353 3.06442 86.551C3.34181 86.5819 3.54244 86.4894 3.81984 86.551C3.94313 86.4272 3.88148 86.1963 4.05129 86.1038C4.2054 85.9032 4.17457 85.9032 4.39033 85.5485C4.545 85.3787 4.35949 84.9623 4.08209 84.978C3.72736 84.9472 3.29585 85.0396 3.09522 84.978C2.72536 84.9623 2.49393 85.0553 2.24735 84.978C1.93857 85.0245 1.61522 85.0396 1.36808 84.978C1.16802 85.0088 1.09067 84.9315 0.920869 84.7622C0.79758 84.5924 0.813276 84.4226 0.766762 84.2842C0.720809 84.1452 0.766768 83.9754 0.93657 83.8213C1.04473 83.6056 1.24479 83.6829 1.36808 83.6056C1.59953 83.6829 1.92342 83.6056 2.18569 83.5904C2.41658 83.6521 2.69455 83.6364 2.97195 83.5904C3.17257 83.5596 3.44997 83.6521 3.77388 83.5904C4.05128 83.5596 4.31356 83.6521 4.56014 83.5904C4.88405 83.5596 5.06898 83.5747 5.36207 83.5904C5.57782 83.5596 5.93255 83.6056 6.1483 83.5904C6.4879 83.5596 6.65714 83.6056 6.95023 83.5904C7.19681 83.5904 7.52072 83.5596 7.75217 83.5904C8.01444 83.5282 8.30696 83.5439 8.5541 83.5904C8.76986 83.5439 9.09378 83.6213 9.34036 83.5904C9.58693 83.6521 9.92653 83.6364 10.1423 83.5904C10.4197 83.5282 10.6203 83.5282 10.9442 83.5904C11.1751 83.6521 11.4374 83.6521 11.7305 83.5904C12.0544 83.5282 12.2236 83.5747 12.5324 83.5904C12.7325 83.6672 13.0104 83.5904 13.3186 83.5904C13.5036 83.5439 13.8275 83.6829 14.1357 83.6056C14.3055 83.6364 14.4137 83.6364 14.5829 83.8213C14.7062 83.9446 14.6911 84.1301 14.7527 84.2842C14.7987 84.4843 14.7219 84.6698 14.5829 84.7622ZM0.982506 78.7177C0.920862 78.4863 0.936553 78.1473 0.982506 77.8385C0.998198 77.6227 0.98251 77.3913 1.05985 77.222C1.10636 77.0982 1.19884 76.8673 1.36808 76.6975C1.55357 76.4969 1.80016 76.3584 2.10838 76.3584C2.37064 76.3736 2.58639 76.266 2.89461 76.2968C3.15688 76.266 3.54244 76.2968 3.89718 76.2968C4.28274 76.2352 4.56013 76.3736 4.89918 76.2968C5.17714 76.3584 5.48534 76.2811 6.11747 76.2968C6.53385 76.2968 6.74961 76.3584 6.79613 76.0654C6.79613 75.7263 6.56467 75.8188 6.10234 75.8188C5.88603 75.8188 5.54699 75.8955 5.40801 75.8188C5.16143 75.8031 4.97651 75.7723 4.86835 75.8188C4.57582 75.8804 4.14374 75.8804 3.85065 75.8188C3.55812 75.8188 3.12606 75.7571 2.81784 75.8188C2.41659 75.8804 2.20083 75.464 2.27816 75.0936C2.30898 74.847 2.41659 74.4772 2.81784 74.3998C2.98708 74.369 3.1877 74.3539 3.4651 74.3847C3.74306 74.3231 3.85065 74.4464 4.08209 74.3847C4.31354 74.3539 4.45197 74.4155 4.71424 74.3847C4.88404 74.3382 5.14631 74.4307 5.33124 74.3847C5.54699 74.3539 5.79356 74.4307 5.96336 74.3847C6.20994 74.3231 6.31811 74.3539 6.59551 74.3847C6.78045 74.4464 6.96593 74.4615 7.22764 74.3847C7.42826 74.3539 7.56724 74.4615 7.84464 74.3847C8.12204 74.3539 8.23021 74.4464 8.47678 74.3847C8.6309 74.369 8.84664 74.3382 9.10891 74.3847C9.27871 74.3382 9.47933 74.3998 9.72591 74.3847C9.98818 74.3539 10.1423 74.3847 10.358 74.3847C10.6354 74.4155 10.7587 74.4464 10.9902 74.3847C11.1135 74.4155 11.3449 74.4307 11.6072 74.3847C11.7921 74.3539 11.9462 74.3231 12.2393 74.3847C12.5016 74.4307 12.6092 74.4307 12.8871 74.3998C12.9947 74.4464 13.1797 74.5696 13.303 74.6313C13.4576 74.7394 13.4728 74.9244 13.4419 75.0936C13.4111 75.2326 13.3338 75.51 13.303 75.5716C13.2105 75.7723 13.118 75.8804 12.8871 75.8188C12.4551 75.7571 12.0852 75.7571 11.7764 75.8188C11.3757 75.8955 11.1135 75.8188 10.6971 75.8188C10.543 75.7571 10.3889 75.8647 10.1266 75.8188C9.94166 75.8188 9.38631 75.8031 9.10891 75.8496C8.69253 75.8956 8.53842 75.9112 8.53842 76.1886C8.55411 76.3428 9.01643 76.3736 9.32465 76.2968C9.67939 76.2352 9.8027 76.3276 10.0341 76.2968C10.1574 76.2811 10.4354 76.3736 10.5738 76.2968C10.9902 76.2968 11.2984 76.2352 11.6072 76.2968C11.8846 76.3584 12.301 76.2352 12.6249 76.2968C12.9023 76.3584 13.1645 76.2811 13.4727 76.3736C13.735 76.3893 13.9356 76.6358 14.213 76.7748C14.3828 76.9906 14.3672 77.083 14.4753 77.268C14.4445 77.4686 14.5829 77.7001 14.537 77.8385C14.5986 78.1781 14.5213 78.363 14.5213 78.6253C14.5678 78.8719 14.3829 79.0411 14.2439 79.1492C14.1049 79.2266 13.8583 79.365 13.6734 79.319C13.396 79.365 13.2721 79.2882 13.0872 79.1492C12.9488 79.0103 12.7941 78.9178 12.7941 78.6253C12.8558 78.4247 12.8249 78.224 12.7941 78.0391C12.8714 77.6692 12.7173 77.5302 12.3161 77.5919C11.9462 77.6384 11.6531 77.5611 11.3757 77.5919C11.0367 77.5302 10.8053 77.5762 10.4197 77.5919C10.0807 77.5919 9.81837 77.6535 9.26302 77.5919C9.00131 77.6692 8.64658 77.9618 8.58493 78.1316C8.52329 78.6096 8.55411 78.8562 8.58493 79.0411C8.5076 79.3034 8.53842 79.4883 8.58493 79.7814C8.52329 80.0588 8.58492 80.2594 8.56923 80.5525C8.63087 80.7991 8.39944 80.8764 8.26102 80.9532C8.13773 81.0148 7.93712 81.1846 7.72136 81.1079C7.52074 81.1846 7.27416 81.123 7.166 80.9532C6.93456 80.8915 6.79612 80.7991 6.85777 80.5525C6.82694 80.2751 6.85778 80.0436 6.84209 79.7814C6.81127 79.5499 6.8886 79.319 6.84209 79.0411C6.78044 78.8562 6.78044 78.5944 6.84209 78.1316C6.79613 77.8385 6.50304 77.5611 6.17913 77.5919C5.73193 77.6384 5.40801 77.6227 5.05383 77.5919C4.68341 77.5762 4.43685 77.607 4.12862 77.5919C3.80471 77.5919 3.43428 77.6384 3.21852 77.5919C2.87948 77.5919 2.67886 77.6844 2.72537 78.0391C2.64804 78.3014 2.77132 78.4706 2.70967 78.7177C2.75619 78.9335 2.52473 79.1649 2.43227 79.2266C2.21651 79.3958 2.12405 79.4115 1.86178 79.3958C1.69198 79.4732 1.49137 79.3499 1.27561 79.2266C1.1215 79.0568 0.936553 78.9486 0.982506 78.7177ZM2.77131 82.1715C2.74049 81.9866 2.81784 81.8168 2.92544 81.7092C2.98708 81.6318 3.1877 81.4469 3.3575 81.5085C3.71223 81.5702 4.15943 81.5394 4.48335 81.4928C4.8067 81.5085 5.25391 81.4312 5.59351 81.4928C5.88604 81.5394 6.36406 81.5237 6.70366 81.4928C7.10435 81.462 7.47479 81.4312 7.81383 81.4928C8.13774 81.5545 8.53843 81.5545 8.93968 81.4928C9.34036 81.4928 9.66426 81.462 10.0498 81.4928C10.4813 81.4312 10.7896 81.5394 11.16 81.4928C11.5299 81.462 11.8846 81.5394 12.2853 81.5085C12.6092 81.5859 12.8098 81.8324 12.8871 82.1715C12.8098 82.3105 12.7482 82.4646 12.7173 82.6495C12.5632 82.7885 12.4242 82.8036 12.2853 82.8653C11.8538 82.8501 11.499 82.8036 11.16 82.8653C10.8512 82.8345 10.4813 82.9426 10.0498 82.8653C9.66426 82.881 9.32467 82.8036 8.93968 82.8653C8.50761 82.9426 8.21452 82.9118 7.81383 82.8653C7.45909 82.881 6.99675 82.9118 6.70366 82.8653C6.27159 82.9269 5.90174 82.9426 5.59351 82.8653C5.19227 82.8653 4.83752 82.881 4.48335 82.8653C4.06697 82.8345 3.72736 82.8036 3.3575 82.8653C3.21852 82.881 2.98708 82.7885 2.92544 82.6495C2.78702 82.5419 2.69453 82.3105 2.77131 82.1715ZM3.66571 79.6581C4.03614 79.7046 4.3595 79.6581 4.76075 79.643C5.09979 79.6581 5.53187 79.7197 5.85522 79.6581C6.19482 79.7197 6.28728 79.9355 6.30241 80.2135C6.33323 80.4752 6.10236 80.7839 5.85522 80.7682C5.50104 80.7531 5.05384 80.7839 4.76075 80.7839C4.45197 80.7531 4.00531 80.8299 3.66571 80.7682C3.40344 80.7991 3.26504 80.5217 3.21852 80.2135C3.14175 79.9971 3.3418 79.7046 3.66571 79.6581ZM3.21852 78.6096C3.1877 78.3165 3.3418 78.0234 3.66571 78.0542C4.00531 78.0234 4.39032 78.0234 4.76075 78.0391C5.11548 78.1164 5.547 78.1315 5.85522 78.0542C6.164 78.1472 6.30241 78.3014 6.30241 78.6096C6.33323 78.8561 6.07153 79.1341 5.85522 79.1649C5.42371 79.1184 5.05384 79.1649 4.76075 79.1801C4.3595 79.2574 4.02045 79.1184 3.66571 79.1649C3.38831 79.1341 3.15688 78.841 3.21852 78.6096ZM9.51016 86.1038C9.57181 86.0422 9.58694 85.9649 9.52529 85.9183C9.24789 85.7334 9.18625 85.5485 9.20138 85.3479C9.29385 85.0861 9.0781 84.9472 8.81583 84.978C8.43083 85.0088 8.26102 84.9623 8.01444 84.978C7.82895 84.978 7.52072 84.9931 7.19681 84.978C6.98105 84.9472 6.88859 85.117 6.70366 85.1629C6.56468 85.3019 6.33324 85.2862 6.33324 85.5176C6.27159 85.6101 6.28728 85.6718 6.13317 85.8567C6.04071 86.0265 5.96336 86.1963 5.96336 86.3196C5.96336 86.4272 6.02501 86.4737 6.13317 86.4429C6.50304 86.4894 6.78044 86.458 7.13517 86.3964C7.38175 86.3039 7.73648 86.4272 8.09121 86.3347C8.43081 86.3655 8.69254 86.2579 9.13974 86.2423C9.30954 86.2114 9.43283 86.1655 9.51016 86.1038ZM12.2544 78.6096C12.3161 78.9027 12.1312 79.1492 11.7921 79.1649C11.4222 79.2266 11.0983 79.2574 10.6663 79.1801C10.2807 79.1649 9.89514 79.2109 9.5561 79.1649C9.30952 79.1033 9.17056 78.8718 9.10891 78.6096C9.04727 78.363 9.32465 78.0542 9.5561 78.0542C9.97248 78.085 10.3272 78.0699 10.6663 78.0391C11.0826 77.9926 11.4682 78.0699 11.7921 78.0542C12.0387 78.1315 12.2853 78.363 12.2544 78.6096ZM12.2544 80.2135C12.3161 80.506 12.0544 80.8148 11.7921 80.7682C11.3757 80.8299 11.0675 80.7991 10.6663 80.7839C10.3732 80.7531 9.97248 80.7374 9.5561 80.7682C9.24788 80.7374 9.17056 80.46 9.10891 80.2135C9.07809 79.982 9.23219 79.6738 9.5561 79.6581C9.89514 79.6889 10.358 79.6273 10.6663 79.643C10.9902 79.643 11.3757 79.6889 11.7921 79.6581C12.0236 79.6889 12.2853 79.9512 12.2544 80.2135Z" fill="#393B44"/>
<path d="M27.2563 83.5597C27.4261 83.6522 27.5337 83.9755 27.5959 84.1453C27.5337 84.5466 27.3645 84.7158 27.0871 84.8391C26.9173 84.9473 26.6399 84.9624 26.3776 85.1171C26.177 85.1479 25.8688 85.3171 25.7147 85.348C25.5449 85.3945 25.1593 85.5643 25.0052 85.5794C24.697 85.6259 24.4963 85.7952 24.3114 85.78C24.1265 85.8417 23.7869 85.965 23.5554 86.0115C23.2472 86.0574 23.0006 86.2272 22.7692 86.1499C22.5686 86.2272 22.3836 86.0883 22.2295 85.9185C22.0754 85.8568 21.9672 85.5794 22.0138 85.3788C21.9521 85.1322 22.0905 85.0706 22.1987 84.8699C22.3528 84.7775 22.4301 84.7158 22.6767 84.5925C23.0466 84.5774 23.2321 84.4076 23.6019 84.3768C23.9718 84.2378 24.1573 84.2995 24.4806 84.161C24.5888 83.9604 24.5731 83.683 24.6813 83.3434C24.7894 83.066 24.7586 82.7113 24.8662 82.4955C24.8354 82.1873 24.9436 81.925 25.0203 81.6476C25.1134 81.308 25.1134 81.1696 25.1593 80.7992C25.1901 80.5683 25.2826 80.352 25.2675 80.0281C25.2983 79.8123 25.3907 79.5657 25.375 79.2267C25.4524 78.9952 25.4832 78.9179 25.6373 78.7638C25.7914 78.7946 25.8996 78.7178 26.1462 78.7022C26.3311 78.7022 26.5468 78.7946 26.7475 78.8254C26.9173 78.9336 26.9324 79.1494 26.994 79.3959C27.0406 79.5657 27.0097 79.7355 26.9324 79.9821C26.8708 80.1979 26.9173 80.3369 26.8399 80.5369C26.7632 80.7841 26.7015 80.8917 26.7323 81.0923C26.7632 81.308 26.7166 81.493 26.6399 81.6319C26.5934 81.8634 26.5317 82.0483 26.5469 82.1565C26.4393 82.2641 26.4236 82.4339 26.4236 82.6805C26.3468 82.927 26.2235 83.2666 26.3927 83.4975C26.5934 83.6522 26.8399 83.3899 27.2563 83.5597ZM22.0597 77.4995C22.0289 77.2989 22.0905 77.1448 22.2295 76.975C22.3993 76.8674 22.5226 76.7592 22.7232 76.7284C22.8773 76.7133 23.1547 76.7441 23.5246 76.7133C23.7252 76.6976 23.9875 76.6825 23.9718 76.0346C23.9567 75.4793 23.9875 75.1711 23.9875 74.8628C24.0026 74.6006 24.1416 74.4616 24.2498 74.3383C24.4655 74.2307 24.6662 74.1842 24.8354 74.1534C24.9895 74.1534 25.175 74.2767 25.4059 74.3383C25.4832 74.4616 25.653 74.6006 25.6682 74.8628C25.6682 75.1711 25.6222 75.5566 25.6838 76.0346C25.7147 76.2661 25.6838 76.3737 25.8996 76.5586C26.1462 76.7133 26.4084 76.7284 26.7475 76.7284C27.1022 76.7284 27.318 76.9134 27.3796 76.975C27.5186 77.0523 27.5651 77.3762 27.5494 77.4995C27.5029 77.7769 27.4878 77.8386 27.3796 78.0392C27.2255 78.1474 27.0714 78.255 26.8864 78.2858C26.4701 78.3631 26.131 78.2858 25.8379 78.2858C25.4059 78.2398 25.1133 78.3631 24.8046 78.2858C24.419 78.255 24.0492 78.255 23.7718 78.2858C23.4938 78.2241 23.0466 78.3474 22.7232 78.2858C22.5534 78.2241 22.3993 78.1933 22.2295 78.0392C22.0597 77.8386 21.9981 77.6845 22.0597 77.4995ZM23.8177 79.072C23.9875 79.3343 24.1416 79.5809 24.1881 79.8123C24.2957 80.0129 24.3265 80.167 24.3265 80.3677C24.4039 80.491 24.4655 80.7375 24.4498 80.9225C24.4347 81.1847 24.6045 81.4005 24.5888 81.6628C24.6505 81.971 24.6661 82.0948 24.697 82.403C24.7121 82.588 24.6045 82.7886 24.4039 82.9427C24.3114 83.1433 24.1573 83.2818 23.895 83.2358C23.6485 83.2509 23.5554 83.1125 23.4321 83.0509C23.2472 82.9887 23.2012 82.7578 23.2012 82.6037C23.2012 82.3874 23.1088 82.2024 23.0774 82.0018C23.0158 81.7709 23.0466 81.6628 22.985 81.5086C22.9541 81.2772 22.8465 80.9225 22.8 80.6759C22.7541 80.5991 22.6616 80.3985 22.6459 80.1362C22.5378 79.874 22.5226 79.8123 22.5534 79.5809C22.6151 79.3808 22.6767 79.1494 22.7849 79.1034C22.8774 79.0412 23.1396 78.8563 23.3245 78.9179C23.4938 78.9028 23.6944 79.0261 23.8177 79.072ZM36.601 79.7507C36.5702 79.9664 36.5086 80.1211 36.4469 80.2595C36.3231 80.3677 36.2463 80.491 35.984 80.5061C35.6909 80.4753 35.3519 80.4601 35.0129 80.5218C34.6273 80.5834 34.3493 80.5834 34.0568 80.5218C33.7637 80.5218 33.409 80.491 32.8536 80.5218C32.746 80.5526 32.4372 80.5526 32.3448 80.5526C32.2215 80.5834 32.1447 80.7841 32.0366 80.9841C31.9284 81.447 32.129 81.5703 32.3296 81.493C32.6379 81.5703 32.9461 81.5395 33.1316 81.493C33.3008 81.5086 33.6096 81.4313 33.7945 81.493C33.9486 81.5395 34.2877 81.5238 34.4732 81.493C34.7657 81.5703 34.9512 81.5087 35.1978 81.5703C35.4135 81.6936 35.5833 81.7552 35.845 81.9402C35.8916 82.11 36.123 82.2181 36.1073 82.4339C36.2155 82.6037 36.1998 82.7886 36.169 82.9887C36.1846 83.3283 36.0922 83.683 36.169 83.9604C36.1073 84.346 36.1073 84.685 36.169 84.9473C36.1381 85.2712 36.1538 85.6102 36.169 85.9185C36.123 86.2115 36.1538 86.5046 36.169 86.8902C36.2306 87.0443 36.1381 87.3374 36.0922 87.4607C35.9689 87.6921 35.8759 87.8305 35.7683 87.9538C35.6601 88.1545 35.4752 88.1393 35.3211 88.201C35.1513 88.2934 34.9972 88.201 34.7965 88.2626C34.6732 88.2318 34.504 88.2469 34.2877 88.2469C33.9795 88.2469 33.8097 88.1085 33.7172 87.9695C33.6712 87.6764 33.4549 87.5688 33.0542 87.5532C32.7612 87.538 32.6995 87.5531 32.5146 87.4142C32.3913 87.3833 32.268 87.1368 32.2831 86.967C32.268 86.6436 32.2988 86.2272 32.2831 85.9341C32.2215 85.6719 32.2988 85.302 32.2831 84.9165C32.2064 84.8083 32.3448 84.6391 32.2831 84.3611C32.268 84.207 32.3448 83.9755 32.2831 83.6522C32.2064 83.4824 32.3448 83.2358 32.1907 83.0044C32.0366 82.8503 31.7435 82.8962 31.6051 82.9578C31.4969 83.1276 31.5434 83.3742 31.5585 83.6522C31.5742 83.9604 31.5126 84.1302 31.5585 84.3768C31.5126 84.6082 31.4969 84.7775 31.5585 84.9316C31.5126 85.2555 31.5434 85.5486 31.5585 85.965C31.6202 86.2732 31.6202 86.7512 31.5434 87.0135C31.605 87.1833 31.4812 87.3525 31.2963 87.4607C31.2038 87.4915 30.9881 87.584 30.8031 87.6148C30.649 87.584 30.4327 87.5997 30.2943 87.4607C30.1861 87.445 30.0012 87.2141 30.0628 87.0135C30.0163 86.6279 29.9704 86.2424 30.0477 85.965C30.0936 85.6567 29.9855 85.302 30.0477 84.9316C30.0163 84.7623 29.9704 84.5309 30.0477 84.3768C29.9704 84.1302 29.9703 83.8214 30.0012 83.5597C29.9855 82.9735 29.8779 82.9119 29.7081 82.9119C29.3842 82.9119 29.3382 82.9427 29.3382 83.2509C29.3074 83.5749 29.2917 84.0064 29.3382 84.3768C29.3842 84.7158 29.3225 85.1322 29.3382 85.5021C29.3999 85.9185 29.3225 86.3197 29.3382 86.6436C29.2609 87.0443 29.2766 87.4607 29.3225 87.7997C29.3534 87.9852 29.1992 88.201 29.0608 88.2318C28.9527 88.3394 28.6753 88.3859 28.5363 88.3702C28.3973 88.3243 28.1972 88.401 28.0117 88.2318C27.7809 88.1853 27.7652 88.016 27.75 87.7997C27.7192 87.445 27.6884 87.0443 27.7343 86.582C27.7343 86.1499 27.6576 85.8568 27.7343 85.3788C27.796 84.9473 27.7035 84.6391 27.7343 84.1919C27.6727 83.7755 27.6884 83.3434 27.7343 82.9887C27.6727 82.8194 27.6884 82.588 27.8117 82.3874C27.935 82.2181 27.935 82.0326 28.1356 81.8477C28.2589 81.7401 28.5979 81.6168 28.7677 81.5546C28.9986 81.5703 29.1992 81.5546 29.693 81.493C29.9087 81.5703 30.2634 81.493 30.4019 81.1231C30.3559 80.9998 30.5257 80.6759 30.371 80.6451C30.0936 80.5061 29.5388 80.6608 29.3382 80.5834C29.1533 80.5218 28.9061 80.5834 28.7061 80.5218C28.413 80.5369 28.2432 80.491 28.0274 80.5061C27.8576 80.491 27.6267 80.4136 27.5651 80.2595C27.5186 80.167 27.3953 79.9205 27.4104 79.7507C27.3337 79.6274 27.4413 79.4268 27.5651 79.2575C27.7035 79.1494 27.8733 79.072 28.0274 79.0104C28.3357 79.072 28.6904 79.0569 29.0451 79.0104C29.3074 78.9796 29.6621 79.072 30.032 79.0104C30.371 78.9796 30.7106 79.072 30.988 79.0104C31.4044 78.9796 31.6667 78.9952 32.0057 79.0104C32.268 78.9796 32.7152 79.0261 32.9926 79.0104C33.3933 78.9796 33.6247 79.0261 33.9795 79.0104C34.3034 79.0104 34.6733 78.9796 34.9663 79.0104C35.3054 78.9487 35.6758 78.9644 35.984 79.0104C36.2463 79.0412 36.3079 79.165 36.4469 79.2575C36.4777 79.4116 36.6318 79.5809 36.601 79.7507ZM28.1199 76.1428C28.0583 75.9422 28.0583 75.6799 28.1356 75.3868C28.1507 75.1711 28.1664 75.017 28.3822 74.8937C28.4898 74.832 28.6904 74.7087 28.9218 74.7396C29.1225 74.693 29.2917 74.8012 29.4615 74.8937C29.5848 75.0321 29.6464 75.1094 29.7081 75.3868C29.6773 75.8189 29.7546 76.1579 29.7238 76.5127C29.7546 76.8209 29.8779 76.9134 30.1553 76.8366C30.3559 76.8674 30.8182 76.9442 31.0037 76.7284C31.0962 76.6208 31.0805 76.2196 31.0497 75.973C31.0497 75.7107 31.0962 75.4642 31.0497 75.1559C30.9881 74.9553 31.0346 74.7855 31.0654 74.5232C31.0805 74.2458 31.1113 74.1377 31.3119 74.0301C31.5126 73.9068 31.5894 73.9219 31.8668 73.876C32.0674 73.9376 32.2523 73.9527 32.4064 74.0301C32.5919 74.215 32.7152 74.3075 32.6687 74.5232C32.6536 74.6622 32.7303 74.8628 32.6844 75.1559C32.6535 75.356 32.6227 75.7107 32.6844 75.973C32.6687 76.3894 32.5762 76.6051 32.8228 76.8209C33.0699 76.929 33.3933 76.8674 33.6712 76.8366C34.0103 76.9134 34.1027 76.7441 34.1027 76.497C34.0719 76.1114 34.0719 75.7107 34.1185 75.3868C34.1028 75.2327 34.1493 74.9704 34.365 74.8937C34.5348 74.7704 34.6889 74.7087 34.9047 74.7396C35.1053 74.7087 35.2746 74.7239 35.4444 74.8937C35.5677 74.9861 35.6601 75.1094 35.6909 75.3868C35.645 75.6956 35.6758 75.9573 35.7066 76.1428C35.6293 76.4045 35.6601 76.5894 35.7066 76.8825C35.6601 77.0983 35.7066 77.3454 35.645 77.4379C35.5833 77.7002 35.4287 77.8386 35.3519 77.931C35.1204 78.0392 34.9972 78.209 34.7965 78.1933C34.6424 78.209 34.3958 78.2241 34.1952 78.255C33.8254 78.2241 33.3933 78.2858 33.0542 78.255C32.6536 78.209 32.314 78.3015 31.9133 78.255C31.5277 78.2241 31.173 78.3015 30.7723 78.255C30.4176 78.1933 29.9395 78.2241 29.6313 78.255C29.3534 78.2858 29.2301 78.2858 28.9835 78.1782C28.7829 78.1782 28.5363 78.0852 28.413 77.8694C28.3205 77.7618 28.2124 77.4995 28.1664 77.3914C28.1356 77.2065 28.074 77.0523 28.1199 76.8825C28.0891 76.6516 28.1664 76.4202 28.1199 76.1428ZM33.7945 84.8856C33.748 85.1787 33.8254 85.9033 33.8097 86.3965C33.8097 86.6896 34.026 86.8129 34.1801 86.782C34.5808 86.7512 34.4883 86.6436 34.5656 86.5663C34.5965 86.304 34.6116 86.0883 34.5656 85.7643C34.5808 85.4096 34.5191 85.1322 34.5656 84.9165C34.5348 84.7007 34.5348 84.4227 34.5656 84.0837C34.6273 83.729 34.5348 83.4975 34.5656 83.2509C34.5808 82.9579 34.4732 82.8811 34.2109 82.9119C33.8405 82.8654 33.7637 83.0195 33.7945 83.6365C33.8097 83.9447 33.8097 84.0837 33.7945 84.346C33.8405 84.5774 33.7637 84.7315 33.7945 84.8856Z" fill="#393B44"/>
<path d="M47.9024 78.7486C47.7635 78.7638 47.6402 78.7637 47.5169 78.9335C47.4395 79.0411 47.4552 79.3651 47.4395 79.5657C47.5012 79.8739 47.4244 80.121 47.4395 80.3676C47.4244 80.5217 47.3936 80.7991 47.4395 80.9689C47.4087 81.2772 47.4704 81.7244 47.4395 82.1099C47.5012 82.4955 47.4704 82.8037 47.4395 83.2509C47.4552 83.5748 47.3779 84.0377 47.4395 84.3919C47.5012 84.7315 47.3628 85.2095 47.4395 85.5334C47.3628 85.8876 47.4087 86.3656 47.4395 86.6587C47.4244 87.0908 47.3936 87.5071 47.4244 87.8305C47.4861 88.0468 47.2854 88.2317 47.1621 88.2934C46.9615 88.401 46.8539 88.4318 46.6376 88.4318C46.4219 88.4632 46.2218 88.3859 46.098 88.2934C45.9287 88.1544 45.8979 88.016 45.8362 87.8305C45.7589 87.5071 45.7897 87.1059 45.8205 86.6587C45.8514 86.2888 45.8054 85.8724 45.8205 85.5334C45.8822 85.0862 45.8205 84.8082 45.8205 84.3919V83.2509C45.7589 82.8962 45.8205 82.4646 45.8205 82.1099C45.8671 81.7244 45.8054 81.3545 45.8205 80.9689C45.7746 80.8456 45.7897 80.6299 45.8205 80.3676C45.8514 80.0902 45.7589 79.8588 45.8205 79.5657C45.7897 79.3959 45.8514 79.1958 45.7281 79.026C45.6048 78.8719 45.5583 78.8254 45.2657 78.7486C44.772 78.7329 44.5406 78.7638 44.294 78.7329C44.0782 78.7486 43.9241 78.6253 43.8317 78.4863C43.6927 78.409 43.677 78.1781 43.6619 77.9618C43.6462 77.7926 43.7852 77.5611 43.8317 77.453C44.0009 77.2989 44.1242 77.1913 44.294 77.2064C44.6952 77.2837 45.0651 77.2221 45.4198 77.1913C45.7746 77.268 46.1136 77.1913 46.5143 77.1913C46.8999 77.1913 47.2087 77.2221 47.6245 77.1913C47.9641 77.1604 48.3956 77.2837 48.7503 77.2064C49.0126 77.1756 49.1516 77.3454 49.2283 77.453C49.3365 77.6071 49.3365 77.7769 49.3673 77.931C49.4133 78.1781 49.3516 78.3474 49.2283 78.4863C49.1202 78.6096 48.9044 78.7021 48.627 78.7178C48.4113 78.7021 48.2723 78.7021 47.9024 78.7486ZM45.4658 80.9532C45.4199 81.262 45.4815 81.6011 45.4658 81.8168C45.4507 82.1872 45.5123 82.6036 45.4507 82.9118C45.4507 83.1584 45.4198 83.3125 45.4198 83.4975C45.3733 83.6981 45.389 83.9604 45.3733 84.0685C45.2966 84.2534 45.3425 84.4692 45.3117 84.6541C45.2657 84.8391 45.1884 85.0705 45.2192 85.2246C45.1727 85.3636 45.1727 85.595 45.1111 85.7643C45.0343 85.9649 45.0651 86.1655 44.957 86.3196C44.8802 86.6744 44.6488 86.7669 44.3405 86.8128C44.0317 86.7669 43.6311 86.5203 43.6927 86.2115C43.7235 85.9341 43.7543 85.6875 43.816 85.5642C43.8468 85.4561 43.8317 85.2246 43.9241 85.117C43.9858 84.9164 44.0934 84.6698 44.0783 84.3151C44.0783 84.0063 44.1091 83.7754 44.155 83.4515C44.2172 83.1892 44.2016 82.9118 44.2016 82.5879C44.2481 82.264 44.2481 82.0483 44.2016 81.7552C44.2016 81.5702 44.1242 81.2463 44.2016 80.9224C44.2016 80.6142 44.1858 80.2751 44.2172 80.0588C44.2172 79.7047 44.5406 79.5192 44.8337 79.5349C45.0959 79.55 45.4815 79.7506 45.4507 80.0588C45.5123 80.3211 45.4658 80.6299 45.4658 80.9532ZM44.2789 75.9264C44.2172 75.7723 44.1091 75.6647 44.1242 75.4025C44.1859 75.2484 44.155 75.0629 44.2789 74.8779C44.4173 74.693 44.5871 74.7238 44.7569 74.6313C45.096 74.693 45.2809 74.5848 45.6664 74.6157C46.0212 74.554 46.2218 74.693 46.5608 74.6157C46.7923 74.5697 47.1465 74.6779 47.4552 74.6157C47.7792 74.6779 47.9949 74.7087 48.3648 74.6313C48.5962 74.7087 48.7352 74.693 48.8428 74.8779C48.9353 75.032 49.0586 75.2635 49.0126 75.4025C49.0586 75.6182 48.9201 75.8032 48.8428 75.9421C48.7503 76.0497 48.5497 76.2195 48.3648 76.1887C47.9949 76.2503 47.7635 76.1271 47.4552 76.1887C47.1313 76.2503 46.8074 76.2352 46.5608 76.1887C46.2061 76.1271 45.9287 76.266 45.6664 76.1887C45.389 76.2503 45.0343 76.1736 44.7569 76.1887C44.479 76.2195 44.4022 76.1114 44.2789 75.9264ZM48.4421 86.3964C48.149 86.4121 47.8408 86.1964 47.8408 85.8724C47.8408 85.641 47.8408 85.4253 47.8251 85.117C47.81 84.9315 47.81 84.6541 47.8251 84.4076C47.7943 84.161 47.81 83.9447 47.8251 83.683C47.7791 83.405 47.81 83.1433 47.8251 82.9578C47.7943 82.8037 47.8716 82.5263 47.8251 82.2332C47.7791 82.0174 47.8559 81.6935 47.8251 81.5237C47.7483 81.3237 47.8559 81.0614 47.8251 80.7991C47.8559 80.5217 47.8559 80.2443 47.8408 80.0588C47.8408 79.7198 48.1333 79.504 48.4421 79.5349C48.7195 79.6122 49.0126 79.5965 49.0277 80.0588C49.0434 80.3368 49.0277 80.6142 49.0434 80.7991C48.9661 81.0614 48.9818 81.3237 49.0434 81.5237C49.0126 81.7244 48.9661 81.9401 49.0434 82.2332C49.0126 82.5263 48.9818 82.7577 49.0434 82.9578C48.9969 83.1892 49.0277 83.3742 49.0434 83.683C49.0434 83.9447 49.1051 84.2378 49.0434 84.4076C49.0277 84.6541 49.0585 84.8239 49.0434 85.117C48.9818 85.4404 49.0434 85.6718 49.0277 85.8724C49.0586 86.2423 48.7044 86.3813 48.4421 86.3964ZM57.956 87.7845C57.8171 87.9695 57.7862 87.9852 57.5397 88.016C56.9692 88.0776 56.7842 87.9695 56.4912 88.0311C56.1056 88.1085 55.8742 88.0311 55.4735 88.0311C55.1804 88.0928 54.7489 88.0928 54.4558 88.0311C54.1627 88.0311 53.7312 87.9695 53.4224 88.0311C53.006 88.0003 52.7135 88.0311 52.4047 88.0311C52.1122 87.9695 51.7266 88.1085 51.387 88.0311C51.0015 88.0928 50.6316 88.016 50.3693 88.0311C50.0919 88.0776 49.7064 88.0468 49.3208 88.016C49.1824 87.9695 48.9969 87.877 48.9044 87.7845C48.7811 87.6613 48.766 87.538 48.766 87.3216C48.766 87.1675 48.7503 86.9983 48.9044 86.8436C49.0277 86.7203 49.1359 86.6587 49.3208 86.6127C49.5366 86.5662 49.7529 86.6436 49.9378 86.6127C50.1536 86.5819 50.7706 86.6127 51.0788 86.6127C51.5411 86.6127 51.5411 86.5354 51.4178 86.3196C51.2637 86.0574 51.1404 85.8259 51.187 85.6259C51.2329 85.4712 51.2946 85.4404 51.2946 85.2711C51.2946 85.1787 50.863 85.0705 50.7089 84.9315C50.5234 84.7623 50.431 84.5308 50.4158 84.0836C50.4158 83.7906 50.4001 83.5905 50.4158 83.2201C50.3693 82.8962 50.4775 82.7577 50.5083 82.6653C50.6473 82.5571 50.7089 82.403 50.8014 82.2948C50.909 82.1564 51.1096 82.1716 51.2329 82.0948C51.3562 82.1256 51.5411 82.0174 51.8034 82.0326C52.05 82.0326 52.3588 82.064 52.7135 82.0326C53.0368 82.0018 53.2683 82.0326 53.623 82.0326C53.9778 82.0018 54.2243 82.0791 54.5482 82.0326C54.8565 82.0791 55.1036 82.0483 55.4578 82.0326C55.6741 82.1099 55.7974 82.0174 56.0283 82.0948C56.2289 82.2024 56.3679 82.2332 56.4603 82.2948C56.5993 82.4489 56.6453 82.5728 56.7534 82.6653C56.7377 82.7886 56.8459 83.066 56.8459 83.2201C56.8919 83.4358 56.9075 83.8062 56.8459 84.0836C56.8767 84.5308 56.7226 84.8082 56.4912 84.978C56.1213 85.2403 55.8433 85.1478 55.7666 85.302C55.6892 85.4561 55.9358 85.5177 55.8433 85.8259C55.5968 86.2888 55.5659 86.3813 55.6892 86.5662C55.7974 86.6436 56.0748 86.6279 56.3214 86.6127C56.7377 86.6127 56.9075 86.5819 57.5397 86.6127C57.7554 86.6127 57.8479 86.6744 57.956 86.8436C58.0334 86.9669 58.1258 87.214 58.1102 87.3216C58.1102 87.5996 58.002 87.7072 57.956 87.7845ZM49.3516 80.9381C49.3208 80.5834 49.5831 80.1978 49.8913 80.2135C50.2001 80.1827 50.5699 80.2595 50.8473 80.1978C51.1869 80.1362 51.4027 80.167 51.7883 80.1978C52.0808 80.2595 52.3588 80.2752 52.7135 80.1978C53.0368 80.167 53.2683 80.2752 53.6538 80.1978C54.0394 80.167 54.2552 80.2595 54.5948 80.1978C54.8565 80.1827 55.1804 80.1519 55.5351 80.1978C55.8125 80.1519 56.1213 80.2135 56.4755 80.1978C56.8302 80.167 57.0925 80.2135 57.4315 80.2135C57.6478 80.306 57.7246 80.2903 57.8636 80.4444C57.9404 80.5526 57.9561 80.7683 58.002 80.9073C57.9404 81.0306 58.0177 81.2004 57.8479 81.3853C57.7246 81.5545 57.5397 81.5859 57.4315 81.6168C57.0773 81.6784 56.7534 81.6935 56.4755 81.6319C56.2289 81.5702 55.8125 81.6168 55.5351 81.6319C55.1653 81.7092 54.8722 81.6319 54.5948 81.6319C54.2092 81.5859 53.9469 81.7092 53.6538 81.6319C53.2991 81.6011 52.9752 81.6011 52.7135 81.6319C52.4663 81.5702 52.0657 81.6935 51.7883 81.6319C51.4795 81.6011 51.1096 81.6627 50.8473 81.6319C50.5083 81.5859 50.2152 81.6627 49.8913 81.6168C49.629 81.5545 49.29 81.2155 49.3516 80.9381ZM49.9221 76.451C49.8605 76.1579 49.8913 76.0038 50.0303 75.8497C50.0611 75.7723 50.2001 75.5101 50.3385 75.4792C50.431 75.3559 50.6008 75.2943 50.8014 75.2792C51.0015 75.31 51.2637 75.2943 51.526 75.2175C51.6493 75.2792 51.8807 75.1559 51.865 74.7855C51.8499 74.3539 51.9267 74.2307 52.0965 74.0917C52.1581 74.03 52.2506 73.9376 52.5588 73.9376C52.6518 73.9376 52.8211 73.9527 53.0217 74.0917C53.1915 74.2458 53.1758 74.3691 53.2375 74.5848C53.2532 74.7855 53.2066 75.0629 53.2991 75.1402C53.4689 75.2943 53.6847 75.2484 53.8545 75.171C53.9777 74.9861 53.9778 74.9396 53.9778 74.4924C54.0237 74.03 54.3633 73.9527 54.6564 73.9376C54.8413 73.9219 55.0414 74.03 55.1187 74.0917C55.2112 74.215 55.3345 74.4464 55.3037 74.7855C55.2729 75.0477 55.4118 75.2175 55.7049 75.2175C55.9975 75.2635 56.2138 75.2018 56.4138 75.2635C56.6301 75.3408 56.7534 75.31 56.8918 75.4792C57.0308 75.5566 57.139 75.6647 57.2006 75.8648C57.2623 76.0346 57.339 76.266 57.3082 76.451C57.3547 76.79 57.2314 77.1913 57.3082 77.4995C57.2466 77.9002 57.3699 78.209 57.3082 78.548C57.3547 78.7946 57.2931 79.026 57.2006 79.1493C57.1233 79.2726 57 79.4424 56.8918 79.5192C56.7377 79.6582 56.5377 79.6273 56.4138 79.7355C56.2446 79.7814 55.9666 79.7971 55.8282 79.7971C55.381 79.7355 55.1187 79.8588 54.7181 79.7971C54.3017 79.8431 54.0086 79.8123 53.6079 79.7971C53.3148 79.7663 52.9292 79.7506 52.5129 79.7971C52.1122 79.828 51.8191 79.7814 51.4178 79.7971C51.2178 79.7355 51.0015 79.8279 50.8014 79.7355C50.5851 79.689 50.4467 79.643 50.3385 79.5349C50.1693 79.3651 50.0762 79.2726 50.0303 79.1342C49.9686 78.9487 49.9686 78.7794 49.9221 78.548C49.953 78.2706 49.9686 77.8542 49.9221 77.4995C49.9378 77.0831 49.8605 76.8057 49.9221 76.451ZM51.4335 78.6562C51.5568 78.6562 51.6801 78.6713 51.8807 78.6562C51.9883 78.5945 52.0192 78.4707 52.004 78.2398C51.9883 77.885 51.7883 77.9775 51.5876 77.9618C51.3102 77.931 51.2794 78.0235 51.2637 78.2549C51.2486 78.4863 51.3102 78.6562 51.4335 78.6562ZM51.2794 76.8365C51.3254 76.975 51.5103 76.9906 51.7883 76.9749C52.0349 76.9749 52.0192 76.7749 52.004 76.6208C52.004 76.4818 51.9732 76.2969 51.8807 76.2812C51.6341 76.2195 51.4487 76.266 51.3411 76.3277C51.2178 76.4661 51.2794 76.5894 51.2794 76.8365ZM55.1344 83.2666C54.9797 83.2049 54.5325 83.2049 54.3325 83.2358C54.0859 83.1741 53.9312 83.2201 53.623 83.2358C53.3607 83.2358 53.1915 83.2974 52.9293 83.2358C52.7595 83.2358 52.1273 83.1892 52.0349 83.3125C51.8807 83.4207 51.8807 83.8679 52.05 84.022C52.1738 84.1145 52.6362 84.1302 52.9293 84.0836C53.0991 84.1453 53.3607 84.0993 53.623 84.0836C53.7928 84.0685 54.0545 84.0836 54.3325 84.0836C54.7332 84.0836 55.1496 84.1453 55.2112 83.9912C55.3194 83.8522 55.3345 83.4975 55.1344 83.2666ZM54.3633 85.302C54.2708 85.2554 54.0545 85.2554 53.6538 85.2403C52.9292 85.2246 52.806 85.1938 52.6827 85.3328C52.5902 85.4253 52.7135 85.5485 52.8211 85.7335C52.9444 85.98 53.0525 86.0731 53.0368 86.3348C53.0217 86.4895 53.1142 86.597 53.4532 86.597C53.7155 86.597 53.9312 86.5819 54.0086 86.4272C54.1475 86.0731 54.24 85.8416 54.4093 85.502C54.4401 85.4096 54.4401 85.3479 54.3633 85.302ZM53.2375 76.8517C53.284 76.9906 53.4689 77.0058 53.7463 76.9906C53.9929 76.9906 53.9777 76.79 53.9621 76.6359C53.9469 76.3736 53.9312 76.312 53.8388 76.2969C53.5922 76.2352 53.4073 76.2812 53.2991 76.3428C53.1758 76.4818 53.1915 76.5743 53.2375 76.8517ZM53.3608 78.6405C53.4841 78.7021 53.6539 78.6405 53.8388 78.6713C53.9469 78.6096 53.9777 78.4863 53.9621 78.2549C53.9469 77.9002 53.7463 77.9926 53.5457 77.9775C53.2683 77.9467 53.2375 78.0391 53.2223 78.2706C53.2066 78.5015 53.2375 78.5788 53.3608 78.6405ZM55.2112 76.8057C55.2577 76.9441 55.3653 77.0215 55.6433 77.0058C55.8898 77.0058 55.9666 76.8825 55.9515 76.7284C55.9358 76.4661 55.9515 76.3585 55.7817 76.312C55.5816 76.2503 55.381 76.2352 55.2728 76.2969C55.1496 76.4353 55.1653 76.5277 55.2112 76.8057ZM55.3345 78.687C55.4578 78.687 55.6124 78.7021 55.8282 78.6405C55.9358 78.5788 55.9515 78.4398 55.9358 78.209C55.9207 77.8542 55.72 77.9467 55.5194 77.931C55.242 77.9002 55.2112 77.9926 55.1961 78.2241C55.1804 78.4555 55.2112 78.687 55.3345 78.687Z" fill="#393B44"/>
<path d="M68.1009 85.379C68.1166 85.5645 67.9468 85.8419 67.9008 86.0885C67.8392 86.3042 67.6386 86.613 67.5612 86.7363C67.4379 86.9363 67.392 87.1061 67.2222 87.3219C67.0372 87.5225 66.8983 87.754 66.775 87.8616C66.6209 87.9854 66.4203 88.0162 66.2196 88.0471C65.9731 88.093 65.8346 87.9854 65.6491 87.8464C65.5567 87.6766 65.4183 87.476 65.3717 87.3068C65.3409 87.1835 65.3717 86.9829 65.5567 86.7822C65.6957 86.5205 65.9114 86.4124 66.0347 86.0885C66.0963 85.7954 66.3435 85.6721 66.4359 85.3482C66.5592 85.1481 66.7593 85.0091 66.8366 84.8242C66.9448 84.7009 67.0989 84.7009 67.2838 84.6701C67.4688 84.8085 67.6229 84.855 67.8392 84.8701C67.9776 85.0091 68.1317 85.2249 68.1009 85.379ZM68.255 84.4229C67.9933 84.4846 67.8084 84.4846 67.6386 84.4229C67.4228 84.4078 67.1448 84.377 66.9448 84.3462C66.7133 84.3462 66.4819 84.2072 66.3435 83.9914C66.1737 83.8216 66.0812 83.5907 66.0655 83.4518C66.0039 83.3128 65.9422 83.0197 66.0039 82.8348C65.9579 82.5574 65.9271 82.2335 66.0039 82.002C65.973 81.7863 65.9579 81.4007 66.0039 81.1541C65.9422 80.8302 66.0655 80.522 66.0039 80.2905C65.973 80.0748 66.0196 79.7049 66.0039 79.4427C65.9579 79.1961 65.973 78.8256 66.0039 78.5948C66.0196 78.3476 66.0039 77.9929 66.0039 77.7463C66.0347 77.4997 66.0347 77.1142 66.0039 76.8984C65.9422 76.5896 65.9887 76.3896 66.0039 76.05C66.0039 75.9116 65.9422 75.6493 66.0812 75.387C66.1428 75.1405 66.2353 74.909 66.4202 74.8165C66.636 74.6316 66.7907 74.5543 66.9907 74.5234C67.1605 74.5083 67.4379 74.5391 67.6229 74.4618C67.8235 74.431 68.0701 74.4618 68.255 74.4618C68.4405 74.4775 68.733 74.4926 68.9028 74.4618C69.1343 74.5083 69.3349 74.5391 69.5815 74.5391C69.7356 74.57 70.0287 74.7857 70.1979 74.8939C70.3369 75.048 70.3834 75.2486 70.4759 75.4487C70.4602 75.665 70.5683 75.8959 70.5375 76.05C70.5067 76.3431 70.5218 76.621 70.5375 76.8984C70.5683 77.145 70.5375 77.3916 70.5375 77.7463C70.5683 77.9778 70.491 78.2552 70.5375 78.5948C70.5526 78.903 70.5067 79.2269 70.5375 79.4427C70.5835 79.7817 70.5526 79.9515 70.5375 80.2905C70.491 80.522 70.5067 80.9227 70.5375 81.1541C70.5067 81.4932 70.5992 81.6478 70.5375 82.002C70.5067 82.2643 70.4759 82.6347 70.5375 82.8348C70.491 83.1127 70.4759 83.2511 70.4451 83.4977C70.4142 83.7449 70.2753 83.8525 70.1055 84.0688C69.9362 84.2537 69.6739 84.2537 69.535 84.3613C69.3349 84.4078 69.0418 84.4386 68.8877 84.4229C68.6254 84.4846 68.4097 84.4695 68.255 84.4229ZM68.6097 82.9738C68.8104 82.8348 69.011 82.8656 68.9493 82.4649C68.9645 82.2491 69.0418 81.8944 68.872 81.6787C68.7179 81.5705 68.6714 81.524 68.2242 81.5705C68.0549 81.6478 67.7002 81.5548 67.6229 81.7554C67.5461 81.9869 67.5153 82.2335 67.5769 82.4492C67.6386 82.6655 67.6694 82.8196 67.9316 82.9429C68.1166 82.9737 68.3323 82.9889 68.6097 82.9738ZM67.5921 76.4512C67.6077 76.6362 67.5769 76.9292 67.7153 77.1142C67.8084 77.2066 68.0393 77.2683 68.2864 77.2375C68.4556 77.2066 68.7644 77.1915 68.8104 77.0985C68.9028 76.9601 68.9028 76.7751 68.9028 76.5129C68.9028 76.143 68.7487 75.9732 68.6097 75.9424C68.4248 75.9267 68.1474 75.9267 67.916 75.9424C67.7462 76.0192 67.6537 76.189 67.5921 76.4512ZM68.8412 78.8565C68.7022 78.7489 68.4713 78.7797 68.2707 78.7024C68.0084 78.7797 67.7775 78.7181 67.6386 78.903C67.5769 79.0722 67.6229 79.1804 67.5921 79.381C67.6077 79.6584 67.5461 79.7817 67.731 79.9358C67.87 80.1213 68.1009 80.1056 68.2707 80.0748C68.4864 80.0905 68.7487 80.0905 68.8104 79.8899C68.9185 79.7974 68.9337 79.6125 68.9493 79.381C68.9645 79.2269 68.9493 78.9955 68.8412 78.8565ZM70.8923 86.7206C70.9382 87.0137 70.7068 87.1061 70.63 87.2911C70.5375 87.3684 70.2287 87.5842 70.0438 87.5074C69.8129 87.4452 69.6891 87.5382 69.5966 87.3684C69.489 87.3376 69.3349 87.1218 69.2733 86.9829C69.1186 86.8439 69.0878 86.5205 68.9953 86.3967C68.872 86.2734 68.7487 86.0733 68.6871 85.8262C68.5481 85.6104 68.4097 85.4563 68.4556 85.2406C68.4405 85.1173 68.5173 84.8701 68.7179 84.7469C68.9185 84.716 69.0569 84.6852 69.2733 84.6544C69.489 84.6084 69.5658 84.7009 69.7664 84.716C69.9054 84.8858 70.0287 84.9783 70.1055 85.1016C70.1671 85.333 70.2909 85.4563 70.3985 85.5488C70.4294 85.7494 70.5067 85.7802 70.6451 85.9803C70.7224 86.2117 70.8923 86.5822 70.8923 86.7206ZM79.2344 80.5371C79.1571 80.8459 79.2344 81.0617 79.0489 81.3239C78.9873 81.5397 78.7564 81.7403 78.4324 81.8636C78.2626 81.9095 78.0777 82.0177 77.8928 81.9869C77.723 81.9561 77.4764 81.9561 77.3531 82.0177C77.0135 82.0177 76.6902 82.0328 76.2738 82.0177C75.9499 81.9561 75.5643 81.9712 75.1945 82.0177C74.7781 82.0485 74.5309 81.9869 74.1146 82.0177C73.6831 82.0793 73.3283 82.002 73.0509 82.0177C72.8503 81.9869 72.4956 82.0642 72.2182 81.9404C71.8791 81.9252 71.632 81.7711 71.4936 81.5548C71.3703 81.4623 71.2621 81.2158 71.2313 81.0773C71.1697 80.8459 71.0923 80.7843 71.1697 80.5371C71.108 80.1673 71.1388 79.6892 71.1697 79.3194C71.154 78.8413 71.2313 78.4866 71.1697 78.1011C71.2005 77.9778 71.1232 77.6847 71.247 77.4997C71.2313 77.3299 71.4627 77.1915 71.5703 77.006C71.8175 76.8368 71.9867 76.7443 72.2798 76.667C72.5572 76.5896 72.7887 76.6518 73.0509 76.6053C73.3283 76.621 73.7296 76.5588 74.1454 76.6053C74.4542 76.621 74.8857 76.5588 75.2712 76.6053C75.2869 76.528 75.4102 76.3588 75.4411 76.2047C75.487 76.004 75.5335 75.8807 75.6876 75.7574C75.7341 75.6028 75.8882 75.387 75.9191 75.2946C75.9807 75.2329 76.0115 75.0631 76.1191 74.8474C76.1813 74.57 76.4122 74.3542 76.5355 74.2309C76.5972 74.1536 76.7978 74.0919 76.9984 74.0611C77.1833 74.0303 77.4764 74.1228 77.5689 74.2617C77.7846 74.4001 77.8003 74.6159 77.8463 74.7857C77.677 74.9555 77.7538 75.1248 77.7387 75.2178C77.7387 75.387 77.6148 75.6336 77.4764 75.7574C77.4915 75.9267 77.3531 75.9883 77.3066 76.0657C77.2915 76.2355 77.106 76.2971 76.9984 76.5896C77.3531 76.5437 77.4915 76.5745 77.7079 76.621C77.8311 76.6978 78.0312 76.7135 78.1702 76.6827C78.4168 76.7903 78.6947 76.8827 78.9105 77.0834C79.0954 77.2991 79.1111 77.3916 79.1727 77.5614C79.1879 77.7928 79.1571 77.9312 79.2344 78.1011C79.2036 78.5017 79.2652 78.9646 79.2344 79.3194C79.296 79.7201 79.2652 80.0591 79.2344 80.5371ZM78.5093 84.0379C78.525 84.1921 78.4476 84.5468 78.5093 84.6852C78.525 84.9475 78.525 85.1324 78.5093 85.333C78.4325 85.5953 78.4476 85.8262 78.5093 85.9803C78.4476 86.2734 78.4784 86.4124 78.5093 86.6281C78.5401 86.9672 78.4941 87.1527 78.3243 87.3835C78.201 87.5382 77.9388 87.7848 77.723 87.8773C77.4456 87.9697 77.0909 87.9697 76.7053 88.0314C76.4587 88.0779 76.2122 88.0006 75.9499 88.0314C75.6876 88.0779 75.3794 88.0622 75.1945 88.0314C74.9473 88.0162 74.7316 88.0314 74.4385 88.0314C74.1611 88.0471 73.8988 87.9697 73.6831 88.0314C73.3591 88.0779 73.1585 88.0471 72.8811 87.954C72.6497 87.8773 72.3571 87.8464 72.1873 87.569C72.0949 87.4301 72.0332 87.2294 71.9408 87.1218C71.9099 86.9364 71.8943 86.8747 71.8791 86.6281C71.9099 86.4432 71.9099 86.1658 71.8791 85.9803C71.9099 85.7029 71.8175 85.6104 71.8791 85.333C71.8483 85.1789 71.9099 84.901 71.8791 84.6852C71.8634 84.4386 71.9408 84.1921 71.8791 84.0379C71.9408 83.8681 71.8634 83.6832 71.9559 83.4826C72.0484 83.2511 72.1408 83.2052 72.2647 83.0046C72.4339 82.9121 72.6497 82.8039 72.9428 82.6807C73.1277 82.6655 73.39 82.6347 73.6831 82.619C73.9145 82.6347 74.1303 82.5882 74.4385 82.619C74.6699 82.5574 74.9165 82.6963 75.1945 82.619C75.487 82.6655 75.6568 82.6347 75.9499 82.619C76.2273 82.5574 76.3814 82.6655 76.7053 82.619C76.9984 82.6039 77.1525 82.6807 77.4916 82.6963C77.7079 82.8039 78.0777 82.8964 78.201 83.0819C78.3708 83.2977 78.34 83.4209 78.4476 83.5285C78.4784 83.7757 78.5709 83.8373 78.5093 84.0379ZM72.2798 74.7706C72.249 74.5391 72.388 74.3693 72.5572 74.2769C72.727 74.2309 72.9893 74.1536 73.1277 74.0762C73.2975 74.0146 73.4824 74.1536 73.6988 74.2926C73.8064 74.5083 73.9762 74.5391 74.0994 74.7706C74.2384 74.9398 74.3309 75.0939 74.4077 75.2329C74.5466 75.3562 74.6234 75.5876 74.5775 75.7574C74.6234 76.004 74.4542 76.1273 74.2535 76.2355C74.0837 76.3122 73.8529 76.4512 73.6674 76.4355C73.3283 76.4355 73.2207 76.2814 73.0661 76.2355C72.9428 76.0192 72.866 75.8191 72.7119 75.6493C72.6497 75.4487 72.5264 75.4335 72.4339 75.2329C72.2955 75.0939 72.2025 74.9863 72.2798 74.7706ZM74.1611 78.0086C73.9453 77.9161 73.5441 77.9469 73.3283 77.9312C72.9276 78.0086 72.727 77.9929 72.7578 78.3476C72.7735 78.6256 73.0509 78.5948 73.3748 78.6564C73.9453 78.6256 74.346 78.6407 74.346 78.5326C74.3617 78.3476 74.4077 78.1627 74.1611 78.0086ZM74.3152 80.2597C74.3001 80.0131 74.0529 79.8742 73.4673 79.905C73.1585 79.9207 72.8811 79.905 72.8195 80.1521C72.8044 80.5528 72.9428 80.661 73.3283 80.661C73.5289 80.6145 73.7912 80.6918 74.007 80.6144C74.1454 80.5685 74.2844 80.6301 74.3152 80.2597ZM73.4365 84.4078C73.4824 84.5619 73.5133 84.7625 74.1146 84.6852C74.5618 84.7625 74.9014 84.6544 75.1945 84.6852C75.4102 84.7625 75.8417 84.6544 76.2738 84.6852C76.8443 84.716 76.9211 84.5468 76.9059 84.3462C76.9211 84.0066 76.721 83.9298 76.4896 83.9757C76.243 84.0379 75.9958 83.9606 75.8417 83.9757C75.5795 83.9298 75.3794 83.9298 75.1788 83.9757C74.9165 83.9914 74.7932 83.9449 74.531 83.9757C74.3001 83.9757 74.1611 84.0066 73.8837 83.9757C73.5749 84.0379 73.4208 84.1147 73.4365 84.4078ZM76.2738 85.9495C75.765 85.8878 75.5486 85.9187 75.1945 85.9495C74.963 86.0268 74.5926 85.9652 74.1146 85.9495C73.4673 85.9343 73.4673 86.1501 73.4824 86.3042C73.4673 86.5665 73.5598 86.613 73.8837 86.6438C74.0837 86.7055 74.2384 86.6746 74.531 86.6438C74.6856 86.6898 74.9322 86.613 75.1788 86.6438C75.3329 86.5822 75.6725 86.6898 75.8417 86.6438C75.9958 86.6746 76.2273 86.6281 76.4896 86.6438C76.767 86.613 76.8443 86.5973 76.9059 86.3042C76.9059 85.9187 76.5355 85.9035 76.2738 85.9495ZM77.6305 80.3062C77.6462 80.0905 77.5224 79.9974 77.3374 79.9515C77.199 79.9207 76.9984 79.9207 76.8135 79.905C76.4739 79.859 76.0424 79.9207 75.9499 80.0905C75.7185 80.1521 75.8418 80.4138 75.9034 80.5371C75.9191 80.6453 76.104 80.6918 76.3663 80.661C76.721 80.661 76.8903 80.7069 77.1833 80.661C77.384 80.5685 77.5997 80.6918 77.6305 80.3062ZM75.9342 78.4401C76.0115 78.6872 76.2738 78.6407 76.5663 78.6564C76.6745 78.6872 76.7053 78.6715 76.9676 78.6564C77.4299 78.7024 77.5532 78.6872 77.584 78.3941C77.5689 78.101 77.4764 77.9621 77.1682 77.9312C76.8902 77.9161 76.6593 77.8696 76.2273 77.9312C75.8882 77.9778 75.8726 78.1476 75.9342 78.4401Z" fill="#393B44"/>
<path d="M93.249 84.5003C93.1873 84.8085 93.2647 84.9318 93.249 85.2406C93.2339 85.5488 93.203 85.7802 93.249 85.9652C93.1873 86.2274 93.1565 86.4583 93.1565 86.659C93.1414 86.9212 92.9408 87.137 92.7866 87.2603C92.5401 87.4917 92.4168 87.569 92.0929 87.615C91.8155 87.754 91.5067 87.754 91.3061 87.6923C91.0136 87.6615 90.7205 87.6923 90.3506 87.6923C90.0883 87.7075 89.7487 87.7232 89.4097 87.6923C89.0706 87.7383 88.7927 87.6923 88.5769 87.5999C88.2222 87.5534 88.0989 87.3684 87.8366 87.1835C87.6825 86.9672 87.5284 86.8904 87.5441 86.613C87.5441 86.3659 87.4667 86.2426 87.4667 85.9803C87.4051 85.657 87.4359 85.5645 87.4667 85.2406C87.4976 85.0556 87.4516 84.7317 87.4667 84.5003C87.5133 84.3154 87.39 83.9606 87.4667 83.76C87.5284 83.4518 87.4208 83.3436 87.4667 83.0197C87.39 82.804 87.5441 82.5882 87.5592 82.3259C87.6517 82.1567 87.729 81.8636 87.9296 81.7246C88.1454 81.5089 88.3612 81.478 88.6386 81.3699C88.9165 81.3856 89.1015 81.2931 89.4097 81.2931C89.6719 81.2931 89.9651 81.3391 90.3506 81.2931C90.5972 81.2931 90.9827 81.2623 91.3061 81.2931C91.6149 81.2774 91.8614 81.3856 92.1545 81.3856C92.4784 81.478 92.6477 81.617 92.8791 81.8171C93.064 81.9404 93.1565 82.2492 93.1722 82.3876C93.1565 82.6347 93.2647 82.8348 93.249 83.0197C93.2182 83.2668 93.2798 83.5751 93.249 83.76C93.3112 84.0066 93.2798 84.1921 93.249 84.5003ZM91.5224 83.2512C91.5224 82.8813 91.3991 82.8348 91.0443 82.7731C90.8594 82.7423 90.5663 82.8196 90.3657 82.7731C90.1343 82.8196 89.8569 82.7888 89.6871 82.7731C89.2707 82.8505 89.2248 82.9272 89.1939 83.2512C89.1631 83.3901 89.2248 83.6524 89.1939 83.8682C89.2556 84.0996 89.2248 84.2229 89.1939 84.5003C89.2091 84.6544 89.1323 84.9475 89.1939 85.1324C89.2556 85.3022 89.1166 85.6104 89.1939 85.7494C89.2091 86.1658 89.3323 86.1658 89.6871 86.2118C89.8877 86.2275 90.1808 86.2734 90.3657 86.2118C90.5815 86.2583 90.8745 86.2891 91.0443 86.2118C91.4299 86.2891 91.5224 86.1042 91.5224 85.7494C91.4451 85.5337 91.4916 85.4098 91.5224 85.1324C91.5067 84.9626 91.4759 84.7626 91.5224 84.5003C91.4607 84.2229 91.4759 84.0223 91.5224 83.8682C91.4759 83.7292 91.584 83.4518 91.5224 83.2512ZM94.1126 79.9358C93.7119 79.8742 93.4961 79.9975 93.1414 79.9358C92.771 79.9823 92.5401 79.9515 92.1853 79.9358C91.9539 79.9515 91.6149 79.905 91.2601 79.859C91.0752 79.8899 90.9978 79.8125 90.8129 79.6892C90.628 79.6433 90.5815 79.4735 90.4431 79.4118C90.2425 79.2729 90.2732 79.0571 90.1651 78.8873C90.1499 78.6256 90.15 78.4866 90.0883 78.286C90.1034 77.9161 90.0267 77.5457 90.0883 77.1607C90.0418 76.8368 90.0575 76.3896 90.0883 76.05C90.1191 75.8034 90.0726 75.6185 90.1808 75.4027C90.2884 75.2329 90.3506 74.9707 90.5355 74.8322C90.674 74.6781 90.9978 74.5543 91.3218 74.4618C91.6457 74.431 91.9539 74.431 92.1853 74.385C92.4476 74.3385 92.8175 74.4467 93.1414 74.385C93.4961 74.431 93.727 74.4618 94.1126 74.385C94.4365 74.4618 94.7604 74.4159 95.0686 74.385C95.3774 74.4618 95.6548 74.385 96.0247 74.385C96.3794 74.4002 96.6108 74.4467 96.9499 74.4775C97.1964 74.57 97.582 74.6781 97.7675 74.9247C97.8751 75.1096 97.9676 75.2637 98.0449 75.4487C98.0909 75.6185 98.1833 75.8342 98.1217 76.05C98.1217 76.3739 98.1066 76.806 98.1217 77.1607C98.1066 77.5614 98.0601 77.8545 98.1217 78.286C98.0909 78.6564 97.9833 78.9181 97.9216 79.1653C97.8291 79.2885 97.7518 79.427 97.6594 79.5043C97.5052 79.5659 97.3971 79.6276 97.2587 79.7509C97.1348 79.8125 96.8882 79.859 96.6417 79.905C96.5027 80.0131 96.2253 79.9358 96.0247 79.9358C95.7165 79.9358 95.3466 79.9666 95.0686 79.9358C94.7139 79.905 94.4365 80.0131 94.1126 79.9358ZM94.9302 78.4558C95.1768 78.4558 95.3925 78.5017 95.7316 78.4558C96.1788 78.425 96.4102 78.3476 96.3642 77.9929C96.4102 77.6695 96.3642 77.4073 96.3642 77.1607C96.3642 76.8368 96.3486 76.6053 96.3642 76.3431C96.3177 75.9883 96.1171 75.8342 95.7316 75.8651C95.5158 75.9267 95.146 75.9267 94.9302 75.8651C94.6988 75.8651 94.3289 75.8034 94.1126 75.8651C93.7578 75.8342 93.5269 75.8651 93.2955 75.8651C93.064 75.8034 92.7559 75.9424 92.4936 75.8651C92.0156 75.8807 91.8306 76.0657 91.8463 76.3431C91.8155 76.5897 91.8155 76.9136 91.8463 77.1607C91.8923 77.4689 91.8614 77.7463 91.8463 77.9929C91.8463 78.4401 92.0772 78.5174 92.4784 78.4558C92.7093 78.5174 92.9408 78.4401 93.2955 78.4558C93.6194 78.5017 93.8817 78.4866 94.1126 78.4558C94.3132 78.4401 94.6523 78.4709 94.9302 78.4558ZM100.743 84.5003C100.682 84.8085 100.682 85.04 100.743 85.2406C100.682 85.5488 100.712 85.7954 100.743 85.9652C100.682 86.2426 100.743 86.4897 100.651 86.659C100.589 86.9364 100.435 87.1527 100.281 87.2603C100.126 87.476 99.8489 87.4917 99.5866 87.615C99.3249 87.6615 99.001 87.6923 98.8003 87.6923C98.4613 87.7691 98.1682 87.7691 97.7675 87.6923C97.4436 87.6307 97.0732 87.754 96.7184 87.6923C96.4567 87.6307 96.0863 87.6766 95.8863 87.5999C95.6548 87.5074 95.2692 87.4452 95.146 87.1835C95.007 87.0753 94.8994 86.8439 94.8529 86.613C94.822 86.474 94.822 86.1809 94.7755 85.9803C94.6988 85.7337 94.7296 85.4406 94.7755 85.2406C94.7139 85.0091 94.7912 84.7009 94.7755 84.5003C94.7139 84.2997 94.7447 83.9758 94.7755 83.76C94.7604 83.4518 94.8377 83.2512 94.7755 83.0197C94.7604 82.8505 94.7447 82.5109 94.8686 82.3259C94.961 82.0794 95.0378 81.8636 95.2384 81.7246C95.439 81.5089 95.6699 81.3699 95.9479 81.3699C96.1788 81.2931 96.441 81.2315 96.7184 81.2931C97.0115 81.3699 97.4128 81.2315 97.7675 81.2931C98.0757 81.2623 98.4456 81.2774 98.8003 81.2931C99.0318 81.3239 99.3865 81.4007 99.6482 81.3856C99.9262 81.5397 100.142 81.5862 100.373 81.8171C100.481 81.9252 100.62 82.2335 100.666 82.3876C100.774 82.5574 100.743 82.7731 100.743 83.0197C100.728 83.236 100.759 83.5134 100.743 83.76C100.712 84.0223 100.79 84.2845 100.743 84.5003ZM99.0161 85.1324C99.0318 84.8858 99.0009 84.7469 99.0161 84.5003C98.9544 84.3154 99.0161 84.0688 99.0161 83.8682C99.0626 83.6524 99.0009 83.4669 99.0161 83.2512C99.0318 82.8656 98.8312 82.7423 98.5381 82.7731C98.338 82.7423 98.0757 82.7272 97.7675 82.7731C97.4744 82.804 97.2895 82.758 96.9964 82.7731C96.6108 82.7423 96.5027 82.9121 96.5027 83.2512C96.4259 83.4977 96.5335 83.6832 96.5027 83.8682C96.5335 84.0531 96.5335 84.2229 96.5027 84.5003C96.441 84.7626 96.4719 84.9783 96.5027 85.1324C96.5335 85.333 96.4875 85.518 96.5027 85.7494C96.4567 86.1501 96.6725 86.2275 96.9964 86.2118C97.1964 86.2118 97.4587 86.2426 97.7675 86.2118C98.0292 86.1809 98.2142 86.2118 98.5381 86.2118C98.9236 86.1809 98.9393 86.0733 99.0161 85.7494C99.0777 85.4872 99.0161 85.379 99.0161 85.1324Z" fill="#393B44"/>
</svg>
