<svg width="62" height="124" viewBox="0 0 62 124" fill="none" xmlns="http://www.w3.org/2000/svg">
<path d="M30.2249 104.719C14.8567 104.719 2.35352 92.2163 2.35352 76.8479V31.6522C2.35352 24.6334 4.97115 17.9273 9.72459 12.7696C14.4497 7.64204 20.8631 4.4874 27.7824 3.88672L27.7925 4.00304C13.5933 5.23543 2.47031 17.3805 2.47031 31.6522V76.8479C2.47031 92.1517 14.9211 104.603 30.2249 104.603C45.5287 104.603 57.979 92.1517 57.979 76.8479V62.9417H58.0957V76.8479C58.0957 92.2163 45.593 104.719 30.2249 104.719Z" fill="#B1C8B8"/>
<path d="M30.2248 106.822C13.6968 106.822 0.25 93.3759 0.25 76.8477V31.6517C0.25 16.1544 12.3398 3.03183 27.7737 1.77686L27.802 2.12613C12.5488 3.36628 0.600418 16.3356 0.600418 31.6517V76.8477C0.600418 93.1826 13.8898 106.472 30.2248 106.472C46.5593 106.472 59.8487 93.1826 59.8487 76.8477V62.9415H60.1991V76.8477C60.1991 93.3759 46.7528 106.822 30.2248 106.822Z" fill="#5B705D"/>
<path d="M11.1986 123.033C11.1845 122.704 11.1092 122.475 10.9737 122.347C10.7875 122.168 10.4654 122.054 10.0078 122.003V121.853C10.4585 121.875 10.9089 121.9 11.3597 121.928C11.5239 121.928 11.6065 121.864 11.6065 121.735V119.021H10.2655V119.322C10.2655 119.379 10.1761 119.443 9.99727 119.515C9.80427 119.6 9.61445 119.643 9.42875 119.643H9.27863V115.159L10.3299 115.588H11.3706C11.435 115.066 11.4779 114.605 11.4993 114.204H8.29125V116.532C8.29125 117.884 8.19863 118.978 8.01247 119.815C7.71909 121.145 7.16152 122.207 6.33887 123.001L6.19971 122.905C6.65005 122.054 6.96123 121.017 7.13279 119.793C7.24731 118.942 7.30434 117.856 7.30434 116.532V113.4L8.46328 113.893H14.3743L15.0071 113.11C15.3936 113.417 15.7796 113.725 16.1656 114.032C16.1373 114.147 16.0369 114.204 15.8654 114.204H11.8963L12.9046 114.429C12.8544 114.579 12.729 114.655 12.5291 114.655C12.4789 114.726 12.4073 114.837 12.3147 114.987C12.1358 115.259 11.9962 115.459 11.8963 115.588H13.8377L14.3314 115.052L15.3936 115.856C15.3147 115.963 15.1645 116.039 14.9428 116.082V119.15C14.9355 119.2 14.8356 119.261 14.6426 119.332C14.4423 119.411 14.2634 119.45 14.106 119.45H13.9449V119.021H12.6149V121.757C12.6149 122.157 12.5359 122.447 12.379 122.626C12.1714 122.847 11.7781 122.983 11.1986 123.033ZM7.76565 122.636L7.66936 122.508C8.127 122.15 8.56319 121.7 8.97794 121.156C9.35711 120.648 9.64684 120.158 9.84715 119.686L11.1024 120.297C11.0449 120.419 10.9126 120.462 10.7054 120.427C10.3764 120.863 9.96487 121.27 9.47164 121.649C8.93507 122.064 8.36656 122.393 7.76565 122.636ZM10.2655 117.111H13.9449V115.899H10.2655V117.111ZM10.2655 118.71H13.9449V117.423H10.2655V118.71ZM15.7153 122.358C15.5291 122.508 15.3005 122.5 15.0286 122.336C14.8926 121.964 14.6426 121.55 14.2775 121.091C13.9559 120.691 13.6054 120.326 13.2263 119.997L13.323 119.911C14.1169 120.105 14.7425 120.38 15.2001 120.737C15.5793 121.031 15.8079 121.346 15.8868 121.682C15.9584 121.982 15.901 122.207 15.7153 122.358Z" fill="#5B705D"/>
<path d="M24.2224 123.023C24.2082 122.744 24.1544 122.547 24.0618 122.433C23.9326 122.297 23.7146 122.204 23.407 122.154V121.993C23.7004 122.007 23.9933 122.025 24.2867 122.047C24.4085 122.047 24.4692 121.979 24.4692 121.843V117.53H22.0984V122.733C22.0984 122.783 22.0268 122.84 21.884 122.905C21.7334 122.976 21.576 123.012 21.4118 123.012H21.2936V117.262C21.2794 117.269 21.2562 117.283 21.2242 117.305C21.1918 117.326 21.1686 117.344 21.1544 117.358L21.0257 117.273C21.0184 118.489 20.9358 119.465 20.7789 120.201C20.5357 121.353 20.0849 122.29 19.427 123.012L19.2769 122.915C19.6131 122.15 19.8349 121.21 19.9421 120.094C20.0133 119.393 20.0493 118.395 20.0493 117.101V113.818L21.1863 114.247H23.9221V113.035L25.3275 113.153C25.3129 113.318 25.1842 113.418 24.9415 113.454V114.247H27.6878L28.2668 113.486C28.3959 113.586 28.5246 113.689 28.6532 113.797C28.9393 114.033 29.1679 114.23 29.3399 114.387C29.3112 114.501 29.2144 114.558 29.0502 114.558H21.0257V117.197C21.3543 116.661 21.6011 116.003 21.7658 115.223L22.828 115.556V114.709L24.0937 114.826C24.0723 114.984 23.9472 115.077 23.7182 115.106V117.219H24.362L24.7161 116.8C24.5874 116.307 24.3296 115.828 23.9436 115.363L24.0618 115.288C24.5906 115.474 24.9807 115.71 25.2307 115.996C25.4383 116.232 25.5241 116.465 25.4885 116.693C25.4598 116.901 25.3526 117.022 25.1664 117.058L25.7135 117.466C25.6423 117.551 25.5063 117.616 25.306 117.659V121.939C25.306 122.29 25.2454 122.536 25.1235 122.679C24.9661 122.866 24.6659 122.98 24.2224 123.023ZM22.1518 117.219H22.828V115.717C22.7564 115.774 22.656 115.799 22.5273 115.792C22.2627 116.25 21.9588 116.647 21.6157 116.983L22.1518 117.219ZM22.4954 121.317V118.131L23.0425 118.388H23.4499L23.7292 118.12L24.3296 118.571C24.2799 118.642 24.1795 118.692 24.0294 118.721V120.867C24.0221 120.902 23.9687 120.945 23.8683 120.995C23.7684 121.045 23.6753 121.07 23.5895 121.07H23.5142V120.63H22.9886V121.145C22.9886 121.174 22.9457 121.21 22.86 121.253C22.7669 121.295 22.6706 121.317 22.5702 121.317H22.4954ZM22.9886 120.319H23.5142V118.699H22.9886V120.319ZM25.1021 123.066L24.9949 122.937C25.8102 122.243 26.4358 121.41 26.8724 120.437C26.6361 119.758 26.4576 118.978 26.3358 118.098C26.1355 118.492 25.9101 118.846 25.6601 119.161L25.4885 119.075C25.9101 117.866 26.1679 116.432 26.261 114.773L27.6663 115.03C27.6303 115.181 27.5053 115.266 27.2908 115.288C27.1836 115.739 27.0759 116.15 26.9687 116.522H27.8593L28.4064 115.803C28.7354 116.089 29.0607 116.375 29.3828 116.661C29.3541 116.768 29.2573 116.822 29.0931 116.822H28.6852C28.5136 118.296 28.1705 119.511 27.6554 120.47C28.113 121.134 28.7066 121.667 29.4362 122.068L29.4147 122.165C28.9712 122.279 28.6925 122.565 28.5779 123.023C28.0058 122.565 27.5408 121.961 27.1836 121.21C26.6538 121.953 25.9603 122.572 25.1021 123.066ZM27.1726 119.654C27.4373 118.846 27.6052 117.902 27.6768 116.822H26.8724C26.7506 117.173 26.6324 117.473 26.5183 117.723C26.6684 118.446 26.8866 119.089 27.1726 119.654Z" fill="#5B705D"/>
<path d="M33.0196 123.012L32.4297 121.886C32.7518 121.757 33.1661 121.557 33.6744 121.285V118.807H32.505L32.4406 118.496H33.5133L34.028 117.82L35.1545 118.721C35.0687 118.836 34.8899 118.911 34.6184 118.946V120.953C34.9903 121.332 35.4301 121.578 35.9379 121.693C36.381 121.8 37.1179 121.854 38.1477 121.854C40.143 121.854 41.5916 121.839 42.4928 121.811V121.95C42.0921 122.036 41.8631 122.315 41.8061 122.787H38.1586C37.1074 122.787 36.3349 122.683 35.8412 122.476C35.3119 122.247 34.8611 121.807 34.4897 121.156C34.0887 121.721 33.6456 122.254 33.1592 122.755C33.1661 122.869 33.12 122.955 33.0196 123.012ZM34.3716 117.026C34.2142 117.155 34.0175 117.162 33.7816 117.047C33.6812 116.805 33.5024 116.54 33.245 116.253C33.016 115.996 32.7764 115.774 32.5264 115.589L32.6227 115.502C33.2163 115.531 33.6885 115.653 34.039 115.868C34.325 116.039 34.4929 116.25 34.5431 116.5C34.586 116.722 34.5285 116.897 34.3716 117.026ZM34.7471 114.864C34.5824 114.99 34.3857 114.995 34.1571 114.881C34.0713 114.63 33.9066 114.355 33.6634 114.054C33.449 113.79 33.2199 113.565 32.9767 113.379L33.0735 113.293C33.6598 113.343 34.1211 113.475 34.4574 113.69C34.7361 113.876 34.8972 114.094 34.9401 114.344C34.9757 114.566 34.9114 114.739 34.7471 114.864ZM36.0666 121.478V116.339C35.7445 116.683 35.3694 117.008 34.9401 117.316L34.8114 117.208C35.1974 116.708 35.5693 116.093 35.927 115.363C36.292 114.605 36.5849 113.833 36.8067 113.046L38.2334 113.572C38.1764 113.7 38.0368 113.761 37.815 113.754C37.5933 114.233 37.336 114.684 37.0426 115.106L37.2037 115.17H38.609C38.7951 114.484 38.9238 113.812 38.9954 113.153L40.508 113.647C40.4505 113.79 40.3218 113.851 40.1215 113.829C39.6497 114.394 39.235 114.841 38.8772 115.17H40.5294L41.1194 114.43C41.248 114.53 41.3767 114.63 41.5058 114.73C41.7988 114.959 42.0242 115.149 42.1816 115.299C42.1601 115.413 42.067 115.471 41.9023 115.471H39.5425V116.876H40.3683L40.9154 116.179C41.259 116.451 41.6021 116.726 41.9457 117.005C41.9169 117.119 41.8202 117.176 41.6559 117.176H39.5425V118.614H40.3683L40.9154 117.917C41.0372 118.01 41.1586 118.106 41.2804 118.206C41.5592 118.421 41.781 118.603 41.9457 118.753C41.9169 118.868 41.8202 118.925 41.6559 118.925H39.5425V120.373H40.6795L41.2804 119.622C41.4091 119.723 41.5414 119.822 41.6774 119.923C41.9703 120.159 42.203 120.355 42.3746 120.513C42.3458 120.627 42.2496 120.684 42.0848 120.684H37.064V121.178C37.064 121.228 36.9928 121.289 36.8496 121.36C36.6707 121.439 36.4704 121.478 36.2491 121.478H36.0666ZM37.064 116.876H38.5661V115.471H37.064V116.876ZM37.064 118.614H38.5661V117.176H37.064V118.614ZM37.064 120.373H38.5661V118.925H37.064V120.373Z" fill="#5B705D"/>
<path d="M46.644 122.69V114.429L47.7596 114.912H53.1879L53.7354 114.247L54.9582 115.213C54.8149 115.341 54.6183 115.431 54.3683 115.48V122.239C54.3537 122.289 54.2464 122.354 54.0461 122.432C53.8317 122.511 53.6387 122.55 53.4671 122.55H53.317V121.413H47.6739V122.303C47.6739 122.375 47.5881 122.457 47.4165 122.55C47.2235 122.643 47.0232 122.69 46.8156 122.69H46.644ZM47.6739 121.113H53.317V115.223H47.6739V121.113Z" fill="#5B705D"/>
<path d="M60.0224 122.261C59.7933 122.261 59.5967 122.181 59.4324 122.019C59.2677 121.858 59.1855 121.665 59.1855 121.44C59.1855 121.215 59.2677 121.022 59.4324 120.861C59.5967 120.7 59.7933 120.62 60.0224 120.62C60.251 120.62 60.4462 120.7 60.6069 120.861C60.7679 121.022 60.8482 121.217 60.8482 121.445C60.8482 121.675 60.7679 121.868 60.6069 122.025C60.4462 122.182 60.251 122.261 60.0224 122.261Z" fill="#5B705D"/>
<path d="M16.3184 21.2227H11.1035V62.9418H16.3184V21.2227Z" fill="#5B705D"/>
<path d="M23.2715 21.2227C27.1116 21.2227 30.2247 27.4487 30.2247 35.129V21.2227H23.2715Z" fill="#5B705D"/>
<path d="M23.2715 62.9415C27.1116 62.9415 30.2247 56.7155 30.2247 49.0352V62.9415H23.2715Z" fill="#5B705D"/>
<path d="M48.4768 86.4082L47.6077 85.5391L46.7385 86.4082L47.6077 87.2773L48.4768 86.4082Z" fill="#B1C8B8"/>
<path d="M34.5703 62.0723L33.7012 61.2031L32.832 62.0723L33.7012 62.9414L34.5703 62.0723Z" fill="#B1C8B8"/>
<path d="M19.795 21.1055H11.1035V21.3391H19.795V21.1055Z" fill="#5B705D"/>
<path d="M30.2246 62.8247H19.7947V63.0583H30.2246V62.8247Z" fill="#5B705D"/>
<path d="M38.0469 45.8991V87.2777H43.2618V45.5419C41.7319 45.4191 40.0017 45.1687 38.0469 44.7554V45.8991Z" fill="#5B705D"/>
<path d="M32.4268 0.504977C32.8972 0.535775 33.2727 0.704142 33.5529 1.00962C33.833 1.31532 33.9594 1.68219 33.9311 2.11017C33.8951 2.66112 33.692 3.11351 33.3211 3.46712C32.9506 3.82096 32.4792 3.97905 31.9071 3.94164C31.4426 3.91107 31.0721 3.7345 30.7961 3.41168C30.52 3.08864 30.3959 2.71472 30.4237 2.28971C30.4425 2.00294 30.5332 1.7132 30.6957 1.4205C30.8581 1.12781 31.089 0.895803 31.3883 0.724017C31.6876 0.552231 32.0339 0.479426 32.4268 0.504977ZM32.1987 3.78238C32.4291 3.79744 32.6608 3.75044 32.8935 3.64139C33.1262 3.53257 33.3142 3.37379 33.4575 3.16504C33.6008 2.95653 33.6797 2.73775 33.6948 2.50847C33.7162 2.18383 33.6487 1.88295 33.4922 1.60599C33.3357 1.32903 33.124 1.10634 32.8571 0.937976C32.5897 0.769383 32.3387 0.677686 32.1033 0.662173C31.7711 0.6405 31.4613 0.745881 31.1739 0.978579C30.8864 1.21128 30.7308 1.51359 30.7062 1.88545C30.6752 2.36043 30.8134 2.78863 31.1205 3.16985C31.428 3.55129 31.7871 3.75546 32.1987 3.78238Z" fill="#5B705D"/>
<path d="M36.2946 1.0592L36.3028 1.02588L37.2272 1.26062C37.4617 1.32016 37.6297 1.36832 37.7319 1.40527C37.8341 1.44223 37.9326 1.50384 38.0275 1.58984C38.1224 1.67608 38.1854 1.77598 38.216 1.88982C38.247 2.00366 38.2438 2.13281 38.2073 2.27745C38.1653 2.44262 38.0754 2.58749 37.9376 2.71205C37.8003 2.83639 37.6278 2.92739 37.4202 2.98442L37.5603 3.39645C37.5881 3.49752 37.6721 3.72496 37.8122 4.0788C37.9518 4.43264 38.0727 4.65736 38.174 4.75294C38.2753 4.84831 38.3811 4.9101 38.4916 4.93816C38.6006 4.96599 38.7366 4.95576 38.8995 4.90762L38.9017 4.95528C38.6882 5.05497 38.44 5.06866 38.1576 4.99702C37.9687 4.94912 37.8208 4.85217 37.7141 4.70616C37.6068 4.56015 37.4485 4.19402 37.2395 3.60771C37.2373 3.60406 37.2368 3.60084 37.2377 3.59787L37.0379 3.01088L36.7459 2.94611L36.4821 2.87904L36.1659 4.12444C36.1404 4.22459 36.1354 4.29965 36.1504 4.34961C36.1655 4.3998 36.2239 4.43763 36.3243 4.46318L36.316 4.49628L35.4756 4.28296L35.4843 4.24991C35.5901 4.27204 35.6608 4.26655 35.6969 4.23325C35.7325 4.19994 35.7662 4.12239 35.7973 3.99988L36.4543 1.41255C36.4758 1.3286 36.4821 1.25607 36.4744 1.19539C36.4662 1.13448 36.4064 1.08909 36.2946 1.0592ZM36.8914 1.26726L36.5031 2.79509L36.8444 2.88174C37.1132 2.94996 37.329 2.93719 37.4909 2.84343C37.6529 2.74967 37.7606 2.59955 37.8131 2.39331C37.8637 2.19278 37.8482 1.98677 37.7656 1.77528C37.6835 1.56357 37.4814 1.41691 37.1592 1.33524L36.8914 1.26726Z" fill="#5B705D"/>
<path d="M42.4137 2.94963L42.401 2.98131C42.3617 2.96032 42.3138 2.94802 42.2568 2.9446C42.2002 2.94117 42.1605 2.95371 42.1382 2.98222C42.1158 3.01097 42.0797 3.0858 42.0305 3.20671L41.0559 5.59395C41.0034 5.72353 40.976 5.80472 40.9751 5.83803C40.9737 5.87111 40.9842 5.90327 41.007 5.93475C41.0294 5.96601 41.0796 5.99752 41.1567 6.02924L41.1439 6.06091L40.314 5.72212L40.3267 5.69044C40.4308 5.73288 40.5038 5.73924 40.5458 5.70958C40.5873 5.67969 40.6375 5.59394 40.6954 5.45158L41.66 3.08765C41.7202 2.93981 41.7457 2.83738 41.7362 2.78012C41.7266 2.72286 41.6714 2.67696 41.5705 2.64229L41.5838 2.61084L42.4137 2.94963Z" fill="#5B705D"/>
<path d="M45.5926 8.3635L45.5752 8.39317L44.4017 7.71581C44.1763 7.58578 43.9929 7.44754 43.8519 7.30131C43.7109 7.15484 43.5918 6.96275 43.4946 6.7248C43.3975 6.48708 43.3527 6.23545 43.3614 5.96967C43.3696 5.70412 43.4349 5.46526 43.5571 5.25332C43.6913 5.02131 43.8925 4.82967 44.1622 4.67773C44.4314 4.52579 44.7334 4.45027 45.0683 4.45118C45.4032 4.45232 45.7299 4.54471 46.0488 4.72858C46.3345 4.89353 46.6005 5.13124 46.8464 5.44173L46.7729 5.84718L46.7442 5.83051C46.7173 5.64276 46.6402 5.45591 46.5138 5.26952C46.3869 5.08314 46.2154 4.92753 45.9996 4.80297C45.6245 4.58647 45.2353 4.55044 44.8329 4.69462C44.43 4.83903 44.1079 5.12056 43.8665 5.53942C43.7661 5.71349 43.6963 5.88001 43.6571 6.03902C43.6178 6.19826 43.6146 6.3753 43.6466 6.57035C43.679 6.76564 43.7392 6.93036 43.8277 7.06474C43.9162 7.19911 44.0303 7.32297 44.1704 7.43635C44.3104 7.5495 44.4268 7.6312 44.519 7.68093L44.6778 7.76713C44.858 7.86226 44.9775 7.90949 45.0368 7.90858C45.0961 7.90767 45.1573 7.85338 45.2193 7.74525L45.4739 7.3047C45.5232 7.21892 45.5387 7.15118 45.52 7.10099C45.5018 7.0508 45.4584 7.00859 45.3904 6.9746L45.4073 6.94494L46.1602 7.37931L46.1433 7.40897C46.0589 7.36038 45.9932 7.34439 45.9457 7.36082C45.8983 7.37724 45.8481 7.43226 45.7938 7.52557L45.5301 7.98319C45.4771 8.07513 45.4511 8.14812 45.452 8.20242C45.4534 8.25648 45.4863 8.30233 45.5511 8.33952L45.5926 8.3635Z" fill="#5B705D"/>
<path d="M49.6434 7.26059L49.6224 7.28773C49.5905 7.25694 49.5471 7.23229 49.4933 7.21381C49.4395 7.1951 49.3979 7.19671 49.3687 7.21838C49.3395 7.23983 49.2852 7.30231 49.2049 7.40565L47.6271 9.44499C47.5413 9.55564 47.4939 9.62655 47.4839 9.65826C47.4738 9.68975 47.4752 9.72375 47.4884 9.76003C47.5017 9.7963 47.5418 9.83989 47.608 9.89122L47.587 9.91814L46.8779 9.36946L46.8985 9.34254C46.9879 9.41144 47.0563 9.43697 47.1042 9.41963C47.1526 9.40207 47.2238 9.33249 47.3178 9.21112L48.8801 7.19188C48.9777 7.06549 49.0297 6.97357 49.0361 6.91608C49.042 6.85836 49.0014 6.79929 48.9134 6.73883L48.9343 6.71191L49.6434 7.26059Z" fill="#5B705D"/>
<path d="M53.2588 10.6201L53.7132 11.085L53.689 11.109C53.6174 11.0403 53.5549 11.0061 53.5006 11.0059C53.4463 11.0059 53.3746 11.0494 53.2852 11.1366L51.0978 13.2756L51.2644 9.36349L49.4881 11.1008C49.4315 11.156 49.3937 11.2014 49.375 11.2365C49.3567 11.2719 49.3503 11.3024 49.3563 11.3282C49.3626 11.3542 49.3928 11.4044 49.4466 11.4792L49.4224 11.5032L48.9707 11.0417L48.9954 11.0177C49.0761 11.1003 49.1409 11.1375 49.1902 11.1288C49.239 11.1201 49.3189 11.0618 49.4297 10.9534L51.0549 9.36418C51.1973 9.22502 51.294 9.09158 51.3456 8.96359C51.3967 8.83561 51.3492 8.70327 51.2023 8.56593L51.2265 8.54199L51.6686 8.99394L51.5121 12.6696L53.2076 11.0116C53.2989 10.9222 53.3386 10.8514 53.3267 10.7992C53.3153 10.7469 53.2843 10.6951 53.2341 10.644L53.2588 10.6201Z" fill="#5B705D"/>
<path d="M54.5818 15.251L54.0206 14.44L52.6883 14.7436C52.5934 14.7667 52.5372 14.7844 52.5194 14.7965C52.4784 14.8251 52.4788 14.87 52.5213 14.9314L52.493 14.9508L52.2087 14.5399L52.237 14.5205C52.2749 14.5755 52.3205 14.6124 52.3734 14.6311C52.4259 14.6501 52.5245 14.643 52.6682 14.6102L55.8881 13.8628L55.9223 13.9125L54.1638 16.5865C54.1515 16.5952 54.11 16.6616 54.0393 16.7852C53.9681 16.9089 53.9686 17.0225 54.0402 17.1261L54.0124 17.1454L53.5657 16.5002L53.5935 16.4809C53.6346 16.5395 53.6779 16.553 53.724 16.5208C53.7555 16.4994 53.7956 16.4503 53.8445 16.3739C53.8458 16.3655 53.8509 16.3554 53.8595 16.3438C53.8705 16.3328 53.8746 16.3253 53.8746 16.3253L54.5818 15.251ZM54.1159 14.4133L54.6334 15.1606L55.3164 14.1356L54.1159 14.4133Z" fill="#5B705D"/>
<path d="M54.7197 18.412L54.7508 18.3969C54.7968 18.4913 54.8443 18.5438 54.8936 18.5546C54.9424 18.5653 55.0104 18.5497 55.0966 18.5078L57.5687 17.305C57.6563 17.2624 57.7138 17.2206 57.7421 17.1798C57.7704 17.139 57.7594 17.0632 57.7092 16.9526L57.7398 16.9375L58.134 17.7478L58.1035 17.7627C58.0665 17.6876 58.0314 17.6395 57.9976 17.6187C57.9638 17.598 57.9319 17.589 57.9009 17.5922C57.8703 17.5952 57.8091 17.6192 57.7174 17.6637L55.5967 18.6958C55.4147 18.7843 55.3074 18.8904 55.2755 19.014C55.2436 19.1379 55.2791 19.3056 55.3822 19.517L55.5616 19.886C55.6478 20.0634 55.755 20.1722 55.8828 20.2122C56.0105 20.2523 56.1976 20.2181 56.4444 20.11L56.4595 20.1407L55.7331 20.4941L54.7197 18.412Z" fill="#5B705D"/>
<path d="M58.8043 24.314C58.8696 24.298 58.9316 24.3081 58.9918 24.3443C59.0516 24.3804 59.0895 24.4308 59.1054 24.4958C59.1228 24.5668 59.1141 24.6304 59.0785 24.687C59.0434 24.7436 58.9914 24.7801 58.9238 24.797C58.8604 24.8127 58.7988 24.8036 58.7395 24.7696C58.6802 24.7356 58.6418 24.684 58.625 24.6147C58.6076 24.5451 58.6177 24.4817 58.6542 24.4239C58.6907 24.3665 58.7409 24.3297 58.8043 24.314Z" fill="#5B705D"/>
<path d="M61.0933 27.256L61.0596 27.2612C61.0573 27.217 61.0427 27.1695 61.0167 27.1191C60.9902 27.0685 60.9587 27.0411 60.9227 27.0368C60.8866 27.0322 60.804 27.0402 60.6749 27.0602L58.1275 27.4579C57.9893 27.4793 57.9058 27.4983 57.8766 27.5143C57.8479 27.5302 57.8255 27.556 57.8105 27.5916C57.7949 27.6269 57.794 27.686 57.8068 27.7688L57.773 27.7741L57.6348 26.8882L57.6685 26.883C57.6859 26.9941 57.7183 27.0598 57.7653 27.0803C57.8123 27.1006 57.9113 27.099 58.0632 27.0753L60.5859 26.6818C60.7438 26.6571 60.8447 26.6259 60.8885 26.5882C60.9327 26.5506 60.9436 26.4796 60.9213 26.3754L60.9551 26.3701L61.0933 27.256Z" fill="#5B705D"/>
<path d="M61.4158 32.5042L61.4245 33.0346L61.3903 33.035C61.378 32.856 61.283 32.7679 61.1051 32.7709C61.0668 32.7713 61.0143 32.7768 60.9477 32.7871L58.4081 33.1815C58.2817 33.205 58.2009 33.2301 58.1658 33.2575C58.1307 33.2846 58.1102 33.3401 58.1038 33.4238L58.0695 33.4245L58.0577 32.6693L58.0919 32.6689C58.0901 32.7695 58.1393 32.819 58.2393 32.8174C58.2616 32.817 58.3063 32.8117 58.3725 32.8017L60.8346 32.4166L58.0344 31.2574V31.2346L60.7908 29.9783L58.3036 29.6778C58.2657 29.6723 58.2224 29.6701 58.1745 29.6708C58.0869 29.6721 58.044 29.7241 58.0458 29.8265L58.0116 29.8272L58.0029 29.3139L58.0371 29.3135C58.0385 29.391 58.049 29.4405 58.0682 29.4622C58.0878 29.4841 58.1184 29.5006 58.1604 29.5122C58.2023 29.5236 58.2493 29.532 58.3009 29.5373L61.0216 29.8774C61.1713 29.8127 61.2607 29.7486 61.2899 29.6856C61.3196 29.6226 61.3337 29.5619 61.3328 29.504L61.367 29.5035L61.3775 30.137L58.6481 31.3633L61.4158 32.5042Z" fill="#5B705D"/>
<path d="M61.3638 35.0981H61.398V36.0563C61.398 36.3969 61.3597 36.6444 61.284 36.7989C61.2078 36.9533 61.1129 37.0658 60.9993 37.1365C60.8861 37.2072 60.7365 37.2426 60.5508 37.2426C60.2656 37.2426 60.0516 37.1445 59.9088 36.9483C59.7655 36.7521 59.6971 36.4859 59.703 36.1499H59.7372C59.7372 36.3627 59.8025 36.5359 59.9334 36.6689C60.0644 36.8019 60.2359 36.8685 60.449 36.8685C60.6146 36.8685 60.762 36.8361 60.8902 36.7715C61.0189 36.7069 61.1166 36.6159 61.1836 36.4989C61.2507 36.3819 61.284 36.203 61.284 35.9628V35.7232H58.409C58.2466 35.7232 58.1499 35.7415 58.1184 35.778C58.0874 35.8145 58.0718 35.8836 58.0718 35.9856H58.0376V35.0981H58.0718C58.0718 35.2562 58.1439 35.3354 58.2885 35.3354H61.0695C61.1882 35.3354 61.2671 35.3201 61.3059 35.2898C61.3447 35.2594 61.3638 35.1956 61.3638 35.0981Z" fill="#5B705D"/>
<path d="M61.4485 40.9359C61.4485 41.4074 61.3052 41.7929 61.0182 42.0925C60.7316 42.392 60.3739 42.5419 59.945 42.5419C59.3929 42.5419 58.9285 42.3685 58.5511 42.0218C58.1738 41.675 57.9854 41.2149 57.9854 40.6416C57.9854 40.1762 58.1373 39.7951 58.4417 39.4986C58.746 39.202 59.111 39.0537 59.5367 39.0537C59.8241 39.0537 60.1193 39.1251 60.4218 39.2682C60.7244 39.4112 60.9712 39.6264 61.1624 39.9138C61.3531 40.2013 61.4485 40.5419 61.4485 40.9359ZM58.1633 40.9222C58.1633 41.1533 58.2253 41.3814 58.349 41.6066C58.4731 41.8317 58.6438 42.0088 58.8614 42.1381C59.0791 42.2675 59.3026 42.332 59.5321 42.332C59.8575 42.332 60.1535 42.2449 60.4196 42.0708C60.6856 41.8968 60.8941 41.6709 61.0447 41.3932C61.1952 41.1156 61.2705 40.859 61.2705 40.6233C61.2705 40.2902 61.145 39.9879 60.8941 39.7165C60.6431 39.445 60.3315 39.3092 59.9587 39.3092C59.4828 39.3092 59.0644 39.4751 58.704 39.8065C58.3435 40.138 58.1633 40.5099 58.1633 40.9222Z" fill="#5B705D"/>
<path d="M61.364 44.3779H61.3982V45.3315C61.3982 45.5734 61.3927 45.7483 61.3822 45.8562C61.3717 45.9641 61.3362 46.0748 61.2759 46.1882C61.2157 46.3016 61.1345 46.3871 61.0319 46.4448C60.9292 46.5025 60.8032 46.5315 60.654 46.5315C60.4834 46.5315 60.321 46.4802 60.1663 46.3775C60.0121 46.2749 59.8816 46.13 59.7748 45.9429L59.4102 46.1802C59.319 46.2317 59.1191 46.3691 58.8107 46.592C58.5023 46.8149 58.3143 46.9871 58.2463 47.1087C58.1787 47.2303 58.145 47.3483 58.145 47.4623C58.145 47.5748 58.1883 47.7042 58.275 47.8502L58.2294 47.8638C58.0802 47.6816 58.0059 47.4445 58.0059 47.1528C58.0059 46.9582 58.0633 46.7912 58.1788 46.6513C58.2937 46.5115 58.6095 46.2683 59.1265 45.9213C59.1292 45.9183 59.1324 45.9167 59.1356 45.9167L59.6553 45.5791L59.6461 45.2795V45.0076H58.3613C58.2581 45.0076 58.1838 45.021 58.1391 45.0482C58.0944 45.0753 58.072 45.1408 58.072 45.2448H58.0378V44.3779H58.072C58.0766 44.4858 58.0994 44.5532 58.1404 44.5798C58.1815 44.6065 58.265 44.6198 58.3914 44.6198H61.0606C61.1473 44.6198 61.2194 44.6083 61.2764 44.5855C61.333 44.5627 61.3626 44.4936 61.364 44.3779ZM61.3093 45.0076H59.7328V45.3596C59.7328 45.637 59.7981 45.8426 59.929 45.9767C60.06 46.1109 60.2315 46.1779 60.4446 46.1779C60.6513 46.1779 60.8475 46.112 61.0319 45.9801C61.2171 45.8482 61.3093 45.6162 61.3093 45.2841V45.0076Z" fill="#5B705D"/>
<path d="M61.5144 51.4506L61.1083 51.2909V51.2567C61.1325 51.2629 61.1654 51.2658 61.2064 51.2658C61.2416 51.2658 61.2639 51.2533 61.2735 51.2282C61.2835 51.2031 61.2885 51.1634 61.2885 51.1086V50.2324H58.4136C58.2954 50.2324 58.2142 50.242 58.1709 50.2609C58.1275 50.2798 58.1001 50.3058 58.0887 50.3384C58.0773 50.3711 58.0718 50.424 58.0718 50.497H58.0376V49.5867H58.0718C58.0796 49.7008 58.1015 49.7722 58.138 49.8012C58.1745 49.8302 58.2502 49.8445 58.3661 49.8445H61.2885V49.0045C61.2885 48.9197 61.2835 48.8642 61.2735 48.8384C61.2639 48.8127 61.2393 48.7997 61.1996 48.7997C61.18 48.7997 61.1494 48.8058 61.1083 48.8179V48.7837L61.5144 48.624V48.6582C61.4597 48.6856 61.4268 48.7125 61.4149 48.739C61.404 48.7657 61.398 48.8229 61.398 48.911V51.1408C61.398 51.2289 61.4035 51.2923 61.4149 51.3311C61.4263 51.3696 61.4597 51.3981 61.5144 51.4164V51.4506Z" fill="#5B705D"/>
<path d="M61.3593 53.1333H61.398V55.2459H60.9349V55.2116C61.1069 55.166 61.2078 55.1277 61.2384 55.0964C61.2689 55.0652 61.284 54.9888 61.284 54.8672V53.7584H59.776V54.7873C59.776 54.8893 59.7856 54.9538 59.8043 54.9812C59.8235 55.0086 59.8513 55.023 59.8878 55.0246V55.0588H59.5707V55.0246C59.615 55.017 59.6446 54.999 59.6597 54.9709C59.6747 54.9429 59.6825 54.8906 59.6825 54.8147V53.7584H58.6445C58.488 53.7584 58.3748 53.7728 58.3054 53.8018C58.2365 53.8305 58.1932 53.8766 58.1754 53.9396C58.1581 54.0025 58.1494 54.0979 58.1494 54.2254V54.8179C58.1494 55.0061 58.1558 55.1265 58.1686 55.1788C58.1813 55.2312 58.2074 55.2758 58.2457 55.312C58.2845 55.3485 58.3684 55.3766 58.4984 55.3964V55.4306H58.0376V53.1333H58.0718C58.0764 53.2109 58.091 53.2698 58.1161 53.3101C58.1412 53.3505 58.2064 53.3706 58.3114 53.3706H61.0244C61.1471 53.3706 61.2338 53.3599 61.284 53.3387C61.3342 53.3174 61.3593 53.249 61.3593 53.1333Z" fill="#5B705D"/>
<path d="M61.3638 57.1592H61.398V58.7014C61.398 59.0938 61.3675 59.4036 61.3054 59.6312C61.2438 59.8585 61.1471 60.0565 61.0148 60.2253C60.8825 60.3941 60.7132 60.5278 60.507 60.6268C60.3012 60.7258 60.0712 60.7751 59.8171 60.7751C59.572 60.7751 59.3316 60.7236 59.0948 60.6214C58.8585 60.5183 58.6545 60.3791 58.4834 60.2025C58.3123 60.0259 58.1955 59.8402 58.1321 59.6449C58.0691 59.4492 58.0376 59.1471 58.0376 58.7379V57.1592H58.0718V57.2002C58.0718 57.2824 58.1047 57.3362 58.1709 57.3622C58.237 57.3882 58.357 57.401 58.5299 57.401H60.9764C61.1585 57.401 61.2689 57.3855 61.3068 57.3545C61.3447 57.323 61.3638 57.2582 61.3638 57.1592ZM61.3273 58.3044V57.7888H58.7198C58.5555 57.7888 58.4332 57.8167 58.3534 57.8719C58.2735 57.9275 58.216 58.0225 58.18 58.1561C58.1444 58.2898 58.1266 58.47 58.1266 58.6968C58.1266 59.3265 58.2881 59.7686 58.6111 60.0236C58.9346 60.2782 59.2869 60.4055 59.6688 60.4055C60.1173 60.4055 60.5061 60.2308 60.8346 59.8822C61.1631 59.5331 61.3273 59.0071 61.3273 58.3044Z" fill="#5B705D"/>
<path d="M54.5606 35.793L53.6681 38.4562C53.635 38.5552 50.1024 48.3427 30.3699 41.6387C9.76287 34.6368 6.0834 41.5739 5.93701 41.8728L5.88867 41.9713V48.4376L6.782 45.7064C6.78983 45.6822 7.61177 43.2635 10.816 41.6305C13.8508 40.0842 19.6565 38.9841 30.0798 42.5248C50.687 49.5263 54.3661 42.5896 54.5127 42.2907L54.561 42.1922L54.5606 35.793Z" fill="#B1C8B8"/>
</svg>
