<svg width="95" height="70" viewBox="0 0 95 70" fill="none" xmlns="http://www.w3.org/2000/svg">
<path d="M14.0536 65.7598C14.0412 66.0514 14.2294 66.1123 14.6179 65.9424L16.6382 64.5222V67.4893L14.6179 68.9087C13.4772 69.588 12.5913 69.7642 11.9605 69.4366C11.3781 69.133 11.0869 68.5627 11.0869 67.7256V51.9453H14.0536V65.7598ZM18.5311 57.9516C18.6036 58.2311 18.8158 58.3705 19.1679 58.3705H19.4775V60.8277H17.7665C16.82 60.8277 16.2012 60.2878 15.91 59.2076L14.6544 53.0379H17.4753L18.5311 57.9516ZM21.8614 67.6351C21.7401 68.9696 21.0363 69.6369 19.7503 69.6369H17.9667L17.5297 67.1801H18.2034C18.6036 67.1801 18.8339 66.9734 18.8947 66.5608L21.825 51.9453H24.8646L24.0639 56.0226H25.7381L27.3582 66.8524C27.4187 67.0703 27.6614 67.1801 28.086 67.1801H28.1408V69.6369H26.612C25.4834 69.6369 24.8037 69.2299 24.5734 68.4177L23.3542 59.8084L21.8614 67.6351Z" fill="#72BCAB"/>
<path d="M35.6937 59.6258L34.7108 61.3012C34.2619 61.8595 33.6671 62.1383 32.9273 62.1383H29.3963L28.9597 60.5546H31.471C31.7742 60.5546 31.9989 60.3976 32.1447 60.0812L32.381 59.6258H29.2325V57.6784H33.4368L33.8373 56.9687H29.4508V55.3858H34.7108L35.1839 54.5303H29.3054V52.728H36.1852L36.6766 51.8724H40.2986L39.7707 52.728H46.5592V54.5303H38.7149L38.2054 55.3858H46.4867V56.9687H42.3188L42.7554 57.6784H46.6321V59.6258H43.9565L44.2477 60.0812C44.4055 60.4457 44.6418 60.6275 44.9579 60.6275H46.8503V62.2112H43.7563C42.7129 62.2232 41.9303 61.7986 41.4084 60.9367L40.5168 59.6258H35.6937ZM34.7289 66.3606L33.8373 68.2174C33.3883 69.2115 32.6842 69.7098 31.7261 69.7098H29.4692L29.0322 67.5438H30.3792C30.7553 67.5438 31.0344 67.3371 31.2163 66.9245L31.471 66.3606H34.7289ZM32.9638 63.1941C33.1456 63.4728 33.3943 63.6122 33.7099 63.6122H34.9111V65.6325H32.8724C31.7562 65.6325 30.9191 65.2207 30.3608 64.3948L29.4327 62.7935H32.6906L32.9638 63.1941ZM39.5704 60.9736V67.9627C39.5704 68.3744 39.4186 68.7629 39.1154 69.1274C38.7754 69.5151 38.3448 69.7098 37.8229 69.7098H35.439L35.0929 67.5438H35.912C36.1303 67.5438 36.2881 67.4829 36.3854 67.3619C36.4824 67.2281 36.5308 67.0824 36.5308 66.9245V60.9736H39.5704ZM38.7333 56.9687H37.259L36.8404 57.6784H39.2063L38.7333 56.9687ZM46.4867 62.7935L45.7401 64.1401C45.3035 65.135 44.6238 65.6325 43.7018 65.6325H41.1172L40.6807 63.6122H42.2824C42.646 63.6122 42.9128 63.3999 43.083 62.9754L43.1559 62.7935H46.4867ZM45.1213 67.2161C45.3155 67.5317 45.5767 67.6895 45.9039 67.6895H46.8503V69.7098H44.8485C43.7443 69.697 42.9128 69.2668 42.3549 68.4177L41.1901 66.3606H44.6663L45.1213 67.2161Z" fill="#72BCAB"/>
<path d="M49.3986 58.4979V67.4164C49.3986 67.6952 49.2896 67.9739 49.0709 68.2535C48.8162 68.5451 48.5006 68.6901 48.1245 68.6901H47.8698L47.4692 66.2332H47.615C47.7969 66.2332 47.9242 66.1852 47.9971 66.0874C48.07 65.9905 48.1065 65.8752 48.1065 65.7422V58.4979H49.3986ZM47.7969 57.4782V55.1672H54.9314V57.4782H52.966V69.7098H49.9265V57.4782H47.7969ZM54.4219 52.1824V54.3477H48.2338V52.1824H54.4219ZM54.786 58.4979V68.5451H53.4939V58.4979H54.786ZM56.6969 66.943H55.7505V62.812H65.1239V65.1598C65.1115 66.1419 64.699 66.7251 63.8863 66.9069L63.7041 67.8345H65.4876V69.7098H55.3684V67.8345H56.8792L56.6969 66.943ZM65.4151 60.4088V62.1383H55.4413V60.4088H65.4151ZM63.6861 52.8377H65.2693V58.0245C65.2573 59.2141 64.6625 59.8084 63.4858 59.8084H55.5322V52.8377H57.8616V51.8724H60.0277V52.8377H60.7739V51.8724H62.9399V52.8377H63.6861ZM57.8616 54.4206H57.1155V55.4948H57.8616V54.4206ZM57.8616 57.0056H57.1155V58.2248H57.8616V57.0056ZM61.6294 65.3593C61.9326 65.3721 62.0844 65.2207 62.0844 64.9043V64.3948H58.7901V65.3593H61.6294ZM60.8103 67.8345L60.9921 66.943H59.5907L59.7729 67.8345H60.8103ZM60.7739 54.4206H60.0277V55.4948H60.7739V54.4206ZM60.7739 57.0056H60.0277V58.2248H60.7739V57.0056ZM62.9399 55.4948H63.6861V54.4206H62.9399V55.4948ZM62.9399 58.2248H63.2311C63.5343 58.2368 63.6861 58.0854 63.6861 57.7698V57.0056H62.9399V58.2248Z" fill="#72BCAB"/>
<path d="M66.7437 67.2521V60.5546H74.7337V67.9258C74.7213 69.1146 74.1265 69.7098 72.9498 69.7098H66.7437V67.2521ZM67.0348 56.9871V52.2553H83.3971V57.6608C83.3846 58.8495 82.7903 59.4439 81.6135 59.4439H67.0348V56.9871ZM71.3845 67.2521C71.6877 67.2521 71.8395 67.1007 71.8395 66.7972V63.0122H69.6374V67.2521H71.3845ZM79.9025 56.9871C80.2057 56.9991 80.3575 56.8477 80.3575 56.5321V54.7121H70.0744V56.9871H79.9025ZM75.6982 67.2521V60.5546H83.7611V67.9258C83.7487 69.1146 83.1539 69.7098 81.9772 69.7098H75.6982V67.2521ZM80.4119 67.2521C80.7151 67.2521 80.8669 67.1007 80.8669 66.7972V63.0122H78.592V67.2521H80.4119Z" fill="#72BCAB"/>
<path d="M94.5245 46.3001L64.2959 45.5033L65.8906 27.3616H69.4096C69.8626 27.3616 70.2298 26.9943 70.2298 26.5413V14.8884C70.2298 14.4354 69.8626 14.0682 69.4096 14.0682H56.0941L62.2354 8.13199C62.4076 7.96537 62.4985 7.73187 62.4841 7.49275C62.4697 7.25364 62.3515 7.03255 62.1605 6.88796L54.2714 0.916946C54.0811 0.772757 53.8368 0.717085 53.6041 0.769153C53.3706 0.819218 53.1707 0.968614 53.0562 1.17809L47.2622 11.7999L41.4686 1.17809C41.3544 0.968614 41.1542 0.819218 40.9211 0.769153C40.6888 0.717886 40.444 0.772357 40.2534 0.916946L32.3643 6.88796C32.1732 7.03255 32.0551 7.25324 32.0406 7.49275C32.0262 7.73187 32.1167 7.96537 32.2894 8.13159L38.4302 14.0682H25.1148C24.6618 14.0682 24.2945 14.4354 24.2945 14.8884V26.5413C24.2945 26.9943 24.6618 27.3616 25.1148 27.3616H28.6338L30.2288 45.5033L0 46.3001L31.1221 47.1203C31.1356 47.1206 31.1518 47.1207 31.1653 47.1203C31.1693 47.1202 31.1725 47.118 31.1764 47.1178C31.1822 47.1174 31.188 47.1175 31.1939 47.117C31.2119 47.1154 31.2261 47.1051 31.2437 47.1024C31.6567 47.0499 31.9752 46.7035 31.964 46.2784C31.9627 46.2273 31.9414 46.1833 31.9311 46.1349L30.2022 26.4696C30.165 26.0458 29.8105 25.721 29.3852 25.721H25.9351V15.7087H40.4589C40.7933 15.7087 41.0941 15.5056 41.2195 15.196C41.3448 14.886 41.2695 14.5312 41.0288 14.2989L34.1182 7.61812L40.4841 2.79981L46.542 13.906C46.5534 13.9268 46.5731 13.9388 46.5859 13.9582C46.6162 14.0044 46.6517 14.044 46.6914 14.0837C46.7313 14.1237 46.7712 14.1594 46.8176 14.1898C46.8368 14.2025 46.8487 14.2219 46.8693 14.2332C46.8947 14.2471 46.9226 14.2469 46.9488 14.2579C47.0018 14.2802 47.0537 14.2972 47.1102 14.308C47.1617 14.3179 47.211 14.3225 47.2626 14.3224C47.3141 14.3225 47.3632 14.318 47.4146 14.3081C47.4714 14.2972 47.5237 14.2801 47.5769 14.2575C47.6026 14.2466 47.6301 14.2469 47.6551 14.2332C47.6754 14.2221 47.687 14.2029 47.706 14.1904C47.753 14.1597 47.7935 14.1235 47.8339 14.0829C47.8731 14.0435 47.9083 14.0042 47.9383 13.9585C47.9512 13.9389 47.9709 13.9269 47.9823 13.906L54.0406 2.79981L60.4066 7.61812L53.4955 14.2989C53.2548 14.5312 53.1795 14.886 53.3049 15.196C53.4302 15.5056 53.731 15.7087 54.0655 15.7087H68.5893V25.721H65.1392C64.7138 25.721 64.3594 26.0458 64.3221 26.4696L62.5942 46.128C62.5802 46.1919 62.5586 46.2533 62.5604 46.3216C62.5686 46.6328 62.7554 46.8893 63.0143 47.0216C63.0164 47.0228 63.0183 47.0244 63.0204 47.0255C63.0933 47.0619 63.1715 47.0811 63.2545 47.0945C63.2811 47.0996 63.3032 47.1146 63.3308 47.117C63.3545 47.119 63.3779 47.12 63.4012 47.1201L63.4023 47.1203L94.5245 46.3001Z" fill="#72BCAB"/>
</svg>
