<?xml version="1.0" encoding="UTF-8"?>
<svg id="_圖層_3" data-name="圖層 3" xmlns="http://www.w3.org/2000/svg" viewBox="0 0 923.89 419.59">
  <defs>
    <style>
      .cls-1, .cls-2, .cls-3, .cls-4 {
        stroke-width: 0px;
      }

      .cls-2 {
        fill: #decdc3;
      }

      .cls-3 {
        fill: #1d2323;
      }

      .cls-4 {
        fill: #5c848e;
      }
    </style>
  </defs>
  <g>
    <path class="cls-4" d="m143.1,81.77h10.3c4.37,0,8.3-2.06,10.85-5.29h94.02c12.34,0,23.98-6,31.14-16.05,7.16-10.05,9.03-23.01,5-34.68-3.59-10.4-11.5-18.75-21.68-22.91-10.19-4.16-21.67-3.73-31.53,1.18l-72.91,36.36c-2.38-4.05-6.76-6.84-11.89-6.84h-16.29c-5.13,0-9.51,2.79-11.89,6.84L55.3,4.02C45.45-.89,33.96-1.32,23.78,2.84,13.59,7,5.68,15.35,2.09,25.75-1.94,37.41-.07,50.37,7.09,60.42c7.16,10.05,18.8,16.05,31.14,16.05h94.02c2.55,3.24,6.48,5.29,10.85,5.29Zm109.1-55.69c3.55-1.77,7.53-1.92,11.21-.42,3.67,1.5,6.41,4.39,7.71,8.14,1.45,4.21.81,8.7-1.78,12.33-2.58,3.62-6.61,5.7-11.06,5.7h-57.69l51.62-25.75ZM38.23,51.83c-4.45,0-8.49-2.08-11.07-5.71-2.58-3.62-3.23-8.12-1.78-12.32,1.3-3.75,4.03-6.64,7.71-8.14,1.68-.68,3.42-1.02,5.15-1.02,2.07,0,4.12.48,6.05,1.44l51.62,25.75h-57.69Z"/>
    <path class="cls-4" d="m312.93,226.06c-1.15-2.19-2.83-4.06-5.01-5.35-4.46-2.64-9.34-4.46-14.51-5.71-2.98-.72-6.07-1.22-9.21-1.62v8.29c18.39,2.3,38.8,9.06,0,28.94-7.02,3.59-15.94,7.61-27.19,12.11-7.11,2.84-15.13,5.88-24.17,9.12-5.77,2.07-11.26,4.19-16.62,6.34-8.58,3.44-16.66,6.96-24.24,10.56-1.01.48-1.96.97-2.95,1.45-9.85,4.78-18.94,9.67-27.19,14.63-6.13,3.68-11.81,7.39-17.13,11.12-13.06,9.14-23.72,18.32-32.46,27.19-9.43,9.58-16.61,18.79-22.05,27.19-15.69,24.25-17.08,41.77-17.08,41.77l43.12-17.42,15.18,24.94c.07-.34,4.95-22.79,38.77-49.29,11.28-8.84,25.8-18.12,44.43-27.19,11.16-5.43,23.76-10.79,38.07-15.92,9.59-3.44,19.84-7.17,30.1-11.27.47-.19.94-.36,1.41-.55.55-.22,1.09-.41,1.63-.63,17.17-7.01,28.52-23.58,28.62-42.13l.22-39.35c0-2.53-.6-5.02-1.75-7.21Z"/>
    <g>
      <path class="cls-3" d="m39.49,98.4H12.3v271.9h70.42c5.1-8.38,11.86-17.58,20.77-27.19H39.49V98.4Z"/>
      <path class="cls-3" d="m180.6,370.3h103.6v-27.19h-54.87c-20.37,8.96-36.31,18.26-48.73,27.19Z"/>
      <path class="cls-3" d="m216.22,98.4h-27.19v184.89c8.47-4.03,17.5-7.97,27.19-11.79V98.4Z"/>
      <path class="cls-3" d="m257.01,98.4h-20.39v27.19h20.39v130.45c12.17-4.95,20.92-9.06,27.19-12.4V98.4h-27.19Z"/>
      <path class="cls-3" d="m66.68,98.4v217.52h67.37c8.21-6.13,17.45-12.26,27.79-18.3v-8.89h-67.98V125.59h67.98v-27.19h-95.17Z"/>
    </g>
    <path class="cls-2" d="m161.84,172.35v-5.98h-20.21c-19.55,0-35.4,15.85-35.4,35.4v5.98h20.21c19.55,0,35.4-15.85,35.4-35.4Z"/>
    <g>
      <path class="cls-2" d="m153.05,360.55c-.81,1.65-2.56,4.55-4.89,6.87-3.22,3.22-6.36,4.74-9.52,4.81-3.13.05-6.32-1.36-8.91-3.95-5.83-5.89-4.91-13.49.86-19.27,2.27-2.28,4.47-3.58,5.72-4.05l2.38,4.05c-1.41.52-2.9,1.39-4.84,3.32-3.32,3.32-4,7.71-.16,11.56,3.66,3.66,8.08,3.48,11.35.21.89-.89,1.52-1.73,1.7-2.17l-3.71-3.71-2.72,2.72-3.11-3.11,6.56-6.56,9.28,9.28Z"/>
      <path class="cls-2" d="m158.2,327.58l14.13,20.53-4.63,3.19-14.13-20.53,4.63-3.19Z"/>
      <path class="cls-2" d="m175.74,316.48l13.26-7.46,2.27,4.03-8.35,4.7,2.8,4.97,7.81-4.39,2.25,4-7.81,4.39,4.92,8.74-4.9,2.76-12.23-21.74Z"/>
      <path class="cls-2" d="m213.31,302.22l-6.11,2.82-1.99-4.3,17.39-8.04,1.99,4.3-6.18,2.86,8.47,18.33-5.1,2.36-8.47-18.33Z"/>
      <path class="cls-2" d="m246.41,303.59c1.65.21,4.14.11,6.39-.73,2.42-.9,3.33-2.38,2.76-3.91-.54-1.45-1.96-1.87-5.12-1.79-4.39.06-7.75-1.13-9.02-4.53-1.48-3.98.76-8.24,6.22-10.27,2.67-.99,4.76-1.19,6.39-1.04l.39,4.66c-1.07-.11-3.01-.14-5.26.7-2.28.85-2.99,2.33-2.55,3.51.55,1.49,2.08,1.67,5.55,1.68,4.69-.01,7.39,1.43,8.61,4.71,1.46,3.91-.28,8.34-6.69,10.72-2.66.99-5.56,1.25-7.15,1.01l-.54-4.72Z"/>
      <path class="cls-2" d="m278.85,295.39c-.56-1.95.37-3.68,2.26-4.22,1.85-.52,3.5.42,4.11,2.4.54,1.88-.35,3.64-2.3,4.19-1.81.52-3.52-.49-4.06-2.38Z"/>
    </g>
  </g>
  <g>
    <path class="cls-1" d="m407.32,155.08v-7.71h35.14v7.71h-12.43v59.24h-8.04v-43.82l-6.11,33.53h-8.04l6.96-38.78h7.18v-10.18h-14.68Zm32.57-28.6v7.71h-29.89v-7.71h29.89Zm-7.71,77.24v-42.85h7.29v42.85h-7.29Zm10.93-41.67h54.53v6.96h-54.53v-6.96Zm45.96,33l-6.86,10.93h15.43v7.29h-54.53v-7.29h30.11l6.86-10.93h9Zm4.71-67.06v31.71h-46.71v-31.71h13.28v-5.79h7.07v5.79h5.89v-5.79h7.18v5.79h13.28Zm-2.04,43.17v22.61h-42.75v-22.61h42.75Zm-34.07,33.75l-6.21-9.86h8.78l6.21,9.86h-8.79Zm2.68-70.28h-6v5.89h6v-5.89Zm-6,12.43v6h6v-6h-6Zm29.68,39.53v-8.36h-27.21v8.36h27.21Zm-10.71-51.96h-5.89v5.89h5.89v-5.89Zm0,12.43h-5.89v6h5.89v-6Zm13.07-12.43h-5.89v5.89h5.89v-5.89Zm-5.89,18.43h5.89v-6h-5.89v6Z"/>
    <path class="cls-1" d="m523.98,133.12v71.67h35.68v8.04h-43.6v-87.74h44.67v8.04h-36.75Zm2.04,67.6v-31.39h16.39v31.39h-16.39Zm30.85-62.78v26.57h-27.21v-26.57h27.21Zm-24.64,37.71v18.43h3.96v-18.43h-3.96Zm17.36-17.89v-13.18h-12.64v13.18h12.64Zm11.25,11.57v31.39h-16.18v-31.39h16.18Zm-6.21,24.75v-18.43h-3.75v18.43h3.75Zm13.61-33.85h-8.57l13.18-37.5h8.57l-4.71,13.39h29.14l-7.82,24.53h-8.46l5.36-16.93h-20.89l-5.79,16.5Zm18.11-13.5v29.68l19.07,37.92h-9.21l-13.61-27.21-13.71,27.21h-9l18.43-36.64v-30.96h8.04Z"/>
    <path class="cls-1" d="m621.57,155.08v-7.71h35.14v7.71h-12.43v59.24h-8.04v-43.82l-6.11,33.53h-8.03l6.96-38.78h7.18v-10.18h-14.68Zm32.57-28.6v7.71h-29.89v-7.71h29.89Zm-7.71,77.24v-42.85h7.29v42.85h-7.29Zm10.93-41.67h54.53v6.96h-54.53v-6.96Zm45.96,33l-6.86,10.93h15.43v7.29h-54.53v-7.29h30.1l6.86-10.93h9Zm4.71-67.06v31.71h-46.71v-31.71h13.29v-5.79h7.07v5.79h5.89v-5.79h7.18v5.79h13.28Zm-2.04,43.17v22.61h-42.75v-22.61h42.75Zm-34.07,33.75l-6.21-9.86h8.79l6.21,9.86h-8.78Zm2.68-70.28h-6v5.89h6v-5.89Zm-6,12.43v6h6v-6h-6Zm29.68,39.53v-8.36h-27.21v8.36h27.21Zm-10.71-51.96h-5.89v5.89h5.89v-5.89Zm0,12.43h-5.89v6h5.89v-6Zm13.07-12.43h-5.89v5.89h5.89v-5.89Zm-5.89,18.43h5.89v-6h-5.89v6Z"/>
    <path class="cls-1" d="m729.45,214.32l6.11-18.64h8.14l-6.11,18.64h-8.14Zm29.03-89.35v68.56h-26.68v-68.56h26.68Zm-7.5,7.5h-11.68v11.46h11.68v-11.46Zm0,18.86h-11.68v12.96h11.68v-12.96Zm-11.68,34.6h11.68v-14.25h-11.68v14.25Zm7.29,9.75h8.36l5.04,15.53h-8.36l-5.04-15.53Zm55.39-63.42h13.82v39.21h-52.82v-39.21h14.04l-4.5-9.54h8.79l4.5,9.54h7.29l4.5-9.54h8.89l-4.5,9.54Zm-33.64,80.99v-38.25h42.21v38.25h-42.21Zm17.14-73.71h-14.57v8.46h14.57v-8.46Zm-14.57,15.75v8.89h14.57v-8.89h-14.57Zm31.71,27.1h-26.46v7.61h26.46v-7.61Zm-26.46,23.35h26.46v-8.25h-26.46v8.25Zm31.82-57.74v-8.46h-14.68v8.46h14.68Zm-14.68,16.18h14.68v-8.89h-14.68v8.89Z"/>
    <path class="cls-1" d="m839.15,171.36h38.03v41.89h-38.03v-41.89Zm7.93,34.28h22.18v-26.68h-22.18v26.68Zm8.46-80.88h51v39.32h-51v-39.32Zm7.93,31.6h35.03v-23.89h-35.03v23.89Zm21.96,15h38.46v41.89h-38.46v-41.89Zm7.93,34.28h22.5v-26.68h-22.5v26.68Z"/>
  </g>
  <g>
    <path class="cls-4" d="m411.6,245.83h9.72v34.9h17.13v8.18h-26.85v-43.08Z"/>
    <path class="cls-4" d="m490.42,276.38c.26,4.03,4.28,5.94,8.82,5.94,3.32,0,6.01-.45,8.63-1.34l1.28,6.58c-3.2,1.34-7.1,1.98-11.31,1.98-10.61,0-16.68-6.14-16.68-15.92,0-7.93,4.92-16.68,15.79-16.68,10.1,0,13.93,7.86,13.93,15.6,0,1.66-.19,3.13-.32,3.83h-20.13Zm11.44-6.65c0-2.37-1.02-6.33-5.5-6.33-4.09,0-5.75,3.77-6.01,6.33h11.51Z"/>
    <path class="cls-4" d="m587.2,272.93c0,11.44-8.12,16.68-16.49,16.68-9.14,0-16.17-6.01-16.17-16.11s6.65-16.62,16.75-16.62c9.52,0,15.92,6.58,15.92,16.04Zm-22.63.32c0,5.37,2.24,9.4,6.39,9.4,3.84,0,6.2-3.77,6.2-9.46,0-4.6-1.79-9.33-6.2-9.33s-6.39,4.79-6.39,9.4Z"/>
    <path class="cls-4" d="m662.63,284.37c0,6.01-1.21,10.93-4.79,14.06-3.39,2.94-8.05,3.83-12.66,3.83-4.15,0-8.44-.83-11.25-2.37l1.92-7.42c1.98,1.15,5.37,2.37,9.08,2.37,4.6,0,8.12-2.43,8.12-8.25v-1.98h-.13c-1.85,2.56-4.86,4.03-8.44,4.03-7.73,0-13.23-6.26-13.23-15.21,0-10.1,6.46-16.49,14.19-16.49,4.28,0,6.97,1.85,8.57,4.47h.13l.32-3.77h8.44c-.13,2.05-.26,4.67-.26,9.33v17.39Zm-9.72-14c0-.58-.06-1.21-.19-1.79-.7-2.56-2.56-4.28-5.24-4.28-3.58,0-6.39,3.2-6.39,8.88,0,4.67,2.3,8.31,6.33,8.31,2.56,0,4.54-1.66,5.18-3.9.25-.77.32-1.79.32-2.62v-4.6Z"/>
    <path class="cls-4" d="m720.1,248.96c0,2.68-1.98,4.86-5.24,4.86-3.07,0-5.05-2.17-5.05-4.86s2.05-4.86,5.18-4.86,5.05,2.11,5.11,4.86Zm-10.04,39.95v-31.26h9.72v31.26h-9.72Z"/>
    <path class="cls-4" d="m768.36,288.91v-24.1h-4.16v-7.16h4.16v-1.21c0-3.77,1.15-7.93,3.9-10.48,2.49-2.3,5.82-3.13,8.69-3.13,2.11,0,3.77.32,5.11.64l-.38,7.48c-.83-.26-1.85-.45-3.13-.45-3.2,0-4.54,2.49-4.54,5.56v1.6h6.26v7.16h-6.2v24.1h-9.71Z"/>
    <path class="cls-4" d="m840.46,249.22v8.44h6.97v7.16h-6.97v11.31c0,3.77.96,5.5,3.84,5.5,1.34,0,1.98-.06,2.88-.25l.06,7.35c-1.21.45-3.58.83-6.26.83-3.13,0-5.75-1.09-7.35-2.68-1.79-1.85-2.68-4.86-2.68-9.27v-12.78h-4.15v-7.16h4.15v-5.82l9.52-2.62Z"/>
    <path class="cls-4" d="m892.62,280.48c1.79,1.09,5.5,2.3,8.37,2.3s4.16-.96,4.16-2.56-.96-2.43-4.54-3.64c-6.52-2.17-9.01-5.69-8.95-9.4,0-5.88,4.99-10.29,12.72-10.29,3.64,0,6.84.89,8.76,1.85l-1.66,6.71c-1.41-.77-4.16-1.79-6.78-1.79-2.37,0-3.71.96-3.71,2.49s1.21,2.3,5.05,3.64c5.94,2.04,8.37,5.11,8.44,9.65,0,5.88-4.54,10.16-13.49,10.16-4.09,0-7.73-.96-10.1-2.24l1.72-6.9Z"/>
  </g>
</svg>