<svg width="167" height="57" viewBox="0 0 167 57" fill="none" xmlns="http://www.w3.org/2000/svg">
<path d="M8.77519 14.5438L22.3502 21.2938C24.5252 22.4188 27.0752 22.4188 29.2502 21.2938L42.8252 14.5438L45.1502 13.3438L49.2752 11.3188L29.2502 1.34375C27.0752 0.21875 24.5252 0.21875 22.3502 1.34375L2.3252 11.3188L6.4502 13.3438L8.77519 14.5438ZM25.8002 16.5688L15.2252 11.3188L25.8002 6.06879L36.3752 11.3188L25.8002 16.5688Z" fill="white"/>
<path d="M34.3499 23.4689L27.8999 26.6939V33.1439V50.0939V56.5439L51.5999 44.6939C51.5999 41.6939 48.4499 39.8189 45.8249 41.0939L34.3499 46.8689V29.8439L51.5999 21.2189C51.5999 18.2189 48.4499 16.3439 45.8249 17.6189L34.3499 23.4689Z" fill="white"/>
<path d="M6.45 25.2688C6.45 20.8438 3.975 16.7937 0 14.8438V15.7438V38.3188V44.7688L6.45 47.9938L23.7 56.6188C23.7 52.6438 21.45 49.0438 17.925 47.2438L6.45 41.4688V25.2688Z" fill="white"/>
<path d="M38.7002 39.4438L51.6002 32.9938C51.6002 29.9938 48.4502 28.1188 45.8252 29.3938L38.7002 32.9938V39.4438Z" fill="#71C6D4"/>
<path d="M89.2499 22.1187H81.8999V23.6937H89.2499V22.1187Z" fill="#71C6D4"/>
<path d="M89.2498 22.1185V23.6936H81.8998V22.1185H89.2498ZM89.8498 21.5186H89.2498H81.8998H81.2998V22.1185V23.6936V24.2936H81.8998H89.2498H89.8498V23.6936V22.1185V21.5186Z" fill="#71C6D4"/>
<path d="M89.2499 33.3687H81.8999V34.9437H89.2499V33.3687Z" fill="#71C6D4"/>
<path d="M89.2498 33.3685V34.9436H81.8998V33.3685H89.2498ZM89.8498 32.7686H89.2498H81.8998H81.2998V33.3685V34.9436V35.5436H81.8998H89.2498H89.8498V34.9436V33.3685V32.7686Z" fill="#71C6D4"/>
<path d="M89.2499 27.7437H81.8999V29.3187H89.2499V27.7437Z" fill="#71C6D4"/>
<path d="M89.2498 27.7435V29.3186H81.8998V27.7435H89.2498ZM89.8498 27.1436H89.2498H81.8998H81.2998V27.7435V29.3186V29.9186H81.8998H89.2498H89.8498V29.3936V27.8186V27.1436Z" fill="#71C6D4"/>
<path d="M100.65 35.0187C97.1252 35.0187 94.2002 32.0937 94.2002 28.5687C94.2002 25.0437 97.1252 22.1187 100.65 22.1187C104.175 22.1187 107.1 25.0437 107.1 28.5687C107.1 32.0937 104.175 35.0187 100.65 35.0187ZM100.65 23.6937C97.9502 23.6937 95.8502 25.8687 95.8502 28.4937C95.8502 31.1937 98.0252 33.2937 100.65 33.2937C103.35 33.2937 105.45 31.1187 105.45 28.4937C105.45 25.8687 103.275 23.6937 100.65 23.6937Z" fill="#71C6D4"/>
<path d="M100.65 22.1185C104.175 22.1185 107.1 25.0436 107.1 28.5686C107.1 32.0936 104.175 35.0186 100.65 35.0186C97.1251 35.0186 94.2001 32.0936 94.2001 28.5686C94.2001 24.9686 97.0501 22.1185 100.65 22.1185ZM100.65 33.3685C103.35 33.3685 105.45 31.1936 105.45 28.5686C105.45 25.8686 103.275 23.7686 100.65 23.7686C97.9501 23.7686 95.8501 25.9436 95.8501 28.5686C95.7751 31.1936 97.9501 33.3685 100.65 33.3685ZM100.65 21.5186C96.7501 21.5186 93.6001 24.6686 93.6001 28.5686C93.6001 32.4686 96.7501 35.6185 100.65 35.6185C104.55 35.6185 107.7 32.4686 107.7 28.5686C107.7 24.6686 104.55 21.5186 100.65 21.5186ZM100.65 32.7686C98.3251 32.7686 96.4501 30.8936 96.4501 28.5686C96.4501 26.2436 98.3251 24.3685 100.65 24.3685C102.975 24.3685 104.85 26.2436 104.85 28.5686C104.85 30.8936 102.975 32.7686 100.65 32.7686Z" fill="#71C6D4"/>
<path d="M76.9501 35.0187H69.6001V22.1187H71.1001V33.3687H76.9501V35.0187Z" fill="#71C6D4"/>
<path d="M71.1 22.1185V33.3685H76.95V34.9436H69.6V22.0436H71.1M71.7 21.5186H71.1H69.675H69V22.1185V35.0186V35.6185H69.6H76.95H77.55V35.0186V33.4436V32.8435H76.95H71.7V22.1936V21.5186Z" fill="#71C6D4"/>
<path d="M135.6 22.1187H128.25V23.6937H135.6V22.1187Z" fill="white"/>
<path d="M135.6 22.1185V23.6936H128.25V22.1185H135.6ZM136.2 21.5186H135.6H128.25H127.65V22.1185V23.6936V24.2936H128.25H135.6H136.2V23.6936V22.1185V21.5186Z" fill="white"/>
<path d="M135.6 33.3687H128.25V34.9437H135.6V33.3687Z" fill="white"/>
<path d="M135.6 33.3685V34.9436H128.25V33.3685H135.6ZM136.2 32.7686H135.6H128.25H127.65V33.3685V34.9436V35.5436H128.25H135.6H136.2V34.9436V33.3685V32.7686Z" fill="white"/>
<path d="M135.6 27.7437H128.25V29.3187H135.6V27.7437Z" fill="white"/>
<path d="M135.6 27.7435V29.3186H128.25V27.7435H135.6ZM136.2 27.1436H135.6H128.25H127.65V27.7435V29.3186V29.9186H128.25H135.6H136.2V29.3936V27.8186V27.1436Z" fill="white"/>
<path d="M146.925 35.0187C143.4 35.0187 140.475 32.0937 140.475 28.5687C140.475 25.0437 143.4 22.1187 146.925 22.1187C149.025 22.1187 151.05 23.1687 152.25 24.8937L150.9 25.7937C150 24.4437 148.5 23.6937 146.925 23.6937C144.225 23.6937 142.125 25.8687 142.125 28.4937C142.125 31.1937 144.3 33.2937 146.925 33.2937C148.5 33.2937 150 32.4687 150.9 31.1937L152.25 32.0936C151.125 33.9686 149.1 35.0187 146.925 35.0187Z" fill="white"/>
<path d="M146.925 22.1185C149.025 22.1185 151.05 23.1686 152.25 24.8936L150.9 25.7936C150 24.4436 148.5 23.6936 146.925 23.6936C144.225 23.6936 142.125 25.8685 142.125 28.4935C142.125 31.1935 144.3 33.2936 146.925 33.2936C148.5 33.2936 150 32.4686 150.9 31.1936L152.25 32.0935C151.05 33.8935 149.025 34.9436 146.925 34.9436C143.4 34.9436 140.475 32.0185 140.475 28.4935C140.55 24.9685 143.4 22.1185 146.925 22.1185ZM146.925 21.5186C143.025 21.5186 139.875 24.6686 139.875 28.5686C139.875 32.4686 143.025 35.6185 146.925 35.6185C149.25 35.6185 151.5 34.4185 152.775 32.4685L153.15 31.9436L152.625 31.5686L151.275 30.6686L150.75 30.2936L150.375 30.8186C149.625 31.9436 148.275 32.6936 146.925 32.6936C144.6 32.6936 142.725 30.8185 142.725 28.4935C142.725 26.1685 144.6 24.2936 146.925 24.2936C148.275 24.2936 149.625 24.9685 150.375 26.0935L150.75 26.6185L151.275 26.2435L152.625 25.3435L153.15 24.9685L152.775 24.4436C151.5 22.6436 149.325 21.5186 146.925 21.5186Z" fill="white"/>
<path d="M123.3 22.1187H115.95V23.6937H123.3V22.1187Z" fill="white"/>
<path d="M123.3 22.1185V23.6936H115.95V22.1185H123.3ZM123.9 21.5186H123.3H115.95H115.35V22.1185V23.6936V24.2936H115.95H123.3H123.9V23.6936V22.1185V21.5186Z" fill="white"/>
<path d="M120.375 22.9436H118.8V35.0186H120.375V22.9436Z" fill="white"/>
<path d="M120.45 22.9436V35.0186H118.875V22.9436H120.45ZM121.05 22.2686H120.45H118.875H118.275V22.8685V34.9436V35.5436H118.875H120.45H121.05V34.9436V22.8685V22.2686Z" fill="white"/>
<path d="M165.375 27.7437H158.025V29.3187H165.375V27.7437Z" fill="white"/>
<path d="M165.375 27.7435V29.3186H158.025V27.7435H165.375ZM166.05 27.1436H165.45H158.1H157.5V27.7435V29.3186V29.9186H158.1H165.45H166.05V29.3936V27.8186V27.1436Z" fill="white"/>
<path d="M158.85 22.1187H157.275V35.0187H158.85V22.1187Z" fill="white"/>
<path d="M158.85 22.1185V35.0186H157.275V22.1185H158.85ZM159.45 21.5186H158.85H157.275H156.675V22.1185V35.0186V35.6185H157.275H158.85H159.45V35.0186V22.1185V21.5186Z" fill="white"/>
<path d="M166.125 22.1187H164.55V35.0187H166.125V22.1187Z" fill="white"/>
<path d="M166.2 22.1185V35.0186H164.625V22.1185H166.2ZM166.8 21.5186H166.2H164.625H164.025V22.1185V35.0186V35.6185H164.625H166.2H166.8V35.0186V22.1185V21.5186Z" fill="white"/>
<path d="M96.6001 47.0189L96.1501 47.4689C96.0751 47.2439 95.9251 47.0189 95.7001 46.7189V49.2689H95.1001V47.0189L94.6501 47.4689L94.3501 46.8689C94.9501 46.4189 95.4001 45.7439 95.7001 44.8439H94.5001V44.2439H96.3001V44.8439C96.2251 45.0689 96.1501 45.4439 95.8501 45.9689C96.2251 46.3439 96.4501 46.7189 96.6001 47.0189ZM95.9251 43.944L95.4001 44.2439C95.1001 43.8689 94.8751 43.5689 94.7251 43.3439L95.2501 43.0439C95.6251 43.3439 95.8501 43.644 95.9251 43.944ZM100.65 49.194H96.4501V48.6689H97.5751C97.5751 48.5189 97.5001 48.3689 97.4251 48.1439H96.9751V46.8689H100.2V48.1439H99.7501C99.6751 48.2939 99.6001 48.5189 99.5251 48.6689H100.575V49.194H100.65ZM100.575 46.569H96.6001V46.0439H100.575V46.569ZM100.5 45.7439H96.6751V43.6439H97.8001V43.1189H98.3251V43.6439H98.8501V43.1189H99.4501V43.6439H100.5V45.7439ZM97.8001 44.4689V44.1689H97.2751V44.4689H97.8001ZM97.8001 45.2939V44.9189H97.2751V45.2939H97.8001ZM99.6001 47.6189V47.319H97.5751V47.6189H99.6001ZM99.0751 48.1439H98.0251C98.1001 48.2939 98.1001 48.4439 98.1751 48.6689H98.8501C99.0001 48.5189 99.0751 48.2939 99.0751 48.1439ZM98.8501 44.4689V44.1689H98.3251V44.4689H98.8501ZM98.8501 45.2939V44.9189H98.3251V45.2939H98.8501ZM99.9001 44.4689V44.1689H99.3751V44.4689H99.9001ZM99.9001 45.2939V44.9189H99.3751V45.2939H99.9001Z" fill="white"/>
<path d="M112.05 43.8689H109.275V48.5189C109.275 48.5189 109.275 48.5939 109.35 48.5939L109.425 48.6689H111.75V49.194H109.275C109.125 49.194 108.975 49.1189 108.825 49.0439C108.75 48.8939 108.675 48.8189 108.675 48.5939V43.8689H108.45V43.3439H112.05V43.8689ZM110.625 48.1439H109.575V46.0439H110.625V48.1439ZM111.75 45.6689H109.8V44.2439H111.75V45.6689ZM110.25 47.694V46.569H110.025V47.694H110.25ZM111.15 45.1439V44.7689H110.325V45.1439H111.15ZM111.975 48.1439H110.925V46.0439H111.975V48.1439ZM111.6 47.694V46.569H111.375V47.694H111.6ZM114.675 44.0189C114.6 44.7689 114.525 45.5939 114.3 46.4189L113.775 46.194C113.925 45.744 114 45.2939 114.075 44.6189H113.025C112.8 45.0689 112.575 45.519 112.35 45.819L111.825 45.444C112.2 44.844 112.575 44.0189 112.8 43.0439L113.4 43.1189C113.325 43.4189 113.25 43.7189 113.175 44.0189H114.675ZM114.75 48.9689L114.3 49.4189C113.925 49.0439 113.55 48.3689 113.25 47.3939C113.025 48.2939 112.65 48.8939 112.35 49.4189L111.9 49.0439C112.575 48.0689 112.95 46.9439 112.95 45.6689C112.95 45.5189 112.95 45.2939 112.95 45.1439H113.55C113.55 45.2939 113.55 45.4439 113.55 45.5189C113.55 46.7189 113.925 47.9189 114.75 48.9689Z" fill="white"/>
<path d="M128.775 45.2939L128.475 45.8939C128.325 45.8939 128.1 45.8189 127.875 45.7439V48.444H124.875L125.175 48.819C124.5 49.119 123.75 49.3439 122.775 49.4939L122.475 48.8939C123.15 48.8189 123.825 48.669 124.425 48.444H123.375V45.7439H124.725L124.425 45.3689C125.25 45.1439 125.85 44.7689 126.3 44.2439L126.975 44.3939C126.9 44.5439 126.825 44.6189 126.825 44.6189C127.35 44.8439 128.025 45.0689 128.775 45.2939ZM124.65 45.069H122.55V44.4689H124.65V45.069ZM124.575 43.944H122.7V43.3439H124.575V43.944ZM127.275 46.4189V46.194H124.125V46.4189H127.275ZM127.275 47.0939V46.7939H124.125V47.0939H127.275ZM127.275 47.8439V47.5439H124.125V47.8439H127.275ZM128.7 44.0189C128.475 44.3189 128.25 44.6189 128.1 44.8439L127.575 44.5439C127.65 44.4689 127.725 44.3189 127.95 44.0939H125.7C125.475 44.3189 125.25 44.544 125.1 44.694L124.65 44.2439C125.025 43.9439 125.4 43.5689 125.7 43.0439L126.3 43.2689C126.3 43.3439 126.225 43.4189 126.15 43.4939H128.775V44.0189H128.7ZM127.8 45.6689C127.35 45.5189 126.825 45.2939 126.45 44.9939C126.15 45.2939 125.775 45.5189 125.325 45.6689H127.8ZM128.775 48.819L128.4 49.3439C127.8 49.1189 127.05 48.9689 126.3 48.8939L126.6 48.3689C127.425 48.5189 128.1 48.669 128.775 48.819Z" fill="white"/>
<path d="M138.9 44.2438H136.575V43.6438H137.475C137.475 43.5688 137.4 43.4188 137.25 43.1938L137.85 42.9688C138 43.1938 138.075 43.4188 138.15 43.6438H138.825V44.2438H138.9ZM138.75 45.3688H136.8V44.7688H138.75V45.3688ZM138.75 46.3438H136.8V45.8188H138.75V46.3438ZM138.75 49.1188H138.15V48.8188H137.4V49.3438H136.8V46.8688H138.75V49.1188ZM138.15 48.2188V47.3938H137.4V48.2188H138.15ZM142.875 47.6188C142.875 47.9938 142.8 48.2937 142.65 48.5938C142.575 48.8938 142.425 49.1188 142.35 49.1938C142.275 49.2688 142.125 49.3438 142.05 49.3438C141.9 49.3438 141.75 49.2688 141.675 49.1938C141.6 49.1188 141.45 48.7438 141.375 48.2188C141.3 47.6937 141.225 47.2438 141.225 46.7938V43.8688H140.25V45.8188H141V46.4188H140.25V49.3438H139.65V46.4188H138.975V45.8188H139.65V43.8688H139.05V43.2688H141.825V46.9438C141.825 47.4688 141.9 47.9938 142.05 48.5188C142.125 48.2188 142.2 47.7688 142.2 47.2438L142.875 47.6188Z" fill="white"/>
</svg>
