<?xml version="1.0" encoding="UTF-8"?>
<svg id="_圖層_2" data-name="圖層 2" xmlns="http://www.w3.org/2000/svg" viewBox="0 0 98.97 116.14">
  <defs>
    <style>
      .cls-1 {
        fill: #231815;
      }

      .cls-1, .cls-2 {
        stroke-width: 0px;
      }
    </style>
  </defs>
  <g id="_圖層_2-2" data-name="圖層 2">
    <path class="cls-1" d="m55.5,20.51c-11.36-3.89-19.19-10.75-21.78-19.63-.34-1.17-1.99-1.18-2.32,0-5.43,19.32,2.21,21.68,23.67,21.97,1.36.02,1.72-1.9.43-2.34Z"/>
    <rect class="cls-1" x="11.84" y="28.87" width="72.39" height="1"/>
    <path class="cls-1" d="m46.74,77.71c-1.98.61-3.96.61-5.94,0-.79-.24-1.51.48-1.27,1.27.61,1.98.61,3.96,0,5.94-.24.79.48,1.51,1.27,1.27,1.98-.61,3.96-.61,5.94,0,.79.24,1.51-.48,1.27-1.27-.61-1.98-.61-3.96,0-5.94.24-.79-.48-1.51-1.27-1.27Z"/>
    <g>
      <rect class="cls-1" x="30.13" y="29.37" width="12.72" height="24.26"/>
      <rect class="cls-1" x="53.22" y="29.37" width="12.72" height="24.26"/>
    </g>
    <rect class="cls-1" y="53.13" width="96.07" height="1"/>
    <path class="cls-1" d="m54.84,91.76c34.34-15.74-25.55-41.07-29.06-7.93-.05.49-.78.46-.79-.03-.84-47.88,108.14-7.96,30.29,9.27-.81.18-1.2-.96-.44-1.31Z"/>
    <path class="cls-1" d="m43.91,82.1c-4.84,6.47-13.23,15.12-9.04,23.46,8.07,12.22,26.58,9.05,38.58,5.36,10.45-3.47,21.77-10.11,23.46-21.89.35-2.27.36-4.64.17-7.04-.04-.22.32-.31.39-.09,4.05,10.06-.43,20.73-9.25,26.66-8.34,5.62-18.51,7.86-28.39,7.55-9.29-.59-26.87-1.54-29.49-12.61-1.29-6.72,3.03-12.77,7.57-17.15.29-.38,6.51-5.79,5.99-4.27h0Z"/>
    <path class="cls-1" d="m16.82,66.87h2.75c3.48,0,6.29,2.82,6.29,6.29v13.47c0,1.18-1.57,1.59-2.14.55l-9.11-16.58c-.92-1.68.29-3.74,2.21-3.74Z"/>
    <path class="cls-1" d="m48.03,29.37c2.86,0,5.18,2.32,5.18,5.18v-5.18h-5.18Z"/>
    <path class="cls-1" d="m48.03,29.37h-5.18v5.18c0-2.86,2.32-5.18,5.18-5.18Z"/>
    <path class="cls-1" d="m48.03,53.63c-2.86,0-5.18-2.32-5.18-5.18v5.18h5.18Z"/>
    <path class="cls-1" d="m71.12,29.37h-5.18v5.18c0-2.86,2.32-5.18,5.18-5.18Z"/>
    <path class="cls-1" d="m71.12,53.63c-2.86,0-5.18-2.32-5.18-5.18v5.18h5.18Z"/>
    <path class="cls-1" d="m48.03,53.63h5.18v-5.18c0,2.86-2.32,5.18-5.18,5.18Z"/>
    <path class="cls-1" d="m24.99,29.37c2.86,0,5.18,2.32,5.18,5.18v-5.18h-5.18Z"/>
    <path class="cls-1" d="m24.99,53.63h5.18v-5.18c0,2.86-2.32,5.18-5.18,5.18Z"/>
    <path class="cls-2" d="m19.72,30.9c.84-.72,1.87-1.26,3.07-1.62h-10.96c1.21.36,2.23.9,3.07,1.62,1.4,1.2,3.41,1.2,4.81,0Z"/>
    <path class="cls-2" d="m7.88,55.16c.84-.72,1.87-1.26,3.07-1.62H0c1.21.36,2.23.9,3.07,1.62,1.4,1.2,3.41,1.2,4.81,0Z"/>
    <path class="cls-2" d="m76.34,27.65c-.84.72-1.87,1.26-3.07,1.62h10.96c-1.21-.36-2.23-.9-3.07-1.62-1.4-1.2-3.41-1.2-4.81,0Z"/>
    <path class="cls-2" d="m88.16,52.02c-.77.66-1.7,1.16-2.78,1.52h10.41c-1.08-.35-2-.86-2.78-1.52-1.43-1.21-3.43-1.21-4.86,0Z"/>
  </g>
</svg>