<svg width="996" height="585" viewBox="0 0 996 585" fill="none" xmlns="http://www.w3.org/2000/svg">
<g opacity="0.2">
<path d="M54.4168 566.32C45.2359 564.804 38.0402 557.592 36.528 548.39C35.0157 557.592 27.8198 564.804 18.6389 566.32C27.8198 567.836 35.0157 575.048 36.528 584.25C38.0402 575.048 45.2359 567.836 54.4168 566.32Z" fill="white"/>
<path d="M56.9722 490.647C46.4797 488.915 38.256 480.672 36.5277 470.156C34.7994 480.672 26.5758 488.915 16.0833 490.647C26.5758 492.379 34.7994 500.622 36.5277 511.138C38.256 500.622 46.4797 492.379 56.9722 490.647Z" fill="white"/>
<path d="M36.5277 391.922C38.4721 403.753 47.7235 413.025 59.5275 414.974C47.7235 416.923 38.4721 426.196 36.5277 438.027C34.5834 426.196 25.3316 416.923 13.5276 414.974C25.3316 413.025 34.5834 403.753 36.5277 391.922Z" fill="white"/>
<path d="M62.0835 339.301C48.9679 337.136 38.6884 326.833 36.528 313.687C34.3677 326.833 24.0881 337.136 10.9725 339.301C24.0881 341.467 34.3677 351.77 36.528 364.915C38.6884 351.77 48.9679 341.467 62.0835 339.301Z" fill="white"/>
<path d="M36.5277 235.453C38.9041 249.913 50.2118 261.247 64.6389 263.628C50.2118 266.01 38.9041 277.344 36.5277 291.804C34.1514 277.344 22.8437 266.01 8.41659 263.628C22.8437 261.247 34.1514 249.913 36.5277 235.453Z" fill="white"/>
<path d="M67.1943 187.955C51.4556 185.357 39.1202 172.993 36.5277 157.219C33.9353 172.993 21.5996 185.357 5.86094 187.955C21.5996 190.554 33.9353 202.917 36.5277 218.692C39.1202 202.917 51.4556 190.554 67.1943 187.955Z" fill="white"/>
<path d="M36.5281 78.9843C39.3365 96.0735 52.7 109.468 69.7502 112.282C52.7 115.097 39.3365 128.491 36.5281 145.581C33.7196 128.491 20.3561 115.097 3.30583 112.282C20.3561 109.468 33.7196 96.0735 36.5281 78.9843Z" fill="white"/>
<path d="M72.3053 36.6095C53.9435 33.5782 39.5522 19.1537 36.5278 0.749977C33.5032 19.1537 19.1117 33.5782 0.749865 36.6095C19.1117 39.6409 33.5032 54.0652 36.5278 72.4689C39.5522 54.0652 53.9435 39.6409 72.3053 36.6095Z" fill="white"/>
<path d="M108.9 549.494C110.319 558.129 117.072 564.898 125.688 566.32C117.072 567.743 110.319 574.511 108.9 583.147C107.481 574.511 100.728 567.743 92.1116 566.32C100.728 564.898 107.481 558.129 108.9 549.494Z" fill="white"/>
<path d="M128.204 490.647C118.297 489.012 110.531 481.229 108.9 471.299C107.268 481.229 99.5026 489.012 89.5953 490.647C99.5026 492.283 107.268 500.066 108.9 509.996C110.531 500.066 118.297 492.283 128.204 490.647Z" fill="white"/>
<path d="M108.9 393.104C110.744 404.328 119.521 413.125 130.72 414.974C119.521 416.823 110.744 425.62 108.9 436.845C107.055 425.62 98.2776 416.823 87.0789 414.974C98.2776 413.125 107.055 404.328 108.9 393.104Z" fill="white"/>
<path d="M133.237 339.301C120.747 337.239 110.957 327.428 108.9 314.909C106.843 327.428 97.0531 337.239 84.5631 339.301C97.0531 341.363 106.843 351.175 108.9 363.694C110.957 351.175 120.747 341.363 133.237 339.301Z" fill="white"/>
<path d="M108.9 236.714C111.17 250.527 121.971 261.353 135.753 263.628C121.971 265.904 111.17 276.73 108.9 290.543C106.63 276.73 95.8282 265.904 82.0467 263.628C95.8282 261.353 106.63 250.527 108.9 236.714Z" fill="white"/>
<path d="M138.269 187.955C123.196 185.467 111.382 173.626 108.9 158.519C106.417 173.626 94.6032 185.467 79.5304 187.955C94.6032 190.444 106.417 202.284 108.9 217.392C111.382 202.284 123.196 190.444 138.269 187.955Z" fill="white"/>
<path d="M108.9 80.3241C111.595 96.7257 124.421 109.581 140.785 112.282C124.421 114.984 111.595 127.839 108.9 144.241C106.204 127.839 93.3782 114.984 77.014 112.282C93.3782 109.581 106.204 96.7257 108.9 80.3241Z" fill="white"/>
<path d="M143.302 36.6095C125.646 33.6947 111.808 19.8251 108.9 2.12919C105.992 19.8251 92.1538 33.6947 74.4982 36.6095C92.1538 39.5243 105.992 53.3938 108.9 71.0898C111.808 53.3938 125.646 39.5243 143.302 36.6095Z" fill="white"/>
<path d="M181.272 550.597C182.598 558.667 188.908 564.991 196.959 566.32C188.908 567.649 182.598 573.974 181.272 582.043C179.945 573.974 173.635 567.649 165.584 566.32C173.635 564.991 179.945 558.667 181.272 550.597Z" fill="white"/>
<path d="M199.435 490.647C190.113 489.108 182.807 481.785 181.271 472.442C179.736 481.785 172.429 489.108 163.107 490.647C172.429 492.186 179.736 499.509 181.271 508.853C182.807 499.509 190.113 492.186 199.435 490.647Z" fill="white"/>
<path d="M181.271 394.286C183.016 404.904 191.319 413.225 201.912 414.974C191.319 416.723 183.016 425.045 181.271 435.662C179.527 425.045 171.224 416.723 160.63 414.974C171.224 413.225 179.527 404.904 181.271 394.286Z" fill="white"/>
<path d="M204.39 339.301C192.525 337.343 183.226 328.022 181.272 316.131C179.317 328.022 170.018 337.343 158.154 339.301C170.018 341.26 179.317 350.58 181.272 362.472C183.226 350.58 192.525 341.26 204.39 339.301Z" fill="white"/>
<path d="M181.272 237.975C183.435 251.141 193.731 261.46 206.866 263.628C193.731 265.797 183.435 276.116 181.272 289.282C179.108 276.116 168.812 265.797 155.677 263.628C168.812 261.46 179.108 251.141 181.272 237.975Z" fill="white"/>
<path d="M209.343 187.955C194.936 185.577 183.645 174.259 181.272 159.82C178.899 174.259 167.607 185.577 153.2 187.955C167.607 190.334 178.899 201.651 181.272 216.091C183.645 201.651 194.936 190.334 209.343 187.955Z" fill="white"/>
<path d="M181.271 81.664C183.854 97.3779 196.142 109.694 211.82 112.282C196.142 114.871 183.854 127.187 181.271 142.901C178.689 127.187 166.401 114.871 150.722 112.282C166.401 109.694 178.689 97.3779 181.271 81.664Z" fill="white"/>
<path d="M214.297 36.6096C197.348 33.8113 184.063 20.4966 181.271 3.50853C178.48 20.4966 165.195 33.8113 148.246 36.6095C165.195 39.4078 178.48 52.7225 181.271 69.7106C184.063 52.7225 197.348 39.4078 214.297 36.6096Z" fill="white"/>
<path d="M253.643 551.7C254.877 559.204 260.744 565.084 268.23 566.32C260.744 567.556 254.877 573.437 253.643 580.94C252.41 573.437 246.543 567.556 239.057 566.32C246.543 565.084 252.41 559.204 253.643 551.7Z" fill="white"/>
<path d="M270.667 490.647C261.93 489.205 255.082 482.341 253.643 473.584C252.204 482.341 245.356 489.205 236.619 490.647C245.356 492.09 252.204 498.953 253.643 507.71C255.082 498.953 261.93 492.09 270.667 490.647Z" fill="white"/>
<path d="M253.643 395.468C255.288 405.479 263.117 413.325 273.105 414.974C263.117 416.623 255.288 424.469 253.643 434.48C251.998 424.469 244.17 416.623 234.181 414.974C244.17 413.325 251.998 405.479 253.643 395.468Z" fill="white"/>
<path d="M275.542 339.301C264.303 337.446 255.494 328.617 253.643 317.352C251.792 328.617 242.983 337.446 231.744 339.301C242.983 341.157 251.792 349.986 253.643 361.25C255.494 349.986 264.303 341.157 275.542 339.301Z" fill="white"/>
<path d="M253.643 239.236C255.701 251.755 265.49 261.566 277.98 263.628C265.49 265.69 255.701 275.502 253.643 288.021C251.586 275.502 241.796 265.69 229.306 263.628C241.796 261.566 251.586 251.755 253.643 239.236Z" fill="white"/>
<path d="M280.418 187.955C266.677 185.687 255.907 174.892 253.643 161.12C251.38 174.892 240.61 185.687 226.869 187.955C240.61 190.224 251.38 201.018 253.643 214.791C255.907 201.018 266.677 190.224 280.418 187.955Z" fill="white"/>
<path d="M253.643 83.0038C256.113 98.0301 267.863 109.807 282.855 112.282C267.863 114.757 256.113 126.535 253.643 141.561C251.174 126.535 239.424 114.757 224.431 112.282C239.424 109.807 251.174 98.0301 253.643 83.0038Z" fill="white"/>
<path d="M285.293 36.6096C269.05 33.9279 256.319 21.168 253.643 4.88769C250.968 21.168 238.237 33.9279 221.994 36.6096C238.237 39.2912 250.968 52.0511 253.643 68.3314C256.319 52.0511 269.05 39.2912 285.293 36.6096Z" fill="white"/>
<path d="M326.015 552.804C327.155 559.741 332.579 565.178 339.5 566.32C332.579 567.463 327.155 572.9 326.015 579.836C324.875 572.9 319.451 567.463 312.53 566.32C319.451 565.178 324.875 559.741 326.015 552.804Z" fill="white"/>
<path d="M341.899 490.647C333.747 489.301 327.357 482.898 326.015 474.727C324.672 482.898 318.283 489.301 310.131 490.647C318.283 491.993 324.672 498.397 326.015 506.567C327.357 498.397 333.747 491.993 341.899 490.647Z" fill="white"/>
<path d="M326.015 396.65C327.56 406.055 334.914 413.425 344.297 414.974C334.914 416.523 327.56 423.894 326.015 433.298C324.469 423.894 317.115 416.523 307.733 414.974C317.115 413.425 324.469 406.055 326.015 396.65Z" fill="white"/>
<path d="M346.695 339.301C336.082 337.549 327.763 329.212 326.015 318.574C324.267 329.212 315.948 337.549 305.335 339.301C315.948 341.054 324.267 349.391 326.015 360.029C327.763 349.391 336.082 341.054 346.695 339.301Z" fill="white"/>
<path d="M326.015 240.497C327.966 252.368 337.249 261.673 349.093 263.628C337.249 265.584 327.966 274.888 326.015 286.76C324.064 274.888 314.781 265.584 302.936 263.628C314.781 261.673 324.064 252.368 326.015 240.497Z" fill="white"/>
<path d="M351.492 187.955C338.417 185.797 328.169 175.525 326.015 162.42C323.861 175.525 313.613 185.797 300.538 187.955C313.613 190.114 323.861 200.385 326.015 213.49C328.169 200.385 338.417 190.114 351.492 187.955Z" fill="white"/>
<path d="M326.015 84.3436C328.371 98.6823 339.584 109.921 353.89 112.282C339.584 114.644 328.371 125.883 326.015 140.221C323.659 125.883 312.446 114.644 298.14 112.282C312.446 109.921 323.659 98.6823 326.015 84.3436Z" fill="white"/>
<path d="M356.289 36.6096C340.752 34.0446 328.574 21.8393 326.015 6.26691C323.456 21.8393 311.279 34.0446 295.742 36.6096C311.279 39.1746 323.456 51.3798 326.015 66.9522C328.575 51.3798 340.752 39.1746 356.289 36.6096Z" fill="white"/>
<path d="M398.387 553.907C399.433 560.278 404.415 565.271 410.771 566.32C404.415 567.369 399.433 572.363 398.387 578.733C397.34 572.363 392.358 567.369 386.002 566.32C392.358 565.271 397.34 560.278 398.387 553.907Z" fill="white"/>
<path d="M413.13 490.647C405.564 489.398 399.633 483.454 398.387 475.87C397.14 483.454 391.21 489.398 383.643 490.647C391.21 491.896 397.14 497.841 398.387 505.425C399.633 497.841 405.564 491.896 413.13 490.647Z" fill="white"/>
<path d="M398.387 397.833C399.832 406.63 406.712 413.525 415.489 414.974C406.712 416.423 399.832 423.318 398.387 432.116C396.941 423.318 390.061 416.423 381.284 414.974C390.061 413.525 396.941 406.63 398.387 397.833Z" fill="white"/>
<path d="M417.848 339.301C407.86 337.652 400.032 329.806 398.387 319.795C396.741 329.806 388.913 337.652 378.925 339.301C388.913 340.95 396.741 348.797 398.387 358.807C400.032 348.797 407.86 340.95 417.848 339.301Z" fill="white"/>
<path d="M398.387 241.758C400.231 252.982 409.009 261.78 420.207 263.628C409.009 265.477 400.231 274.274 398.387 285.499C396.542 274.274 387.765 265.477 376.566 263.628C387.765 261.78 396.542 252.982 398.387 241.758Z" fill="white"/>
<path d="M422.566 187.955C410.157 185.907 400.431 176.158 398.387 163.721C396.343 176.158 386.617 185.907 374.207 187.955C386.617 190.004 396.343 199.753 398.387 212.19C400.431 199.753 410.157 190.004 422.566 187.955Z" fill="white"/>
<path d="M398.387 85.6834C400.63 99.3345 411.305 110.034 424.925 112.282C411.305 114.531 400.63 125.23 398.387 138.882C396.143 125.23 385.468 114.531 371.848 112.282C385.468 110.034 396.143 99.3345 398.387 85.6834Z" fill="white"/>
<path d="M427.284 36.6096C412.453 34.1611 400.829 22.5107 398.387 7.64613C395.944 22.5107 384.32 34.1611 369.489 36.6096C384.32 39.058 395.944 50.7083 398.387 65.5729C400.829 50.7083 412.453 39.058 427.284 36.6096Z" fill="white"/>
<path d="M470.758 555.011C471.712 560.815 476.251 565.364 482.042 566.32C476.251 567.276 471.712 571.825 470.758 577.63C469.804 571.825 465.266 567.276 459.475 566.32C465.266 565.364 469.804 560.815 470.758 555.011Z" fill="white"/>
<path d="M484.362 490.647C477.38 489.495 471.908 484.01 470.758 477.013C469.608 484.01 464.137 489.495 457.155 490.647C464.137 491.8 469.608 497.284 470.758 504.282C471.908 497.284 477.38 491.8 484.362 490.647Z" fill="white"/>
<path d="M470.758 399.015C472.104 407.206 478.51 413.625 486.682 414.974C478.51 416.323 472.104 422.743 470.758 430.934C469.412 422.743 463.007 416.323 454.835 414.974C463.007 413.625 469.412 407.206 470.758 399.015Z" fill="white"/>
<path d="M489.001 339.301C479.639 337.756 472.3 330.401 470.758 321.017C469.216 330.401 461.878 337.756 452.516 339.301C461.878 340.847 469.216 348.202 470.758 357.586C472.3 348.202 479.639 340.847 489.001 339.301Z" fill="white"/>
<path d="M470.758 243.019C472.497 253.596 480.768 261.886 491.321 263.628C480.768 265.371 472.497 273.661 470.758 284.238C469.02 273.661 460.749 265.371 450.196 263.628C460.749 261.886 469.02 253.596 470.758 243.019Z" fill="white"/>
<path d="M493.641 187.955C481.897 186.017 472.693 176.791 470.758 165.021C468.824 176.791 459.62 186.017 447.876 187.955C459.62 189.894 468.824 199.119 470.758 210.89C472.693 199.119 481.897 189.894 493.641 187.955Z" fill="white"/>
<path d="M470.758 87.0232C472.889 99.9867 483.026 110.147 495.96 112.282C483.026 114.418 472.889 124.578 470.758 137.542C468.628 124.578 458.491 114.418 445.557 112.282C458.491 110.147 468.628 99.9867 470.758 87.0232Z" fill="white"/>
<path d="M498.28 36.6096C484.155 34.2777 473.085 23.182 470.758 9.02528C468.432 23.182 457.362 34.2777 443.237 36.6096C457.362 38.9414 468.432 50.0369 470.758 64.1937C473.085 50.0369 484.155 38.9414 498.28 36.6096Z" fill="white"/>
<path d="M543.13 556.114C543.991 561.352 548.087 565.457 553.313 566.32C548.087 567.183 543.991 571.288 543.13 576.526C542.269 571.288 538.173 567.183 532.947 566.32C538.173 565.457 542.269 561.352 543.13 556.114Z" fill="white"/>
<path d="M555.594 490.647C549.197 489.591 544.184 484.567 543.13 478.156C542.077 484.567 537.063 489.591 530.667 490.647C537.063 491.703 542.077 496.728 543.13 503.139C544.184 496.728 549.197 491.703 555.594 490.647Z" fill="white"/>
<path d="M543.13 400.197C544.377 407.781 550.307 413.725 557.874 414.974C550.307 416.223 544.377 422.168 543.13 429.752C541.884 422.168 535.953 416.223 528.387 414.974C535.953 413.725 541.884 407.781 543.13 400.197Z" fill="white"/>
<path d="M560.154 339.301C551.417 337.859 544.57 330.995 543.13 322.238C541.691 330.995 534.844 337.859 526.107 339.301C534.844 340.744 541.691 347.607 543.13 356.364C544.57 347.607 551.417 340.744 560.154 339.301Z" fill="white"/>
<path d="M543.13 244.28C544.762 254.21 552.527 261.993 562.435 263.628C552.527 265.264 544.762 273.047 543.13 282.977C541.499 273.047 533.734 265.264 523.826 263.628C533.734 261.993 541.499 254.21 543.13 244.28Z" fill="white"/>
<path d="M564.715 187.955C553.637 186.127 544.955 177.424 543.13 166.321C541.306 177.424 532.623 186.127 521.546 187.955C532.623 189.784 541.306 198.486 543.13 209.589C544.955 198.486 553.637 189.784 564.715 187.955Z" fill="white"/>
<path d="M543.13 88.3631C545.148 100.639 554.748 110.26 566.995 112.282C554.748 114.304 545.148 123.926 543.13 136.202C541.113 123.926 531.513 114.304 519.265 112.282C531.513 110.26 541.113 100.639 543.13 88.3631Z" fill="white"/>
<path d="M569.276 36.6096C555.858 34.3943 545.341 23.8534 543.13 10.4045C540.92 23.8534 530.404 34.3943 516.985 36.6096C530.404 38.8248 540.92 49.3656 543.13 62.8145C545.341 49.3656 555.858 38.8249 569.276 36.6096Z" fill="white"/>
<path d="M615.502 557.217C616.27 561.889 619.923 565.551 624.584 566.32C619.923 567.09 616.27 570.751 615.502 575.423C614.734 570.751 611.081 567.09 606.42 566.32C611.081 565.551 614.734 561.889 615.502 557.217Z" fill="white"/>
<path d="M626.825 490.647C621.014 489.688 616.459 485.123 615.502 479.298C614.545 485.123 609.99 489.688 604.179 490.647C609.99 491.607 614.545 496.172 615.502 501.996C616.459 496.172 621.014 491.607 626.825 490.647Z" fill="white"/>
<path d="M615.502 401.379C616.649 408.356 622.105 413.825 629.066 414.974C622.105 416.123 616.649 421.592 615.502 428.569C614.356 421.592 608.9 416.123 601.938 414.974C608.9 413.825 614.356 408.356 615.502 401.379Z" fill="white"/>
<path d="M631.307 339.301C623.196 337.962 616.838 331.59 615.502 323.46C614.166 331.59 607.809 337.962 599.697 339.301C607.809 340.641 614.166 347.013 615.502 355.143C616.838 347.013 623.196 340.641 631.307 339.301Z" fill="white"/>
<path d="M615.502 245.541C617.028 254.824 624.287 262.099 633.549 263.628C624.287 265.157 617.028 272.433 615.502 281.716C613.977 272.433 606.718 265.157 597.456 263.628C606.718 262.099 613.977 254.824 615.502 245.541Z" fill="white"/>
<path d="M635.79 187.955C625.378 186.237 617.217 178.057 615.502 167.622C613.787 178.057 605.627 186.237 595.215 187.955C605.627 189.674 613.787 197.853 615.502 208.289C617.217 197.853 625.378 189.674 635.79 187.955Z" fill="white"/>
<path d="M615.502 89.7029C617.407 101.291 626.469 110.374 638.031 112.282C626.469 114.191 617.407 123.274 615.502 134.862C613.598 123.274 604.536 114.191 592.974 112.282C604.536 110.374 613.598 101.291 615.502 89.7029Z" fill="white"/>
<path d="M640.271 36.6096C627.559 34.511 617.596 24.5247 615.502 11.7837C613.408 24.5247 603.445 34.511 590.733 36.6096C603.445 38.7082 613.408 48.6943 615.502 61.4353C617.596 48.6943 627.559 38.7082 640.271 36.6096Z" fill="white"/>
<path d="M687.874 558.321C688.548 562.426 691.759 565.644 695.855 566.32C691.759 566.996 688.548 570.214 687.874 574.32C687.199 570.214 683.989 566.996 679.892 566.32C683.989 565.644 687.199 562.426 687.874 558.321Z" fill="white"/>
<path d="M691.216 483.791C688.923 487.026 684.826 488.437 681.033 487.298C684.261 489.596 685.669 493.702 684.532 497.504C686.826 494.268 690.922 492.857 694.715 493.997C691.487 491.698 690.079 487.593 691.216 483.791Z" fill="white"/>
<path d="M682.173 408.275C685.664 411.23 690.645 411.627 694.557 409.26C691.609 412.759 691.214 417.752 693.575 421.673C690.084 418.718 685.102 418.322 681.19 420.688C684.138 417.189 684.534 412.196 682.173 408.275Z" fill="white"/>
<path d="M697.9 334.73C692.369 336.227 686.502 334.024 683.313 329.253C684.806 334.796 682.608 340.677 677.848 343.872C683.379 342.376 689.247 344.579 692.435 349.35C690.942 343.806 693.14 337.926 697.9 334.73Z" fill="white"/>
<path d="M684.453 250.23C687.339 256.817 694.092 260.827 701.241 260.2C694.67 263.092 690.669 269.86 691.294 277.026C688.409 270.44 681.656 266.43 674.506 267.057C681.078 264.165 685.079 257.396 684.453 250.23Z" fill="white"/>
<path d="M704.583 185.67C695.815 185.427 688.176 179.61 685.593 171.208C685.351 179.996 679.547 187.652 671.164 190.241C679.933 190.484 687.571 196.301 690.154 204.703C690.396 195.915 696.2 188.259 704.583 185.67Z" fill="white"/>
<path d="M686.734 92.1854C689.014 102.403 697.538 110.027 707.925 111.14C697.731 113.425 690.124 121.969 689.014 132.38C686.734 122.162 678.21 114.538 667.823 113.425C678.017 111.14 685.624 102.596 686.734 92.1854Z" fill="white"/>
<path d="M711.267 36.6096C699.261 34.6275 689.851 25.1961 687.874 13.1629C685.896 25.1961 676.487 34.6275 664.481 36.6096C676.487 38.5916 685.896 48.0229 687.874 60.0561C689.851 48.0229 699.261 38.5916 711.267 36.6096Z" fill="white"/>
<path d="M760.246 559.424C760.827 562.963 763.595 565.737 767.126 566.32C763.595 566.903 760.827 569.677 760.246 573.216C759.664 569.677 756.896 566.903 753.365 566.32C756.896 565.737 759.664 562.963 760.246 559.424Z" fill="white"/>
<path d="M763.391 496.558C762.275 493.258 763.382 489.612 766.143 487.495C762.851 488.613 759.213 487.503 757.101 484.736C758.216 488.036 757.109 491.682 754.349 493.8C757.641 492.682 761.278 493.791 763.391 496.558Z" fill="white"/>
<path d="M765.16 408.669C763.17 412.322 763.723 416.839 766.536 419.9C762.892 417.905 758.385 418.46 755.331 421.279C757.321 417.627 756.768 413.11 753.955 410.049C757.599 412.044 762.106 411.489 765.16 408.669Z" fill="white"/>
<path d="M769.682 343.242C765.172 340.42 762.957 335.031 764.177 329.844C761.362 334.365 755.985 336.584 750.81 335.361C755.32 338.183 757.534 343.572 756.314 348.759C759.13 344.238 764.507 342.019 769.682 343.242Z" fill="white"/>
<path d="M763.195 251.019C762.745 257.74 766.62 264.001 772.827 266.584C766.121 266.133 759.874 270.016 757.297 276.238C757.747 269.517 753.872 263.256 747.665 260.673C754.371 261.124 760.618 257.24 763.195 251.019Z" fill="white"/>
<path d="M775.973 189.926C768.068 187.582 762.532 180.449 762.212 172.193C759.873 180.116 752.757 185.664 744.519 185.985C752.424 188.329 757.96 195.462 758.28 203.718C760.618 195.795 767.735 190.247 775.973 189.926Z" fill="white"/>
<path d="M761.229 93.3677C762.32 103.158 769.516 111.163 779.118 113.268C769.349 114.361 761.363 121.573 759.263 131.197C758.172 121.407 750.976 113.402 741.374 111.297C751.143 110.204 759.129 102.992 761.229 93.3677Z" fill="white"/>
<path d="M782.263 36.6096C770.963 34.7441 762.107 25.8677 760.246 14.5423C758.385 25.8677 749.528 34.7441 738.229 36.6096C749.528 38.4751 758.385 47.3516 760.246 58.677C762.107 47.3516 770.963 38.4751 782.263 36.6096Z" fill="white"/>
<path d="M832.617 560.528C833.106 563.5 835.431 565.831 838.397 566.32C835.431 566.81 833.106 569.14 832.617 572.113C832.129 569.14 829.804 566.81 826.838 566.32C829.804 565.831 832.129 563.5 832.617 560.528Z" fill="white"/>
<path d="M840.52 490.647C836.464 489.978 833.286 486.792 832.618 482.727C831.95 486.792 828.771 489.978 824.715 490.647C828.771 491.317 831.95 494.503 832.618 498.568C833.286 494.503 836.464 491.317 840.52 490.647Z" fill="white"/>
<path d="M832.618 404.926C833.465 410.083 837.498 414.125 842.643 414.974C837.498 415.824 833.465 419.866 832.618 425.023C831.77 419.866 827.737 415.824 822.592 414.974C827.737 414.125 831.77 410.083 832.618 404.926Z" fill="white"/>
<path d="M844.767 339.301C838.532 338.272 833.645 333.374 832.618 327.125C831.591 333.374 826.704 338.272 820.469 339.301C826.704 340.331 831.591 345.229 832.618 351.478C833.645 345.229 838.532 340.331 844.767 339.301Z" fill="white"/>
<path d="M832.617 249.324C833.824 256.665 839.565 262.419 846.889 263.628C839.565 264.838 833.824 270.592 832.617 277.933C831.411 270.592 825.67 264.838 818.346 263.628C825.67 262.419 831.411 256.665 832.617 249.324Z" fill="white"/>
<path d="M849.012 187.955C840.598 186.566 834.004 179.956 832.618 171.523C831.232 179.956 824.637 186.566 816.223 187.955C824.637 189.345 831.232 195.954 832.618 204.388C834.004 195.954 840.598 189.345 849.012 187.955Z" fill="white"/>
<path d="M832.618 93.7222C834.183 103.248 841.632 110.713 851.136 112.282C841.632 113.851 834.183 121.317 832.618 130.843C831.052 121.317 823.604 113.851 814.1 112.282C823.604 110.713 831.052 103.248 832.618 93.7222Z" fill="white"/>
<path d="M853.258 36.6096C842.665 34.8607 834.362 26.539 832.617 15.9214C830.872 26.539 822.57 34.8607 811.976 36.6096C822.57 38.3585 830.872 46.6802 832.617 57.2978C834.362 46.6802 842.665 38.3585 853.258 36.6096Z" fill="white"/>
<path d="M904.989 561.631C905.385 564.038 907.267 565.924 909.668 566.32C907.267 566.717 905.385 568.603 904.989 571.009C904.594 568.603 902.712 566.717 900.311 566.32C902.712 565.924 904.594 564.038 904.989 561.631Z" fill="white"/>
<path d="M911.752 490.647C908.281 490.074 905.561 487.348 904.989 483.869C904.418 487.348 901.698 490.074 898.227 490.647C901.698 491.22 904.418 493.947 904.989 497.425C905.561 493.947 908.281 491.22 911.752 490.647Z" fill="white"/>
<path d="M904.99 406.108C905.737 410.658 909.296 414.225 913.836 414.974C909.296 415.724 905.737 419.29 904.99 423.841C904.242 419.29 900.683 415.724 896.143 414.974C900.683 414.225 904.242 410.658 904.99 406.108Z" fill="white"/>
<path d="M915.92 339.301C910.31 338.375 905.914 333.969 904.99 328.346C904.066 333.969 899.669 338.375 894.06 339.301C899.669 340.227 904.066 344.634 904.99 350.256C905.914 344.634 910.31 340.227 915.92 339.301Z" fill="white"/>
<path d="M904.989 250.585C906.09 257.279 911.324 262.526 918.003 263.628C911.324 264.731 906.09 269.978 904.989 276.672C903.889 269.978 898.655 264.731 891.976 263.628C898.655 262.526 903.889 257.279 904.989 250.585Z" fill="white"/>
<path d="M920.087 187.955C912.339 186.676 906.266 180.59 904.99 172.824C903.713 180.59 897.64 186.676 889.892 187.955C897.64 189.235 903.713 195.321 904.99 203.087C906.266 195.321 912.339 189.235 920.087 187.955Z" fill="white"/>
<path d="M904.99 95.062C906.442 103.9 913.353 110.827 922.171 112.282C913.353 113.738 906.442 120.665 904.99 129.503C903.537 120.665 896.626 113.738 887.809 112.282C896.626 110.827 903.537 103.9 904.99 95.062Z" fill="white"/>
<path d="M924.254 36.6096C914.367 34.9773 906.618 27.2104 904.989 17.3007C903.361 27.2104 895.611 34.9773 885.724 36.6096C895.611 38.2419 903.361 46.0089 904.989 55.9186C906.618 46.0089 914.367 38.2419 924.254 36.6096Z" fill="white"/>
<path d="M977.361 562.734C977.664 564.575 979.103 566.017 980.939 566.32C979.103 566.623 977.664 568.066 977.361 569.906C977.059 568.066 975.619 566.623 973.783 566.32C975.619 566.017 977.059 564.575 977.361 562.734Z" fill="white"/>
<path d="M982.983 490.647C980.098 490.171 977.836 487.904 977.361 485.012C976.886 487.904 974.624 490.171 971.739 490.647C974.624 491.124 976.886 493.39 977.361 496.282C977.836 493.39 980.098 491.124 982.983 490.647Z" fill="white"/>
<path d="M977.361 407.29C978.009 411.234 981.093 414.325 985.028 414.974C981.093 415.624 978.009 418.715 977.361 422.658C976.713 418.715 973.629 415.624 969.695 414.974C973.629 414.325 976.713 411.234 977.361 407.29Z" fill="white"/>
<path d="M987.072 339.301C982.088 338.479 978.182 334.563 977.361 329.568C976.54 334.563 972.634 338.479 967.65 339.301C972.634 340.124 976.54 344.039 977.361 349.035C978.182 344.039 982.088 340.124 987.072 339.301Z" fill="white"/>
<path d="M977.361 251.846C978.355 257.893 983.084 262.632 989.117 263.628C983.084 264.624 978.355 269.364 977.361 275.411C976.367 269.364 971.639 264.624 965.606 263.628C971.639 262.632 976.367 257.893 977.361 251.846Z" fill="white"/>
<path d="M991.161 187.955C984.078 186.786 978.528 181.223 977.361 174.124C976.194 181.223 970.643 186.786 963.561 187.955C970.643 189.125 976.194 194.688 977.361 201.787C978.528 194.688 984.078 189.125 991.161 187.955Z" fill="white"/>
<path d="M977.361 96.4019C978.701 104.552 985.074 110.94 993.206 112.282C985.074 113.625 978.701 120.013 977.361 128.163C976.022 120.013 969.648 113.625 961.517 112.282C969.648 110.94 976.022 104.552 977.361 96.4019Z" fill="white"/>
<path d="M995.25 36.6096C986.069 35.0939 978.873 27.8817 977.361 18.6799C975.849 27.8817 968.653 35.0939 959.472 36.6096C968.653 38.1253 975.849 45.3374 977.361 54.5392C978.873 45.3374 986.069 38.1253 995.25 36.6096Z" fill="white"/>
</g>
</svg>
