<svg width="750" height="439" viewBox="0 0 750 439" fill="none" xmlns="http://www.w3.org/2000/svg">
<g opacity="0.05">
<path d="M39.7228 425.255C32.7991 424.114 27.3725 418.685 26.2321 411.759C25.0916 418.685 19.6648 424.114 12.741 425.255C19.6648 426.395 25.0916 431.824 26.2321 438.75C27.3725 431.824 32.7991 426.395 39.7228 425.255Z" fill="black"/>
<path d="M41.65 368.297C33.7371 366.993 27.5352 360.789 26.2318 352.874C24.9285 360.789 18.7266 366.993 10.8137 368.297C18.7266 369.601 24.9285 375.805 26.2318 383.72C27.5352 375.805 33.7371 369.601 41.65 368.297Z" fill="black"/>
<path d="M26.2318 293.988C27.6981 302.893 34.6751 309.873 43.5771 311.339C34.6751 312.806 27.6981 319.786 26.2318 328.691C24.7655 319.786 17.7883 312.806 8.88636 311.339C17.7883 309.873 24.7655 302.893 26.2318 293.988Z" fill="black"/>
<path d="M45.5047 254.382C35.6136 252.752 27.8613 244.997 26.2321 235.103C24.6029 244.997 16.8505 252.752 6.95943 254.382C16.8505 256.012 24.6029 263.767 26.2321 273.661C27.8613 263.767 35.6136 256.012 45.5047 254.382Z" fill="black"/>
<path d="M26.2318 176.217C28.0239 187.101 36.5516 195.632 47.4318 197.424C36.5516 199.217 28.0239 207.747 26.2318 218.631C24.4397 207.747 15.9121 199.217 5.03188 197.424C15.9121 195.632 24.4397 187.101 26.2318 176.217Z" fill="black"/>
<path d="M49.3589 140.467C37.4897 138.511 28.1869 129.205 26.2318 117.332C24.2768 129.205 14.9738 138.511 3.10452 140.467C14.9738 142.422 24.2768 151.728 26.2318 163.602C28.1869 151.728 37.4896 142.422 49.3589 140.467Z" fill="black"/>
<path d="M26.2321 58.4463C28.35 71.309 38.4281 81.3904 51.2865 83.5091C38.4281 85.6277 28.35 95.7093 26.2321 108.572C24.1141 95.7093 14.036 85.6277 1.17758 83.5091C14.036 81.3904 24.1141 71.309 26.2321 58.4463Z" fill="black"/>
<path d="M53.2134 26.5516C39.3659 24.2699 28.5128 13.4129 26.2318 -0.439211C23.9509 13.4129 13.0976 24.2699 -0.749964 26.5516C13.0976 28.8332 23.9509 39.6901 26.2318 53.5423C28.5128 39.6901 39.3659 28.8333 53.2134 26.5516Z" fill="black"/>
<path d="M80.8111 412.59C81.8813 419.09 86.9739 424.184 93.4716 425.255C86.9739 426.325 81.8813 431.42 80.8111 437.919C79.7408 431.42 74.648 426.325 68.1503 425.255C74.648 424.184 79.7408 419.09 80.8111 412.59Z" fill="black"/>
<path d="M95.3691 368.297C87.8976 367.066 82.0416 361.208 80.8109 353.734C79.5801 361.208 73.7241 367.066 66.2526 368.297C73.7241 369.528 79.5801 375.386 80.8109 382.86C82.0416 375.386 87.8976 369.528 95.3691 368.297Z" fill="black"/>
<path d="M80.8109 294.878C82.202 303.326 88.8212 309.948 97.2666 311.339C88.8212 312.731 82.202 319.353 80.8109 327.801C79.4197 319.353 72.8004 312.731 64.3549 311.339C72.8004 309.948 79.4198 303.326 80.8109 294.878Z" fill="black"/>
<path d="M99.1646 254.382C89.7453 252.83 82.3626 245.445 80.8111 236.022C79.2596 245.445 71.8769 252.83 62.4576 254.382C71.8769 255.934 79.2596 263.319 80.8111 272.741C82.3626 263.319 89.7453 255.934 99.1646 254.382Z" fill="black"/>
<path d="M80.8111 177.166C82.523 187.563 90.6688 195.712 101.062 197.424C90.6688 199.137 82.523 207.285 80.8111 217.682C79.0991 207.285 70.9531 199.137 60.5599 197.424C70.9531 195.712 79.0991 187.563 80.8111 177.166Z" fill="black"/>
<path d="M102.96 140.467C91.5924 138.594 82.6832 129.681 80.8109 118.311C78.9386 129.681 70.0293 138.594 58.6621 140.467C70.0293 142.34 78.9386 151.252 80.8109 162.623C82.6832 151.252 91.5924 142.34 102.96 140.467Z" fill="black"/>
<path d="M80.8109 59.4547C82.8436 71.7999 92.5161 81.4757 104.857 83.5091C92.5161 85.5425 82.8436 95.2184 80.8109 107.564C78.7782 95.2184 69.1054 85.5425 56.7644 83.5091C69.1054 81.4756 78.7782 71.7999 80.8109 59.4547Z" fill="black"/>
<path d="M106.755 26.5516C93.4401 24.3577 83.0043 13.9182 80.8111 0.59888C78.6179 13.9182 68.1821 24.3577 54.8672 26.5516C68.1821 28.7455 78.6179 39.1848 80.8111 52.5042C83.0043 39.1848 93.4401 28.7455 106.755 26.5516Z" fill="black"/>
<path d="M135.39 413.42C136.39 419.494 141.149 424.254 147.22 425.255C141.149 426.255 136.39 431.015 135.39 437.089C134.39 431.015 129.631 426.255 123.56 425.255C129.631 424.254 134.39 419.494 135.39 413.42Z" fill="black"/>
<path d="M149.088 368.297C142.058 367.139 136.548 361.627 135.39 354.594C134.232 361.627 128.722 367.139 121.691 368.297C128.722 369.455 134.232 374.967 135.39 382C136.548 374.967 142.058 369.455 149.088 368.297Z" fill="black"/>
<path d="M135.39 295.768C136.706 303.759 142.967 310.023 150.956 311.339C142.967 312.656 136.706 318.919 135.39 326.911C134.074 318.919 127.812 312.656 119.823 311.339C127.812 310.023 134.074 303.759 135.39 295.768Z" fill="black"/>
<path d="M152.824 254.382C143.877 252.908 136.864 245.892 135.39 236.942C133.916 245.892 126.903 252.908 117.956 254.382C126.903 255.856 133.916 262.871 135.39 271.822C136.864 262.871 143.877 255.856 152.824 254.382Z" fill="black"/>
<path d="M135.39 178.115C137.022 188.025 144.786 195.792 154.692 197.424C144.786 199.057 137.022 206.823 135.39 216.733C133.758 206.823 125.994 199.057 116.088 197.424C125.994 195.792 133.758 188.025 135.39 178.115Z" fill="black"/>
<path d="M156.56 140.467C145.695 138.676 137.18 130.158 135.39 119.289C133.601 130.158 125.085 138.676 114.22 140.467C125.085 142.257 133.601 150.775 135.39 161.644C137.18 150.775 145.695 142.257 156.56 140.467Z" fill="black"/>
<path d="M135.39 60.4632C137.337 72.2908 146.604 81.5609 158.428 83.5091C146.604 85.4573 137.337 94.7275 135.39 106.555C133.442 94.7275 124.175 85.4573 112.351 83.5091C124.175 81.5609 133.442 72.2908 135.39 60.4632Z" fill="black"/>
<path d="M160.296 26.5516C147.514 24.4454 137.495 14.4237 135.39 1.63709C133.284 14.4237 123.266 24.4454 110.484 26.5516C123.266 28.6578 133.284 38.6795 135.39 51.4661C137.495 38.6795 147.514 28.6578 160.296 26.5516Z" fill="black"/>
<path d="M189.969 414.251C190.899 419.898 195.324 424.324 200.969 425.255C195.324 426.185 190.899 430.611 189.969 436.259C189.039 430.611 184.614 426.185 178.969 425.255C184.614 424.324 189.039 419.898 189.969 414.251Z" fill="black"/>
<path d="M202.808 368.297C196.219 367.211 191.054 362.045 189.969 355.454C188.884 362.045 183.719 367.211 177.13 368.297C183.719 369.383 188.884 374.549 189.969 381.14C191.054 374.549 196.219 369.383 202.808 368.297Z" fill="black"/>
<path d="M189.969 296.658C191.21 304.193 197.113 310.098 204.646 311.339C197.113 312.58 191.21 318.486 189.969 326.021C188.728 318.486 182.824 312.58 175.292 311.339C182.824 310.098 188.728 304.193 189.969 296.658Z" fill="black"/>
<path d="M206.484 254.382C198.008 252.985 191.365 246.34 189.969 237.861C188.573 246.34 181.93 252.985 173.454 254.382C181.93 255.778 188.573 262.424 189.969 270.903C191.365 262.424 198.008 255.778 206.484 254.382Z" fill="black"/>
<path d="M189.969 179.065C191.521 188.487 198.903 195.872 208.323 197.424C198.903 198.976 191.521 206.361 189.969 215.784C188.418 206.361 181.035 198.976 171.615 197.424C181.035 195.872 188.418 188.487 189.969 179.065Z" fill="black"/>
<path d="M210.161 140.467C199.798 138.759 191.676 130.634 189.969 120.268C188.262 130.634 180.14 138.759 169.777 140.467C180.14 142.174 188.262 150.299 189.969 160.665C191.676 150.299 199.798 142.174 210.161 140.467Z" fill="black"/>
<path d="M189.969 61.4716C191.832 72.7817 200.693 81.6462 211.999 83.5091C200.693 85.372 191.832 94.2366 189.969 105.547C188.107 94.2366 179.245 85.372 167.939 83.5091C179.245 81.6462 188.107 72.7817 189.969 61.4716Z" fill="black"/>
<path d="M213.837 26.5516C201.588 24.5332 191.987 14.929 189.969 2.67518C187.951 14.929 178.35 24.5332 166.1 26.5516C178.35 28.57 187.951 38.1742 189.969 50.428C191.987 38.1742 201.588 28.57 213.837 26.5516Z" fill="black"/>
<path d="M244.548 415.081C245.408 420.302 249.499 424.395 254.718 425.255C249.499 426.115 245.408 430.207 244.548 435.428C243.688 430.207 239.598 426.115 234.378 425.255C239.598 424.395 243.688 420.302 244.548 415.081Z" fill="black"/>
<path d="M256.527 368.297C250.379 367.284 245.56 362.464 244.548 356.314C243.535 362.464 238.717 367.284 232.569 368.297C238.717 369.31 243.535 374.13 244.548 380.28C245.56 374.13 250.379 369.31 256.527 368.297Z" fill="black"/>
<path d="M244.548 297.547C245.713 304.626 251.259 310.173 258.335 311.339C251.259 312.505 245.713 318.053 244.548 325.131C243.382 318.053 237.836 312.505 230.76 311.339C237.836 310.173 243.382 304.626 244.548 297.547Z" fill="black"/>
<path d="M260.144 254.382C252.14 253.063 245.866 246.787 244.548 238.781C243.229 246.787 236.956 253.063 228.952 254.382C236.956 255.701 243.229 261.976 244.548 269.983C245.866 261.976 252.14 255.701 260.144 254.382Z" fill="black"/>
<path d="M244.548 180.014C246.019 188.949 253.02 195.952 261.953 197.424C253.02 198.896 246.019 205.899 244.548 214.835C243.076 205.899 236.076 198.896 227.143 197.424C236.076 195.952 243.076 188.949 244.548 180.014Z" fill="black"/>
<path d="M263.761 140.467C253.901 138.842 246.172 131.111 244.548 121.247C242.924 131.111 235.195 138.842 225.335 140.467C235.195 142.091 242.924 149.823 244.548 159.686C246.172 149.823 253.901 142.091 263.761 140.467Z" fill="black"/>
<path d="M244.548 62.4801C246.325 73.2726 254.781 81.7314 265.57 83.5091C254.781 85.2868 246.325 93.7457 244.548 104.538C242.771 93.7457 234.315 85.2868 223.526 83.5091C234.315 81.7314 242.771 73.2726 244.548 62.4801Z" fill="black"/>
<path d="M267.379 26.5516C255.662 24.621 246.478 15.4343 244.548 3.71327C242.618 15.4343 233.435 24.621 221.717 26.5516C233.435 28.4823 242.618 37.6689 244.548 49.3899C246.478 37.6689 255.662 28.4823 267.379 26.5516Z" fill="black"/>
<path d="M299.127 415.912C299.916 420.707 303.673 424.465 308.467 425.255C303.673 426.044 299.916 429.803 299.127 434.597C298.337 429.803 294.58 426.044 289.787 425.255C294.58 424.465 298.337 420.707 299.127 415.912Z" fill="black"/>
<path d="M310.246 368.297C304.539 367.357 300.067 362.883 299.127 357.174C298.187 362.883 293.714 367.357 288.008 368.297C293.714 369.237 298.187 373.711 299.127 379.42C300.067 373.711 304.539 369.237 310.246 368.297Z" fill="black"/>
<path d="M299.127 298.437C300.217 305.059 305.405 310.249 312.025 311.339C305.405 312.43 300.217 317.62 299.127 324.242C298.036 317.62 292.848 312.43 286.229 311.339C292.848 310.249 298.036 305.059 299.127 298.437Z" fill="black"/>
<path d="M313.804 254.382C306.271 253.141 300.368 247.235 299.127 239.7C297.886 247.235 291.982 253.141 284.45 254.382C291.982 255.623 297.886 261.529 299.127 269.064C300.368 261.529 306.271 255.623 313.804 254.382Z" fill="black"/>
<path d="M299.127 180.963C300.518 189.411 307.137 196.033 315.583 197.424C307.137 198.816 300.518 205.437 299.127 213.886C297.736 205.437 291.117 198.816 282.671 197.424C291.117 196.033 297.736 189.411 299.127 180.963Z" fill="black"/>
<path d="M317.362 140.467C308.003 138.925 300.668 131.587 299.127 122.226C297.585 131.587 290.251 138.925 280.892 140.467C290.251 142.009 297.585 149.346 299.127 158.708C300.668 149.346 308.003 142.009 317.362 140.467Z" fill="black"/>
<path d="M299.127 63.4885C300.819 73.7635 308.869 81.8166 319.141 83.5091C308.869 85.2015 300.819 93.2548 299.127 103.53C297.435 93.2548 289.385 85.2015 279.113 83.5091C289.385 81.8166 297.435 73.7635 299.127 63.4885Z" fill="black"/>
<path d="M320.92 26.5516C309.735 24.7087 300.969 15.9397 299.127 4.75136C297.285 15.9397 288.519 24.7087 277.334 26.5516C288.519 28.3945 297.285 37.1635 299.127 48.3517C300.969 37.1635 309.735 28.3945 320.92 26.5516Z" fill="black"/>
<path d="M353.706 416.742C354.425 421.111 357.848 424.535 362.216 425.255C357.848 425.974 354.425 429.398 353.706 433.767C352.986 429.398 349.564 425.974 345.196 425.255C349.564 424.535 352.986 421.111 353.706 416.742Z" fill="black"/>
<path d="M363.965 368.297C358.7 367.429 354.573 363.301 353.706 358.035C352.839 363.301 348.712 367.429 343.447 368.297C348.712 369.165 352.839 373.293 353.706 378.559C354.573 373.293 358.7 369.165 363.965 368.297Z" fill="black"/>
<path d="M353.706 299.327C354.721 305.492 359.551 310.324 365.714 311.339C359.551 312.355 354.721 317.187 353.706 323.352C352.691 317.187 347.86 312.355 341.698 311.339C347.86 310.324 352.691 305.492 353.706 299.327Z" fill="black"/>
<path d="M367.464 254.382C360.403 253.218 354.869 247.683 353.706 240.62C352.543 247.683 347.009 253.218 339.948 254.382C347.009 255.545 352.543 261.081 353.706 268.144C354.869 261.081 360.403 255.545 367.464 254.382Z" fill="black"/>
<path d="M353.706 181.912C355.017 189.873 361.255 196.113 369.213 197.424C361.255 198.736 355.017 204.975 353.706 212.937C352.395 204.975 346.157 198.736 338.199 197.424C346.157 196.113 352.395 189.873 353.706 181.912Z" fill="black"/>
<path d="M370.962 140.467C362.106 139.007 355.165 132.064 353.706 123.205C352.247 132.064 345.306 139.007 336.449 140.467C345.306 141.926 352.247 148.87 353.706 157.729C355.165 148.87 362.106 141.926 370.962 140.467Z" fill="black"/>
<path d="M353.706 64.497C355.313 74.2544 362.958 81.9019 372.712 83.5091C362.958 85.1163 355.313 92.7639 353.706 102.521C352.099 92.7639 344.454 85.1163 334.7 83.5091C344.454 81.9019 352.099 74.2544 353.706 64.497Z" fill="black"/>
<path d="M374.461 26.5516C363.809 24.7965 355.46 16.445 353.706 5.78949C351.951 16.445 343.603 24.7965 332.951 26.5516C343.603 28.3067 351.951 36.6582 353.706 47.3137C355.46 36.6582 363.809 28.3067 374.461 26.5516Z" fill="black"/>
<path d="M408.285 417.573C408.934 421.515 412.023 424.605 415.964 425.255C412.023 425.904 408.934 428.994 408.285 432.937C407.636 428.994 404.547 425.904 400.606 425.255C404.547 424.605 407.636 421.515 408.285 417.573Z" fill="black"/>
<path d="M417.684 368.297C412.86 367.502 409.079 363.72 408.285 358.895C407.49 363.72 403.71 367.502 398.886 368.297C403.71 369.092 407.49 372.874 408.285 377.699C409.079 372.874 412.86 369.092 417.684 368.297Z" fill="black"/>
<path d="M408.285 300.217C409.225 305.925 413.697 310.399 419.404 311.339C413.697 312.28 409.225 316.754 408.285 322.462C407.345 316.754 402.872 312.28 397.166 311.339C402.872 310.399 407.345 305.925 408.285 300.217Z" fill="black"/>
<path d="M421.124 254.382C414.535 253.296 409.37 248.13 408.285 241.539C407.2 248.13 402.036 253.296 395.447 254.382C402.036 255.468 407.2 260.634 408.285 267.225C409.37 260.634 414.535 255.468 421.124 254.382Z" fill="black"/>
<path d="M408.285 182.861C409.516 190.335 415.372 196.193 422.843 197.424C415.372 198.655 409.516 204.513 408.285 211.987C407.054 204.513 401.198 198.655 393.727 197.424C401.198 196.193 407.054 190.335 408.285 182.861Z" fill="black"/>
<path d="M424.563 140.467C416.209 139.09 409.661 132.54 408.285 124.183C406.909 132.54 400.361 139.09 392.007 140.467C400.361 141.843 406.909 148.393 408.285 156.75C409.661 148.393 416.209 141.843 424.563 140.467Z" fill="black"/>
<path d="M408.285 65.5055C409.807 74.7453 417.046 81.9872 426.283 83.5091C417.046 85.031 409.807 92.273 408.285 101.513C406.764 92.273 399.524 85.031 390.287 83.5091C399.524 81.9872 406.764 74.7453 408.285 65.5055Z" fill="black"/>
<path d="M428.003 26.5516C417.883 24.8842 409.952 16.9503 408.285 6.82758C406.618 16.9503 398.687 24.8842 388.568 26.5516C398.687 28.219 406.618 36.1528 408.285 46.2756C409.952 36.1528 417.883 28.219 428.003 26.5516Z" fill="black"/>
<path d="M462.864 418.403C463.443 421.919 466.198 424.675 469.713 425.255C466.198 425.834 463.443 428.59 462.864 432.106C462.285 428.59 459.53 425.834 456.015 425.255C459.53 424.675 462.285 421.919 462.864 418.403Z" fill="black"/>
<path d="M471.403 368.297C467.021 367.575 463.586 364.139 462.864 359.755C462.142 364.139 458.707 367.575 454.325 368.297C458.707 369.019 462.142 372.455 462.864 376.839C463.586 372.455 467.021 369.019 471.403 368.297Z" fill="black"/>
<path d="M462.864 301.107C463.729 306.358 467.844 310.474 473.093 311.339C467.844 312.204 463.729 316.321 462.864 321.572C461.999 316.321 457.885 312.204 452.635 311.339C457.885 310.474 461.999 306.358 462.864 301.107Z" fill="black"/>
<path d="M474.784 254.382C468.666 253.374 463.872 248.578 462.864 242.459C461.857 248.578 457.062 253.374 450.945 254.382C457.062 255.39 461.857 260.186 462.864 266.305C463.872 260.186 468.666 255.39 474.784 254.382Z" fill="black"/>
<path d="M462.864 183.81C464.015 190.797 469.489 196.273 476.474 197.424C469.489 198.575 464.015 204.051 462.864 211.038C461.714 204.051 456.239 198.575 449.255 197.424C456.239 196.273 461.714 190.797 462.864 183.81Z" fill="black"/>
<path d="M478.164 140.467C470.312 139.173 464.157 133.017 462.864 125.162C461.571 133.017 455.417 139.173 447.565 140.467C455.417 141.76 461.571 147.917 462.864 155.771C464.157 147.917 470.312 141.76 478.164 140.467Z" fill="black"/>
<path d="M462.864 66.5139C464.3 75.2362 471.135 82.0724 479.854 83.5091C471.135 84.9458 464.3 91.7821 462.864 100.504C461.428 91.7821 454.594 84.9458 445.875 83.5091C454.594 82.0724 461.428 75.2362 462.864 66.5139Z" fill="black"/>
<path d="M481.544 26.5516C471.957 24.972 464.443 17.4556 462.864 7.86567C461.285 17.4556 453.771 24.972 444.184 26.5516C453.771 28.1312 461.285 35.6475 462.864 45.2375C464.443 35.6475 471.957 28.1312 481.544 26.5516Z" fill="black"/>
<path d="M517.443 419.234C517.952 422.324 520.373 424.746 523.462 425.255C520.373 425.764 517.952 428.185 517.443 431.276C516.934 428.185 514.513 425.764 511.424 425.255C514.513 424.746 516.934 422.324 517.443 419.234Z" fill="black"/>
<path d="M519.964 363.136C518.234 365.572 515.145 366.634 512.284 365.776C514.719 367.506 515.78 370.596 514.923 373.458C516.652 371.022 519.742 369.961 522.602 370.818C520.168 369.088 519.106 365.998 519.964 363.136Z" fill="black"/>
<path d="M513.144 306.297C515.776 308.521 519.533 308.82 522.483 307.039C520.26 309.672 519.962 313.43 521.742 316.382C519.11 314.157 515.353 313.859 512.402 315.64C514.626 313.007 514.924 309.249 513.144 306.297Z" fill="black"/>
<path d="M525.004 250.941C520.833 252.068 516.408 250.409 514.004 246.819C515.13 250.991 513.472 255.417 509.882 257.822C514.053 256.696 518.478 258.354 520.883 261.945C519.757 257.773 521.414 253.346 525.004 250.941Z" fill="black"/>
<path d="M514.863 187.34C517.039 192.297 522.132 195.316 527.524 194.844C522.568 197.021 519.551 202.115 520.023 207.509C517.846 202.551 512.754 199.533 507.362 200.005C512.318 197.828 515.335 192.734 514.863 187.34Z" fill="black"/>
<path d="M530.044 138.746C523.432 138.564 517.671 134.185 515.723 127.861C515.541 134.476 511.164 140.239 504.842 142.187C511.454 142.37 517.215 146.748 519.163 153.072C519.345 146.457 523.722 140.695 530.044 138.746Z" fill="black"/>
<path d="M516.583 68.3824C518.303 76.073 524.731 81.8118 532.565 82.6491C524.877 84.3692 519.14 90.7998 518.303 98.6358C516.583 90.9452 510.155 85.2066 502.322 84.3693C510.01 82.6491 515.746 76.2184 516.583 68.3824Z" fill="black"/>
<path d="M535.085 26.5516C526.031 25.0598 518.934 17.9609 517.443 8.90376C515.952 17.9609 508.855 25.0598 499.801 26.5516C508.855 28.0435 515.952 35.1422 517.443 44.1994C518.934 35.1422 526.031 28.0435 535.085 26.5516Z" fill="black"/>
<path d="M572.022 420.064C572.461 422.728 574.548 424.816 577.211 425.255C574.548 425.693 572.461 427.781 572.022 430.445C571.583 427.781 569.496 425.693 566.833 425.255C569.496 424.816 571.583 422.728 572.022 420.064Z" fill="black"/>
<path d="M574.394 372.746C573.553 370.262 574.388 367.518 576.47 365.924C573.987 366.766 571.244 365.931 569.65 363.848C570.492 366.332 569.657 369.076 567.575 370.67C570.058 369.828 572.801 370.663 574.394 372.746Z" fill="black"/>
<path d="M575.728 306.594C574.227 309.343 574.645 312.743 576.766 315.047C574.018 313.545 570.619 313.963 568.316 316.085C569.817 313.336 569.399 309.936 567.278 307.632C570.026 309.134 573.425 308.716 575.728 306.594Z" fill="black"/>
<path d="M579.138 257.348C575.737 255.224 574.067 251.167 574.987 247.263C572.864 250.666 568.809 252.336 564.906 251.416C568.308 253.54 569.977 257.596 569.057 261.5C571.18 258.098 575.236 256.427 579.138 257.348Z" fill="black"/>
<path d="M574.246 187.933C573.907 192.992 576.829 197.705 581.51 199.649C576.453 199.309 571.742 202.232 569.798 206.916C570.138 201.856 567.216 197.144 562.534 195.2C567.591 195.539 572.303 192.616 574.246 187.933Z" fill="black"/>
<path d="M583.882 141.95C577.921 140.186 573.746 134.817 573.505 128.603C571.741 134.566 566.374 138.742 560.162 138.984C566.124 140.748 570.298 146.117 570.54 152.331C572.303 146.367 577.67 142.192 583.882 141.95Z" fill="black"/>
<path d="M572.764 69.2723C573.586 76.6416 579.013 82.6666 586.254 84.2507C578.888 85.0737 572.865 90.5021 571.281 97.746C570.458 90.3767 565.032 84.3517 557.79 82.7676C565.157 81.9447 571.18 76.5163 572.764 69.2723Z" fill="black"/>
<path d="M588.626 26.5516C580.105 25.1475 573.426 18.4664 572.022 9.94197C570.619 18.4664 563.94 25.1475 555.418 26.5516C563.94 27.9557 570.619 34.6369 572.022 43.1613C573.426 34.6369 580.105 27.9557 588.626 26.5516Z" fill="black"/>
<path d="M626.601 420.895C626.969 423.132 628.723 424.886 630.96 425.255C628.723 425.623 626.969 427.377 626.601 429.615C626.233 427.377 624.479 425.623 622.242 425.255C624.479 424.886 626.233 423.132 626.601 420.895Z" fill="black"/>
<path d="M632.561 368.297C629.502 367.793 627.105 365.395 626.601 362.335C626.097 365.395 623.7 367.793 620.642 368.297C623.7 368.801 626.097 371.199 626.601 374.259C627.105 371.199 629.502 368.801 632.561 368.297Z" fill="black"/>
<path d="M626.601 303.776C627.24 307.658 630.282 310.7 634.162 311.339C630.282 311.979 627.24 315.021 626.601 318.903C625.962 315.021 622.921 311.979 619.04 311.339C622.921 310.7 625.962 307.658 626.601 303.776Z" fill="black"/>
<path d="M635.763 254.382C631.061 253.607 627.376 249.921 626.601 245.217C625.827 249.921 622.142 253.607 617.44 254.382C622.142 255.157 625.827 258.843 626.601 263.547C627.376 258.843 631.061 255.157 635.763 254.382Z" fill="black"/>
<path d="M626.601 186.658C627.511 192.183 631.84 196.514 637.364 197.424C631.84 198.334 627.511 202.665 626.601 208.191C625.691 202.665 621.362 198.334 615.838 197.424C621.362 196.514 625.691 192.183 626.601 186.658Z" fill="black"/>
<path d="M638.965 140.467C632.62 139.421 627.646 134.446 626.601 128.098C625.556 134.446 620.583 139.421 614.237 140.467C620.583 141.512 625.556 146.487 626.601 152.835C627.646 146.487 632.62 141.512 638.965 140.467Z" fill="black"/>
<path d="M626.601 69.5392C627.782 76.7088 633.399 82.3282 640.567 83.5091C633.399 84.6901 627.782 90.3094 626.601 97.4791C625.421 90.3094 619.803 84.6901 612.636 83.5091C619.803 82.3282 625.421 76.7088 626.601 69.5392Z" fill="black"/>
<path d="M642.167 26.5516C634.178 25.2353 627.917 18.9717 626.601 10.9801C625.285 18.9717 619.024 25.2353 611.035 26.5516C619.024 27.868 625.285 34.1316 626.601 42.1232C627.917 34.1316 634.178 27.868 642.167 26.5516Z" fill="black"/>
<path d="M681.18 421.725C681.478 423.536 682.898 424.956 684.708 425.255C682.898 425.553 681.478 426.973 681.18 428.784C680.882 426.973 679.463 425.553 677.652 425.255C679.463 424.956 680.882 423.536 681.18 421.725Z" fill="black"/>
<path d="M686.28 368.297C683.663 367.866 681.611 365.814 681.18 363.195C680.749 365.814 678.698 367.866 676.08 368.297C678.698 368.728 680.749 370.78 681.18 373.399C681.611 370.78 683.663 368.728 686.28 368.297Z" fill="black"/>
<path d="M681.18 304.666C681.744 308.091 684.428 310.775 687.852 311.339C684.428 311.904 681.744 314.588 681.18 318.013C680.616 314.588 677.933 311.904 674.509 311.339C677.933 310.775 680.616 308.091 681.18 304.666Z" fill="black"/>
<path d="M689.423 254.382C685.193 253.685 681.877 250.368 681.18 246.136C680.484 250.368 677.168 253.685 672.938 254.382C677.168 255.079 680.484 258.396 681.18 262.627C681.877 258.396 685.193 255.079 689.423 254.382Z" fill="black"/>
<path d="M681.18 187.607C682.01 192.645 685.958 196.594 690.994 197.424C685.958 198.254 682.01 202.203 681.18 207.242C680.351 202.203 676.403 198.254 671.366 197.424C676.403 196.594 680.351 192.645 681.18 187.607Z" fill="black"/>
<path d="M692.566 140.467C686.723 139.504 682.143 134.923 681.18 129.077C680.218 134.923 675.638 139.504 669.795 140.467C675.638 141.43 680.218 146.011 681.18 151.856C682.143 146.011 686.723 141.43 692.566 140.467Z" fill="black"/>
<path d="M681.18 70.5477C682.276 77.1997 687.488 82.4134 694.138 83.5091C687.488 84.6048 682.276 89.8186 681.18 96.4706C680.085 89.8186 674.873 84.6048 668.223 83.5091C674.873 82.4134 680.085 77.1997 681.18 70.5477Z" fill="black"/>
<path d="M695.709 26.5516C688.252 25.3231 682.408 19.477 681.18 12.0182C679.952 19.477 674.108 25.3231 666.651 26.5516C674.108 27.7802 679.952 33.6263 681.18 41.0851C682.408 33.6263 688.252 27.7802 695.709 26.5516Z" fill="black"/>
<path d="M735.759 422.555C735.987 423.941 737.072 425.026 738.457 425.255C737.072 425.483 735.987 426.569 735.759 427.954C735.531 426.569 734.446 425.483 733.061 425.255C734.446 425.026 735.531 423.941 735.759 422.555Z" fill="black"/>
<path d="M739.999 368.297C737.823 367.938 736.118 366.232 735.759 364.056C735.401 366.232 733.695 367.938 731.519 368.297C733.695 368.656 735.401 370.362 735.759 372.538C736.118 370.362 737.823 368.656 739.999 368.297Z" fill="black"/>
<path d="M735.759 305.556C736.248 308.524 738.574 310.85 741.541 311.339C738.574 311.828 736.248 314.155 735.759 317.123C735.271 314.155 732.945 311.828 729.977 311.339C732.945 310.85 735.271 308.524 735.759 305.556Z" fill="black"/>
<path d="M743.083 254.382C739.324 253.763 736.378 250.816 735.759 247.056C735.14 250.816 732.194 253.763 728.435 254.382C732.194 255.001 735.14 257.948 735.759 261.708C736.378 257.948 739.324 255.001 743.083 254.382Z" fill="black"/>
<path d="M735.759 188.556C736.509 193.107 740.075 196.675 744.625 197.424C740.075 198.174 736.509 201.741 735.759 206.293C735.01 201.741 731.444 198.174 726.894 197.424C731.444 196.675 735.01 193.107 735.759 188.556Z" fill="black"/>
<path d="M746.166 140.467C740.825 139.587 736.639 135.399 735.759 130.056C734.879 135.399 730.693 139.587 725.352 140.467C730.693 141.347 734.879 145.535 735.759 150.878C736.639 145.535 740.825 141.347 746.166 140.467Z" fill="black"/>
<path d="M735.759 71.5561C736.769 77.6906 741.576 82.4987 747.708 83.5091C741.576 84.5196 736.769 89.3278 735.759 95.4623C734.749 89.3278 729.943 84.5196 723.81 83.5091C729.943 82.4987 734.749 77.6906 735.759 71.5561Z" fill="black"/>
<path d="M749.25 26.5516C742.326 25.4108 736.9 19.9823 735.759 13.0562C734.619 19.9823 729.192 25.4108 722.268 26.5516C729.192 27.6925 734.619 33.1209 735.759 40.0469C736.9 33.1209 742.326 27.6925 749.25 26.5516Z" fill="black"/>
</g>
</svg>
