<svg width="12" height="22" viewBox="0 0 12 22" fill="none" xmlns="http://www.w3.org/2000/svg">
<path fill-rule="evenodd" clip-rule="evenodd" d="M1.87872 8.39401C1.73028 8.62741 1.42071 8.69675 1.18829 8.54831C1.03888 8.45261 0.956844 8.2905 0.956844 8.12546C0.956844 8.03366 0.982235 7.94089 1.03497 7.8569L5.56622 0.742645C5.65802 0.59909 5.8172 0.5112 5.98809 0.5112C6.15899 0.5112 6.31817 0.59909 6.40997 0.742645L10.9412 7.8569C11.0877 8.08835 11.0203 8.39987 10.7879 8.54831C10.5555 8.69675 10.2459 8.62741 10.0975 8.39401L6.4881 2.72703L6.4881 21.4651L5.4881 21.4651L5.4881 2.72702L1.87872 8.39401Z" fill="black"/>
</svg>
