<svg width="68" height="102" viewBox="0 0 68 102" fill="none" xmlns="http://www.w3.org/2000/svg">
<path d="M26.5611 15.9085C28.6641 13.8054 27.8219 10.2012 24.9917 9.28718C20.5763 7.86114 15.5315 8.89823 12.0314 12.3983C8.53148 15.8983 7.49446 20.943 8.9205 25.3584C9.83462 28.1886 13.4388 29.0307 15.5419 26.9277C12.5038 23.8896 12.5038 18.9468 15.5419 15.9088C18.5799 12.8706 23.5231 12.8704 26.5611 15.9085Z" fill="#B91D22"/>
<path d="M59.8114 30.7669L32.1547 58.4236C25.9813 64.597 15.9575 64.6176 9.80959 58.4697C3.66172 52.3218 3.68227 42.2979 9.85557 36.1246L11.6108 34.3694L10.0541 32.8127C3.78939 26.548 3.68092 16.1862 10.0521 10.0299C16.2403 4.05037 26.1384 4.11477 32.2467 10.2231C34.2681 8.20163 33.8588 4.7813 31.3769 3.36285C23.4355 -1.17592 13.1172 -0.0593767 6.34516 6.71265C-1.20188 14.2596 -1.72516 26.2114 4.77631 34.3691C-1.72762 42.5239 -1.22438 54.4566 6.29916 61.9802C14.1711 69.852 26.8679 70.0354 35.016 62.5511L35.0321 62.5671L59.674 37.9251C64.1723 44.1124 63.6326 52.8473 58.0563 58.4236C55.1383 61.3416 51.3133 62.9576 47.3222 63.0636C44.7544 63.1318 42.5639 64.9459 41.9609 67.4428C49.1217 69.1718 56.5048 67.0708 61.6768 61.8231C69.7308 53.6512 69.4709 40.4263 61.3576 32.313L59.8114 30.7669Z" fill="#B91D22"/>
<path d="M29.574 40.96L25.98 44.3868L26.6845 45.0912L30.1058 48.5125C32.0445 50.4512 35.1878 50.4512 37.1266 48.5125L30.1949 41.5808L29.574 40.96Z" fill="#B91D22"/>
<path d="M18.1078 29.4856C16.1691 31.4243 16.1691 34.5676 18.1078 36.5064L48.979 5.63476C52.4044 6.09589 55.5945 7.66889 58.0564 10.1307C61.0001 13.0744 62.6174 16.9327 62.6999 20.9556C62.7525 23.5204 64.5597 25.7158 67.0504 26.3307C68.8144 19.1865 66.7646 11.8182 61.5668 6.62039C57.9935 3.04702 53.2516 0.899275 48.2142 0.57267L47.0934 0.5L20.3312 27.2622L18.1078 29.4856Z" fill="#B91D22"/>
<path d="M57.0326 14.7437L53.5219 11.233C53.3223 11.0334 53.0516 10.9214 52.7696 10.9214C52.7655 10.9214 52.7613 10.9214 52.757 10.9215C52.4705 10.9249 52.1974 11.0437 51.9998 11.2511L11.7924 53.4195C11.3938 53.8377 11.4017 54.4974 11.8101 54.9059L13.3596 56.4554C13.5671 56.6629 13.8394 56.7671 14.112 56.7671C14.376 56.7671 14.6403 56.6693 14.846 56.4731L57.0145 16.2658C57.2219 16.0681 57.3408 15.7951 57.3442 15.5086C57.3475 15.2221 57.2352 14.9463 57.0326 14.7437Z" fill="#EFB947"/>
<path d="M47.4389 17.5757L44.0117 21.17L47.0952 24.2535L50.6895 20.8264L47.4389 17.5757Z" fill="white"/>
<path d="M2.50472 91.805C2.09747 91.805 1.89385 91.6014 1.89385 91.1942V85.3644C1.82598 85.4619 1.71915 85.5969 1.57399 85.7717C1.49671 85.8684 1.43823 85.9417 1.39993 85.9901C1.20571 86.2125 1.03099 86.3167 0.876428 86.3026C0.721192 86.2878 0.56595 86.1594 0.411386 85.9168C0.294455 85.7334 0.24406 85.568 0.258172 85.4229C0.272957 85.2777 0.357636 85.1272 0.512872 84.972C1.26889 84.1582 1.92745 83.2375 2.48993 82.21C2.6156 81.968 2.79303 81.8007 3.02084 81.7086C3.24866 81.6166 3.48788 81.6193 3.74056 81.716L3.90051 81.7738C4.32657 81.0763 4.67534 80.1798 4.94684 79.0844C5.04361 78.6678 5.2862 78.5031 5.67395 78.5898C6.06171 78.6772 6.21158 78.9097 6.12489 79.288C6.08592 79.4433 6.01736 79.6758 5.92059 79.9856H8.55221C8.94937 79.9856 9.14829 80.1845 9.14829 80.5817C9.14829 80.9889 8.94937 81.1925 8.55221 81.1925H7.53478V83.2133H8.5959C9.00247 83.2133 9.20677 83.4169 9.20677 83.8235C9.20677 84.2401 9.00247 84.4484 8.5959 84.4484H7.53478V85.9753H8.55221C8.93929 85.9753 9.13419 86.1695 9.13419 86.5566C9.13419 86.9443 8.93929 87.1385 8.55221 87.1385H7.53478V89.3334L8.75585 89.1586C9.15301 89.1008 9.36132 89.2756 9.38081 89.6821C9.39089 90.0309 9.21617 90.2345 8.85731 90.293C7.34527 90.545 5.84331 90.7775 4.35076 90.9906C4.02147 91.0389 3.81314 90.8743 3.72578 90.4966C3.61893 90.0504 3.78894 89.8085 4.23449 89.7695L4.32185 89.7547V85.9027C4.32185 85.5633 4.4959 85.394 4.84535 85.394C5.18405 85.394 5.35409 85.5633 5.35409 85.9027V89.6243L6.34263 89.4933V84.4484H4.62695C4.22038 84.4484 4.01609 84.2401 4.01609 83.8235C4.01609 83.4169 4.22038 83.2133 4.62695 83.2133H6.34263V81.1925H5.48512C5.35878 81.5124 5.21362 81.8222 5.0483 82.1226C4.93272 82.3363 4.76741 82.4667 4.55438 82.5151C4.34135 82.5641 4.12294 82.5151 3.90051 82.3699C3.88035 82.3504 3.85212 82.3316 3.81314 82.3114C3.52216 82.8739 3.28963 83.2953 3.11558 83.5762V91.1942C3.11558 91.6014 2.91129 91.805 2.50472 91.805ZM0.556543 81.7738C0.342841 81.4445 0.381831 81.1489 0.672815 80.8868C1.29309 80.3055 1.85086 79.6516 2.3448 78.9245C2.52826 78.6241 2.79975 78.5367 3.15861 78.663C3.60483 78.8176 3.70628 79.0945 3.46369 79.4916C3.1438 79.9473 2.81989 80.3639 2.48993 80.7416C2.10218 81.1972 1.7393 81.5803 1.39993 81.8901C1.08005 82.1811 0.798469 82.1421 0.556543 81.7738ZM10.2242 91.8192C9.81695 91.8192 9.61333 91.6202 9.61333 91.2231V80.5091C9.61333 80.2282 9.70068 80.0004 9.87473 79.8257C10.0495 79.6516 10.2773 79.5642 10.5589 79.5642H12.4775C12.7483 79.5642 12.9647 79.6442 13.1246 79.8041C13.2846 79.9641 13.3639 80.1798 13.3639 80.4506V88.3596C13.3639 88.9503 13.2281 89.3334 12.9573 89.5081C12.7631 89.6338 12.5258 89.711 12.2449 89.7406C11.7698 89.7601 11.4795 89.5948 11.3727 89.246C11.2947 88.994 11.3075 88.8125 11.409 88.701C11.5104 88.5894 11.702 88.5336 11.9835 88.5336H12.0118C12.1186 88.5336 12.1717 88.4665 12.1717 88.33V81.12C12.1717 80.8868 12.0561 80.7705 11.8236 80.7705H11.1691C10.9365 80.7705 10.8203 80.8868 10.8203 81.12V91.2231C10.8203 91.6202 10.6214 91.8192 10.2242 91.8192Z" fill="#B91D22"/>
<path d="M18.7574 83.3586C18.4671 82.9514 18.5881 82.6268 19.121 82.3849C20.08 81.9292 20.9912 81.3816 21.8541 80.7418C22.6968 80.1121 23.3903 79.477 23.9333 78.8373C24.02 78.7311 24.1457 78.6391 24.311 78.5611C24.4857 78.4838 24.6598 78.4448 24.8338 78.4448H25.0381C25.3963 78.4448 25.692 78.5712 25.9245 78.8232C26.5932 79.5207 27.3781 80.1746 28.2799 80.7855C29.1421 81.3862 30.0339 81.8856 30.9545 82.2827C31.2354 82.3896 31.4001 82.5206 31.4492 82.6752C31.4975 82.8304 31.4391 83.0293 31.2744 83.2713C31.0325 83.62 30.7167 83.7074 30.3296 83.5333C29.2537 83.0004 28.2114 82.3701 27.204 81.643V82.0502C27.204 82.2538 27.1025 82.3553 26.8982 82.3553H23.4535C23.2593 82.3553 23.1014 82.2948 22.9804 82.1739C22.8594 82.0529 22.7989 81.8956 22.7989 81.7014V81.6578C21.8393 82.3748 20.8071 83.0145 19.7023 83.5764C19.295 83.7612 18.9805 83.6879 18.7574 83.3586ZM30.0675 91.689C27.3539 91.1265 25.4447 89.8712 24.3399 87.9236H22.2029V90.191C22.3487 90.1816 22.5664 90.1621 22.8567 90.1332C23.807 90.0365 24.524 89.9639 25.0085 89.9148C25.4346 89.8664 25.6483 90.0506 25.6483 90.4672C25.6483 90.8261 25.4595 91.0297 25.0811 91.0781C22.6585 91.3496 20.967 91.5337 20.0074 91.6305C19.8138 91.6399 19.6734 91.6016 19.586 91.5142C19.5087 91.4363 19.455 91.2911 19.4267 91.0781C19.3582 90.6614 19.5423 90.4289 19.9792 90.3805L20.8797 90.3073V84.0125C20.8797 83.7316 20.967 83.5038 21.1417 83.3297C21.3165 83.155 21.5436 83.0676 21.8245 83.0676H28.2214C28.5023 83.0676 28.7302 83.155 28.9049 83.3297C29.0796 83.5038 29.1663 83.7316 29.1663 84.0125V87.7052C29.3021 87.6179 29.4331 87.5312 29.5594 87.4438C29.8014 87.2597 30.0628 87.2644 30.3444 87.4579C30.7314 87.7395 30.7267 88.0157 30.3296 88.2865C29.5635 88.7717 28.7544 89.222 27.9016 89.6386C28.6287 89.9975 29.4862 90.2737 30.4747 90.4672C31.2019 90.5741 31.3907 90.8839 31.0419 91.398C30.8477 91.6789 30.5231 91.7756 30.0675 91.689ZM22.2029 84.9869H27.8149V84.3908C27.8149 84.1583 27.6979 84.0421 27.4654 84.0421H22.5516C22.3191 84.0421 22.2029 84.1583 22.2029 84.3908V84.9869ZM22.2029 86.9055H27.8149V85.9029H22.2029V86.9055ZM23.0892 81.4252H26.9278C26.1133 80.805 25.4595 80.2089 24.9655 79.637C24.4803 80.2284 23.8553 80.8244 23.0892 81.4252ZM26.8841 89.0426C27.5622 88.6938 28.2114 88.3208 28.8323 87.9236H25.7356C26.026 88.3403 26.409 88.7133 26.8841 89.0426Z" fill="#B91D22"/>
<path d="M37.9907 91.2231C37.7098 91.2231 37.482 91.1357 37.3073 90.9616C37.1333 90.7869 37.0459 90.5598 37.0459 90.2782V80.0582C37.0459 79.7772 37.1333 79.5494 37.3073 79.3754C37.482 79.2006 37.7098 79.1133 37.9907 79.1133H48.1093C48.3902 79.1133 48.618 79.2006 48.7921 79.3754C48.9668 79.5494 49.0542 79.7772 49.0542 80.0582V90.2782C49.0542 90.5598 48.9668 90.7869 48.7921 90.9616C48.618 91.1357 48.3902 91.2231 48.1093 91.2231H37.9907ZM38.6594 90.002H47.3822C47.6147 90.002 47.731 89.8857 47.731 89.6532V80.6838C47.731 80.4506 47.6147 80.3343 47.3822 80.3343H38.6594C38.4269 80.3343 38.3106 80.4506 38.3106 80.6838V89.6532C38.3106 89.8857 38.4269 90.002 38.6594 90.002ZM45.6524 89.4207C45.1383 89.2755 44.7022 88.873 44.344 88.2138C43.9173 88.6795 43.4905 89.0618 43.0645 89.3622C42.7735 89.5658 42.5168 89.5464 42.2937 89.3044C42.0323 88.994 42.0806 88.7178 42.4395 88.4758C42.6236 88.3495 42.8078 88.2091 42.9919 88.0538C42.4294 88.1513 41.6008 88.2964 40.5061 88.49C40.0209 88.5773 39.6627 88.6405 39.4302 88.6795C39.1197 88.7473 38.945 88.6062 38.9067 88.2574C38.8872 88.0733 38.8966 87.9429 38.9356 87.865C38.984 87.7682 39.0861 87.7104 39.2414 87.6909C39.3086 87.6808 39.4154 87.6667 39.5612 87.6472C40.6365 87.4826 41.4799 87.3516 42.0907 87.2548C42.381 87.2158 42.6089 87.2595 42.7735 87.3852C42.9382 87.5115 43.0255 87.705 43.0356 87.9671V88.0101C43.3649 87.7198 43.6505 87.4147 43.8931 87.0948C43.5927 86.0868 43.3602 84.7347 43.1955 83.0385H39.4739C39.1439 83.0385 38.9793 82.8692 38.9793 82.5298C38.9793 82.2005 39.1439 82.0352 39.4739 82.0352H43.1082C43.0887 81.6676 43.0692 81.3961 43.0497 81.2214C43.0302 80.8336 43.2096 80.6401 43.588 80.6401C43.9562 80.6401 44.1451 80.8195 44.1545 81.1777C44.174 81.5655 44.1888 81.8517 44.1982 82.0352H45.8849C46.1074 82.0352 46.1511 81.968 46.0153 81.8323C45.7445 81.5897 45.3856 81.3424 44.9401 81.0904C44.8527 81.0521 44.8426 80.9983 44.9105 80.9304L44.9401 80.9015C45.2499 80.5722 45.6276 80.5528 46.0738 80.8437C46.3157 80.9983 46.4615 81.173 46.5099 81.3666C46.5677 81.5803 46.4998 81.7839 46.3063 81.9774L46.2626 82.0352H46.641C46.9703 82.0352 47.1349 82.2005 47.1349 82.5298C47.1349 82.8692 46.9703 83.0385 46.641 83.0385H44.2855C44.3924 84.1144 44.5328 85.064 44.7069 85.8879C45.0174 85.3355 45.2647 84.7394 45.4488 84.0997C45.5456 83.7415 45.7633 83.601 46.1027 83.6783C46.4709 83.7563 46.602 83.9888 46.4951 84.3758C46.1752 85.394 45.7196 86.3482 45.1289 87.24C45.3708 87.8993 45.6813 88.2628 46.059 88.33C46.1369 88.3596 46.2142 88.2433 46.2915 87.9812C46.3305 87.6909 46.4084 87.4772 46.5247 87.3415C46.6598 87.1768 46.8197 87.1674 47.0038 87.3126C47.0912 87.3805 47.1497 87.5209 47.1786 87.7339C47.1981 87.9087 47.1933 88.0787 47.1638 88.2433C46.9118 89.3185 46.4084 89.711 45.6524 89.4207ZM40.1714 86.6002C39.9483 86.6002 39.7689 86.5324 39.6338 86.3966C39.4981 86.2609 39.4302 86.0821 39.4302 85.859V84.7542C39.4302 84.4733 39.5176 84.2455 39.6916 84.0708C39.8663 83.896 40.0935 83.8093 40.3751 83.8093H41.6546C41.9355 83.8093 42.1633 83.896 42.3373 84.0708C42.5121 84.2455 42.5994 84.4733 42.5994 84.7542V85.6554C42.5994 85.9363 42.5121 86.1641 42.3373 86.3388C42.1633 86.5129 41.9355 86.6002 41.6546 86.6002H40.1714ZM40.6661 85.8301H41.3784C41.5719 85.8301 41.6687 85.7333 41.6687 85.5391V84.9283C41.6687 84.6957 41.5524 84.5795 41.3199 84.5795H40.6661C40.4329 84.5795 40.3166 84.6957 40.3166 84.9283V85.4807C40.3166 85.7132 40.4329 85.8301 40.6661 85.8301Z" fill="#B91D22"/>
<path d="M55.6101 91.8197C55.2223 91.8197 55.0288 91.6262 55.0288 91.2384V80.0298C55.0288 79.7489 55.1162 79.5211 55.2909 79.3464C55.465 79.1723 55.6928 79.085 55.9737 79.085H57.6745C57.9944 79.085 58.2296 79.1844 58.3795 79.3827C58.53 79.5816 58.571 79.8605 58.5031 80.2187C58.4165 80.6454 58.2706 81.222 58.067 81.9491C58.0475 82.0264 58.0334 82.0848 58.0233 82.1231C58.8956 81.3288 59.5596 80.2912 60.0152 79.0124C60.122 78.6831 60.3398 78.552 60.6697 78.6199C61.0474 78.7073 61.1731 78.925 61.0474 79.2738C60.999 79.4196 60.9506 79.5406 60.9022 79.6373H62.1522L62.298 79.6085C62.3364 79.599 62.3753 79.599 62.4143 79.6085L62.8934 79.7973C62.884 79.759 62.8692 79.7025 62.8504 79.6299C62.8303 79.5574 62.8162 79.5063 62.8068 79.4774C62.7389 79.138 62.8766 78.9324 63.2207 78.8598C63.5648 78.7872 63.7852 78.9351 63.882 79.3027C64.1824 80.4854 64.5997 81.5177 65.1326 82.3993C65.5103 81.8469 65.8207 81.232 66.0627 80.5533H64.9142C64.5849 80.5533 64.4202 80.384 64.4202 80.0446C64.4202 79.7153 64.5849 79.55 64.9142 79.55H66.4551C66.7851 79.55 67.0176 79.6541 67.1534 79.8625C67.2891 80.0715 67.2938 80.3645 67.1675 80.7421C66.7703 81.7697 66.31 82.6272 65.7865 83.3153C66.1843 83.7904 66.6346 84.1976 67.1386 84.5363C67.3812 84.6721 67.5236 84.8126 67.5673 84.9584C67.611 85.1035 67.5552 85.2783 67.4007 85.4812C67.1675 85.7823 66.8671 85.8206 66.4988 85.5975C66.0922 85.3266 65.7092 85.0068 65.3503 84.6385V85.0746C65.3503 85.3071 65.2341 85.4234 65.0016 85.4234H61.1785C61.0037 85.4234 60.8633 85.3703 60.7564 85.2635C60.6503 85.1566 60.5965 85.0162 60.5965 84.8421V84.7984C60.364 85.0404 60.1026 85.2783 59.8116 85.5108C59.5885 85.666 59.3539 85.7211 59.1066 85.6774C58.8593 85.6344 58.649 85.496 58.4743 85.2635C58.4548 85.244 58.4306 85.2245 58.4017 85.205L58.358 85.1613C58.4937 85.627 58.5616 86.1405 58.5616 86.7029C58.5616 87.6041 58.3869 88.1955 58.0381 88.4764C57.8735 88.6316 57.6503 88.723 57.3694 88.7526C57.3305 88.762 57.2727 88.7667 57.1947 88.7667C56.807 88.7862 56.5745 88.5974 56.4972 88.2002C56.4582 88.0356 56.473 87.9045 56.5408 87.8077C56.6087 87.711 56.725 87.6673 56.8896 87.6767H56.9185C57.0644 87.6767 57.1705 87.633 57.2384 87.5457C57.3842 87.4099 57.4568 87.0853 57.4568 86.5719C57.4568 85.7285 57.2774 84.953 56.9185 84.246C56.686 83.8388 56.6181 83.4705 56.7156 83.1412C56.8218 82.734 56.9716 82.0848 57.1658 81.1931C57.2243 80.931 57.268 80.7421 57.2969 80.6259C57.3453 80.4128 57.2485 80.306 57.0059 80.306H56.5408C56.3083 80.306 56.1921 80.4223 56.1921 80.6548V91.2384C56.1921 91.6262 55.9979 91.8197 55.6101 91.8197ZM58.3432 85.1183C58.6732 84.9342 58.983 84.7205 59.274 84.4786C59.5354 84.2655 59.8163 83.9839 60.1174 83.6352C59.8264 83.3348 59.4534 83.0196 58.9978 82.6903C58.9783 82.7098 58.944 82.7461 58.8956 82.7992C58.8472 82.8529 58.8089 82.8939 58.7794 82.9228C58.6631 83.0297 58.5616 83.0391 58.4743 82.9517C58.3486 82.8355 58.1638 82.6856 57.9219 82.5015C57.8056 82.9081 57.7041 83.2521 57.6168 83.5337C57.9266 84.0082 58.1691 84.5364 58.3432 85.1183ZM58.7794 91.0495C58.5764 90.9138 58.4715 90.7754 58.4668 90.6349C58.4621 90.4945 58.5468 90.3372 58.7215 90.1625C59.0992 89.7069 59.4191 89.2277 59.6812 88.723C59.8458 88.3843 60.1026 88.2681 60.4513 88.3743C60.868 88.4905 60.9842 88.7432 60.8001 89.1303C60.6449 89.4408 60.4608 89.7552 60.2477 90.0751C60.0058 90.434 59.7874 90.7243 59.5938 90.9474C59.3418 91.2095 59.0703 91.2431 58.7794 91.0495ZM61.8619 91.8056C61.3962 91.8056 61.1059 91.6503 60.9896 91.3399C60.8149 90.8748 61.0669 90.6524 61.745 90.6712H62.1381C62.2349 90.6712 62.298 90.6571 62.3269 90.6275C62.3558 90.5986 62.3706 90.5455 62.3706 90.4676V87.633H59.8552C59.487 87.633 59.3029 87.4442 59.3029 87.0658C59.3029 86.6976 59.487 86.5134 59.8552 86.5134H66.1937C66.562 86.5134 66.7461 86.6976 66.7461 87.0658C66.7461 87.4442 66.562 87.633 66.1937 87.633H63.6354V90.4824C63.6354 90.8023 63.6011 91.0442 63.5332 91.2095C63.4559 91.3835 63.3101 91.5193 63.0971 91.6161C62.8357 91.7229 62.4237 91.7861 61.8619 91.8056ZM60.5965 82.9954C60.7423 82.8019 60.8727 82.5983 60.9896 82.3852C60.6986 82.1231 60.3303 81.8523 59.8841 81.5707C59.7974 81.6971 59.6664 81.8758 59.4917 82.109C59.618 82.1863 59.7975 82.3174 60.03 82.5015C60.0589 82.521 60.0784 82.5351 60.0878 82.5452C60.3203 82.7293 60.4903 82.8792 60.5965 82.9954ZM61.3673 81.6292C61.5124 81.3288 61.6482 80.97 61.7746 80.5533H60.4802C60.4607 80.5923 60.4318 80.6528 60.3935 80.7348C60.3545 80.8174 60.3203 80.8826 60.2914 80.931C60.5145 81.0573 60.7033 81.1689 60.8586 81.2656C61.0131 81.3624 61.1831 81.4834 61.3673 81.6292ZM61.0037 84.3475H65.0889C64.1777 83.2817 63.4848 81.9054 63.0104 80.2187C62.6226 81.8181 61.9533 83.1943 61.0037 84.3475ZM66.1212 90.7875C66.0338 90.6329 65.8738 90.3809 65.6413 90.0314C65.4088 89.6827 65.2099 89.4065 65.0452 89.2029C64.7643 88.8736 64.8174 88.6021 65.2052 88.389C65.4962 88.2338 65.7482 88.2775 65.9612 88.5201C66.5035 89.1887 66.9302 89.7747 67.2407 90.2787C67.3274 90.4441 67.3469 90.5838 67.2985 90.7008C67.2501 90.7975 67.1339 90.8943 66.9498 90.9911C66.562 91.1947 66.2858 91.1268 66.1212 90.7875Z" fill="#B91D22"/>
<path d="M0.720703 96.812H1.71059L2.61445 98.5552L3.51427 96.812H4.49208L3.07411 99.5592V101.657H2.14538V99.5592L0.720703 96.812Z" fill="#EFB947"/>
<path d="M5.55054 98.0737H6.45977V99.8002C6.45977 100.136 6.48261 100.369 6.52898 100.5C6.57535 100.631 6.64928 100.732 6.7521 100.805C6.85424 100.877 6.97993 100.913 7.13046 100.913C7.27965 100.913 7.40732 100.877 7.51148 100.806C7.61564 100.735 7.69359 100.63 7.74467 100.492C7.78163 100.388 7.80045 100.168 7.80045 99.8297V98.0737H8.69961V99.5925C8.69961 100.218 8.65055 100.646 8.55109 100.877C8.4308 101.158 8.25272 101.374 8.01752 101.525C7.78298 101.675 7.48394 101.75 7.12172 101.75C6.72859 101.75 6.41073 101.662 6.16813 101.486C5.92553 101.311 5.75484 101.066 5.65605 100.752C5.58616 100.535 5.55054 100.14 5.55054 99.5663V98.0737Z" fill="#EFB947"/>
<path d="M12.2012 98.5742L11.6441 99.1313C11.4176 98.9068 11.2126 98.7953 11.0278 98.7953C10.927 98.7953 10.8477 98.8161 10.7913 98.8591C10.7335 98.9021 10.7053 98.9552 10.7053 99.019C10.7053 99.0674 10.7234 99.1118 10.7597 99.1521C10.796 99.1931 10.8854 99.2482 11.0278 99.3188L11.3571 99.4834C11.7046 99.6548 11.9431 99.8295 12.0722 100.007C12.2019 100.185 12.267 100.394 12.267 100.633C12.267 100.952 12.1501 101.217 11.9162 101.43C11.6824 101.643 11.3685 101.75 10.9754 101.75C10.4526 101.75 10.0359 101.546 9.72412 101.137L10.2772 100.534C10.3827 100.657 10.5063 100.757 10.6475 100.832C10.7892 100.908 10.9149 100.946 11.0251 100.946C11.1434 100.946 11.2388 100.917 11.3114 100.86C11.384 100.803 11.4203 100.737 11.4203 100.663C11.4203 100.524 11.2899 100.389 11.0278 100.258L10.7254 100.106C10.1455 99.814 9.85582 99.4485 9.85582 99.009C9.85582 98.726 9.96469 98.4834 10.1831 98.2825C10.4015 98.0816 10.6811 97.9814 11.0211 97.9814C11.2543 97.9814 11.4734 98.0325 11.6783 98.1347C11.884 98.2368 12.058 98.3833 12.2012 98.5742Z" fill="#EFB947"/>
<path d="M13.3828 96.6895H14.2753V98.4354C14.4513 98.2842 14.6281 98.1706 14.8062 98.0947C14.9836 98.0187 15.1637 97.9811 15.3465 97.9811C15.702 97.9811 16.0024 98.1041 16.2456 98.35C16.4539 98.563 16.5588 98.8762 16.5588 99.2888V101.657H15.6724V100.086C15.6724 99.6705 15.6529 99.3896 15.6132 99.2424C15.5736 99.0953 15.5064 98.9858 15.411 98.9132C15.3156 98.8406 15.1973 98.8043 15.0561 98.8043C14.874 98.8043 14.7174 98.8648 14.5871 98.9858C14.4567 99.1067 14.3653 99.2714 14.3156 99.4797C14.2887 99.5872 14.2753 99.8332 14.2753 100.218V101.657H13.3828V96.6895Z" fill="#EFB947"/>
<path d="M18.1835 96.5977C18.3414 96.5977 18.4765 96.6548 18.5894 96.769C18.7023 96.8833 18.7588 97.0217 18.7588 97.1843C18.7588 97.3443 18.703 97.4814 18.5908 97.5943C18.4792 97.7072 18.3461 97.7636 18.1902 97.7636C18.0303 97.7636 17.8946 97.7065 17.7817 97.5909C17.6688 97.4753 17.6123 97.3355 17.6123 97.1709C17.6123 97.013 17.6681 96.8779 17.7803 96.7657C17.8919 96.6534 18.0263 96.5977 18.1835 96.5977ZM17.7346 98.0734H18.6338V101.657H17.7346V98.0734Z" fill="#EFB947"/>
<path d="M22.1809 96.812H23.0962V101.657H22.1809V96.812Z" fill="#EFB947"/>
<path d="M24.4399 98.0735H25.3391V98.4411C25.5427 98.2691 25.7275 98.1494 25.8928 98.0822C26.0582 98.015 26.2282 97.9814 26.4009 97.9814C26.7571 97.9814 27.0581 98.1051 27.3054 98.3537C27.5138 98.5641 27.6186 98.8766 27.6186 99.2892V101.657H26.7288V100.088C26.7288 99.6601 26.71 99.3766 26.671 99.2361C26.6334 99.0957 26.5662 98.9888 26.4708 98.9149C26.3753 98.8416 26.2584 98.8047 26.1173 98.8047C25.9358 98.8047 25.7799 98.8658 25.6496 98.9874C25.5192 99.1091 25.4291 99.2778 25.3781 99.4928C25.3519 99.6044 25.3391 99.847 25.3391 100.22V101.657H24.4399V98.0735Z" fill="#EFB947"/>
<path d="M29.002 96.7524H29.9012V98.0736H30.4348V98.8478H29.9012V101.657H29.002V98.8478H28.541V98.0736H29.002V96.7524Z" fill="#EFB947"/>
<path d="M34.9116 100.126H32.0219C32.0636 100.381 32.1752 100.583 32.3566 100.733C32.5381 100.884 32.7692 100.959 33.0501 100.959C33.3861 100.959 33.6751 100.842 33.9164 100.607L34.6737 100.963C34.4856 101.231 34.2591 101.429 33.995 101.557C33.7316 101.686 33.4191 101.75 33.0568 101.75C32.4944 101.75 32.0367 101.573 31.6832 101.218C31.3298 100.863 31.1523 100.419 31.1523 99.8853C31.1523 99.3382 31.3284 98.8846 31.6812 98.5231C32.034 98.1622 32.4762 97.9814 33.0071 97.9814C33.5716 97.9814 34.0306 98.1622 34.3841 98.5231C34.7376 98.8846 34.9143 99.3618 34.9143 99.9545L34.9116 100.126ZM34.0118 99.4175C33.9526 99.218 33.835 99.0553 33.6603 98.9303C33.4856 98.8047 33.2826 98.7422 33.0515 98.7422C32.8008 98.7422 32.5811 98.8127 32.3916 98.9532C32.2733 99.0412 32.1631 99.1958 32.0623 99.4175H34.0118Z" fill="#EFB947"/>
<path d="M35.833 98.0735H36.6038V98.5251C36.6871 98.347 36.798 98.2119 36.9365 98.1199C37.0749 98.0271 37.2261 97.9814 37.3908 97.9814C37.507 97.9814 37.6293 98.0123 37.7563 98.0735L37.4768 98.8477C37.3713 98.7953 37.2846 98.7684 37.216 98.7684C37.0783 98.7684 36.9613 98.8544 36.8652 99.0258C36.7698 99.1971 36.7221 99.5331 36.7221 100.034L36.7254 100.208V101.657H35.833V98.0735Z" fill="#EFB947"/>
<path d="M38.6055 98.0735H39.5053V98.4411C39.7089 98.2691 39.8937 98.1494 40.0591 98.0822C40.225 98.015 40.3944 97.9814 40.5678 97.9814C40.9226 97.9814 41.2243 98.1051 41.4723 98.3537C41.6806 98.5641 41.7848 98.8766 41.7848 99.2892V101.657H40.895V100.088C40.895 99.6601 40.8762 99.3766 40.8379 99.2361C40.7996 99.0957 40.7324 98.9888 40.637 98.9149C40.5416 98.8416 40.424 98.8047 40.2842 98.8047C40.1021 98.8047 39.9461 98.8658 39.8158 98.9874C39.6854 99.1091 39.5947 99.2778 39.5443 99.4928C39.5181 99.6044 39.5053 99.847 39.5053 100.22V101.657H38.6055V98.0735Z" fill="#EFB947"/>
<path d="M45.7049 98.0735H46.6041V101.657H45.7049V101.279C45.5289 101.446 45.3528 101.566 45.1767 101.639C45 101.713 44.8085 101.75 44.6021 101.75C44.1398 101.75 43.7393 101.57 43.4013 101.211C43.0639 100.852 42.8945 100.406 42.8945 99.8718C42.8945 99.3188 43.0585 98.8652 43.3851 98.5117C43.7117 98.1582 44.1089 97.9814 44.5759 97.9814C44.791 97.9814 44.9926 98.0218 45.1814 98.1031C45.3703 98.1844 45.5443 98.306 45.7049 98.4687V98.0735ZM44.7594 98.8114C44.4812 98.8114 44.2507 98.9095 44.0665 99.1064C43.8824 99.3026 43.791 99.5546 43.791 99.8624C43.791 100.172 43.8844 100.427 44.0712 100.627C44.2587 100.826 44.4892 100.926 44.7628 100.926C45.045 100.926 45.2789 100.828 45.465 100.631C45.6512 100.435 45.7439 100.178 45.7439 99.8591C45.7439 99.5472 45.6512 99.2946 45.465 99.101C45.2789 98.9082 45.0437 98.8114 44.7594 98.8114Z" fill="#EFB947"/>
<path d="M48.0264 96.7524H48.9256V98.0736H49.4592V98.8478H48.9256V101.657H48.0264V98.8478H47.5654V98.0736H48.0264V96.7524Z" fill="#EFB947"/>
<path d="M50.6957 96.5977C50.8537 96.5977 50.9887 96.6548 51.1016 96.769C51.2145 96.8833 51.271 97.0217 51.271 97.1843C51.271 97.3443 51.2152 97.4814 51.1036 97.5943C50.9914 97.7072 50.8584 97.7636 50.7025 97.7636C50.5425 97.7636 50.4068 97.7065 50.2939 97.5909C50.181 97.4753 50.1245 97.3355 50.1245 97.1709C50.1245 97.013 50.1803 96.8779 50.2918 96.7657C50.4034 96.6534 50.5385 96.5977 50.6957 96.5977ZM50.2462 98.0734H51.146V101.657H50.2462V98.0734Z" fill="#EFB947"/>
<path d="M54.0503 97.9814C54.3884 97.9814 54.7069 98.0661 55.0039 98.2348C55.3016 98.4041 55.5341 98.6333 55.7008 98.9236C55.8675 99.2133 55.9515 99.5264 55.9515 99.8624C55.9515 100.2 55.8675 100.517 55.6995 100.811C55.5315 101.105 55.3023 101.335 55.0127 101.501C54.7224 101.667 54.4032 101.75 54.0537 101.75C53.5396 101.75 53.1014 101.567 52.7379 101.201C52.3743 100.836 52.1929 100.391 52.1929 99.8691C52.1929 99.3087 52.3978 98.8423 52.8084 98.4687C53.1687 98.1441 53.5826 97.9814 54.0503 97.9814ZM54.0651 98.8282C53.7862 98.8282 53.553 98.925 53.3676 99.1192C53.1814 99.3141 53.0887 99.5627 53.0887 99.8658C53.0887 100.178 53.1807 100.43 53.3642 100.623C53.5477 100.817 53.7802 100.913 54.0618 100.913C54.3433 100.913 54.5779 100.815 54.7647 100.62C54.9515 100.424 55.0456 100.173 55.0456 99.8658C55.0456 99.558 54.9535 99.308 54.7701 99.1158C54.5859 98.9243 54.3514 98.8282 54.0651 98.8282Z" fill="#EFB947"/>
<path d="M57.0898 98.0735H57.9897V98.4411C58.1933 98.2691 58.3781 98.1494 58.5434 98.0822C58.7094 98.015 58.8788 97.9814 59.0521 97.9814C59.407 97.9814 59.7087 98.1051 59.9567 98.3537C60.165 98.5641 60.2691 98.8766 60.2691 99.2892V101.657H59.3794V100.088C59.3794 99.6601 59.3606 99.3766 59.3223 99.2361C59.284 99.0957 59.2168 98.9888 59.1214 98.9149C59.0259 98.8416 58.9083 98.8047 58.7686 98.8047C58.5864 98.8047 58.4305 98.8658 58.3002 98.9874C58.1698 99.1091 58.0791 99.2778 58.0287 99.4928C58.0025 99.6044 57.9897 99.847 57.9897 100.22V101.657H57.0898V98.0735Z" fill="#EFB947"/>
<path d="M64.1893 98.0735H65.0884V101.657H64.1893V101.279C64.0132 101.446 63.8372 101.566 63.6611 101.639C63.4843 101.713 63.2928 101.75 63.0865 101.75C62.6242 101.75 62.2236 101.57 61.8856 101.211C61.5483 100.852 61.3789 100.406 61.3789 99.8718C61.3789 99.3188 61.5428 98.8652 61.8694 98.5117C62.196 98.1582 62.5932 97.9814 63.0603 97.9814C63.2753 97.9814 63.4769 98.0218 63.6658 98.1031C63.8546 98.1844 64.0286 98.306 64.1893 98.4687V98.0735ZM63.2437 98.8114C62.9655 98.8114 62.735 98.9095 62.5509 99.1064C62.3667 99.3026 62.2753 99.5546 62.2753 99.8624C62.2753 100.172 62.3688 100.427 62.5556 100.627C62.7431 100.826 62.9736 100.926 63.2471 100.926C63.5293 100.926 63.7632 100.828 63.9493 100.631C64.1355 100.435 64.2283 100.178 64.2283 99.8591C64.2283 99.5472 64.1355 99.2946 63.9493 99.101C63.7632 98.9082 63.528 98.8114 63.2437 98.8114Z" fill="#EFB947"/>
<path d="M66.3035 96.6895H67.2033V101.657H66.3035V96.6895Z" fill="#EFB947"/>
</svg>
